<?xml version="1.0" encoding="utf-8"?>
<!-- Generator: Adobe Illustrator 27.9.4, SVG Export Plug-In . SVG Version: 9.03 Build 54784)  -->
<svg version="1.1" id="Calque_1" xmlns="http://www.w3.org/2000/svg" xmlns:xlink="http://www.w3.org/1999/xlink" x="0px" y="0px"
	 viewBox="0 0 1222 38.6" style="enable-background:new 0 0 1222 38.6;" xml:space="preserve">
<style type="text/css">
	.st0{fill:#1D1D1B;}
</style>
<path class="st0" d="M1222,28.9c-0.8-0.5-1.6-0.9-2.4-1.4c-5.1-3.1-9.9-6.7-15.3-9.2c-9.4-4.4-18.4-4.4-28.1-1
	c-10.4,3.7-20.6,9.3-31.6,4.2c-7.9-3.6-14-10.1-21-15.1c-6-4.2-12.9-7.3-20.4-6.2c-5.5,0.8-10.3,3.9-15.5,5.5
	c-5.2,1.7-10.7,2.3-16.1,2.4c-17.1,0.6-38.1-4.2-52.7,7.4c-3.1,2.4-5.3,5.4-7.5,8.5c-5,6.7-10.4,8.8-18.6,9.4
	c-11.8,0.8-23.7-0.9-35.3-3.4c-22.6-4.9-44.2-13.5-67.1-17.3c-10.6-1.7-21.3-2.4-31.9-1.1c-11.9,1.5-22.6,6.9-34.3,9
	c-13.3,2.4-22.6-4.2-33.2-10.9c-8.8-5.6-17.4-8.6-27.9-7.3c-24.1,3.1-48.3,12-70.3,21.9c-5.9,2.7-11.9,5.6-18.3,6.8
	c-7.7,1.4-14.1-0.9-20.3-5.2c-8.1-5.7-15-11-25.4-9.7c-5.5,0.7-10.7,2.7-16.3,2.9c-6.8,0.4-12.8-2.3-19.5-3.1
	c-10.5-1.2-17.5,4.8-25.7,10.3c-13.2,9-25.7,3.4-38.9-2.5c-11.3-5.1-22.9-9.5-34.7-13.2C482,7.2,470,3.7,457.9,2.3
	c-10.5-1.2-19,2.3-27.6,7.9c-10.8,6.9-20.1,12.9-33.5,10.2c-11.6-2.3-22.3-7.5-34.2-8.9C316.3,6,274.4,36.9,228.3,33.4
	c-7.4-0.6-12.6-2.5-17.1-8.6c-2.6-3.6-5.1-7-8.7-9.7c-6.8-5-15.2-6.6-23.5-7.1c-9.6-0.5-19.1,0.5-28.7,0.2
	C145.2,8,140.1,7.5,135.1,6c-5.5-1.7-10.5-4.9-16.3-5.8c-17.1-2.5-27.6,14.9-41.4,21.3c-11,5.1-21.2-0.5-31.6-4.2
	c-9.7-3.5-18.7-3.5-28.1,1C12.6,20.7,8.1,24,3.2,27c-1.1,0.7-2.2,1.3-3.2,1.9v5.7c1.7-0.9,3.3-1.9,5-2.8c5.1-3.1,9.9-6.7,15.3-9.2
	C33,16.7,43.2,22,55.2,26.2c8.1,2.9,16.1,3.6,24.1-0.1C87,22.6,93,16.6,99.8,11.7c3.5-2.5,7.2-5,11.4-6.1c6.4-1.7,11.8,1,17.7,3.4
	c8.6,3.5,17.6,4.3,26.8,4.2c9.6,0,19.3-1,28.8,0.2c4.8,0.6,9.6,1.9,13.7,4.6c4.6,3,7.2,7.4,10.6,11.6c6.2,7.7,15.3,8.8,24.6,8.9
	c11,0.2,21.9-1.4,32.6-3.7c22.2-4.9,43.6-13.3,66.1-17.1c11.5-2,23.3-2.6,34.8-0.5c11.8,2.2,22.8,8.1,34.8,9
	c10.4,0.8,19-3.6,27.5-9.2c10.6-6.9,19.4-11.4,32.4-9.1c25.3,4.4,48.6,13.9,72,23.8c9.9,4.2,20.6,7.2,30.8,2.2c4.3-2.1,8-5.3,12-8
	c6.6-4.5,12.5-5.9,20.3-4.1c5.3,1.2,10.2,2.5,15.7,2.3c5.7-0.2,11-2.2,16.6-2.9c12.4-1.6,19.2,8.5,29.5,13.1c10,4.5,20.4,1.5,30-2.6
	c11.9-5.1,23.6-10.3,35.8-14.4c12.1-4,24.6-7.6,37.2-9.6c12.9-2.1,21.8,3.1,32.1,9.8c8.2,5.3,16.7,9.5,26.7,8.7
	c12-0.9,23-6.8,34.8-9c45.7-8.2,88,22.3,133.5,21.4c9.6-0.2,18.6-1.3,24.8-9.2c3.3-4.1,5.8-8.4,10.4-11.4c4.4-2.9,9.7-4.2,14.9-4.7
	c18.2-2,36.9,2.9,54.3-4.3c5.6-2.3,10.8-4.9,17-3.6c4.5,1,8.4,3.6,12.1,6.3c6.9,5.1,13.2,11.4,21.1,14.8c8.1,3.5,16.2,2.4,24.3-0.6
	c12.2-4.5,22.3-9.1,34.9-2.9c4.8,2.3,9.1,5.5,13.6,8.3c1.9,1.2,3.8,2.2,5.8,3.3V28.9z"/>
</svg>
