<?xml version="1.0" encoding="utf-8"?>
<!-- Generator: Adobe Illustrator 27.9.4, SVG Export Plug-In . SVG Version: 9.03 Build 54784)  -->
<svg version="1.1" xmlns="http://www.w3.org/2000/svg" xmlns:xlink="http://www.w3.org/1999/xlink" x="0px" y="0px"
	 viewBox="0 0 1222 146.7" style="enable-background:new 0 0 1222 146.7;" xml:space="preserve">
<style type="text/css">
	.st0{fill:#1D1D1B;}
	.st1{fill:#FFFFFF;}
</style>
<g id="Calque_2">
</g>
<g id="Calque_1">
	<path class="st0" d="M1222,20.4c-1.3-0.8-2.7-1.5-4.1-2.1c-9.6-4.4-18.8-4.4-28.7-1c-10.6,3.7-21.1,9.3-32.3,4.2
		c-8.1-3.6-14.3-10.1-21.5-15.1c-6.1-4.2-13.2-7.3-20.9-6.2c-5.6,0.8-10.5,3.9-15.9,5.5c-5.3,1.7-10.9,2.3-16.5,2.4
		c-17.5,0.6-39-4.2-53.9,7.4c-3.2,2.4-5.4,5.4-7.7,8.5c-5.1,6.7-10.6,8.8-19,9.4c-12.1,0.8-24.2-0.9-36.1-3.4
		c-23.1-4.9-45.2-13.5-68.6-17.3C886,11,875,10.3,864.2,11.6c-12.2,1.5-23.1,6.9-35.1,9c-13.6,2.4-23.1-4.2-34-10.9
		c-9-5.6-17.8-8.6-28.5-7.3c-24.7,3.1-49.4,12-71.9,21.9c-6,2.7-12.2,5.6-18.7,6.8c-7.9,1.4-14.4-0.9-20.8-5.2
		c-8.3-5.7-15.3-11-26-9.7c-5.6,0.7-10.9,2.7-16.7,2.9c-7,0.4-13.1-2.3-19.9-3.1c-10.7-1.2-17.9,4.8-26.3,10.3
		c-13.5,9-26.3,3.4-39.8-2.5c-11.6-5.1-23.4-9.5-35.5-13.2c-12-3.4-24.2-6.9-36.6-8.3c-10.7-1.2-19.4,2.3-28.2,7.9
		c-11,6.9-20.6,12.9-34.3,10.2c-11.9-2.3-22.8-7.5-35-8.9C309.5,6,266.7,36.9,219.5,33.4c-7.6-0.6-12.9-2.5-17.5-8.6
		c-2.7-3.6-5.2-7-8.9-9.7c-7-5-15.5-6.6-24-7.1c-9.8-0.5-19.5,0.5-29.4,0.2C134.5,8,129.3,7.5,124.2,6c-5.6-1.7-10.7-4.9-16.7-5.8
		C90-2.3,79.3,15.1,65.2,21.5c-11.3,5.1-21.7-0.5-32.3-4.2c-9.9-3.5-19.1-3.5-28.7,1C2.7,19,1.3,19.7,0,20.5v5.8
		c2.2-1.3,4.4-2.6,6.8-3.7c13-5.9,23.4-0.6,35.7,3.6c8.3,2.9,16.5,3.6,24.7-0.1c7.9-3.5,14-9.5,21-14.4c3.6-2.5,7.4-5,11.7-6.1
		c6.5-1.7,12.1,1,18.1,3.4c8.8,3.5,18,4.3,27.4,4.2c9.8,0,19.7-1,29.5,0.2c4.9,0.6,9.8,1.9,14,4.6c4.7,3,7.4,7.4,10.8,11.6
		c6.3,7.7,15.7,8.8,25.2,8.9c11.3,0.2,22.4-1.4,33.3-3.7c22.7-4.9,44.6-13.3,67.6-17.1c11.8-2,23.8-2.6,35.6-0.5
		c12.1,2.2,23.3,8.1,35.6,9c10.6,0.8,19.4-3.6,28.1-9.2c10.8-6.9,19.8-11.4,33.1-9.1c25.9,4.4,49.7,13.9,73.6,23.8
		c10.1,4.2,21.1,7.2,31.5,2.2c4.4-2.1,8.2-5.3,12.3-8c6.8-4.5,12.8-5.9,20.8-4.1c5.4,1.2,10.4,2.5,16.1,2.3c5.8-0.2,11.3-2.2,17-2.9
		c12.7-1.6,19.6,8.5,30.2,13.1c10.2,4.5,20.9,1.5,30.7-2.6c12.2-5.1,24.1-10.3,36.6-14.4c12.4-4,25.2-7.6,38.1-9.6
		c13.2-2.1,22.3,3.1,32.8,9.8c8.4,5.3,17.1,9.5,27.3,8.7c12.3-0.9,23.5-6.8,35.6-9c46.7-8.2,90,22.3,136.6,21.4
		c9.8-0.2,19-1.3,25.4-9.2c3.4-4.1,5.9-8.4,10.6-11.4c4.5-2.9,9.9-4.2,15.2-4.7c18.6-2,37.7,2.9,55.5-4.3c5.7-2.3,11-4.9,17.4-3.6
		c4.6,1,8.6,3.6,12.4,6.3c7.1,5.1,13.5,11.4,21.6,14.8c8.3,3.5,16.6,2.4,24.9-0.6c12.5-4.5,22.8-9.1,35.7-2.9c2.1,1,4.1,2.1,6,3.3
		V20.4z"/>
	<path class="st1" d="M1222,26.4c-2-1.2-4-2.4-6-3.3c-12.9-6.2-23.2-1.6-35.7,2.9c-8.3,3-16.6,4.1-24.9,0.6
		c-8.1-3.4-14.5-9.7-21.6-14.8c-3.8-2.7-7.8-5.3-12.4-6.3c-6.3-1.3-11.7,1.3-17.4,3.6c-17.8,7.2-36.9,2.3-55.5,4.3
		c-5.3,0.5-10.7,1.8-15.2,4.7c-4.7,3-7.3,7.3-10.6,11.4c-6.3,7.9-15.5,9-25.4,9.2C950.7,39.5,907.4,9,860.7,17.2
		c-12.1,2.2-23.3,8.1-35.6,9c-10.2,0.8-18.9-3.4-27.3-8.7c-10.5-6.7-19.6-11.9-32.8-9.8c-12.9,2-25.7,5.6-38.1,9.6
		c-12.5,4.1-24.4,9.3-36.6,14.4c-9.8,4.1-20.5,7.1-30.7,2.6c-10.5-4.6-17.5-14.7-30.2-13.1c-5.7,0.7-11.1,2.7-17,2.9
		c-5.6,0.2-10.6-1.1-16.1-2.3c-8-1.8-14-0.4-20.8,4.1c-4.1,2.7-7.9,5.9-12.3,8c-10.4,5-21.4,2-31.5-2.2
		c-23.9-9.9-47.8-19.4-73.6-23.8c-13.3-2.3-22.3,2.2-33.1,9.1c-8.7,5.6-17.5,10-28.1,9.2c-12.3-0.9-23.5-6.8-35.6-9
		c-11.8-2.1-23.8-1.5-35.6,0.5c-23,3.8-44.9,12.2-67.6,17.1c-10.9,2.3-22.1,3.9-33.3,3.7c-9.5-0.1-18.8-1.2-25.2-8.9
		c-3.5-4.2-6.1-8.6-10.8-11.6c-4.2-2.7-9.1-4-14-4.6c-9.7-1.2-19.6-0.2-29.5-0.2c-9.4,0.1-18.6-0.7-27.4-4.2
		c-6-2.4-11.6-5.1-18.1-3.4c-4.3,1.1-8.1,3.6-11.7,6.1c-7,4.9-13.1,10.9-21,14.4c-8.2,3.7-16.4,3-24.7,0.1
		C30.2,22,19.8,16.7,6.8,22.6C4.4,23.7,2.2,25,0,26.3v120.4h1222V26.4z"/>
</g>
</svg>
