<?xml version="1.0" encoding="utf-8"?>
<!-- Generator: Adobe Illustrator 27.9.4, SVG Export Plug-In . SVG Version: 9.03 Build 54784)  -->
<svg version="1.1" id="Calque_1" xmlns="http://www.w3.org/2000/svg" xmlns:xlink="http://www.w3.org/1999/xlink" x="0px" y="0px"
	 viewBox="0 0 649 737.4" style="enable-background:new 0 0 649 737.4;" xml:space="preserve">
<path d="M265.9,229.6c-0.2-1.8-1.1-3.5-2.7-4.3c-1.5-0.8-3.2-0.6-4.6,0.2c-1.4,0.3-2.7,1.1-3.5,2.3c0,0,0,0,0,0c0,0,0,0,0,0
	c-1,1.2-1.5,2.7-1.2,4.3c0.1,0.5,0.3,0.9,0.5,1.3c0.2,0.4,0.4,0.8,0.7,1.1c0.8,0.8,2,1.1,3.1,1.2c0.6,0.1,1.2,0,1.8-0.1
	c1.1,0.1,2.2-0.3,3-0.9c0,0,0,0,0,0c0.3-0.1,0.5-0.3,0.8-0.5C265.4,233.2,266.2,231.4,265.9,229.6z M260.8,228.3c0.1,0,0.1,0,0.2,0
	h0c0.1,0,0.1,0.1,0.1,0.1c0,0.1-0.1,0.1-0.1,0.2C260.9,228.6,260.8,228.5,260.8,228.3z"/>
<path d="M377.8,224.8c-0.3,0.2-0.6,0.4-0.9,0.6c-1.2,1.3-3.1,1.7-4.9,1.3c-2.1-0.4-3.8-2.1-4.1-4.2c0-0.3-0.1-0.6-0.1-0.9
	c-0.3-1.8,0.7-3.7,2.2-4.8c1.2-0.9,2.6-1.1,3.9-0.8c0.4-0.1,0.9-0.1,1.3,0c0.4-0.1,0.8-0.1,1.1-0.1c0.4,0,0.7,0.2,0.8,0.6
	c0,0.1,0,0.1,0.1,0.2c0.2,0.1,0.4,0.3,0.5,0.4c0.1,0.1,0.2,0.3,0.3,0.5c0.3,0.3,0.5,0.7,0.7,1C379.8,220.6,379.8,223.3,377.8,224.8z
	"/>
</svg>
