<?xml version="1.0" encoding="utf-8"?>
<!-- Generator: Adobe Illustrator 27.9.4, SVG Export Plug-In . SVG Version: 9.03 Build 54784)  -->
<svg version="1.1" id="Calque_1" xmlns="http://www.w3.org/2000/svg" xmlns:xlink="http://www.w3.org/1999/xlink" x="0px" y="0px"
	 viewBox="0 0 561.3 522.2" style="enable-background:new 0 0 561.3 522.2;" xml:space="preserve">
<style type="text/css">
	.st0{fill:#FFFFFF;}
</style>
<g>
	<path d="M534.7,468.3c-5.6-13.1-11.1-26.4-15.4-40c-2.2-6.9-3.7-14-3.9-21.3c-0.1-7.5,0.6-15,1.4-22.4c1.4-14.9,3.5-29.7,6.1-44.4
		c1.3-7.4,2.8-14.7,4.3-22c1.4-6.7,2.9-13.6,2.2-20.5c-0.6-5.7-2.7-10.6-5.8-15c-0.1-0.3-0.3-0.6-0.6-0.8
		c-3.4-4.6-7.8-8.6-12.2-12.5c-4.5-3.8-8.9-7.7-13-12c-4.1-4.4-7.8-9-11.6-13.6c-7.5-9.2-15-18.5-24.6-25.6
		c-9.3-6.8-20.9-10-29.9-17.3c-2.1-1.7-3.9-3.6-5.5-5.7c0-0.8,0-1.5,0.1-2.3c0.7-15.6,4.3-30.9,4.5-46.5c0.1-8-0.4-15.9-1.6-23.8
		c-1.1-7.6-2.8-15.1-2.9-22.8c-0.2-9,0.9-18,1.8-26.9c0.8-9,1.6-17.9,2.4-26.9c0-0.4-0.1-0.7-0.2-1v-0.1
		c-0.4-13.8-0.8-27.5-1.2-41.3c0-1.4-1.2-2.1-2.5-1.9c-19.4,3.3-38.8,6.7-58.1,10c-18.8,3.2-37.6,6.5-56.6,8.1
		c-18.3,1.6-36.8,2-55.2,1.2c-18.4-0.8-36.7-2.8-54.9-5.9c-18.1-3.2-36.1-7.5-53.7-12.9c-2.2-0.7-4.5-1.4-6.7-2.1
		c-0.9-0.3-2.3,0.4-2.4,1.4c-4.2,25-2.1,50.3-1.2,75.4c0.9,25.6,1.1,51.3,0.7,76.9c-0.2,13.9-0.7,27.8-1.3,41.7
		c-21.7,13.1-37.9,33.1-56.3,50.1c-4.8,4.4-9.7,8.6-14.9,12.4c-4.9,3.6-10,6.9-14.6,10.8c-4.6,3.8-8.7,8.4-11.1,13.9
		c-2.9,6.5-3.1,13.6-2.5,20.5c0.7,7.4,1.9,14.8,3,22.1c1.1,7.6,2.3,15.1,3.8,22.6c1.5,7.5,3.4,14.9,5.5,22.2
		c2.1,7.5,3.4,15,3.2,22.9c-0.7,29.5-13.3,57.4-25.9,83.5c-3,6.2-5.8,12.4-9.1,18.5c-1.6,3-3.3,5.8-5.2,8.6c-2,2.7-4.4,5.1-6.5,7.8
		C4,514.8,2,518.5,0,522.2h4.4h130.2h4.4c1.6-3.1,3.5-6.1,5.6-8.9c2.8-3.8,6.4-7.4,10.1-10.6c3.9-3.5,8-6.9,11.5-10.9
		c3.3-3.7,6.1-7.7,8.5-12c4.9-8.7,8-18.4,10-28.2c2.2-11.1,3-22.5,3.6-33.8c0.1-1.1,0.1-2.1,0.2-3.2c6.8-1.7,13.8-3.1,20.7-4.2
		c14.1-2.3,28.4-3.6,42.5-5.6c7.3-1,14.5-2.4,21.7-3.6c3.7-0.6,7.5-1,11.3-0.7c3.7,0.3,7.3,1.4,10.9,2.4c7.3,2,14.9,3.1,22.4,4.4
		c7.7,1.3,15.4,2.7,23.1,4c11.7,2,23.4,4.1,35.2,5.6c1.1,9.6,2.9,19.1,5.3,28.4c2.6,9.8,5.8,19.4,9.8,28.6c3.7,8.5,8.3,16.7,15.2,23
		c3.4,3.1,7.2,5.8,10.8,8.8c1.8,1.5,3.5,3.1,5.1,4.8c1.5,1.6,2.6,3.1,3.8,4.9c1.4,2.2,2.6,4.4,3.7,6.8h4.3h122.7h4.5
		C551.5,504.7,542.6,486.7,534.7,468.3z M457.4,428.2C457.4,428.2,457.4,428.2,457.4,428.2C457.4,428.2,457.4,428.2,457.4,428.2
		C457.4,428.2,457.4,428.2,457.4,428.2z M458.9,418.3C458.9,418.3,458.9,418.3,458.9,418.3C458.9,418.3,458.9,418.3,458.9,418.3
		C458.9,418.4,458.9,418.3,458.9,418.3z M458.8,423C458.8,423,458.8,423,458.8,423C458.8,423,458.8,423,458.8,423L458.8,423z
		 M159.7,261.7C159.7,261.7,159.7,261.7,159.7,261.7C159.7,261.7,159.6,261.7,159.7,261.7C159.7,261.7,159.7,261.7,159.7,261.7z"/>
</g>
<g>
	<path d="M188.5,413.7c0,0.3,0,0.7-0.1,1c-0.1,1.1-0.1,2.1-0.2,3.2c-0.6,11.3-1.4,22.7-3.6,33.8c-1.9,9.8-5.1,19.4-10,28.2
		c-2.4,4.3-5.3,8.3-8.5,12c-3.5,3.9-7.6,7.3-11.5,10.9c-3.6,3.2-7.2,6.8-10.1,10.6c-2.1,2.8-4,5.8-5.6,8.9h-4.4
		c0.2-0.3,0.3-0.7,0.5-1c2.2-4.3,4.8-8.4,7.9-12.2c3.2-4,6.9-7.4,10.7-10.7c3.9-3.4,7.8-6.8,11.1-10.8c3-3.6,5.6-7.7,7.8-12
		c4.5-8.8,7.3-18.6,9-28.5c1.8-10.3,2.3-20.8,2.9-31.3c0-0.7,0.1-1.4,0.1-2.1c0.1-1.1,0.9-2,2-2
		C187.5,411.7,188.5,412.6,188.5,413.7z"/>
	<path d="M393.4,418.5c-0.2,0-0.3,0-0.5,0c-1.9-0.1-3.8-0.3-5.8-0.4c-2.3-0.2-4.6-0.4-6.9-0.7c-1.3-0.1-2.7-0.3-4-0.5
		c-11.8-1.5-23.5-3.6-35.2-5.6c-7.7-1.3-15.4-2.7-23.1-4c-7.5-1.3-15.1-2.3-22.4-4.4c-3.6-1-7.1-2.1-10.9-2.4
		c-3.8-0.3-7.5,0.1-11.3,0.7c-7.2,1.2-14.4,2.6-21.7,3.6c-14.2,2-28.4,3.4-42.5,5.6c-7,1.1-13.9,2.5-20.7,4.2
		c-1.3,0.3-2.7,0.7-4,1.1c-5.5,1.6-11,3.4-16.3,5.6c-0.4,0.1-0.7,0.1-1.1,0c-0.6-0.2-1.2-0.8-1.3-1.4c-0.3-1.1,0.4-2,1.4-2.4
		c0.8-0.3,1.7-0.7,2.5-1c0.8-0.3,1.6-0.6,2.4-0.9c13.4-5,27.4-7.7,41.5-9.8c14.2-2.1,28.5-3.4,42.7-5.6c7.4-1.1,14.8-3,22.2-3.6
		c3.9-0.3,7.7-0.1,11.5,0.7c3.6,0.8,7.1,2,10.7,2.8c7.5,1.7,15.2,2.8,22.8,4.1c7.7,1.3,15.4,2.7,23.1,4c15,2.6,29.9,5.2,45.1,6.2
		c0.4,0,0.7,0,1.1,0.1C395.2,414.7,395.4,418.1,393.4,418.5z"/>
	<path d="M434.1,522.2h-4.3c-1-2.3-2.2-4.6-3.7-6.8c-1.2-1.9-2.3-3.3-3.8-4.9c-1.6-1.7-3.3-3.3-5.1-4.8c-3.6-3-7.3-5.7-10.8-8.8
		c-6.9-6.3-11.5-14.5-15.2-23c-4-9.3-7.2-18.9-9.8-28.6c-2.4-9.3-4.2-18.8-5.3-28.4c-0.1-0.5-0.1-1-0.2-1.6c-0.1-1.1,1-1.9,2-2
		c1.1-0.1,1.9,0.9,2,2c0.1,0.7,0.2,1.4,0.2,2c0.1,0.5,0.1,1.1,0.2,1.6c1.2,9.8,3.3,19.7,6,29.3c1.4,4.9,2.9,9.7,4.7,14.4
		c1.6,4.5,3.3,8.7,5.3,12.9c2,4.1,4.2,8.2,6.9,11.9c1.2,1.7,2.7,3.4,4.3,5c1.6,1.6,3.4,3.1,5.1,4.6c3.6,2.9,7.4,5.6,10.7,8.9
		c3.2,3.1,5.9,6.8,8.1,10.7C432.5,518.5,433.3,520.3,434.1,522.2z"/>
	<path d="M460,325.1c-2.3-2.2-4.7-4.4-7-6.6c-9.7-9.2-19-18.9-26.3-30.2c-3.6-5.6-6.5-11.6-8.7-17.8c-2.4-7-4-14.3-5.7-21.5
		c-2.4-10.3-5.4-21-11.7-29.5c-1.2-1.6-2.5-3.2-4-4.6c-0.2-0.2-0.4-0.4-0.7-0.6c-4.1-3.9-9.5-6.9-15.2-7.2c-2.9-0.1-5.7,0.5-8.1,2.1
		c-2.2,1.5-3.7,3.7-4.7,6c-2.1,4.9-2.4,10.5-2.5,15.8v0c0,0.5,0,1.1,0,1.6c0,1.5-0.1,3-0.1,4.5c0,5.9,0.4,11.8,1.6,17.6
		c2.9,13.5,10.4,25.3,15.6,37.9c2.7,6.6,4.4,13.3,5.2,20.4c0.8,7.6,0.6,15.3,0.4,23c-0.4,15.5,0.1,31,1.8,46.5
		c0.8,7.6,1.8,15.4,3.4,22.9c1.4,6.2,3.5,12.2,6.9,17.6c6.2,10,15.8,17.9,26.8,21.8c2.4,0.8,1.3,4.6-1,3.8c-2.8-1-5.6-2.2-8.3-3.7
		c-10.6-5.8-19.4-15.2-24.3-26.3c0-0.1-0.1-0.2-0.1-0.3c-0.5-1.2-1-2.5-1.5-3.7c-2-5.7-3.1-11.6-4-17.6c-1.2-7.9-2.2-15.9-2.8-23.9
		c-0.6-8-1-16-1-24c-0.1-7.9,0.4-15.8,0.4-23.7c0-7.7-0.5-15.4-2.5-22.8c-1.8-6.7-4.8-13-7.7-19.2c-3-6.3-6.2-12.6-8.5-19.2
		c-2.5-7.1-3.7-14.5-4-22c-0.3-6.9-0.3-14.1,0.8-20.9c0.9-5.7,3-11.5,7.8-15.1c5.3-3.9,12.6-3.6,18.5-1.2
		c5.9,2.4,10.8,6.7,14.7,11.7c8.4,11,11.3,24.7,14.4,37.9c1.7,7.2,3.5,14.4,6.6,21.1c1.2,2.6,2.5,5.1,3.9,7.5
		c1.3,2.3,2.8,4.5,4.3,6.7c0.7,1,1.5,2.1,2.3,3.1c2,2.7,4.2,5.3,6.4,7.9c0.7,0.8,1.4,1.6,2.1,2.3c0.6,0.7,1.2,1.3,1.8,2
		c0.3,0.3,0.6,0.6,0.9,0.9c5.4,5.7,11.2,11.1,16.9,16.4C464.7,324,461.9,326.8,460,325.1z"/>
	<path d="M432.5,288.9c0,0.3,0,0.6-0.1,0.8c-0.6,1.7-3.7,1.4-3.8-0.8c-0.1-2-0.3-3.9-0.4-5.9c-1.2-16.1-2.4-32.2-3.6-48.2
		c-0.6-7.9-1.2-15.8-1.7-23.6c-0.6-8-0.8-15.9-0.1-23.8c0.7-7.7,1.9-15.3,2.9-22.9c1-7.9,1.5-15.7,1.3-23.7
		c-0.2-7.9-1.1-15.7-2.4-23.5c-1.3-7.7-2.3-15.3-2-23.1c0.3-8,1.2-16,2-24c0.7-8,1.5-16,2.2-24c0,0,0-0.1,0-0.1
		c0.1-1,0.9-1.8,1.9-1.8c0.7,0,1.4,0.4,1.7,1c0.2,0.3,0.3,0.6,0.2,1c-0.8,9-1.6,17.9-2.4,26.9c-0.8,8.9-2,17.9-1.8,26.9
		c0.2,7.7,1.8,15.2,2.9,22.8c1.1,7.9,1.7,15.8,1.6,23.8c-0.2,15.6-3.9,30.9-4.5,46.5c0,0.8-0.1,1.5-0.1,2.3c0,2,0,4,0,6
		c0.2,5.2,0.6,10.5,1,15.7c0.6,7.9,1.2,15.8,1.7,23.7c0,0.3,0,0.5,0.1,0.8c0.3,3.9,0.6,7.7,0.9,11.6
		C430.8,264.9,431.6,276.9,432.5,288.9z"/>
	<path d="M561.3,522.2h-4.5c-11.1-20-20.9-40.6-29.6-61.7c-2.7-6.5-5.2-13-7.6-19.6c-2.5-6.7-5-13.5-6.6-20.6
		c-3.2-14.4-1-29.6,0.6-44c1.6-14.8,3.8-29.5,6.6-44c1.4-7.2,3.1-14.4,4.4-21.6c1.2-6.7,1.6-13.7-0.9-20.1c0-0.1-0.1-0.2-0.1-0.3
		c-1-2.4-2.3-4.6-3.8-6.7c-5.2-6.9-12.8-12.2-19-17.9c-8.9-8.2-16.1-18-23.8-27.2c-7.6-9-15.9-17.2-26.4-22.7
		c-8.4-4.4-17.5-8.1-24.3-14.8c-1.3-1.3-2.5-2.7-3.6-4.2c-1.5-2.1,1.9-4,3.4-2c0,0.1,0.1,0.1,0.1,0.2c1.6,2.1,3.4,4,5.5,5.7
		c9,7.3,20.6,10.4,29.9,17.3c9.6,7.1,17.1,16.4,24.6,25.6c3.7,4.6,7.5,9.2,11.6,13.6c4,4.3,8.5,8.2,13,12c4.5,3.8,8.8,7.8,12.2,12.5
		c0.2,0.3,0.4,0.6,0.6,0.8c3.1,4.4,5.2,9.3,5.8,15c0.7,6.9-0.8,13.8-2.2,20.5c-1.6,7.3-3,14.6-4.3,22c-2.6,14.7-4.6,29.5-6.1,44.4
		c-0.7,7.4-1.5,15-1.4,22.4c0.1,7.3,1.7,14.3,3.9,21.3c4.4,13.6,9.8,26.9,15.4,40C542.6,486.7,551.5,504.7,561.3,522.2z"/>
	<path d="M204.4,227.7c-1.1,1.9-2.2,3.8-3.3,5.7c-0.4,0.7-0.8,1.4-1.2,2c-1.2,2.1-2.6,4.3-4.4,6c-3.4,3.4-8.1,4.3-12.7,3.8
		c-4.1-0.5-8.6-1.7-12.1-4c-1.7-1.1-3.3-2.6-4.2-4.5c-1.1-2.3-1.3-4.9-1-7.4c0.4-3.6,1.3-7.2,1.3-10.8c0-1.3-0.1-2.6-0.4-3.9
		c-0.3-1,0.3-2.1,1.4-2.4c1-0.3,2.2,0.3,2.4,1.4c0.1,0.3,0.1,0.6,0.2,0.9c0.5,2.4,0.4,4.9,0.1,7.3c-0.3,2.6-0.9,5.3-1.1,7.8
		c-0.1,0.6-0.1,1.2-0.1,1.8c0,0.3,0,0.5,0,0.8c0,0.1,0,0.5,0,0.5c0.1,0.6,0.2,1.1,0.4,1.7c0,0,0,0,0,0.1c0,0,0,0,0,0c0,0,0,0,0,0
		c0,0.1,0.1,0.2,0.1,0.3c0.1,0.2,0.2,0.4,0.3,0.6c0.1,0.2,0.2,0.4,0.4,0.6c0,0,0,0,0.1,0.1c0.1,0.1,0.1,0.1,0.2,0.2
		c0.3,0.3,0.5,0.6,0.8,0.8c0.1,0.1,0.2,0.2,0.3,0.3c0,0,0,0,0,0c0,0,0,0,0.1,0c0,0,0,0,0,0v0c0.1,0,0.1,0.1,0.2,0.1
		c0.1,0.1,0.2,0.1,0.2,0.2c0.4,0.2,0.7,0.5,1.1,0.7c0.4,0.2,0.8,0.4,1.3,0.6c0,0,0.2,0.1,0.3,0.1c0,0,0,0,0,0c0,0,0,0,0,0
		c0,0,0,0,0,0c0,0,0,0,0,0c0.2,0.1,0.4,0.1,0.5,0.2c0.8,0.3,1.7,0.6,2.5,0.8c1,0.3,2,0.5,3.1,0.8c1.1,0.2,1.7,0.3,2.8,0.4
		c1,0.1,2,0,3-0.1c0,0,0,0,0.1,0c0,0,0,0,0,0c0,0,0.1,0,0.1,0c0.1,0,0.2,0,0.3-0.1c0.2,0,0.5-0.1,0.7-0.2c0.4-0.1,0.9-0.3,1.3-0.4
		c0,0,0,0,0,0c0,0,0,0,0.1,0c0,0,0.1,0,0.1-0.1c0.1-0.1,0.3-0.1,0.4-0.2c0.2-0.1,0.4-0.2,0.6-0.4c0.2-0.1,0.4-0.3,0.6-0.4
		c0,0,0,0,0.1-0.1c0,0,0,0,0,0c0,0,0,0,0,0c0,0,0,0,0,0c0.1-0.1,0.2-0.1,0.2-0.2c0.7-0.6,1.4-1.3,2-2.1c0,0,0.2-0.2,0.3-0.4
		c0.1-0.2,0.3-0.4,0.4-0.6c0.3-0.4,0.5-0.8,0.8-1.2c0.5-0.9,1.1-1.8,1.6-2.7c1.2-2.1,2.4-4.1,3.6-6.2c0.1-0.1,0.1-0.2,0.2-0.4
		c0.5-0.9,1.8-1.2,2.7-0.7C204.7,225.6,205,226.8,204.4,227.7z"/>
	<path class="st0" d="M397.4,226.5c0,2-0.2,3.3-0.8,5.1c-0.3,0.9-0.4,1.2-0.9,2.1c-0.2,0.4-0.5,0.7-0.7,1.1c0,0,0,0,0,0c0,0,0,0,0,0
		c-0.1,0.1-0.2,0.2-0.2,0.3c-0.2,0.2-0.3,0.4-0.5,0.5c-0.1,0.1-0.3,0.3-0.4,0.4c0,0-0.3,0.2-0.3,0.3c0,0,0,0,0,0
		c-0.3,0.3-0.7,0.5-1.1,0.7c-0.3,0.2-0.7,0.4-1.1,0.6c-0.5,0.3-0.5,0.2-1,0.4c-1.7,0.6-3.5,1-5.3,1.3c-2,0.3-4,0.6-6.1,0.6
		c-1,0-1.9-0.1-2.8-0.3c-0.5-0.1-0.9-0.3-1.4-0.4c0,0-0.2-0.1-0.3-0.1c0,0,0,0,0,0c0,0,0,0,0,0c0,0,0,0,0,0c0,0,0,0,0,0
		c-0.2-0.1-0.4-0.2-0.7-0.3c-1.9-0.9-3-1.9-4.5-3.4c-1.4-1.4-2.7-3.1-3.8-4.5v0c0.1-5.3,0.4-10.9,2.5-15.8c1-2.4,2.5-4.6,4.7-6
		c2.4-1.6,5.2-2.2,8.1-2.1c5.8,0.3,11.1,3.3,15.2,7.2C396.4,218.3,397.4,222.3,397.4,226.5z"/>
	<path d="M401.2,228.8c-0.5,4.3-2.2,8.3-5.8,10.9c-3.2,2.4-7.4,3.2-11.3,3.7c-2.4,0.3-4.8,0.6-7.2,0.3c-2.3-0.3-4.5-1-6.4-2.3
		c-2-1.2-3.6-2.8-5.1-4.5c-1.2-1.4-2.3-2.8-3.4-4.2c-0.7-0.8-0.1-2.2,0.7-2.7c1-0.6,2.1-0.1,2.7,0.7c0,0,0.1,0.1,0.1,0.1v0
		c1,1.4,2.4,3.1,3.8,4.5c1.5,1.5,2.6,2.5,4.5,3.4c0.2,0.1,0.4,0.2,0.7,0.3c0,0,0,0,0,0c0,0,0,0,0,0c0,0,0,0,0,0c0,0,0,0,0,0
		c0.1,0,0.3,0.1,0.3,0.1c0.5,0.2,0.9,0.3,1.4,0.4c1,0.2,1.8,0.3,2.8,0.3c2.1,0,4.1-0.2,6.1-0.6c1.8-0.3,3.6-0.7,5.3-1.3
		c0.6-0.2,0.5-0.2,1-0.4c0.4-0.2,0.7-0.4,1.1-0.6c0.4-0.2,0.8-0.5,1.1-0.7c0,0,0,0,0,0c0.1-0.1,0.3-0.3,0.3-0.3
		c0.2-0.1,0.3-0.3,0.4-0.4c0.2-0.2,0.3-0.3,0.5-0.5c0.1-0.1,0.2-0.2,0.2-0.3c0,0,0,0,0,0c0,0,0,0,0,0c0.3-0.3,0.5-0.7,0.7-1.1
		c0.5-0.9,0.6-1.2,0.9-2.1c0.6-1.9,0.7-3.2,0.8-5.1c0-4.2-1-8.2-1.4-12.3c0-0.3-0.1-0.5-0.1-0.8c-0.1-1.1,1-1.9,2-2
		c1.1,0,1.9,0.9,2,2c0.2,2,0.5,4,0.8,6.1C401.1,222.5,401.5,225.7,401.2,228.8z"/>
	<path d="M470,262.3c-4.2,1.9-8.5,3.5-12.9,4.7c-0.7,0.2-1.5,0.4-2.2,0.6c-2.4,0.6-4.9,0.9-7.4,0.5c-0.7-0.1-1.4-0.3-2.2-0.6
		c-3.3-1.2-6.2-3.4-8.6-6c-2.5-2.6-4.8-5.4-6.7-8.4c0-0.1-0.1-0.1-0.1-0.2c-1.9-3-3.5-6.2-4.2-9.7c-0.2-1,0.3-2.1,1.4-2.4
		c0.7-0.2,1.4,0,2,0.5c0.2,0.2,0.4,0.5,0.5,0.8c0.8,3.7,2.4,6.8,4.5,9.9c1.8,2.5,3.8,5,6.1,7.3c2.1,2.1,4.5,3.9,7.2,4.7
		c1.4,0.4,3.1,0.4,4.8,0.2c1.9-0.3,3.7-0.9,5.5-1.4c3.6-1.1,7.1-2.4,10.4-3.9c1-0.4,2.1-0.3,2.7,0.7
		C471.2,260.4,471,261.8,470,262.3z"/>
	<path class="st0" d="M441.1,294.4c0,2.1,0,4.2,0,6.3c-2.2-2.5-4.4-5.2-6.4-7.9c-0.8-1-1.5-2.1-2.3-3.1c0.1-0.2,0.1-0.5,0.1-0.8
		c-0.9-12-1.8-24-2.6-35.9c0,0.1,0.1,0.1,0.1,0.2c2,3,4.3,5.8,6.7,8.4c2.4,2.5,5.3,4.8,8.6,6c0.7,0.3,1.4,0.4,2.2,0.6
		c-2.1,2.6-3.3,6.1-4.1,9C441.7,282.6,441.2,288.6,441.1,294.4z"/>
	<path d="M454.9,267.6c-0.3,0.4-0.6,0.7-1.1,0.8c-0.3,0.1-0.7,0.2-1,0.3c0,0,0,0,0,0c0,0-0.1,0-0.1,0.1c-0.1,0.1-0.2,0.1-0.3,0.2
		c-0.2,0.1-0.3,0.2-0.5,0.3c0,0,0,0-0.1,0c-0.2,0.2-0.5,0.4-0.7,0.6c-0.2,0.2-0.4,0.4-0.6,0.7c0,0,0,0,0,0c0,0,0,0,0,0c0,0,0,0,0,0
		c-0.1,0.1-0.2,0.3-0.2,0.3c-0.1,0.1-0.2,0.2-0.2,0.3c-0.4,0.6-0.7,1.1-1,1.7c-2.3,4.5-3.4,10-3.8,14.9c-0.4,4.6-0.4,9.2-0.3,13.8
		c0,0.9,0,1.8,0.1,2.7c0,0.2,0,0.5-0.1,0.7c-0.3,0.7-1,1.2-1.8,1.3c-0.8,0-1.5-0.5-1.8-1.2c-0.1-0.3-0.2-0.5-0.2-0.8
		c0-1.2-0.1-2.4-0.1-3.6c0-2.1-0.1-4.2,0-6.3c0.1-5.8,0.6-11.7,2.3-17.3c0.9-2.9,2.1-6.4,4.1-9c1.3-1.7,3.1-3,5.2-3.4
		c1-0.2,2.1,0.3,2.4,1.4C455.3,266.5,455.2,267.1,454.9,267.6z"/>
	<path d="M430.3,44.9v0.1c0,2.1-2.8,2.3-3.7,0.8c-0.2-0.3-0.3-0.6-0.3-0.9c-0.4-13-0.8-26-1.2-39c-1.7,0.3-3.3,0.6-5,0.9
		c-19.5,3.4-38.9,6.7-58.4,10c-18.8,3.2-37.6,6.1-56.7,7.5c-18.5,1.3-37.2,1.4-55.7,0.3c-18.5-1.1-36.9-3.4-55-6.8
		c-17.5-3.3-34.9-7.7-51.9-13.2c-2,13.3-2.3,26.8-1.9,40.2c0.3,12.5,1,25.1,1.4,37.6c0.4,12.7,0.6,25.3,0.7,38
		c0.1,24.8-0.3,49.5-1.4,74.3c0,0.8-0.1,1.6-0.1,2.4c-0.1,2.5-4,2.5-3.9,0c0-0.5,0-1,0.1-1.5c0.6-13.9,1-27.8,1.3-41.7
		c0.4-25.6,0.2-51.3-0.7-76.9c-0.9-25.1-2.9-50.5,1.2-75.4c0.2-1,1.5-1.7,2.4-1.4c2.2,0.7,4.5,1.4,6.7,2.1
		c17.6,5.5,35.5,9.8,53.7,12.9c18.1,3.2,36.5,5.1,54.9,5.9c18.4,0.8,36.8,0.4,55.2-1.2c19-1.6,37.8-4.9,56.6-8.1
		c19.4-3.3,38.7-6.7,58.1-10c1.3-0.2,2.4,0.5,2.5,1.9C429.4,17.4,429.9,31.2,430.3,44.9z"/>
	<path d="M122,307.6c-0.3,0.1-0.7,0.3-1,0.4c-7.9,3.2-15.4,8-21.7,13.7c-0.8,0.7-2,0.8-2.8,0c-0.7-0.7-0.8-2.1,0-2.8
		c6.3-5.6,13.3-10.2,21-13.6c0.6-0.3,1.1-0.5,1.7-0.7c0.6-0.2,1.2-0.5,1.8-0.7c0.9-0.4,2,0.3,2.3,1.1c0,0.1,0.1,0.2,0.1,0.2
		C123.6,306.3,122.9,307.3,122,307.6z"/>
	<path d="M123,306.3c-0.5,0.9-1.8,1.3-2.7,0.7c-0.3-0.2-0.7-0.4-1-0.6c-0.6-0.4-1.2-0.7-1.8-1.1c-2.1-1.2-4.2-2.3-6.4-3.3
		c-11.1-5-23.5-7.4-35.8-6.8c-1.1,0.1-1.9-0.9-2-2c0-1.1,0.9-1.9,2-2c3.6-0.2,7.2-0.1,10.7,0.2c11.5,1,22.8,4.4,32.9,10.1
		c1.1,0.6,2.3,1.3,3.4,2c0.5,0.3,0.8,0.8,0.9,1.4C123.3,305.4,123.3,305.9,123,306.3z"/>
	<path d="M495.4,289.4c0,1.1-0.9,1.9-2,2c-3.9,0.2-7.7,0.6-11.4,1.2c-6.9,1.1-13.6,2.9-20.2,5.3c-3.2,1.2-6.2,2.4-9.2,3.9
		c-2.4,1.2-4.8,2.4-6.8,4.1c-0.4,0.4-0.8,0.7-1.2,1.1c-0.7,0.8-2,0.8-2.8,0c-0.5-0.5-0.7-1.3-0.5-1.9c0.1-0.3,0.3-0.6,0.5-0.8
		c0.4-0.4,0.9-0.8,1.3-1.2c0.6-0.5,1.2-1,1.9-1.4c2-1.4,4.3-2.6,6.5-3.6c13.1-6.2,27.4-9.8,41.9-10.5
		C494.6,287.3,495.4,288.3,495.4,289.4z"/>
	<path d="M397.5,98.9c-1.9,0.4-3.9,0.7-5.8,1.1c-15.2,2.9-30.4,5.7-45.7,7.9c-15.2,2.2-30.5,3.9-45.9,4.7
		c-15.1,0.8-30.2,0.8-45.2,0.1c-15.2-0.7-30.3-2.2-45.3-4.4c-14.9-2.2-29.7-5.1-44.4-8.7c-2.5-0.6-1.4-4.4,1-3.8
		c1.8,0.4,3.6,0.9,5.4,1.3c14.6,3.4,29.3,6.2,44.2,8.1c14.9,2,29.9,3.2,44.9,3.7c15,0.5,30,0.3,45-0.7c15.2-1,30.3-2.8,45.3-5.1
		c15.2-2.4,30.3-5.2,45.5-8.1C399,94.6,400,98.4,397.5,98.9z"/>
	<g>
		<path d="M190.4,73.4c-1.2-4-2.4-8.1-3.6-12.1c-0.2-0.6-0.3-1.1-0.2-1.7c0.2-0.8,0.8-1.3,1.3-1.9c2.6-3,2.6-7.7,0.6-11.2
			c-2-3.4-5.6-5.7-9.3-7c-3.8-1.2-7.8-1.5-11.8-1.8c-0.7,0-1.5-0.1-2.2,0.3c-0.8,0.5-1.1,1.4-1.3,2.3c-2,8.1-0.9,16.5-0.4,24.7
			c0.2,2.7-0.8,7.9,0.7,10.2c1.2,1.8,5.7,2.9,7.5,1.8c1-0.6,1.1-2,1-3.2c-0.1-1.9-0.2-3.8-0.3-5.7c0-1,0-2.2,0.7-2.9
			c0.5-0.4,1.1-0.6,1.7-0.6c2.8-0.1,4.9,2.7,5.7,5.4c0.8,2.7,1,5.6,2.5,8c1.5,2.4,5.2,3.7,7.1,1.7C191.6,78.2,191,75.6,190.4,73.4z
			 M178.6,56.3c-4,2.7-6-0.6-6.6-4c-0.2-1.3-0.3-2.7,0.5-3.7c1.2-1.3,3.3-0.8,4.9,0c1.1,0.6,2.2,1.3,2.7,2.5
			C181,52.9,180.2,55.2,178.6,56.3z"/>
	</g>
	<g>
		<path d="M225.1,57.3c-2-5.5-6.8-10.1-12.5-11.4c-5.7-1.3-12.3,0.9-15.6,5.8c-2.5,3.7-3.1,8.5-2.4,13c1.6,9.9,8.1,19.1,19.5,18.3
			c4.6-0.3,8.1-4.2,10-8.4C226.6,69.1,227.1,62.8,225.1,57.3z M209.7,74.8c-2.8-0.7-4.2-3.1-4.5-5.8c-0.5-3.7-1.4-8.3-1.1-12
			c0.1-0.7,0.2-1.5,0.6-2c0.6-0.8,1.6-1.2,2.5-1.4c0.9-0.2,1.9-0.4,2.8-0.3c3.6,0.2,6.5,3.5,7.3,7c0.2,0.9,0.3,2,0.3,3.3
			C217.6,68.8,215.5,76.2,209.7,74.8z"/>
	</g>
	<g>
		<path d="M261.1,84c-2.9-10.7-6.3-21.3-10-31.8c-0.5-1.4-1.1-2.9-2.4-3.5c-0.7-0.3-1.4-0.3-2.1-0.4c-1.7-0.1-3.3-0.1-5-0.2
			c-0.5,0-1,0-1.5,0.2c-0.6,0.4-0.8,1.2-1,1.9c-1.9,9-4.6,17.8-8.1,26.3c-1.2,3-3.1,6.3-0.2,8.8c2,1.7,7.4,2.6,7.9-1.1
			c0-0.2,0-0.3,0-0.5c0-1.1-0.3-2.2,0.4-3c0.5-0.5,1.4-0.6,2.1-0.6c2.3,0,4.7,0,7-0.1c1.2,0,2.6,0.1,3.4,1c0.5,0.6,0.6,1.5,0.8,2.2
			c1,3.1,5.2,4.7,7.9,3c0.3-0.2,0.7-0.5,0.8-0.8C261.3,85,261.2,84.4,261.1,84z M246.7,71.7c-1.7,0-3.5-0.1-6-0.4c0-1.1,0.7-2,1.1-3
			c0.4-1,0.6-2,0.9-3c0.3-1,0.6-2,1-3c0.2-0.7,0.5-2.3,1.1-2.7c0.9,0.9,1.2,3,1.5,4.1c0.4,1.5,0.9,3,1.2,4.5
			c0.2,0.8,0.3,1.5,0.4,2.3C248.2,71.8,247.8,71.7,246.7,71.7z"/>
	</g>
	<g>
		<path d="M294.1,66c-0.4-1.8-0.5-3.8-1.2-5.6c-0.6-1.5-1.4-3.4-2.4-4.7c-1-1.4-2.7-2.3-4.1-3.3c-0.8-0.6-1.3-1.1-2.3-1.4
			c-0.8-0.3-1.8-0.6-2.7-0.6c-2-0.2-4-0.3-5.9-0.4c-1.6-0.1-3.2-0.2-4.8-0.2c-1.1,0-2.1,0-3.2,0.1c-1.1,0.1-2-0.1-2.1,1.2
			c-0.1,1.9,0.7,3.8,0.8,5.8c0.1,2.1,0.2,4.2,0.2,6.2c0,1.9,0.1,3.8,0.1,5.7c0,2-0.3,4-0.3,5.9c-0.1,2-0.2,4.1-0.3,6.1
			c-0.1,2.1-0.4,4-0.4,6.1c1.5,0.2,2.5,0.2,3.4,0.2c4,0,7.9-0.9,11.9-1c3.9-0.2,6.4-1.8,8.8-4.9c1-1.3,2-2.6,2.9-4
			c1.1-1.6,1.1-3.3,1.6-5.1C294.4,70,294.5,67.9,294.1,66z M284.5,73.9c-0.5,1.3-2,3.5-3.4,4c-1,0.3-2.3,0-3.3,0.1
			c-1,0-1.9,0.3-3.4-0.4c0-1.9-0.1-3.8,0-5.7c0.1-1.7,0.5-3.3,0.6-5c0.2-1.9,0.3-3.8,0.3-5.7c0-0.7-0.4-2.1-0.1-2.7
			c0.3-0.7,1.6-0.4,2.4-0.4c1.9,0,2.9,0.3,4.2,1.7c1.1,1.1,2,2.5,2.4,4C285.2,67,285.7,70.6,284.5,73.9z"/>
	</g>
	<g>
		<path d="M334.7,52c-0.7,3.6,0,7.3,0,11c0,3.4-0.1,6.8-0.1,10.1c0,1.5-0.3,3-0.3,4.5c0,1.9,0.2,3.7,0.4,5.6
			c0.1,1.1,0.4,1.8-0.9,1.9c-1,0.1-2,0-3,0c-0.9,0-1.8,0.2-2.7,0.2c-1.2,0.1-0.9-0.7-0.9-1.8c0-3.1,0.2-6.3,0.2-9.5
			c0-3.5-0.5-6.9-0.8-10.3c-0.1-0.7,0.1-2-0.4-2.5c-0.9,1.5-1.5,3.8-1.8,5.5c-0.4,2-0.9,3.9-1.7,5.8c-1.5,3.7-2.3,7.9-3.1,11.8
			c-0.3,1.6-1.4,1.2-2.8,1.2c-1.2,0.1-2.6,0-3.7,0.3c-0.7-1.6,0-3.6-0.7-5.1c-0.3-0.7-0.8-1.1-1.2-1.7c-0.5-0.8-0.4-1.6-0.5-2.5
			c-0.1-1.7-0.7-3.1-1.2-4.7c-0.4-1.6-0.5-3.3-0.9-4.9c-0.4-1.7-0.9-3.3-1.6-4.9c-0.7,1.7-0.6,4.2-0.4,6c0.2,2,0,3.9,0,6
			c0,2.1-0.2,4.1-0.3,6.2c-0.1,1,0.2,2,0.2,3.1c0,0.6,0.2,2.6-0.2,3c-0.5,0.5-2.5,0-3.3,0c-1,0-2.3,0-4,0.4c0-2.4-0.3-4.8,0.2-7.1
			c0.5-2.3,0.5-4.7,0.4-7c-0.1-2.4,0.1-4.8,0.2-7.3c0.1-2.3-0.1-4.6,0-6.9c0.1-2.4-0.2-4.8-0.2-7.2c0-0.4-0.2-1.4,0-1.8
			c0.3-0.5,0.9-0.3,1.6-0.3c1.2,0,2.4,0,3.6-0.2c1.1-0.1,2.1-0.4,3.2-0.5c1.2-0.1,1.9,0.5,2.5,1.4c1.4,1.8,1.7,3.8,2.5,5.9
			c0.8,2.3,1.6,4.3,1.9,6.7c0.2,1.3,0.1,2.6,0.5,3.9c0.3,1,0.5,2.4,1,3.3c1.6-3.1,0.3-6.8,1.4-9.9c0.6-1.5,1-3,1.4-4.6
			c0.4-1.6,1.1-3.1,1.4-4.7c0.1-0.7,0.2-1.7,0.8-2.2c0.6-0.5,1.6-0.5,2.4-0.8c1.7-0.6,3.5-0.9,5.3-0.9h2.8c0.5,0,2.3-0.4,2.6-0.2
			c0.5,0.4,0.2,2.3,0.2,2.9C335,50.2,334.9,51.1,334.7,52z"/>
	</g>
	<g>
		<path d="M370.2,76.3c-0.3-1-0.8-1.9-1.1-2.9c-0.7-2-0.8-4.1-1.2-6.2c-0.7-4.1-2.6-8-3.8-11.9c-1.2-3.6-2.2-7.2-4.5-10.3
			c-0.7-0.9-1.2-1.7-2.5-1.6c-1.1,0.1-2.2,0.2-3.2,0.4c-1,0.2-2.4,0.2-3.3,0.7c-0.9,0.5-1.1,1.5-1.3,2.4c-0.5,2.1-1.5,3.9-2.2,5.9
			c-0.7,2-1.3,4-1.8,6.1c-0.5,2.1-1.2,4-1.7,6c-0.5,2-1.3,3.8-2,5.8c-1.3,3.9-3,7.9-3.4,12.1c2,0.6,3.1,0.5,4.2,0.3
			c1.1-0.1,2.6,0.4,3.2-0.4c0.5-0.6,0.8-1.9,1.1-2.6c0.8-1.9,0.9-3.8,3.1-4.4c2-0.6,4.3-0.8,6.4-0.9c1-0.1,2.7-0.3,3.7,0
			c0.9,0.3,0.8,1.7,1.2,2.6c0.4,0.9,0.9,1.6,1.2,2.5c0.4,1.4,1.2,0.8,2.4,0.5c1-0.2,2.2-0.4,3.2-0.4c0.8,0,2.6,0.2,3.1-0.7
			C371.1,78.5,370.4,77.1,370.2,76.3z M357.9,66.4c-0.2,0.7-0.9,0.8-1.5,0.9c-1.5,0.3-3.2-0.1-5.5,0.1c0.2-2.3,1-4.7,1.4-7.1
			c0.3-2.1,1-4.4,1.8-6.4c0.8,0.8,1,2.4,1.4,3.4c0.4,1.2,0.7,2.5,1,3.8c0.3,1.2,0.8,2.2,1.1,3.4C357.7,65,358,65.9,357.9,66.4z"/>
	</g>
	<g>
		<path d="M401.2,48.7c-0.1-1.8-0.6-4.1-1.3-5.8c-0.7-1.8-2.1-2.5-3.6-3.5c-0.8-0.5-1.3-1.1-2.3-1.2c-1.1-0.1-2.2,0.1-3.2,0.2
			c-2.1,0.1-4.1,0.4-6.1,0.6c-1.9,0.2-3.9,0.6-5.8,1c-1.3,0.3-4.4,0.7-4.8,2.1c-0.3,0.9,0,2.3,0,3.2c0,1.1,0,2.2,0,3.3
			c0,2.1,0.2,4.3,0.2,6.5c0,3.9-0.3,8.2,0.3,12c0.3,1.7,0,3.6,0.2,5.3c0.2,2.1,0.3,3.9-0.2,6c1.5,0.7,2.5,0.4,3.4,0.3
			c1-0.1,2-0.1,2.9-0.3c0.5-0.1,2.5-0.2,2.8-0.6c0.3-0.5,0.1-2.4,0.2-3c0.1-1.1,0.2-2.1,0.3-3.2c0.2-2.1-0.1-4.1-0.2-6.2
			c-0.1-1.2,0.9-1.1,1.9-1.3c1-0.2,1.9-0.4,2.9-0.5c3.5-0.5,6.8-2.3,9.6-4.4c0.8-0.6,1-1.4,1.2-2.3c0.2-0.9,0.6-1.7,1.1-2.5
			C401.5,52.7,401.3,50.7,401.2,48.7z M389.4,54.1c-1.2,1.8-3.4,2.4-6,2c-0.1-2.1-0.4-4.1-0.5-6.2c0-0.8-0.3-2.3,0.3-3
			c0.6-0.7,2-0.8,2.8-0.8c2-0.1,3.9,0.5,4.7,2.6C391.2,50.7,390.5,52.6,389.4,54.1z"/>
	</g>
	<path d="M138.2,239c-0.8,0.5-1.9,0.3-2.5-0.4c-0.1-0.1-0.2-0.2-0.2-0.3c-1.2-2-2.5-4-3.9-6c-1.1-1.6-2.4-3.1-3.5-4.7
		c-0.8-1.1-1.5-2.2-2.2-3.3c-0.2-0.3-0.4-0.6-0.7-1c-0.1-0.2-0.2-0.3-0.4-0.5c0,0,0,0,0-0.1c0,0,0,0,0,0c0,0,0,0,0,0c0,0,0,0,0,0
		c0,0,0,0,0-0.1c-0.5-0.6-0.9-1.1-1.4-1.6c-0.1-0.1-0.3-0.3-0.4-0.4c0,0-0.1-0.1-0.2-0.2c0,0,0,0,0,0c0,0,0,0,0,0
		c-0.1-0.1-0.2-0.1-0.2-0.1c-0.1-0.1-0.2-0.1-0.3-0.2c0,0-0.1,0-0.1-0.1c-0.1,0-0.2,0-0.3-0.1c-0.3,0-0.3,0-0.1,0c0,0,0,0,0,0
		c-1,0.1-2-0.3-2.3-1.4c-0.3-0.9,0.3-2.3,1.4-2.4c2.1-0.3,3.7,0.6,5.2,1.9c2.3,2.1,3.8,5,5.6,7.5c0.1,0.1,0.1,0.2,0.1,0.2
		c0,0,0,0,0,0c0.1,0.2,0.3,0.4,0.5,0.6c0.4,0.5,0.8,1,1.2,1.5c0.7,0.9,1.3,1.8,2,2.7c0.4,0.6,0.9,1.3,1.3,1.9
		c0.8,1.3,1.6,2.5,2.4,3.8C139.4,237.2,139.1,238.4,138.2,239z"/>
	<path d="M432.6,366.3c-0.7,0.7-2.1,0.8-2.8,0c-1.8-2-3.6-3.9-5.5-5.8c-3.9-3.8-7.7-7.1-12.2-9.9c-1.1-0.7-2.2-1.3-3.4-1.9
		c-0.6-0.3-1.1-0.6-1.7-0.8c-0.1-0.1-0.3-0.1-0.4-0.2c0,0,0,0,0,0l0,0c0,0,0,0,0,0c0,0,0,0,0,0c0,0,0,0-0.1,0
		c-0.3-0.1-0.6-0.2-0.9-0.3c-1.1-0.4-2.3-0.8-3.4-1c-0.3-0.1-0.6-0.1-0.8-0.2c-0.2,0-0.3-0.1-0.5-0.1c0,0,0,0-0.1,0
		c-0.5-0.1-1.1-0.1-1.6-0.1c-1.1,0-1.9-0.9-2-2c0-1,0.9-2,2-2c2.8,0.1,5.6,0.8,8.3,1.8c5.2,2.1,9.9,5.4,14.2,8.9
		c3.9,3.3,7.6,6.9,11,10.8C433.3,364.3,433.4,365.5,432.6,366.3z"/>
	<path d="M167.3,343.4c0.1,1.1-0.9,1.8-2,2h0c0,0,0,0,0,0c0,0,0,0-0.1,0c-0.1,0-0.1,0-0.2,0c-0.1,0-0.2,0-0.3,0.1
		c-0.3,0.1-0.7,0.1-1,0.2c-0.6,0.1-1.2,0.3-1.8,0.5c-0.3,0.1-0.7,0.2-1,0.4c0,0-0.1,0-0.1,0c0,0,0,0,0,0c0,0-0.1,0-0.1,0
		c-0.2,0.1-0.3,0.1-0.5,0.2c-0.6,0.3-1.2,0.6-1.8,0.9c-4.4,2.5-8,6-11.3,10.1c-0.1,0.1-0.2,0.3-0.4,0.5c0,0,0,0,0,0v0h0v0
		c0,0,0,0,0,0c0,0,0,0,0,0c0,0,0,0,0,0c0,0,0,0,0,0c0,0,0,0,0,0v0c0,0,0,0,0,0c-0.2,0.3-0.4,0.5-0.6,0.8c-0.3,0.5-0.7,0.9-1,1.4
		c-0.7,1.1-1.4,2.2-2.1,3.3c-1.2,2-2.3,4-3.2,6.1c-0.4,1-1.9,1.2-2.7,0.7c-1-0.6-1.1-1.7-0.7-2.7c1.1-2.5,2.4-4.9,3.8-7.2
		c2.9-4.7,6.5-9,10.7-12.6c4.2-3.5,9-6.2,14.4-6.9C166.4,341.3,167.3,342.4,167.3,343.4z"/>
	<path d="M175.6,269c-0.7,0.7-2.1,0.8-2.8,0c-0.5-0.7-1.1-1.3-1.7-1.9c-0.3-0.3-0.6-0.6-0.9-0.8c0,0-0.4-0.3-0.4-0.3
		c-0.1-0.1-0.3-0.2-0.4-0.3c-0.7-0.5-1.5-1-2.3-1.5c-0.4-0.2-0.8-0.4-1.2-0.6c-0.2-0.1-0.5-0.2-0.7-0.3c-0.1,0-0.2-0.1-0.2-0.1
		c0,0,0,0,0,0c0,0,0,0,0,0c0,0,0,0-0.1,0c-0.9-0.3-1.7-0.6-2.6-0.9c-0.4-0.1-0.8-0.2-1.3-0.3c-0.2-0.1-0.5-0.1-0.7-0.1
		c0,0-0.4,0-0.5-0.1c0,0,0,0,0,0c0,0-0.1,0-0.1,0c-0.8-0.1-1.6-0.1-2.4-0.1c-0.2,0-0.5,0-0.7,0c0,0-0.2,0-0.3,0c0,0,0,0,0,0
		c-0.4,0.1-0.8,0.1-1.1,0.2c-1,0.3-2.1-0.3-2.4-1.4c-0.3-1,0.3-2.2,1.4-2.4c3.9-1,8.1-0.3,11.8,1.2c3.7,1.5,7.3,3.7,9.8,6.9
		C176.3,267,176.5,268.2,175.6,269z"/>
	<path d="M181.9,262.2c-0.7,0.7-2.1,0.8-2.8,0c-1.2-1.3-2.5-2.5-3.9-3.7c-0.4-0.3-0.7-0.6-1.1-0.9c0,0-0.1-0.1-0.1-0.1c0,0,0,0,0,0
		l0,0c0,0,0,0,0,0c0,0,0,0,0,0l0,0h0c-0.1-0.1-0.2-0.1-0.2-0.2c-0.2-0.1-0.3-0.2-0.5-0.4c-0.8-0.6-1.6-1.1-2.5-1.7
		c-0.8-0.5-1.7-1-2.6-1.4c-0.9-0.4-1.3-0.6-2.3-0.9c-0.8-0.3-1.7-0.5-2.5-0.6c0,0-0.1,0-0.1,0c0,0,0,0,0,0c-0.1,0-0.2,0-0.3,0
		c-0.2,0-0.4,0-0.6,0c-0.4,0-0.9,0-1.3,0c-1.1,0.1-1.9-1-2-2c0-1.1,0.9-1.9,2-2c4.1-0.3,8.1,1.4,11.5,3.5c3.4,2.1,6.6,4.7,9.3,7.6
		C182.7,260.2,182.7,261.4,181.9,262.2z"/>
	<path d="M411.2,263.1c0,1.1-0.9,2-2,2c-1.1,0-2.2,0-3.4,0.1c-0.3,0-0.6,0-0.8,0.1c-0.1,0-0.2,0-0.3,0c0,0,0,0-0.1,0
		c0,0-0.1,0-0.1,0c-0.5,0.1-0.9,0.2-1.4,0.3c-2,0.4-3.6,1.1-5.4,2c-1.5,0.7-3.1,1.5-4.5,2.3c-0.4,0.2-0.7,0.4-1,0.7
		c0,0-0.2,0.2-0.3,0.3c0,0,0,0,0,0c0,0,0,0,0,0c-0.1,0.1-0.3,0.2-0.4,0.3c-0.2,0.2-0.4,0.4-0.6,0.6v0c0,0.1-0.2,0.2-0.2,0.3
		c0,0.1-0.1,0.3-0.2,0.3c0,0,0-0.1,0-0.1c-0.4,1-1.3,1.5-2.4,1.3c-1-0.2-1.8-1.5-1.4-2.4c0.7-1.8,2-3,3.5-4c1.2-0.8,2.5-1.5,3.9-2.2
		c1.4-0.7,2.8-1.4,4.3-2c3.5-1.4,7.2-1.8,10.9-1.8C410.3,261.2,411.1,262.1,411.2,263.1z"/>
	<path d="M405.4,253.7c0,1.1-0.9,2-2,2c-0.3,0-0.7,0-1,0c-0.2,0-0.4,0-0.5,0c-0.1,0-0.3,0-0.4,0c0,0,0,0-0.1,0c0,0,0,0,0,0
		c-0.7,0.1-1.4,0.2-2.1,0.4c-1.7,0.4-3.3,0.9-5,1.6c0,0-0.4,0.2-0.5,0.2c0,0,0,0,0,0c-0.2,0.1-0.4,0.2-0.5,0.2
		c-0.4,0.2-0.7,0.3-1.1,0.5c-0.7,0.4-1.5,0.8-2.2,1.3c-0.2,0.1-0.3,0.2-0.5,0.4c0,0-0.1,0.1-0.1,0.1c0,0,0,0,0,0c0,0,0,0,0,0l0,0
		c-0.3,0.2-0.5,0.4-0.8,0.7c-0.3,0.3-0.5,0.5-0.8,0.8c0,0,0,0,0,0c0,0-0.1,0.1-0.1,0.1c-0.1,0.1-0.2,0.3-0.3,0.4
		c-0.5,0.9-1.8,1.2-2.7,0.7c-0.9-0.5-1.2-1.8-0.7-2.7c0.8-1.4,2-2.5,3.3-3.4c2.4-1.8,5.2-3,8-3.9c2.5-0.8,5.3-1.5,8-1.5
		C404.6,251.7,405.4,252.6,405.4,253.7z"/>
	<path d="M523.6,290.4c0,0.7-0.1,1.4-0.1,2.2c-0.2,2.7-0.6,5.4-1.4,8c-0.8,2.6-1.8,5.2-2.8,7.8c-1,2.6-2.2,4.9-4.1,6.9
		c-0.4,0.4-0.8,0.9-1.2,1.3c-0.2,0.2-0.3,0.4-0.5,0.6c-0.1,0.1-0.2,0.2-0.3,0.4c0,0-0.1,0.1-0.1,0.2c0,0,0,0,0,0l0,0
		c-0.3,0.4-0.6,0.9-0.8,1.3c0,0,0,0,0,0.1c0,0,0,0,0,0c-0.1,0.1-0.1,0.3-0.1,0.4c-0.1,0.3-0.1,0.5-0.2,0.8c-0.2,1.1-1.5,1.6-2.4,1.4
		c-1.1-0.3-1.6-1.4-1.4-2.4c0.5-2.8,2.6-4.8,4.4-6.8c0.2-0.2,0.4-0.5,0.6-0.7c0.1-0.1,0.2-0.2,0.3-0.3c0,0,0,0,0.1-0.1
		c0.3-0.5,0.7-1,0.9-1.5c0.7-1.2,1-2.1,1.5-3.4c0.9-2.5,2-5,2.7-7.6c0.3-1.3,0.6-2.5,0.8-3.8l0-0.3c0,0,0-0.1,0-0.1
		c0-0.1,0-0.2,0-0.3c0-0.3,0.1-0.6,0.1-1c0.1-0.6,0.1-1.2,0.1-1.8c0.2-2.6,0.2-5.2,0.1-7.8v-0.4c0-1.1,0.9-1.9,2-2
		c0.5,0,0.9,0.2,1.2,0.4c0.3,0.2,0.5,0.5,0.6,0.8c0.1,0.2,0.1,0.5,0.1,0.7C523.7,285.7,523.7,288.1,523.6,290.4z"/>
	<path d="M54.1,319.6c-0.9,0.5-2.2,0.2-2.7-0.7c-1.3-2.5-2.5-5-3.7-7.5c-2.1-4.6-3.9-9.3-5-14.3c-0.4-1.6-0.6-3.3-0.9-4.9
		c-0.1-0.7-0.2-1.4-0.3-2c-0.4-2.2-0.8-4.6-0.6-6.8c0.1-1.1,0.8-1.9,2-2c0.8,0,1.6,0.5,1.9,1.3c0.1,0.2,0.1,0.5,0.1,0.7
		c-0.2,2.5,0.2,4.6,0.6,7c0.4,2.3,0.7,4.6,1.3,6.8c0.6,2.3,1.3,4.7,2.1,7c1.6,4.4,3.8,8.6,5.9,12.8
		C55.3,317.9,55.1,319.1,54.1,319.6z"/>
	<path d="M127.6,450.4c-0.3,1.1-1.4,1.6-2.4,1.4c-3.1-0.6-5.6-3.3-7.8-5.3c-1-0.9-2.1-1.7-3-2.6c-1.2-1.2-2.3-2.5-3.2-3.9
		c-1.7-2.5-3-5.2-4-8c-1.9-5.4-2.9-11.9-0.8-17.5c0.4-1,1.3-1.6,2.4-1.4c1,0.2,1.7,1.5,1.4,2.4c-0.3,0.7-0.5,1.4-0.6,2.2
		c-0.1,0.3-0.1,0.6-0.2,1c0,0,0,0,0,0.1c0,0,0,0,0,0c0,0,0,0,0,0c0,0,0,0,0,0c0,0,0,0,0,0.1c0,0.1,0,0.1,0,0.2c0,0.2,0,0.3,0,0.5
		c-0.1,1.5-0.1,3,0.1,4.5c0.1,0.6,0.1,1.1,0.3,1.9c0.1,0.7,0.3,1.3,0.4,1.9c0.3,1.3,0.8,2.6,1.2,3.9c0.1,0.2,0.2,0.4,0.3,0.6
		c0,0,0,0,0,0.1c0,0,0,0,0,0c0,0,0,0,0,0c0,0,0,0,0,0c0,0,0,0,0,0c0.1,0.3,0.2,0.5,0.3,0.8c0.3,0.5,0.5,1.1,0.8,1.6
		c0.7,1.3,1.5,2.5,2.3,3.7c0.7,1,1.8,2.2,2.9,3.1c0.9,0.8,1.9,1.6,2.8,2.5c0.5,0.4,1,0.9,1.5,1.3c0.3,0.2,0.5,0.4,0.8,0.6
		c0.1,0.1,0.2,0.2,0.3,0.3c0.1,0.1,0.1,0.1,0.1,0.1c0,0,0.1,0,0.1,0.1c0.5,0.4,1,0.7,1.6,1c0,0,0.2,0.1,0.3,0.1c0,0,0,0,0,0
		c0,0,0,0,0,0c0.1,0,0.2,0.1,0.2,0.1c0.3,0.1,0.5,0.1,0.8,0.2C127.3,448.1,127.8,449.4,127.6,450.4z"/>
	<path d="M462.5,425c-0.9,4.7-3.4,8.9-6.3,12.6c-2.9,3.7-6.5,6.8-10.3,9.5c-0.9,0.6-2.2,0.2-2.7-0.7c-0.6-1-0.2-2.1,0.7-2.7
		c0.5-0.3,1-0.7,1.5-1c0.1-0.1,0.2-0.1,0.3-0.2c0,0,0,0,0,0c0,0,0,0,0,0c0,0,0,0,0,0c0,0,0.1-0.1,0.1-0.1c0.2-0.2,0.5-0.4,0.7-0.5
		c0.9-0.8,1.8-1.5,2.7-2.4c3.2-3,5.8-6.1,7.7-10.1c0.1-0.3,0.3-0.6,0.4-0.9c0,0,0-0.1,0.1-0.1c0,0,0,0,0,0c0,0,0,0,0,0c0,0,0,0,0,0
		c0-0.1,0-0.1,0.1-0.2c0.2-0.5,0.4-1,0.5-1.5c0.3-1,0.6-2,0.8-3.1c0-0.1,0-0.2,0.1-0.4c0,0,0,0,0,0s0,0,0,0v0c0,0,0,0,0,0
		c0,0,0,0,0,0c0,0,0,0,0,0c0,0,0,0,0,0c0,0,0-0.1,0-0.1c0-0.3,0.1-0.5,0.1-0.8c0-0.5,0.1-1.1,0.1-1.6c0-0.5,0-1.1-0.1-1.6
		c0,0-0.1-0.5-0.1-0.6c0,0,0,0,0,0c0,0,0,0,0,0c0-0.3-0.1-0.5-0.1-0.7c-0.2-1,0.3-2.1,1.4-2.4c1-0.3,2.2,0.3,2.4,1.4
		C463,419.4,463,422.2,462.5,425z"/>
	<path class="st0" d="M424.6,234.8c-0.6-7.9-1.2-15.8-1.7-23.6c-0.6-8-0.8-15.9-0.1-23.8c0.7-7.7,1.9-15.3,2.9-22.9
		c1-7.9,1.5-15.7,1.3-23.7c-0.2-7.9-1.1-15.7-2.4-23.5c-1.3-7.7-2.3-15.3-2-23.1c0.3-8,1.2-16,2-24c0.7-8,1.5-16,2.2-24
		c0,0,0-0.1,0-0.1c-0.2-0.3-0.3-0.6-0.3-0.9c-0.4-13-0.8-26-1.2-39c-1.7,0.3-3.3,0.6-5,0.9c-19.5,3.4-38.9,6.7-58.4,10
		c-18.8,3.2-37.6,6.1-56.7,7.5c-18.5,1.3-37.2,1.4-55.7,0.3c-18.5-1.1-36.9-3.4-55-6.8c-17.5-3.3-34.9-7.7-51.9-13.2
		c-2,13.3-2.3,26.8-1.9,40.2c0.3,12.5,1,25.1,1.4,37.6c0.4,12.7,0.6,25.3,0.7,38c0.1,24.8-0.3,49.5-1.4,74.3
		c0.4,0.3,0.7,0.9,0.8,1.5c0.2,9.6-0.1,19.3-0.9,28.8c-0.4,4.2-0.8,8.4-1.4,12.6c-0.5,3.9-0.9,7.9-2,11.7c-0.9,3.1-2.5,5.8-5,7.8
		c-2.2,1.7-4.6,3-6.9,4.5c-2.2,1.5-4.3,3.2-4.8,6c-0.4,1.9-0.1,4,0.1,5.9c0.1,2.2,0.3,4.3,0.4,6.5c0.5,7,0.9,14,1.4,21
		c1.1-1.4,2.1-2.8,3-4.2c3.5-5.4,6.2-11.3,8.8-17.2c2.9-6.7,5.8-13.4,8.7-20.2c3-7.1,6.1-14.2,9.1-21.2c2.6-6.2,5.1-12.6,8.6-18.3
		c6.1-9.9,17.9-18.8,29.9-13.7c11.9,5,15.4,18.7,13.8,30.4c-1.7,12.9-7.7,24.8-13.4,36.3c-5.8,11.8-11.4,23.8-12.8,37.1
		c-1.5,14.4,0.8,28.9,2,43.2c1.1,13.1,0.8,26-2.2,38.9c-2,8.4-4.9,16.5-8.7,24.2c0.8-0.3,1.6-0.6,2.4-0.9c13.4-5,27.4-7.7,41.5-9.8
		c14.2-2.1,28.5-3.4,42.7-5.6c7.4-1.1,14.8-3,22.2-3.6c3.9-0.3,7.7-0.1,11.5,0.7c3.6,0.8,7.1,2,10.7,2.8c7.5,1.7,15.2,2.8,22.8,4.1
		c7.7,1.3,15.4,2.7,23.1,4c15,2.6,29.9,5.2,45.1,6.2c-2-5.7-3.1-11.6-4-17.6c-1.2-7.9-2.2-15.9-2.8-23.9c-0.6-8-1-16-1-24
		c-0.1-7.9,0.4-15.8,0.4-23.7c0-7.7-0.5-15.4-2.5-22.8c-1.8-6.7-4.8-13-7.7-19.2c-3-6.3-6.2-12.6-8.5-19.2c-2.5-7.1-3.7-14.5-4-22
		c-0.3-6.9-0.3-14.1,0.8-20.9c0.9-5.7,3-11.5,7.8-15.1c5.3-3.9,12.6-3.6,18.5-1.2c5.9,2.4,10.8,6.7,14.7,11.7
		c8.4,11,11.3,24.7,14.4,37.9c1.7,7.2,3.5,14.4,6.6,21.1c1.2,2.6,2.5,5.1,3.9,7.5C427,266.9,425.8,250.8,424.6,234.8z M341.5,70.8
		c0.7-2,1.5-3.8,2-5.8c0.5-2,1.2-3.9,1.7-6c0.5-2.1,1.1-4.1,1.8-6.1c0.8-2,1.7-3.9,2.2-5.9c0.2-0.9,0.4-1.9,1.3-2.4
		c0.9-0.5,2.3-0.5,3.3-0.7c1-0.2,2.2-0.4,3.2-0.4c1.3-0.1,1.8,0.6,2.5,1.6c2.3,3.1,3.4,6.7,4.5,10.3c1.3,3.9,3.1,7.8,3.8,11.9
		c0.4,2.1,0.5,4.2,1.2,6.2c0.3,1,0.8,1.9,1.1,2.9c0.2,0.8,1,2.2,0.6,3c-0.4,0.9-2.2,0.7-3.1,0.7c-1.1,0.1-2.2,0.2-3.2,0.4
		c-1.2,0.3-2,0.9-2.4-0.5c-0.3-1-0.8-1.6-1.2-2.5c-0.4-0.9-0.3-2.3-1.2-2.6c-0.9-0.3-2.7-0.1-3.7,0c-2.1,0.1-4.4,0.3-6.4,0.9
		c-2.1,0.6-2.3,2.5-3.1,4.4c-0.3,0.8-0.6,2-1.1,2.6c-0.7,0.8-2.2,0.3-3.2,0.4c-1,0.1-2.2,0.2-4.2-0.3
		C338.4,78.7,340.2,74.7,341.5,70.8z M299.4,79.7c0.5-2.3,0.5-4.7,0.4-7c-0.1-2.4,0.1-4.8,0.2-7.3c0.1-2.3-0.1-4.6,0-6.9
		c0.1-2.4-0.2-4.8-0.2-7.2c0-0.4-0.2-1.4,0-1.8c0.3-0.5,0.9-0.3,1.6-0.3c1.2,0,2.4,0,3.6-0.2c1.1-0.1,2.1-0.4,3.2-0.5
		c1.2-0.1,1.9,0.5,2.5,1.4c1.4,1.8,1.7,3.8,2.5,5.9c0.8,2.3,1.6,4.3,1.9,6.7c0.2,1.3,0.1,2.6,0.5,3.9c0.3,1,0.5,2.4,1,3.3
		c1.6-3.1,0.3-6.8,1.4-9.9c0.6-1.5,1-3,1.4-4.6c0.4-1.6,1.1-3.1,1.4-4.7c0.1-0.7,0.2-1.7,0.8-2.2c0.6-0.5,1.6-0.5,2.4-0.8
		c1.7-0.6,3.5-0.9,5.3-0.9h2.8c0.5,0,2.3-0.4,2.6-0.2c0.5,0.4,0.2,2.3,0.2,2.9c0,1-0.1,1.9-0.3,2.8c-0.7,3.6,0,7.3,0,11
		c0,3.4-0.1,6.8-0.1,10.1c0,1.5-0.3,3-0.3,4.5c0,1.9,0.2,3.7,0.4,5.6c0.1,1.1,0.4,1.8-0.9,1.9c-1,0.1-2,0-3,0
		c-0.9,0-1.8,0.2-2.7,0.2c-1.2,0.1-0.9-0.7-0.9-1.8c0-3.1,0.2-6.3,0.2-9.5c0-3.5-0.5-6.9-0.8-10.3c-0.1-0.7,0.1-2-0.4-2.5
		c-0.9,1.5-1.5,3.8-1.8,5.5c-0.4,2-0.9,3.9-1.7,5.8c-1.5,3.7-2.3,7.9-3.1,11.8c-0.3,1.6-1.4,1.2-2.8,1.2c-1.2,0.1-2.6,0-3.7,0.3
		c-0.7-1.6,0-3.6-0.7-5.1c-0.3-0.7-0.8-1.1-1.2-1.7c-0.5-0.8-0.4-1.6-0.5-2.5c-0.1-1.7-0.7-3.1-1.2-4.7c-0.4-1.6-0.5-3.3-0.9-4.9
		c-0.4-1.7-0.9-3.3-1.6-4.9c-0.7,1.7-0.6,4.2-0.4,6c0.2,2,0,3.9,0,6c0,2.1-0.2,4.1-0.3,6.2c-0.1,1,0.2,2,0.2,3.1
		c0,0.6,0.2,2.6-0.2,3c-0.5,0.5-2.5,0-3.3,0c-1,0-2.3,0-4,0.4C299.3,84.4,299,82,299.4,79.7z M265.4,50.9c0.1-1.3,1-1,2.1-1.2
		c1-0.1,2.1-0.1,3.2-0.1c1.6,0,3.2,0.1,4.8,0.2c2,0.1,4,0.2,5.9,0.4c0.9,0.1,1.9,0.4,2.7,0.6c1,0.3,1.5,0.8,2.3,1.4
		c1.4,1,3.1,2,4.1,3.3c1,1.3,1.8,3.2,2.4,4.7c0.7,1.8,0.7,3.8,1.2,5.6c0.4,1.9,0.3,4-0.2,5.8c-0.5,1.8-0.5,3.5-1.6,5.1
		c-0.9,1.4-1.9,2.7-2.9,4c-2.3,3.1-4.8,4.7-8.8,4.9c-4,0.2-7.9,1-11.9,1c-0.9,0-1.9,0-3.4-0.2c0-2.1,0.3-4,0.4-6.1
		c0.1-2,0.2-4,0.3-6.1c0.1-2,0.3-3.9,0.3-5.9c0-1.9-0.1-3.8-0.1-5.7c0-2.1-0.1-4.2-0.2-6.2C266.1,54.7,265.3,52.8,265.4,50.9z
		 M230.9,76.5c3.5-8.5,6.2-17.3,8.1-26.3c0.2-0.7,0.4-1.5,1-1.9c0.4-0.3,1-0.2,1.5-0.2c1.7,0.1,3.3,0.1,5,0.2c0.7,0,1.5,0.1,2.1,0.4
		c1.3,0.6,1.9,2.1,2.4,3.5c3.7,10.5,7,21.1,10,31.8c0.1,0.5,0.3,1,0.1,1.5c-0.2,0.4-0.5,0.6-0.8,0.8c-2.8,1.7-7,0.1-7.9-3
		c-0.2-0.8-0.3-1.6-0.8-2.2c-0.8-0.9-2.1-1-3.4-1c-2.3,0-4.7,0-7,0.1c-0.8,0-1.6,0.1-2.1,0.6c-0.7,0.8-0.4,1.9-0.4,3
		c0,0.2,0,0.3,0,0.5c-0.5,3.7-5.9,2.9-7.9,1.1C227.8,82.8,229.7,79.5,230.9,76.5z M197,51.6c3.3-4.9,9.9-7.1,15.6-5.8
		c5.7,1.3,10.5,5.9,12.5,11.4c2,5.5,1.5,11.9-1,17.2c-1.9,4.1-5.5,8.1-10,8.4c-11.4,0.8-17.9-8.4-19.5-18.3
		C193.9,60.1,194.4,55.3,197,51.6z M163.4,65.2c-0.5-8.2-1.6-16.6,0.4-24.7c0.2-0.9,0.5-1.8,1.3-2.3c0.6-0.4,1.4-0.4,2.2-0.3
		c4,0.3,8,0.5,11.8,1.8c3.8,1.2,7.4,3.5,9.3,7c2,3.5,2,8.2-0.6,11.2c-0.5,0.6-1.1,1.2-1.3,1.9c-0.1,0.6,0.1,1.2,0.2,1.7
		c1.2,4,2.4,8.1,3.6,12.1c0.6,2.1,1.2,4.7-0.3,6.4c-1.9,2.1-5.6,0.7-7.1-1.7c-1.5-2.4-1.6-5.3-2.5-8c-0.8-2.7-2.9-5.5-5.7-5.4
		c-0.6,0-1.3,0.2-1.7,0.6c-0.7,0.7-0.7,1.9-0.7,2.9c0.1,1.9,0.2,3.8,0.3,5.7c0.1,1.2,0,2.6-1,3.2c-1.8,1.1-6.3,0-7.5-1.8
		C162.6,73,163.6,67.9,163.4,65.2z M397.5,98.9c-1.9,0.4-3.9,0.7-5.8,1.1c-15.2,2.9-30.4,5.7-45.7,7.9c-15.2,2.2-30.5,3.9-45.9,4.7
		c-15.1,0.8-30.2,0.8-45.2,0.1c-15.2-0.7-30.3-2.2-45.3-4.4c-14.9-2.2-29.7-5.1-44.4-8.7c-2.5-0.6-1.4-4.4,1-3.8
		c1.8,0.4,3.6,0.9,5.4,1.3c14.6,3.4,29.3,6.2,44.2,8.1c14.9,2,29.9,3.2,44.9,3.7c15,0.5,30,0.3,45-0.7c15.2-1,30.3-2.8,45.3-5.1
		c15.2-2.4,30.3-5.2,45.5-8.1C399,94.6,400,98.4,397.5,98.9z M400.6,54.6c-0.4,0.9-0.8,1.6-1.1,2.5c-0.2,0.9-0.4,1.7-1.2,2.3
		c-2.8,2.1-6.1,3.9-9.6,4.4c-1,0.1-1.9,0.4-2.9,0.5c-1,0.2-2,0.1-1.9,1.3c0.1,2.1,0.5,4.1,0.2,6.2c-0.1,1.1-0.2,2.1-0.3,3.2
		c0,0.6,0.2,2.5-0.2,3c-0.3,0.4-2.3,0.5-2.8,0.6c-1,0.2-2,0.1-2.9,0.3c-0.9,0.1-1.9,0.4-3.4-0.3c0.4-2.1,0.3-3.9,0.2-6
		c-0.1-1.8,0.1-3.6-0.2-5.3c-0.6-3.8-0.3-8.1-0.3-12c0-2.2-0.2-4.3-0.2-6.5c0-1.1,0-2.2,0-3.3c0-0.9-0.3-2.4,0-3.2
		c0.4-1.4,3.5-1.8,4.8-2.1c1.9-0.4,3.9-0.8,5.8-1c2-0.3,4-0.5,6.1-0.6c1.1-0.1,2.1-0.3,3.2-0.2c1,0.1,1.5,0.6,2.3,1.2
		c1.5,1,2.9,1.7,3.6,3.5c0.6,1.7,1.1,4,1.3,5.8C401.3,50.7,401.5,52.7,400.6,54.6z"/>
	<path class="st0" d="M246.7,71.7c-1.7,0-3.5-0.1-6-0.4c0-1.1,0.7-2,1.1-3c0.4-1,0.6-2,0.9-3c0.3-1,0.6-2,1-3
		c0.2-0.7,0.5-2.3,1.1-2.7c0.9,0.9,1.2,3,1.5,4.1c0.4,1.5,0.9,3,1.2,4.5c0.2,0.8,0.3,1.5,0.4,2.3C248.2,71.8,247.8,71.7,246.7,71.7z
		"/>
	<path class="st0" d="M357.9,66.4c-0.2,0.7-0.9,0.8-1.5,0.9c-1.5,0.3-3.2-0.1-5.5,0.1c0.2-2.3,1-4.7,1.4-7.1c0.3-2.1,1-4.4,1.8-6.4
		c0.8,0.8,1,2.4,1.4,3.4c0.4,1.2,0.7,2.5,1,3.8c0.3,1.2,0.8,2.2,1.1,3.4C357.7,65,358,65.9,357.9,66.4z"/>
	<path class="st0" d="M389.4,54.1c-1.2,1.8-3.4,2.4-6,2c-0.1-2.1-0.4-4.1-0.5-6.2c0-0.8-0.3-2.3,0.3-3c0.6-0.7,2-0.8,2.8-0.8
		c2-0.1,3.9,0.5,4.7,2.6C391.2,50.7,390.5,52.6,389.4,54.1z"/>
	<path class="st0" d="M178.6,56.3c-4,2.7-6-0.6-6.6-4c-0.2-1.3-0.3-2.7,0.5-3.7c1.2-1.3,3.3-0.8,4.9,0c1.1,0.6,2.2,1.3,2.7,2.5
		C181,52.9,180.2,55.2,178.6,56.3z"/>
	<path class="st0" d="M284.5,73.9c-0.5,1.3-2,3.5-3.4,4c-1,0.3-2.3,0-3.3,0.1c-1,0-1.9,0.3-3.4-0.4c0-1.9-0.1-3.8,0-5.7
		c0.1-1.7,0.5-3.3,0.6-5c0.2-1.9,0.3-3.8,0.3-5.7c0-0.7-0.4-2.1-0.1-2.7c0.3-0.7,1.6-0.4,2.4-0.4c1.9,0,2.9,0.3,4.2,1.7
		c1.1,1.1,2,2.5,2.4,4C285.2,67,285.7,70.6,284.5,73.9z"/>
	<path class="st0" d="M217.6,63.5c0,5.3-2.1,12.8-7.9,11.3c-2.8-0.7-4.2-3.1-4.5-5.8c-0.5-3.7-1.4-8.3-1.1-12c0.1-0.7,0.2-1.5,0.6-2
		c0.6-0.8,1.6-1.2,2.5-1.4c0.9-0.2,1.9-0.4,2.8-0.3c3.6,0.2,6.5,3.5,7.3,7C217.5,61.1,217.6,62.2,217.6,63.5z"/>
	<path class="st0" d="M200.8,226.1c-1.2,2.1-2.4,4.1-3.6,6.2c-0.5,0.9-1,1.8-1.6,2.7c-0.3,0.4-0.5,0.8-0.8,1.2
		c-0.1,0.2-0.3,0.4-0.4,0.6c-0.2,0.2-0.3,0.4-0.3,0.4c-0.6,0.8-1.3,1.5-2,2.1c0,0-0.1,0.1-0.2,0.2c0,0,0,0,0,0c0,0,0,0,0,0
		c0,0,0,0,0,0c0,0-0.1,0.1-0.1,0.1c-0.2,0.1-0.4,0.3-0.6,0.4c-0.2,0.1-0.4,0.3-0.6,0.4c-0.1,0.1-0.3,0.1-0.4,0.2c0,0-0.1,0-0.1,0.1
		c0,0,0,0-0.1,0c0,0,0,0,0,0c-0.4,0.2-0.9,0.3-1.3,0.4c-0.2,0.1-0.5,0.1-0.7,0.2c-0.1,0-0.2,0-0.3,0.1c-0.1,0-0.1,0-0.1,0
		c0,0,0,0,0,0c0,0,0,0-0.1,0c-1,0.1-2,0.1-3,0.1c-1.1-0.1-1.7-0.2-2.8-0.4c-1-0.2-2-0.5-3.1-0.8c-0.9-0.2-1.7-0.5-2.5-0.8
		c-0.2-0.1-0.4-0.1-0.5-0.2c0,0,0,0,0,0c0,0,0,0,0,0c0,0,0,0,0,0c0,0,0,0,0,0c-0.1,0-0.3-0.1-0.3-0.1c-0.4-0.2-0.9-0.4-1.3-0.6
		c-0.4-0.2-0.8-0.4-1.1-0.7c-0.1-0.1-0.2-0.1-0.2-0.2c0,0-0.1-0.1-0.2-0.1v0c0,0,0,0,0,0c0,0-0.1,0-0.1,0c0,0,0,0,0,0
		c-0.1-0.1-0.2-0.2-0.3-0.3c-0.3-0.3-0.6-0.5-0.8-0.8c-0.1-0.1-0.1-0.1-0.2-0.2c0,0,0,0-0.1-0.1c-0.1-0.2-0.3-0.4-0.4-0.6
		c-0.1-0.2-0.2-0.4-0.3-0.6c-0.1-0.1-0.1-0.2-0.1-0.3c0,0,0,0,0,0c0,0,0,0,0,0c0,0,0,0,0-0.1c-0.2-0.5-0.4-1.1-0.4-1.7
		c0,0,0-0.4,0-0.5c0-0.3,0-0.6,0-0.8c0-0.6,0-1.2,0.1-1.8c0.2-2.5,0.8-5.2,1.1-7.8c0.3-2.4,0.3-4.9-0.1-7.3c3.2-3,7.1-5.2,11.9-5.7
		c5.6-0.6,10.6,2.1,14,6.4C198.8,218.4,200.2,222.2,200.8,226.1z"/>
	<path d="M204.7,236.8c-1.7,12.9-7.7,24.8-13.4,36.3c-5.8,11.8-11.4,23.8-12.8,37.1c-1.5,14.4,0.8,28.9,2,43.2
		c1.1,13.1,0.8,26-2.2,38.9c-2,8.4-4.9,16.5-8.7,24.2c-0.8,1.6-1.7,3.2-2.5,4.8c-6.7,12-15.6,22.7-26.2,31.3c-2,1.6-4.7-1.2-2.8-2.8
		c2.2-1.8,4.4-3.7,6.4-5.7c16.8-16.1,28-37.8,31.6-60.8c4.2-26.9-5.6-54-0.4-80.8c2.4-12.2,8.2-23.4,13.7-34.5
		c5.3-10.8,11-22.5,11.7-34.7c0-0.4,0-0.7,0.1-1.1c0.1-2.1,0-4.2-0.4-6.2c-0.6-3.9-2-7.7-4.6-10.8c-3.4-4.3-8.5-6.9-14-6.4
		c-4.8,0.5-8.6,2.6-11.9,5.7c-1.3,1.2-2.5,2.6-3.6,4c-3.6,4.8-6.3,10.7-8.5,15.9c-5.8,13.5-11.6,26.9-17.3,40.4
		c-4.9,11.5-9.8,23.3-18.4,32.6c-0.5,0.5-1.1,0.7-1.6,0.6c-0.8-0.1-1.5-0.8-1.7-1.7c0-0.1,0-0.2,0-0.3c0-0.5-0.1-1-0.1-1.5
		c-0.1-1-0.1-2-0.2-3c-0.6-8.4-1.1-16.7-1.7-25.1c-0.2-3.7-1-7.9,0.4-11.5c1-2.5,2.9-4.4,5.1-6c2.2-1.6,4.7-2.8,6.9-4.4
		c2.8-2.1,4-4.8,4.7-8.1c0.5-2.6,1-5.3,1.4-8c0.3-2,0.5-4.1,0.7-6.1c0.4-3.6,0.7-7.3,0.9-10.9c0.5-7.3,0.7-14.6,0.7-21.9
		c-1.7,1-3.4,2.1-5,3.3c-21.3,14.8-37.3,35.8-57.1,52.3c-4.8,4-9.9,7.6-15,11.2c-4.8,3.4-9.6,7.1-13.3,11.7
		c-1.2,1.4-2.1,2.9-2.9,4.5c-1.6,3-2.5,6.3-2.9,9.6c-1.1,8.4,0.6,17.5,1.8,25.9c2.1,15.1,4.5,30.3,8.5,45c2,7.3,4.2,14.6,4.8,22.2
		c0.6,7.5,0,15-1.1,22.5c-4.2,28.6-17.4,54.8-29.8,80.5c-2.8,5.9-5.7,11.9-9.6,17.3c-2,2.7-4.3,5.1-6.4,7.7
		c-2.1,2.6-3.8,5.5-5.3,8.4c-0.1,0.2-0.2,0.3-0.3,0.5H0c2-3.7,4-7.5,6.6-10.8c2.1-2.7,4.5-5,6.5-7.8c2-2.7,3.7-5.6,5.2-8.6
		c3.2-6.1,6.1-12.3,9.1-18.5c12.6-26.1,25.2-54,25.9-83.5c0.2-7.9-1.1-15.3-3.2-22.9c-2-7.4-4-14.7-5.5-22.2
		c-1.5-7.5-2.7-15-3.8-22.6c-1.1-7.3-2.3-14.7-3-22.1c-0.6-6.9-0.4-14,2.5-20.5c2.4-5.5,6.6-10,11.1-13.9c4.6-3.9,9.7-7.2,14.6-10.8
		c5.2-3.8,10.2-8,14.9-12.4c18.5-17,34.6-37,56.3-50.1c0.6-0.4,1.2-0.7,1.8-1c0.8-0.4,1.6-0.3,2.2,0.2c0.4,0.3,0.7,0.9,0.8,1.5
		c0.2,9.6-0.1,19.3-0.9,28.8c-0.4,4.2-0.8,8.4-1.4,12.6c-0.5,3.9-0.9,7.9-2,11.7c-0.9,3.1-2.5,5.8-5,7.8c-2.2,1.7-4.6,3-6.9,4.5
		c-2.2,1.5-4.3,3.2-4.8,6c-0.4,1.9-0.1,4,0.1,5.9c0.1,2.2,0.3,4.3,0.4,6.5c0.5,7,0.9,14,1.4,21c1.1-1.4,2.1-2.8,3-4.2
		c3.5-5.4,6.2-11.3,8.8-17.2c2.9-6.7,5.8-13.4,8.7-20.2c3-7.1,6.1-14.2,9.1-21.2c2.6-6.2,5.1-12.6,8.6-18.3
		c6.1-9.9,17.9-18.8,29.9-13.7C202.8,211.3,206.3,225.1,204.7,236.8z"/>
	<path class="st0" d="M189.4,268.1c5.3-10.8,11-22.5,11.7-34.7c-0.4,0.7-0.8,1.4-1.2,2c-1.2,2.1-2.6,4.3-4.4,6
		c-3.4,3.4-8.1,4.3-12.7,3.8c-4.1-0.5-8.6-1.7-12.1-4c-1.7-1.1-3.3-2.6-4.2-4.5c-1.1-2.3-1.3-4.9-1-7.4c0.4-3.6,1.3-7.2,1.3-10.8
		c-3.6,4.8-6.3,10.7-8.5,15.9c-5.8,13.5-11.6,26.9-17.3,40.4c-4.9,11.5-9.8,23.3-18.4,32.6c-0.5,0.5-1.1,0.7-1.6,0.6
		c-7.9,3.2-15.4,8-21.7,13.7c-0.8,0.7-2,0.8-2.8,0c-0.7-0.7-0.8-2.1,0-2.8c6.3-5.6,13.3-10.2,21-13.6c-2.1-1.2-4.2-2.3-6.4-3.3
		c-11.1-5-23.5-7.4-35.8-6.8c-1.1,0.1-1.9-0.9-2-2c0-1.1,0.9-1.9,2-2c3.6-0.2,7.2-0.1,10.7,0.2c11.5,1,22.8,4.4,32.9,10.1
		c-0.6-8.4-1.1-16.7-1.7-25.1c-0.2-3.7-1-7.9,0.4-11.5c1-2.5,2.9-4.4,5.1-6c2.2-1.6,4.7-2.8,6.9-4.4c2.8-2.1,4-4.8,4.7-8.1
		c0.5-2.6,1-5.3,1.4-8c-0.1-0.1-0.2-0.2-0.2-0.3c-1.2-2-2.5-4-3.9-6c-1.1-1.6-2.4-3.1-3.5-4.7c-0.8-1.1-1.5-2.2-2.2-3.3
		c-0.2-0.3-0.4-0.6-0.7-1c-0.1-0.2-0.2-0.3-0.4-0.5c0,0,0,0,0-0.1c0,0,0,0,0,0c0,0,0,0,0,0c0,0,0,0,0,0c0,0,0,0,0-0.1
		c-0.5-0.6-0.9-1.1-1.4-1.6c-0.1-0.1-0.3-0.3-0.4-0.4c0,0-0.1-0.1-0.2-0.2c0,0,0,0,0,0c0,0,0,0,0,0c-0.1-0.1-0.2-0.1-0.2-0.1
		c-0.1-0.1-0.2-0.1-0.3-0.2c0,0-0.1,0-0.1-0.1c-0.1,0-0.2,0-0.3-0.1c-0.3,0-0.3,0-0.1,0c0,0,0,0,0,0c-1,0.1-2-0.3-2.3-1.4
		c-0.3-0.9,0.3-2.3,1.4-2.4c2.1-0.3,3.7,0.6,5.2,1.9c2.3,2.1,3.8,5,5.6,7.5c0.1,0.1,0.1,0.2,0.1,0.2c0,0,0,0,0,0
		c0.1,0.2,0.3,0.4,0.5,0.6c0.4,0.5,0.8,1,1.2,1.5c0.7,0.9,1.3,1.8,2,2.7c0.4,0.6,0.9,1.3,1.3,1.9c0.4-3.6,0.7-7.3,0.9-10.9
		c0.5-7.3,0.7-14.6,0.7-21.9c-1.7,1-3.4,2.1-5,3.3c-21.3,14.8-37.3,35.8-57.1,52.3c-4.8,4-9.9,7.6-15,11.2
		c-4.8,3.4-9.6,7.1-13.3,11.7c-1.2,1.4-2.1,2.9-2.9,4.5c0.1,0.2,0.1,0.5,0.1,0.7c-0.2,2.5,0.2,4.6,0.6,7c0.4,2.3,0.7,4.6,1.3,6.8
		c0.6,2.3,1.3,4.7,2.1,7c1.6,4.4,3.8,8.6,5.9,12.8c0.5,1,0.3,2.1-0.7,2.7c-0.9,0.5-2.2,0.2-2.7-0.7c-1.3-2.5-2.5-5-3.7-7.5
		c-2.1-4.6-3.9-9.3-5-14.3c-0.4-1.6-0.6-3.3-0.9-4.9c-1.1,8.4,0.6,17.5,1.8,25.9c2.1,15.1,4.5,30.3,8.5,45c2,7.3,4.2,14.6,4.8,22.2
		c0.6,7.5,0,15-1.1,22.5c-4.2,28.6-17.4,54.8-29.8,80.5c-2.8,5.9-5.7,11.9-9.6,17.3c-2,2.7-4.3,5.1-6.4,7.7
		c-2.1,2.6-3.8,5.5-5.3,8.4c-0.1,0.2-0.2,0.3-0.3,0.5h130.2c0.2-0.3,0.3-0.7,0.5-1c2.2-4.3,4.8-8.4,7.9-12.2
		c3.2-4,6.9-7.4,10.7-10.7c3.9-3.4,7.8-6.8,11.1-10.8c3-3.6,5.6-7.7,7.8-12c4.5-8.8,7.3-18.6,9-28.5c1.8-10.3,2.3-20.8,2.9-31.3
		c-5.5,1.6-11,3.4-16.3,5.6c-0.4,0.1-0.7,0.1-1.1,0c-6.7,12-15.6,22.7-26.2,31.3c-2,1.6-4.7-1.2-2.8-2.8c2.2-1.8,4.4-3.7,6.4-5.7
		c16.8-16.1,28-37.8,31.6-60.8c4.2-26.9-5.6-54-0.4-80.8C178.1,290.4,183.9,279.2,189.4,268.1z M127.6,450.4
		c-0.3,1.1-1.4,1.6-2.4,1.4c-3.1-0.6-5.6-3.3-7.8-5.3c-1-0.9-2.1-1.7-3-2.6c-1.2-1.2-2.3-2.5-3.2-3.9c-1.7-2.5-3-5.2-4-8
		c-1.9-5.4-2.9-11.9-0.8-17.5c0.4-1,1.3-1.6,2.4-1.4c1,0.2,1.7,1.5,1.4,2.4c-0.3,0.7-0.5,1.4-0.6,2.2c-0.1,0.3-0.1,0.6-0.2,1
		c0,0,0,0,0,0.1c0,0,0,0,0,0c0,0,0,0,0,0c0,0,0,0,0,0c0,0,0,0,0,0.1c0,0.1,0,0.1,0,0.2c0,0.2,0,0.3,0,0.5c-0.1,1.5-0.1,3,0.1,4.5
		c0.1,0.6,0.1,1.1,0.3,1.9c0.1,0.7,0.3,1.3,0.4,1.9c0.3,1.3,0.8,2.6,1.2,3.9c0.1,0.2,0.2,0.4,0.3,0.6c0,0,0,0,0,0.1c0,0,0,0,0,0
		c0,0,0,0,0,0c0,0,0,0,0,0c0,0,0,0,0,0c0.1,0.3,0.2,0.5,0.3,0.8c0.3,0.5,0.5,1.1,0.8,1.6c0.7,1.3,1.5,2.5,2.3,3.7
		c0.7,1,1.8,2.2,2.9,3.1c0.9,0.8,1.9,1.6,2.8,2.5c0.5,0.4,1,0.9,1.5,1.3c0.3,0.2,0.5,0.4,0.8,0.6c0.1,0.1,0.2,0.2,0.3,0.3
		c0.1,0.1,0.1,0.1,0.1,0.1c0,0,0.1,0,0.1,0.1c0.5,0.4,1,0.7,1.6,1c0,0,0.2,0.1,0.3,0.1c0,0,0,0,0,0c0,0,0,0,0,0
		c0.1,0,0.2,0.1,0.2,0.1c0.3,0.1,0.5,0.1,0.8,0.2C127.3,448.1,127.8,449.4,127.6,450.4z M161.1,248.3c4.1-0.3,8.1,1.4,11.5,3.5
		c3.4,2.1,6.6,4.7,9.3,7.6c0.7,0.8,0.8,2,0,2.8c-0.7,0.7-2.1,0.8-2.8,0c-1.2-1.3-2.5-2.5-3.9-3.7c-0.4-0.3-0.7-0.6-1.1-0.9
		c0,0-0.1-0.1-0.1-0.1c0,0,0,0,0,0l0,0c0,0,0,0,0,0c0,0,0,0,0,0l0,0h0c-0.1-0.1-0.2-0.1-0.2-0.2c-0.2-0.1-0.3-0.2-0.5-0.4
		c-0.8-0.6-1.6-1.1-2.5-1.7c-0.8-0.5-1.7-1-2.6-1.4c-0.9-0.4-1.3-0.6-2.3-0.9c-0.8-0.3-1.7-0.5-2.5-0.6c0,0-0.1,0-0.1,0c0,0,0,0,0,0
		c-0.1,0-0.2,0-0.3,0c-0.2,0-0.4,0-0.6,0c-0.4,0-0.9,0-1.3,0c-1.1,0.1-1.9-1-2-2C159.1,249.2,160.1,248.4,161.1,248.3z M165.3,345.3
		L165.3,345.3C165.3,345.4,165.3,345.4,165.3,345.3c-0.1,0-0.1,0-0.1,0c-0.1,0-0.1,0-0.2,0c-0.1,0-0.2,0-0.3,0.1
		c-0.3,0.1-0.7,0.1-1,0.2c-0.6,0.1-1.2,0.3-1.8,0.5c-0.3,0.1-0.7,0.2-1,0.4c0,0-0.1,0-0.1,0c0,0,0,0,0,0c0,0-0.1,0-0.1,0
		c-0.2,0.1-0.3,0.1-0.5,0.2c-0.6,0.3-1.2,0.6-1.8,0.9c-4.4,2.5-8,6-11.3,10.1c-0.1,0.1-0.2,0.3-0.4,0.5c0,0,0,0,0,0v0h0v0
		c0,0,0,0,0,0c0,0,0,0,0,0c0,0,0,0,0,0c0,0,0,0,0,0c0,0,0,0,0,0v0c0,0,0,0,0,0c-0.2,0.3-0.4,0.5-0.6,0.8c-0.3,0.5-0.7,0.9-1,1.4
		c-0.7,1.1-1.4,2.2-2.1,3.3c-1.2,2-2.3,4-3.2,6.1c-0.4,1-1.9,1.2-2.7,0.7c-1-0.6-1.1-1.7-0.7-2.7c1.1-2.5,2.4-4.9,3.8-7.2
		c2.9-4.7,6.5-9,10.7-12.6c4.2-3.5,9-6.2,14.4-6.9c1.1-0.1,1.9,1,2,2C167.4,344.5,166.3,345.2,165.3,345.3z M172.9,269
		c-0.5-0.7-1.1-1.3-1.7-1.9c-0.3-0.3-0.6-0.6-0.9-0.8c0,0-0.4-0.3-0.4-0.3c-0.1-0.1-0.3-0.2-0.4-0.3c-0.7-0.5-1.5-1-2.3-1.5
		c-0.4-0.2-0.8-0.4-1.2-0.6c-0.2-0.1-0.5-0.2-0.7-0.3c-0.1,0-0.2-0.1-0.2-0.1c0,0,0,0,0,0c0,0,0,0,0,0c0,0,0,0-0.1,0
		c-0.9-0.3-1.7-0.6-2.6-0.9c-0.4-0.1-0.8-0.2-1.3-0.3c-0.2-0.1-0.5-0.1-0.7-0.1c0,0-0.4,0-0.5-0.1c0,0,0,0,0,0
		c-0.8-0.1-1.6-0.1-2.4-0.1c-0.2,0-0.5,0-0.7,0c0,0-0.2,0-0.3,0c0,0,0,0,0,0c-0.4,0.1-0.8,0.1-1.1,0.2c-1,0.3-2.1-0.3-2.4-1.4
		c-0.3-1,0.3-2.2,1.4-2.4c3.9-1,8.1-0.3,11.8,1.2c3.7,1.5,7.3,3.7,9.8,6.9c0.7,0.8,0.8,2,0,2.8C175,269.7,173.5,269.8,172.9,269z"/>
	<path class="st0" d="M527.2,460.6c-2.7-6.5-5.2-13-7.6-19.6c-2.5-6.7-5-13.5-6.6-20.6c-3.2-14.4-1-29.6,0.6-44
		c1.6-14.8,3.8-29.5,6.6-44c1.4-7.2,3.1-14.4,4.4-21.6c1.2-6.7,1.6-13.7-0.9-20.1c0-0.1-0.1-0.2-0.1-0.3c0,0.7-0.1,1.4-0.1,2.2
		c-0.2,2.7-0.6,5.4-1.4,8c-0.8,2.6-1.8,5.2-2.8,7.8c-1,2.6-2.2,4.9-4.1,6.9c-0.4,0.4-0.8,0.9-1.2,1.3c-0.2,0.2-0.3,0.4-0.5,0.6
		c-0.1,0.1-0.2,0.2-0.3,0.4c0,0-0.1,0.1-0.1,0.2c0,0,0,0,0,0l0,0c-0.3,0.4-0.6,0.9-0.8,1.3c0,0,0,0,0,0.1c0,0,0,0,0,0
		c-0.1,0.1-0.1,0.3-0.1,0.4c-0.1,0.3-0.1,0.5-0.2,0.8c-0.2,1.1-1.5,1.6-2.4,1.4c-1.1-0.3-1.6-1.4-1.4-2.4c0.5-2.8,2.6-4.8,4.4-6.8
		c0.2-0.2,0.4-0.5,0.6-0.7c0.1-0.1,0.2-0.2,0.3-0.3c0,0,0,0,0.1-0.1c0.3-0.5,0.7-1,0.9-1.5c0.7-1.2,1-2.1,1.5-3.4
		c0.9-2.5,2-5,2.7-7.6c0.3-1.3,0.6-2.5,0.8-3.8l0-0.3c0,0,0-0.1,0-0.1c0-0.1,0-0.2,0-0.3c0-0.3,0.1-0.6,0.1-1
		c0.1-0.6,0.1-1.2,0.1-1.8c0.2-2.6,0.2-5.2,0.1-7.8c-5.2-6.9-12.8-12.2-19-17.9c-8.9-8.2-16.1-18-23.8-27.2
		c-7.6-9-15.9-17.2-26.4-22.7c-8.4-4.4-17.5-8.1-24.3-14.8c0.2,5.2,0.6,10.5,1,15.7c0.6,7.9,1.2,15.8,1.7,23.7c0,0.3,0,0.5,0.1,0.8
		c0.2,0.2,0.4,0.5,0.5,0.8c0.8,3.7,2.4,6.8,4.5,9.9c1.8,2.5,3.8,5,6.1,7.3c2.1,2.1,4.5,3.9,7.2,4.7c1.4,0.4,3.1,0.4,4.8,0.2
		c1.9-0.3,3.7-0.9,5.5-1.4c3.6-1.1,7.1-2.4,10.4-3.9c1-0.4,2.1-0.3,2.7,0.7c0.5,0.8,0.3,2.3-0.7,2.7c-4.2,1.9-8.5,3.5-12.9,4.7
		c-0.7,0.2-1.5,0.4-2.2,0.6c-0.3,0.4-0.6,0.7-1.1,0.8c-0.3,0.1-0.7,0.2-1,0.3c0,0,0,0,0,0c0,0-0.1,0-0.1,0.1
		c-0.1,0.1-0.2,0.1-0.3,0.2c-0.2,0.1-0.3,0.2-0.5,0.3c0,0,0,0-0.1,0c-0.2,0.2-0.5,0.4-0.7,0.6c-0.2,0.2-0.4,0.4-0.6,0.7c0,0,0,0,0,0
		c0,0,0,0,0,0c0,0,0,0,0,0c-0.1,0.1-0.2,0.3-0.2,0.3c-0.1,0.1-0.2,0.2-0.2,0.3c-0.4,0.6-0.7,1.1-1,1.7c-2.3,4.5-3.4,10-3.8,14.9
		c-0.4,4.6-0.4,9.2-0.3,13.8c2-1.4,4.3-2.6,6.5-3.6c13.1-6.2,27.4-9.8,41.9-10.5c1.1-0.1,1.9,0.9,2,2c0,1.1-0.9,1.9-2,2
		c-3.9,0.2-7.7,0.6-11.4,1.2c-6.9,1.1-13.6,2.9-20.2,5.3c-3.2,1.2-6.2,2.4-9.2,3.9c-2.4,1.2-4.8,2.4-6.8,4.1
		c5.4,5.7,11.2,11.1,16.9,16.4c1.9,1.7-0.9,4.5-2.8,2.8c-2.3-2.2-4.7-4.4-7-6.6c-9.7-9.2-19-18.9-26.3-30.2
		c-3.6-5.6-6.5-11.6-8.7-17.8c-2.4-7-4-14.3-5.7-21.5c-2.4-10.3-5.4-21-11.7-29.5c0.5,3.1,0.9,6.3,0.6,9.5
		c-0.5,4.3-2.2,8.3-5.8,10.9c-3.2,2.4-7.4,3.2-11.3,3.7c-2.4,0.3-4.8,0.6-7.2,0.3c-2.3-0.3-4.5-1-6.4-2.3c-2-1.2-3.6-2.8-5.1-4.5
		c0,5.9,0.4,11.8,1.6,17.6c2.9,13.5,10.4,25.3,15.6,37.9c2.7,6.6,4.4,13.3,5.2,20.4c0.8,7.6,0.6,15.3,0.4,23
		c-0.4,15.5,0.1,31,1.8,46.5c0.8,7.6,1.8,15.4,3.4,22.9c1.4,6.2,3.5,12.2,6.9,17.6c6.2,10,15.8,17.9,26.8,21.8
		c2.4,0.8,1.3,4.6-1,3.8c-2.8-1-5.6-2.2-8.3-3.7c-10.6-5.8-19.4-15.2-24.3-26.3c-0.2,0-0.3,0-0.5,0c-1.9-0.1-3.8-0.3-5.8-0.4
		c-2.3-0.2-4.6-0.4-6.9-0.7c0.1,0.5,0.1,1.1,0.2,1.6c1.2,9.8,3.3,19.7,6,29.3c1.4,4.9,2.9,9.7,4.7,14.4c1.6,4.5,3.3,8.7,5.3,12.9
		c2,4.1,4.2,8.2,6.9,11.9c1.2,1.7,2.7,3.4,4.3,5c1.6,1.6,3.4,3.1,5.1,4.6c3.6,2.9,7.4,5.6,10.7,8.9c3.2,3.1,5.9,6.8,8.1,10.7
		c1,1.8,1.8,3.7,2.6,5.5h122.7C545.7,502.3,535.8,481.7,527.2,460.6z M384.9,263.3c-0.9-0.5-1.2-1.8-0.7-2.7c0.8-1.4,2-2.5,3.3-3.4
		c2.4-1.8,5.2-3,8-3.9c2.5-0.8,5.3-1.5,8-1.5c1.1,0,1.9,0.9,2,2c0,1.1-0.9,2-2,2c-0.3,0-0.7,0-1,0c-0.2,0-0.4,0-0.5,0
		c-0.1,0-0.3,0-0.4,0c0,0,0,0-0.1,0c0,0,0,0,0,0c-0.7,0.1-1.4,0.2-2.1,0.4c-1.7,0.4-3.3,0.9-5,1.6c0,0-0.4,0.2-0.5,0.2c0,0,0,0,0,0
		c-0.2,0.1-0.4,0.2-0.5,0.2c-0.4,0.2-0.7,0.3-1.1,0.5c-0.7,0.4-1.5,0.8-2.2,1.3c-0.2,0.1-0.3,0.2-0.5,0.4c0,0-0.1,0.1-0.1,0.1
		c0,0,0,0,0,0c0,0,0,0,0,0l0,0c-0.3,0.2-0.5,0.4-0.8,0.7c-0.3,0.3-0.5,0.5-0.8,0.8c0,0,0,0,0,0c0,0-0.1,0.1-0.1,0.1
		c-0.1,0.1-0.2,0.3-0.3,0.4C387,263.5,385.8,263.8,384.9,263.3z M393.2,269.9c-0.4,0.2-0.7,0.4-1,0.7c0,0-0.2,0.2-0.3,0.3
		c0,0,0,0,0,0c0,0,0,0,0,0c-0.1,0.1-0.3,0.2-0.4,0.3c-0.2,0.2-0.4,0.4-0.6,0.6v0c0,0.1-0.2,0.2-0.2,0.3c0,0.1-0.1,0.3-0.2,0.3
		c0,0,0-0.1,0-0.1c-0.4,1-1.3,1.5-2.4,1.3c-1-0.2-1.8-1.5-1.4-2.4c0.7-1.8,2-3,3.5-4c1.2-0.8,2.5-1.5,3.9-2.2c1.4-0.7,2.8-1.4,4.3-2
		c3.5-1.4,7.2-1.8,10.9-1.8c1.1,0,1.9,0.9,2,2c0,1.1-0.9,2-2,2c-1.1,0-2.2,0-3.4,0.1c-0.3,0-0.6,0-0.8,0.1c-0.1,0-0.2,0-0.3,0
		c0,0,0,0-0.1,0c0,0-0.1,0-0.1,0c-0.5,0.1-0.9,0.2-1.4,0.3c-2,0.4-3.6,1.1-5.4,2C396.1,268.3,394.6,269.1,393.2,269.9z M432.6,366.3
		c-0.7,0.7-2.1,0.8-2.8,0c-1.8-2-3.6-3.9-5.5-5.8c-3.9-3.8-7.7-7.1-12.2-9.9c-1.1-0.7-2.2-1.3-3.4-1.9c-0.6-0.3-1.1-0.6-1.7-0.8
		c-0.1-0.1-0.3-0.1-0.4-0.2c0,0,0,0,0,0l0,0c0,0,0,0,0,0c0,0,0,0,0,0c0,0,0,0-0.1,0c-0.3-0.1-0.6-0.2-0.9-0.3
		c-1.1-0.4-2.3-0.8-3.4-1c-0.3-0.1-0.6-0.1-0.8-0.2c-0.2,0-0.3-0.1-0.5-0.1c0,0,0,0-0.1,0c-0.5-0.1-1.1-0.1-1.6-0.1
		c-1.1,0-1.9-0.9-2-2c0-1,0.9-2,2-2c2.8,0.1,5.6,0.8,8.3,1.8c5.2,2.1,9.9,5.4,14.2,8.9c3.9,3.3,7.6,6.9,11,10.8
		C433.3,364.3,433.4,365.5,432.6,366.3z M462.5,425c-0.9,4.7-3.4,8.9-6.3,12.6c-2.9,3.7-6.5,6.8-10.3,9.5c-0.9,0.6-2.2,0.2-2.7-0.7
		c-0.6-1-0.2-2.1,0.7-2.7c0.5-0.3,1-0.7,1.5-1c0.1-0.1,0.2-0.1,0.3-0.2c0,0,0,0,0,0c0,0,0,0,0,0c0,0,0,0,0,0c0,0,0.1-0.1,0.1-0.1
		c0.2-0.2,0.5-0.4,0.7-0.5c0.9-0.8,1.8-1.5,2.7-2.4c3.2-3,5.8-6.1,7.7-10.1c0.1-0.3,0.3-0.6,0.4-0.9c0,0,0-0.1,0.1-0.1c0,0,0,0,0,0
		c0,0,0,0,0,0c0,0,0,0,0,0c0,0,0,0,0,0c0-0.1,0-0.1,0.1-0.2c0.2-0.5,0.4-1,0.5-1.5c0.3-1,0.6-2,0.8-3.1c0-0.1,0-0.2,0.1-0.4
		c0,0,0,0,0,0s0,0,0,0v0c0,0,0,0,0,0v0c0,0,0,0,0,0c0,0,0,0,0,0c0,0,0,0,0,0c0,0,0-0.1,0-0.1c0-0.3,0.1-0.5,0.1-0.8
		c0-0.5,0.1-1.1,0.1-1.6c0-0.5,0-1.1-0.1-1.6c0,0-0.1-0.5-0.1-0.6c0,0,0,0,0,0c0-0.3-0.1-0.5-0.1-0.7c-0.2-1,0.3-2.1,1.4-2.4
		c1-0.3,2.2,0.3,2.4,1.4C463,419.4,463,422.2,462.5,425z"/>
	<g>
		<g>
			<path d="M132.9,251.3c0.1,10.4,0.5,20.8,0.5,31.2c0,2.5,3.9,2.5,3.9,0c0-10.4-0.5-20.8-0.5-31.2
				C136.9,248.8,132.9,248.8,132.9,251.3L132.9,251.3z"/>
		</g>
	</g>
</g>
<g>
	<g>
		<path d="M288.9,307.7c0.7-17.7,1.3-35.3,1.9-53s1-35.3,1.4-53c0.2-10,0.4-19.9,0.6-29.9c0-2.4-2.1-4.6-4.5-4.5
			c-2.5,0.1-4.5,2-4.5,4.5c-0.3,17.7-0.7,35.3-1.1,53c-0.5,17.7-1,35.3-1.6,53c-0.3,10-0.7,19.9-1.1,29.9c-0.1,2.4,2.1,4.6,4.5,4.5
			C286.9,312,288.8,310.2,288.9,307.7L288.9,307.7z"/>
	</g>
</g>
<g>
	<g>
		<path d="M248.6,208.5c11.9-7.3,23-16.1,32.7-26.2c2.3-2.4,4.5-5.2,7.1-7.4c-0.6,0.5,0.1,0,0.2-0.1c0.3-0.2,0.6-0.4,0.8-0.5
			c0.2-0.1,1.3-0.4,0.3-0.2c0.3-0.1,1.3-0.2,0.2-0.1c0.1,0,0.2,0,0.4,0c0.5,0,0.5,0-0.1-0.1c0.1,0,0.2,0.1,0.4,0.1
			c-0.5-0.2-0.5-0.2,0,0c0,0,0.7,0.7,0,0c0.4,0.4,0.7,0.7,1,1.1c-0.7-0.8,0.1,0.2,0.2,0.3c0.3,0.4,0.6,0.8,0.9,1.2
			c0.5,0.7,1,1.3,1.5,2c1.3,1.7,2.5,3.5,3.8,5.2c2.2,3.1,4.5,6.2,6.7,9.3c5.2,7.1,10.3,14.2,15.5,21.4c1.4,1.9,4,3,6.2,1.6
			c1.9-1.2,3.1-4.1,1.6-6.2c-9.6-13.2-19-26.6-28.7-39.7c-1.2-1.6-2.5-3.2-4.4-4.2c-2.2-1.1-4.7-1.4-7-0.7c-3.6,1-6.5,3.7-8.9,6.4
			c-4.8,5.3-9.9,10.4-15.4,15c-6,5.1-12.2,9.6-19.4,14c-2,1.2-2.9,4.1-1.6,6.2C243.8,208.9,246.5,209.8,248.6,208.5L248.6,208.5z"/>
	</g>
</g>
</svg>
