<?xml version="1.0" encoding="utf-8"?>
<!-- Generator: Adobe Illustrator 27.9.4, SVG Export Plug-In . SVG Version: 9.03 Build 54784)  -->
<svg version="1.1" xmlns="http://www.w3.org/2000/svg" xmlns:xlink="http://www.w3.org/1999/xlink" x="0px" y="0px"
	 viewBox="0 0 738.5 879.3" style="enable-background:new 0 0 738.5 879.3;" xml:space="preserve">
<style type="text/css">
	.st0{fill:#FFFFFF;}
</style>
<g id="Calque_4">
</g>
<g id="Calque_2">
</g>
<g id="Calque_3">
	<g>
		<path class="st0" d="M528.4,741.2c5.3-15.7,8.2-32.5,8.2-50v-60.4H202v60.4c0,17.5,2.9,34.3,8.2,50H528.4z"/>
		<path class="st0" d="M0,2v404c111.6,0,202-90.4,202-202S111.6,2,0,2z"/>
		<path d="M0,0v4c110.3,0,200,89.7,200,200S110.3,404,0,404v4c112.5,0,204-91.5,204-204S112.5,0,0,0z"/>
		<path class="st0" d="M10,332.8H0v16.8h30.7c32.5,0,62.7,10,87.9,27C90.3,349.5,52,332.8,10,332.8z"/>
		<path d="M10,330.8H0v4h10c32.2,0,63.1,9.9,89.1,28.3c-21.3-10.2-44.5-15.5-68.3-15.5H0v4h30.7c31,0,61,9.2,86.7,26.7l2.5-3.1
			C90.1,346.6,51.1,330.8,10,330.8z"/>
		<path class="st0" d="M188,640.5V506.9c0-86.5-70.8-157.3-157.3-157.3H0v290.9H188z"/>
		<path d="M186,506.9v133.6h4V506.9c0-42.4-16.6-82.3-46.8-112.5c-30.2-30.2-70.1-46.8-112.5-46.8H0v4h30.7
			C116.5,351.6,186,421.1,186,506.9z"/>
		<path class="st0" d="M188,674.4v-43.6H0v110.4h173C182.6,720.9,188,698.2,188,674.4z"/>
		<path d="M188.6,629.3c-10.1,0.1-20.2-0.9-30.3-0.7c-12,0.2-23.5,3.9-35.2,6.2c-13.5,2.7-27.3,2.6-41,2.5
			c-13.8-0.1-27.7-0.1-41.5-0.2c-13.3-0.1-26.5,0.1-39.5,3.2c-0.4,0.1-0.7,0.2-1.1,0.3v4.6c3.1-0.7,6.3-1.5,9.4-2.1
			c6.6-1.1,13.3-1.4,20-1.5c13.8-0.2,27.6,0.1,41.3,0.2c13.9,0.1,27.8,0.6,41.7-0.9c6.7-0.7,13.4-2,20-3.5
			c6.2-1.4,12.5-3.1,18.8-3.9c10.2-1.2,20.7-0.1,30.9,0.2c2.2,0.1,4.4,0.1,6.5,0.1C191.5,633.7,191.5,629.2,188.6,629.3z"/>
		<path d="M183.6,701.8c-23.1,7.4-47,12.6-71.1,15.4c-24.6,2.8-49.2,2.5-73.9,2c-12.9-0.3-25.7-0.5-38.6-0.8v4.5
			c9.7,0.2,19.5,0.4,29.2,0.6c25,0.5,50,1.3,74.9-0.9c24.4-2.2,48.5-6.8,71.9-13.7c2.9-0.9,5.8-1.7,8.6-2.7
			C187.5,705.2,186.3,700.9,183.6,701.8z"/>
		<g>
			<g>
				<path d="M8.2,661.9c-2.9,9.4-5.7,18.9-6.7,28.7c-0.5,4.9-0.5,9.8,0,14.7c0.6,4.9,1.6,9.8,2.7,14.6c0.6,2.8,5,1.6,4.3-1.2
					c-1-4.6-2-9.2-2.5-13.9c-0.5-4.7-0.5-9.5,0-14.2c1-9.4,3.8-18.5,6.6-27.5C13.4,660.3,9,659.1,8.2,661.9L8.2,661.9z"/>
			</g>
		</g>
		<path d="M188.4,621.1c-21.5-6-44.5-2.1-66.1,1.2c-11.6,1.7-23,3-34.7,3.4c-12.6,0.4-25.3,0.5-38,0.8c-12.6,0.3-25.3,0.7-37.9,0.7
			c-3.9,0-7.8-0.1-11.6-0.3v4.5c0.3,0,0.6,0,0.9,0.1c12.6,0.5,25.2,0,37.7-0.3c12.7-0.3,25.4-0.5,38.1-0.8
			c12.1-0.2,24.1-0.6,36.1-2.3c21.8-3,44.5-8.1,66.6-4.4c2.6,0.4,5.1,1,7.7,1.7C190,626.2,191.1,621.9,188.4,621.1z"/>
		<g>
			<g>
				<path d="M164,652.8c5.3,4.4,8.4,10.6,9.7,17.3c1.5,7.7,0.4,15.6-1.5,23.1c-1.2,4.7-2.7,9.3-4.2,13.9c-0.6,1.8,2.3,2.6,2.9,0.8
					c5-15.3,10.1-32.3,2.6-47.7c-1.8-3.6-4.3-6.9-7.4-9.5C164.6,649.5,162.5,651.6,164,652.8L164,652.8z"/>
			</g>
		</g>
		<path d="M175.3,741.2c9.6-20.7,14.7-43.4,14.7-66.8v-43.6h-4v43.6c0,23.9-5.4,46.6-15.1,66.8H175.3z"/>
		<path d="M107.9,79.5c0.7-3.3,1.7-7.8,5.6-8.8c1.3-0.3,2.7-0.1,3.4,1.1c0.4,0.8,0.6,2.3-0.3,2.8c0.7,0.6,1.4,1.3,2,1.9
			c0.7-1.3,2.5-1.5,3.7-1.2c1.9,0.5,2.9,2.2,3.1,4.1c0.5,4.8-3.7,8.3-7,11.1c-1.5,1.2,0.4,3.5,1.9,2.3c4.6-3.9,9.9-9.2,7.6-15.8
			c-0.9-2.6-3.1-4.4-5.8-4.7c-2.6-0.3-5.1,0.8-6.3,3.2c-0.6,1.1,0.9,2.5,2,1.9c2.1-1.2,2.8-3.5,2.2-5.7c-0.7-2.4-2.7-4-5.2-4.1
			c-2.6-0.1-5.1,1.3-6.7,3.4c-1.9,2.4-2.5,5.4-3.2,8.3C104.5,81.1,107.5,81.4,107.9,79.5L107.9,79.5z"/>
		<path class="st0" d="M738.5,2v404c-111.6,0-202-90.4-202-202S626.9,2,738.5,2z"/>
		<path d="M738.5,0v4c-110.3,0-200,89.7-200,200s89.7,200,200,200v4c-112.5,0-204-91.5-204-204S626,0,738.5,0z"/>
		<path class="st0" d="M728.5,332.8h10v16.8h-30.7c-32.5,0-62.7,10-87.9,27C648.2,349.5,686.5,332.8,728.5,332.8z"/>
		<path d="M728.5,330.8h10v4h-10c-32.2,0-63.1,9.9-89.1,28.3c21.3-10.2,44.5-15.5,68.3-15.5h30.8v4h-30.7c-31,0-61,9.2-86.7,26.7
			l-2.5-3.1C648.4,346.6,687.4,330.8,728.5,330.8z"/>
		<path class="st0" d="M550.5,640.5V506.9c0-86.5,70.8-157.3,157.3-157.3h30.7v290.9H550.5z"/>
		<path d="M552.5,506.9v133.6h-4V506.9c0-42.4,16.6-82.3,46.8-112.5c30.2-30.2,70.1-46.8,112.5-46.8h30.7v4h-30.7
			C622,351.6,552.5,421.1,552.5,506.9z"/>
		<path class="st0" d="M738.5,741.2V630.8h-188v43.6c0,23.8,5.4,46.5,15,66.8H738.5z"/>
		<path d="M549.9,629.3c10.1,0.1,20.2-0.9,30.3-0.7c12,0.2,23.5,3.9,35.2,6.2c13.5,2.7,27.3,2.6,41,2.5c13.8-0.1,27.7-0.1,41.5-0.2
			c13.3-0.1,26.5,0.1,39.5,3.2c0.4,0.1,0.7,0.2,1.1,0.3v4.6c-3.1-0.7-6.3-1.5-9.4-2.1c-6.6-1.1-13.3-1.4-20-1.5
			c-13.8-0.2-27.6,0.1-41.3,0.2c-13.9,0.1-27.8,0.6-41.7-0.9c-6.7-0.7-13.4-2-20-3.5c-6.2-1.4-12.5-3.1-18.8-3.9
			c-10.2-1.2-20.7-0.1-30.9,0.2c-2.2,0.1-4.4,0.1-6.5,0.1C547,633.7,547,629.2,549.9,629.3z"/>
		<path d="M554.9,701.8c23.1,7.4,47,12.6,71.1,15.4c24.6,2.8,49.2,2.5,73.9,2c12.9-0.3,25.7-0.5,38.6-0.8v4.5
			c-9.7,0.2-19.5,0.4-29.2,0.6c-25,0.5-50,1.3-74.9-0.9c-24.4-2.2-48.5-6.8-71.9-13.7c-2.9-0.9-5.8-1.7-8.6-2.7
			C551,705.2,552.2,700.9,554.9,701.8z"/>
		<path d="M550.1,621.1c21.5-6,44.5-2.1,66.1,1.2c11.6,1.7,23,3,34.7,3.4c12.6,0.4,25.3,0.5,38,0.8c12.6,0.3,25.3,0.7,37.9,0.7
			c3.9,0,7.8-0.1,11.6-0.3v4.5c-0.3,0-0.6,0-0.9,0.1c-12.6,0.5-25.2,0-37.7-0.3c-12.7-0.3-25.4-0.5-38.1-0.8
			c-12.1-0.2-24.1-0.6-36.1-2.3c-21.8-3-44.5-8.1-66.6-4.4c-2.6,0.4-5.1,1-7.7,1.7C548.5,626.2,547.4,621.9,550.1,621.1z"/>
		<g>
			<g>
				<path d="M572.4,650.7c-5.6,4.6-9,11.3-10.4,18.3c-1.7,8-0.8,16.2,1.2,24.1c1.2,5,2.8,9.9,4.4,14.8c0.6,1.8,3.5,1,2.9-0.8
					c-4.7-14.4-10-30.8-2.9-45.4c1.7-3.4,4-6.5,7-8.9C576,651.6,573.9,649.5,572.4,650.7L572.4,650.7z"/>
			</g>
		</g>
		<circle class="st0" cx="369.3" cy="204" r="202"/>
		<path d="M369.3,408c-112.5,0-204-91.5-204-204S256.8,0,369.3,0s204,91.5,204,204S481.7,408,369.3,408z M369.3,4
			c-110.3,0-200,89.7-200,200s89.7,200,200,200s200-89.7,200-200S479.5,4,369.3,4z"/>
		<path class="st0" d="M536.5,640.5V490.1c0-86.5-70.8-157.3-157.3-157.3h-20c-86.5,0-157.3,70.8-157.3,157.3v150.4H536.5z"/>
		<path d="M204,640.5V490.1c0-85.6,69.6-155.3,155.3-155.3h20c85.6,0,155.3,69.6,155.3,155.3v150.4h4V490.1
			c0-42.4-16.6-82.3-46.8-112.5c-30.2-30.2-70.1-46.8-112.5-46.8h-20c-42.4,0-82.3,16.6-112.5,46.8c-30.2,30.2-46.8,70.1-46.8,112.5
			v150.4H204z"/>
		<path class="st0" d="M557.3,640.5V506.9c0-86.5-70.8-157.3-157.3-157.3h-61.5c-86.5,0-157.3,70.8-157.3,157.3v133.6L557.3,640.5
			L557.3,640.5z"/>
		<path d="M183.3,640.5V506.9c0-85.6,69.6-155.3,155.3-155.3H400c85.6,0,155.3,69.6,155.3,155.3v133.6h4V506.9
			c0-42.4-16.6-82.3-46.8-112.5c-30.2-30.2-70.1-46.8-112.5-46.8h-61.5c-42.4,0-82.3,16.6-112.5,46.8
			c-30.2,30.2-46.8,70.1-46.8,112.5v133.6L183.3,640.5L183.3,640.5z"/>
		<path d="M477.2,79.5c0.7-3.3,1.7-7.8,5.6-8.8c1.3-0.3,2.7-0.1,3.4,1.1c0.4,0.8,0.6,2.3-0.3,2.8c0.7,0.6,1.4,1.3,2,1.9
			c0.7-1.3,2.5-1.5,3.7-1.2c1.9,0.5,2.9,2.2,3.1,4.1c0.5,4.8-3.7,8.3-7,11.1c-1.5,1.2,0.4,3.5,1.9,2.3c4.6-3.9,9.9-9.2,7.6-15.8
			c-0.9-2.6-3.1-4.4-5.8-4.7c-2.6-0.3-5.1,0.8-6.3,3.2c-0.6,1.1,0.9,2.5,2,1.9c2.1-1.2,2.8-3.5,2.2-5.7c-0.7-2.4-2.7-4-5.2-4.1
			c-2.6-0.1-5.1,1.3-6.7,3.4c-1.9,2.4-2.5,5.4-3.2,8.3C473.8,81.1,476.7,81.4,477.2,79.5L477.2,79.5z"/>
		<g>
			<path d="M530.5,741.2c5.3-15.9,8-32.8,8-50v-60.4h-4v60.4c0,17.5-2.9,34.3-8.3,50H530.5z"/>
			<path d="M212.2,741.2c-5.3-15.7-8.3-32.5-8.3-50v-60.4h-4v60.4c0,17.2,2.7,34.1,8,50H212.2z"/>
		</g>
		<path class="st0" d="M542.3,741.2c9.6-20.3,15-43,15-66.8v-43.6H181.2v43.6c0,23.9,5.4,46.5,15,66.8H542.3z"/>
		<g>
			<path d="M544.6,741.2c9.6-20.7,14.7-43.4,14.7-66.8v-43.6h-4.1v43.6c0,23.9-5.4,46.6-15.1,66.8H544.6z"/>
			<path d="M198.3,741.2c-9.7-20.2-15.1-42.9-15.1-66.8v-43.6h-4v43.6c0,23.4,5.1,46.1,14.7,66.8H198.3z"/>
		</g>
		<g>
			<g>
				<g>
					<path d="M187.5,633.5c9.3,6,20.7,3.8,31.1,3.5c5.9-0.2,11.4,0.7,17,2.3c5.6,1.6,11.1,3.7,16.7,5.1c10.8,2.6,21.6,1.5,32.4-0.7
						c10.6-2.1,21.1-5.2,31.9-5.6c5.2-0.2,10.4,0.3,15.4,1.9c5.5,1.7,10.4,4.8,16,6.3c6.1,1.6,12.2,0.6,18.2-0.8
						c6.3-1.5,12.5-2.9,19-3.5c12.7-1.1,25.5-0.5,38.3-0.5c13,0.1,26,0.3,39,0.1c6.5-0.1,12.9-0.3,19.4-1.1c6.4-0.7,12.6-2,18.8-3.4
						c6.2-1.4,12.5-2.9,18.8-3.9c6.4-0.9,12.9-1.3,19.4-1.4c3.3-0.1,6.6-0.1,9.9-0.2c2.9,0,2.9-4.5,0-4.5
						c-12.9,0.2-25.7,0.6-38.4,3.2c-6.2,1.3-12.2,2.8-18.4,4.1c-6.4,1.3-12.8,2-19.3,2.4c-12.8,0.7-25.8,0.3-38.6,0.3
						c-12.9-0.1-25.8-0.4-38.6-0.1c-6.3,0.1-12.5,0.6-18.7,1.6c-6.2,1-12.1,3.1-18.3,3.8c-3.1,0.4-6.3,0.3-9.3-0.5
						c-2.8-0.7-5.4-1.9-7.9-3c-5.1-2.3-10-4.2-15.6-4.9c-21.5-2.8-41.9,8.6-63.4,7.3c-11.5-0.7-21.8-6.4-33.1-8.3
						c-5.5-0.9-11-0.7-16.5-0.3c-5.3,0.3-10.7,0.8-15.9-0.3c-2.5-0.5-4.8-1.5-7-2.9C187.3,628,185,631.9,187.5,633.5L187.5,633.5z"
						/>
				</g>
			</g>
			<g>
				<g>
					<path d="M187.2,697.6c21.7,8.6,44.5,14.2,67.5,17.8c23.2,3.6,46.7,5.3,70.1,6.3c24.1,1,48.3,1.3,72.4,1.8
						c25,0.5,50,1.3,74.9-0.9c24.4-2.2,48.5-6.8,71.9-13.7c2.9-0.9,5.8-1.7,8.6-2.7c2.7-0.9,1.6-5.2-1.2-4.3
						c-23.1,7.4-47,12.6-71.1,15.4c-24.6,2.8-49.2,2.5-73.9,2c-24.3-0.5-48.7-0.8-73-1.6c-23.3-0.8-46.6-2.1-69.7-5.3
						c-22.9-3.1-45.6-8.1-67.3-15.9c-2.7-1-5.4-2-8.1-3.1C185.7,692.2,184.5,696.6,187.2,697.6L187.2,697.6z"/>
				</g>
			</g>
			<g>
				<g>
					<path d="M368.4,663.1c3.2,8.9,6.5,18,7.7,27.4c0.6,4.6,0.7,9.4,0.1,14c-0.6,4.8-1.8,9.5-3,14.1c-0.7,2.8,3.6,4,4.3,1.2
						c1.2-4.8,2.4-9.7,3.1-14.6c0.7-4.9,0.6-9.9,0-14.8c-1.3-9.9-4.5-19.3-7.9-28.6c-0.4-1.1-1.5-1.9-2.8-1.6
						C368.9,660.6,368,661.9,368.4,663.1L368.4,663.1z"/>
				</g>
			</g>
			<g>
				<g>
					<path d="M205,700.2c-8.5-9.1-11.8-22.4-9.1-34.5c0.8-3.5,2-6.8,3.8-9.9c1-1.7-1.6-3.2-2.6-1.5c-6.7,11.8-6.7,26.6-0.7,38.7
						c1.7,3.4,3.9,6.6,6.5,9.4C204.2,703.7,206.3,701.6,205,700.2L205,700.2z"/>
				</g>
			</g>
			<g>
				<g>
					<path d="M531.9,652.8c5.3,4.4,8.4,10.6,9.7,17.3c1.5,7.7,0.4,15.6-1.5,23.1c-1.2,4.7-2.7,9.3-4.2,13.9
						c-0.6,1.8,2.3,2.6,2.9,0.8c5-15.3,10.1-32.3,2.6-47.7c-1.8-3.6-4.3-6.9-7.4-9.5C532.5,649.5,530.4,651.6,531.9,652.8
						L531.9,652.8z"/>
				</g>
			</g>
			<g>
				<g>
					<path d="M188.2,620.7c12.1,2.1,24.3,4.2,36.4,6.4c12.1,2.1,24.2,4.7,36.4,6.1c5.9,0.7,11.9,0.8,17.8,0
						c5.5-0.7,10.8-2.1,16.1-3.5c11.1-3,21.9-5.8,33.5-4.4c5.7,0.7,11.4,2.1,17,3.3c5.9,1.2,11.8,2.1,17.7,2.6
						c12.2,0.9,24.4,0.4,36.7,0.2c12.3-0.3,24.6-0.5,36.9-0.8c12.2-0.3,24.5-0.2,36.7-1.5c22.7-2.4,45.5-11.2,68.6-8.1
						c2.8,0.4,5.6,1,8.4,1.8c2.8,0.8,4-3.6,1.2-4.3c-22.6-6.3-45.6,0.9-68,4.7c-12,2-24,2.5-36.1,2.7c-12.4,0.3-24.8,0.5-37.3,0.8
						c-12.2,0.3-24.4,0.7-36.5,0.5c-6.1-0.1-12.2-0.5-18.3-1.3c-5.9-0.8-11.6-2.2-17.4-3.4c-5.6-1.1-11.3-2.1-17-2.1
						c-5.6,0-11.1,1-16.5,2.2c-10.9,2.5-21.6,6.5-33,6.7c-12.3,0.2-24.5-2.8-36.5-4.9c-12.1-2.1-24.3-4.2-36.4-6.4
						c-3.1-0.5-6.1-1.1-9.2-1.6C186.6,615.9,185.4,620.2,188.2,620.7L188.2,620.7z"/>
				</g>
			</g>
		</g>
		<g>
			<path d="M567.6,741.2c-9.7-20.2-15.1-42.9-15.1-66.8v-43.6h-4v43.6c0,23.4,5.1,46.1,14.7,66.8H567.6z"/>
		</g>
		<rect x="0" y="741.2" class="st0" width="738.5" height="138.1"/>
		<rect x="0" y="741.2" width="738.5" height="5"/>
	</g>
</g>
<g id="Calque_1">
</g>
</svg>
