<?xml version="1.0" encoding="utf-8"?>
<!-- Generator: Adobe Illustrator 27.9.4, SVG Export Plug-In . SVG Version: 9.03 Build 54784)  -->
<svg version="1.1" xmlns="http://www.w3.org/2000/svg" xmlns:xlink="http://www.w3.org/1999/xlink" x="0px" y="0px"
	 viewBox="0 0 582 556.1" style="enable-background:new 0 0 582 556.1;" xml:space="preserve">
<style type="text/css">
	.st0{fill:#FFFFFF;}
	.st1{display:none;}
	.st2{display:inline;fill:#FFFFFF;}
	.st3{display:inline;}
</style>
<g id="screen">
	<path class="st0" d="M402.5,463.8l0,0.1c0,18-14.6,32.6-32.6,32.6l-11.7,1.6c-89.8,12.6-180.7,12-270.3-1.6l-0.2,0
		c-18,0-32.6-14.6-32.6-32.6v-0.1c-8.2-62-8.2-124.9,0-186.9v-0.1c0-18,14.6-32.6,32.6-32.6l0.2,0c89.6-13.6,180.5-14.2,270.3-1.6
		l11.6,1.6l0.1,0c18,0,32.6,14.6,32.6,32.6l0,0.1C410.6,338.9,410.6,401.8,402.5,463.8z"/>
	<path d="M228.5,505.3c-45.8,0-91.5-3.5-136.9-10.4c-18.5,0-33.6-15.1-33.6-33.6c-8-60.4-8-121.6,0-182c0-18.5,15.1-33.6,33.6-33.6
		c87.2-13.3,175.7-13.8,263.1-1.6l11.2,1.6c18.5,0,33.6,15.1,33.6,33.6c8,60.4,8,121.6,0,182c0,18.5-15.1,33.6-33.6,33.6l-11.2,1.6
		C312.8,502.4,270.7,505.3,228.5,505.3z M91.7,247.8C74.2,247.8,60,262,60,279.4l0,0.1c-8,60.2-8,121.3,0,181.6l0,0.1
		c0,17.5,14.2,31.7,31.7,31.7l0.2,0c87,13.3,175.4,13.8,262.6,1.6l11.4-1.6c17.5,0,31.7-14.2,31.7-31.7l0-0.1
		c8-60.2,8-121.3,0-181.6l0-0.1c0-17.5-14.2-31.7-31.7-31.7l-0.1,0l-11.3-1.6c-87.2-12.2-175.6-11.7-262.6,1.6L91.7,247.8z"/>
	<path d="M150,387.1c18.6-18.6,36.7-37.8,54.1-57.5c4.9-5.6,9.8-11.2,14.7-16.8c-0.4-0.3-0.8-0.6-1.2-0.9c-0.4,0.6-0.9,1.2-1.3,1.7
		c-0.6,0.8,0.7,1.5,1.3,0.8c0.4-0.6,0.9-1.2,1.3-1.7c0.5-0.7-0.6-1.6-1.2-0.9c-17.1,20-34.8,39.5-53.1,58.4
		c-5.2,5.3-10.4,10.6-15.6,15.9C148.3,386.8,149.4,387.8,150,387.1L150,387.1z"/>
	<path d="M211.5,357.3c11.9-11.6,23.5-23.4,35-35.5c11.5-12,22.7-24.2,33.7-36.6c6.3-7,12.5-14.1,18.6-21.3c0.6-0.7-0.4-1.8-1.1-1.1
		c-10.8,12.6-21.8,25-33,37.3c-11.2,12.2-22.6,24.3-34.3,36.1c-6.6,6.7-13.3,13.4-20,20C209.8,356.9,210.9,358,211.5,357.3
		L211.5,357.3z"/>
	<path d="M294.3,304.7c9.8-10.2,19.6-20.4,29.3-30.7c0.7-0.7-0.4-1.8-1.1-1.1c-9.8,10.2-19.6,20.4-29.3,30.7
		C292.6,304.3,293.6,305.4,294.3,304.7L294.3,304.7z"/>
	<path d="M91.6,256.2c-12.2,0.7-17.1,14.2-20.2,24.1c-3.8,11.8-5.7,24.2-5.8,36.6c0,6.9,0.5,13.8,1.7,20.6c0.2,1,1.6,0.5,1.4-0.4
		c-1.9-11.6-2.1-23.4-0.6-35c0.7-5.9,1.9-11.7,3.6-17.4c1.6-5.5,3.3-11.1,6-16.2c2.8-5.3,7.5-10.3,13.9-10.7
		C92.6,257.7,92.6,256.2,91.6,256.2L91.6,256.2z"/>
	<path d="M351.5,482.3c7.7-0.1,14.8-4,20-9.5c5.9-6.2,9.2-14.3,11.2-22.5c1.3-5.1,2.1-10.4,2.8-15.6c0.1-0.9-1.3-1.4-1.4-0.4
		c-2.4,15.8-5.6,34.2-20.6,43c-3.6,2.1-7.7,3.4-11.9,3.4C350.5,480.8,350.5,482.3,351.5,482.3L351.5,482.3z"/>
</g>
<g id="tv" class="st1">
	<path class="st2" d="M2,193.1v348h578v-348H2z M397.5,461.1l0,0.1c0,17.5-14.2,31.7-31.7,31.7l-11.4,1.6
		c-87.2,12.2-175.6,11.7-262.6-1.6l-0.1,0c-17.5,0-31.7-14.2-31.7-31.7v-0.1c-8-60.2-8-121.3,0-181.6v-0.1
		c0-17.5,14.2-31.7,31.7-31.7l0.1,0c87.1-13.3,175.4-13.8,262.6-1.6l11.3,1.6l0.1,0c17.5,0,31.7,14.2,31.7,31.7l0,0.1
		C405.5,339.8,405.5,400.9,397.5,461.1z"/>
	<polygon class="st2" points="572.6,541.1 566.7,556.1 13.8,556.1 8.4,541.1 	"/>
	<path class="st3" d="M199.9,167.6c0,0.9-1.1,1.7-1.9,0.8c-0.2-0.3-0.5-0.6-0.7-0.8c-5.2-5.8-12.8-9.2-20.6-9.1
		c-7.9,0.1-15.6,4-20.5,10.1c-0.1,0.1-0.2,0.2-0.2,0.3c-0.6,0.8-1.7,0.5-2.1-0.2c-0.1-0.3-0.1-0.6,0.1-1c1.4-1.9,3.1-3.6,4.9-5.1
		c1.1-0.9,2.3-1.7,3.6-2.5c2.7-1.6,5.7-2.7,8.7-3.4c3.6-0.8,7.3-0.9,10.9-0.2c1.2,0.2,2.4,0.5,3.5,0.8c0.4,0.1,0.9,0.3,1.3,0.4
		c0.3,0.1,0.6,0.2,0.9,0.3c0.7,0.3,1.4,0.6,2.1,0.9c0.5,0.3,1,0.5,1.5,0.8c1.3,0.7,2.5,1.6,3.7,2.5c0.1,0.1,0.3,0.2,0.4,0.3
		c0.5,0.4,0.9,0.7,1.3,1.1c1,0.9,1.9,1.8,2.7,2.9C199.8,167.1,199.9,167.4,199.9,167.6z"/>
	<path class="st2" d="M168.7,156.9c-2.8,1.2-5.6,2.4-8.3,3.7c-12-26.3-23-53.1-33.1-80.2c-5.1-13.6-9.9-27.4-14.5-41.2
		c-2.3-6.9-4.5-13.8-6.7-20.8c-0.2-0.7-0.3-1.7-0.8-2.2c-0.4-0.5-1-0.5-1.6-0.7c-1.4-0.5-2.7-1.4-3.5-2.6c-1.1-1.6-1.6-3.8-1.1-5.6
		c1-3.5,4.9-5.5,8.4-5c1.9,0.3,3.5,1.4,4.4,3c1.7,2.9,1.1,6.4-1.2,8.7c-0.4,0.4-0.4,0.9-0.2,1.4c9.1,18,16.4,36.7,23.4,55.5
		c7,18.8,13.6,37.8,21.3,56.3C159.4,137.3,163.8,147.3,168.7,156.9z"/>
	<path class="st3" d="M171.3,157.2c0-0.1,0-0.2-0.1-0.2c0,0,0,0,0-0.1c-9.1-17.9-16.6-36.6-23.6-55.5c-7-18.8-13.6-37.8-21.2-56.3
		c-4.2-10.2-8.6-20.2-13.5-30c2.4-3,3-7.1,1.1-10.6c-1.3-2.5-3.8-4-6.5-4.4c-5.3-0.6-10.8,3.3-10.8,8.9c0,4.2,2.9,7.8,6.9,8.9
		c6,19.2,12.4,38.2,19.3,57.1c6.9,18.9,14.3,37.7,22.2,56.3c4.4,10.5,9.1,21,13.8,31.4c0,0.1,0.1,0.1,0.1,0.2c0.3,0.4,1,0.4,1.4,0.2
		c3.5-1.5,6.9-3,10.4-4.6C171.4,158.2,171.5,157.7,171.3,157.2z M127.3,80.4c-5.1-13.6-9.9-27.4-14.5-41.2
		c-2.3-6.9-4.5-13.8-6.7-20.8c-0.2-0.7-0.3-1.7-0.8-2.2c-0.4-0.5-1-0.5-1.6-0.7c-1.4-0.5-2.7-1.4-3.5-2.6c-1.1-1.6-1.6-3.8-1.1-5.6
		c1-3.5,4.9-5.5,8.4-5c1.9,0.3,3.5,1.4,4.4,3c1.7,2.9,1.1,6.4-1.2,8.7c-0.4,0.4-0.4,0.9-0.2,1.4c9.1,18,16.4,36.7,23.4,55.5
		c7,18.8,13.6,37.8,21.3,56.3c4.1,10,8.5,20,13.4,29.6c-2.8,1.2-5.6,2.4-8.3,3.7C148.4,134.3,137.3,107.5,127.3,80.4z"/>
	<path class="st2" d="M291.5,30.7c-1.5,2.7-4.4,4.1-7.4,4.2c-0.4,0-0.8,0.2-1,0.6c-1,2.2-2.5,4.1-3.9,6.1c-1.5,2-3,4-4.4,6.1
		c-3,4.1-6,8.2-9,12.4c-5.9,8.1-11.7,16.3-17.5,24.5c-11.7,16.6-23.2,33.3-34.5,50.2c-6.2,9.2-12.2,18.4-18.3,27.6
		c-1.3-0.7-2.6-1.4-4-2.1c-0.5-0.3-1-0.5-1.5-0.8c-0.7-0.3-1.3-0.7-2-1.1c11.7-16.7,23.5-33.4,35.2-50.1C234.7,91.7,246,75,258,58.9
		c6.4-8.7,13.2-17.1,20.8-24.7c0.4-0.5,0.4-1.1,0-1.6c-1.7-1.9-2.4-4.5-1.8-6.9c1.7-5.7,10.5-8.8,14.3-3.4
		C293,24.8,293,28.1,291.5,30.7z"/>
	<path class="st3" d="M293.4,21.3C293.4,21.3,293.4,21.3,293.4,21.3c0-0.1-0.1-0.1-0.1-0.2c0-0.1-0.1-0.1-0.1-0.2
		c-5-6.7-15.9-3.6-18.2,4c0,0.1-0.1,0.1-0.1,0.2c-0.7,2.9-0.1,5.8,1.6,8.2c-13.3,13.4-24,29.1-34.8,44.5c-12,17.1-24,34.1-36,51.2
		c-6.7,9.5-13.4,19-20.1,28.5c-0.1,0.2-0.2,0.3-0.3,0.5c-0.3,0.5-0.1,1.3,0.4,1.5c3.2,1.7,6.3,3.3,9.5,5c0.6,0.3,1.2,0.1,1.5-0.4
		c0-0.1,0.1-0.1,0.1-0.2c11-16.9,22.2-33.6,33.6-50.2c11.5-16.8,23.2-33.3,35-49.8c3.3-4.6,6.6-9.2,10-13.7c1.7-2.3,3.3-4.6,5-6.8
		c1.5-2,3.2-4,4.3-6.3c3.5-0.3,6.9-2.1,8.7-5.3C295.3,28.6,295.4,24.5,293.4,21.3z M291.5,30.7c-1.5,2.7-4.4,4.1-7.4,4.2
		c-0.4,0-0.8,0.2-1,0.6c-1,2.2-2.5,4.1-3.9,6.1c-1.5,2-3,4-4.4,6.1c-3,4.1-6,8.2-9,12.4c-5.9,8.1-11.7,16.3-17.5,24.5
		c-11.7,16.6-23.2,33.3-34.5,50.2c-6.2,9.2-12.2,18.4-18.3,27.6c-1.3-0.7-2.6-1.4-4-2.1c-0.5-0.3-1-0.5-1.5-0.8
		c-0.7-0.3-1.3-0.7-2-1.1c11.7-16.7,23.5-33.4,35.2-50.1C234.7,91.7,246,75,258,58.9c6.4-8.7,13.2-17.1,20.8-24.7
		c0.4-0.5,0.4-1.1,0-1.6c-1.7-1.9-2.4-4.5-1.8-6.9c1.7-5.7,10.5-8.8,14.3-3.4C293,24.8,293,28.1,291.5,30.7z"/>
	<path class="st3" d="M0,191.1v352h582v-352H0z M580,541.1H2v-348h578V541.1z"/>
	<path class="st3" d="M414.7,513.8H31.3v-292h383.3V513.8z M33.3,511.8h379.3v-288H33.3V511.8z"/>
	<path class="st3" d="M556.7,513.8H427.3V403.1h129.3V513.8z M429.3,511.8h125.3V405.1H429.3V511.8z"/>
	<path class="st3" d="M556.7,389.8H427.3v-168h129.3V389.8z M429.3,387.8h125.3v-164H429.3V387.8z"/>
	<path class="st3" d="M546.9,310.3H437.1v-7.1h109.8V310.3z M437.9,309.6h108.2V304H437.9V309.6z"/>
	<path class="st3" d="M546.9,322.3H437.1v-7.1h109.8V322.3z M437.9,321.6h108.2V316H437.9V321.6z"/>
	<path class="st3" d="M546.9,334.3H437.1v-7.1h109.8V334.3z M437.9,333.6h108.2V328H437.9V333.6z"/>
	<path class="st3" d="M546.9,346.3H437.1v-7.1h109.8V346.3z M437.9,345.6h108.2V340H437.9V345.6z"/>
	<path class="st3" d="M546.9,358.3H437.1v-7.1h109.8V358.3z M437.9,357.6h108.2V352H437.9V357.6z"/>
	<path class="st3" d="M546.9,370.3H437.1v-7.1h109.8V370.3z M437.9,369.6h108.2V364H437.9V369.6z"/>
	<path class="st3" d="M546.9,382.3H437.1v-7.1h109.8V382.3z M437.9,381.6h108.2V376H437.9V381.6z"/>
	<path class="st3" d="M546.9,298.3H437.1v-7.1h109.8V298.3z M437.9,297.6h108.2V292H437.9V297.6z"/>
	<path class="st3" d="M546.9,286.3H437.1v-7.1h109.8V286.3z M437.9,285.6h108.2V280H437.9V285.6z"/>
	<path class="st3" d="M546.9,274.3H437.1v-7.1h109.8V274.3z M437.9,273.6h108.2V268H437.9V273.6z"/>
	<path class="st3" d="M546.9,262.3H437.1v-7.1h109.8V262.3z M437.9,261.6h108.2V256H437.9V261.6z"/>
	<path class="st3" d="M546.9,250.3H437.1v-7.1h109.8V250.3z M437.9,249.6h108.2V244H437.9V249.6z"/>
	<path class="st3" d="M546.9,238.3H437.1v-7.1h109.8V238.3z M437.9,237.6h108.2V232H437.9V237.6z"/>
	<path class="st2" d="M197.3,167.6c-13.6,0-27.4,0.2-41.1,1.1c4.9-6.2,12.6-10,20.5-10.1C184.6,158.4,192.1,161.9,197.3,167.6z"/>
	<path class="st2" d="M273.2,191.1H79.6c0.6-5,7.3-7.1,11.3-8.5c6.6-2.3,13.2-4.1,20-5.7c13.6-3.1,27.6-4.7,41.5-5.7
		c13.9-0.9,27.8-1.2,41.6-1.4c14.4-0.2,28.9,0,43,3.1C250.3,176,263.3,181.6,273.2,191.1z"/>
	<path class="st3" d="M275.8,191.1c-0.1,0.8-1.2,1.4-1.9,0.7c-0.2-0.2-0.5-0.5-0.7-0.7c-10-9.4-22.9-15.1-36.2-18
		c-14.1-3.1-28.6-3.3-43-3.1c-13.9,0.2-27.8,0.4-41.6,1.4c-13.9,0.9-27.9,2.6-41.5,5.7c-6.8,1.5-13.5,3.4-20,5.7
		c-4,1.4-10.7,3.6-11.3,8.5c0,0.3-0.1,0.7,0,1c0,0.5-0.2,0.8-0.6,1c-0.3,0.1-0.6,0.1-0.9,0c-0.4-0.1-0.7-0.5-0.7-1c0-0.3,0-0.7,0-1
		c0.4-5.9,7.3-8.7,12.1-10.4c7.6-2.7,15.3-4.8,23.1-6.5c13.6-2.9,27.4-4.5,41.3-5.4c0.8-0.1,1.6-0.1,2.3-0.2
		c13.7-0.8,27.4-1,41.1-1.1c0.5,0,1.1,0,1.6,0h1c26.6,0,55.7,3,75.6,22.5C275.8,190.5,275.9,190.8,275.8,191.1z"/>
	<polygon class="st3" points="163.5,556.1 157.6,541.7 155.7,542.5 161.3,556.1 	"/>
	<polygon class="st3" points="175.5,556.1 169.6,541.7 167.7,542.5 173.3,556.1 	"/>
	<polygon class="st3" points="187.5,556.1 181.6,541.7 179.7,542.5 185.3,556.1 	"/>
	<polygon class="st3" points="573.7,542.5 573.4,543.1 567.5,556.1 565.4,556.1 571.2,543.1 571.9,541.7 	"/>
	<polygon class="st3" points="199.5,556.1 193.6,541.7 191.7,542.5 197.3,556.1 	"/>
	<polygon class="st3" points="151.5,556.1 145.6,541.7 143.7,542.5 149.3,556.1 	"/>
	<polygon class="st3" points="91.5,556.1 85.6,541.7 83.7,542.5 89.3,556.1 	"/>
	<polygon class="st3" points="139.5,556.1 133.6,541.7 131.7,542.5 137.3,556.1 	"/>
	<polygon class="st3" points="15.2,556.1 13,556.1 7.7,543.1 7.4,542.5 9.3,541.7 9.8,543.1 	"/>
	<polygon class="st3" points="103.5,556.1 97.6,541.7 95.7,542.5 101.3,556.1 	"/>
	<polygon class="st3" points="115.5,556.1 109.6,541.7 107.7,542.5 113.3,556.1 	"/>
	<polygon class="st3" points="127.5,556.1 121.6,541.7 119.7,542.5 125.3,556.1 	"/>
	<path class="st3" d="M52.3,230c-3.9,0.1-7.8,0.2-11.7,0.3c-0.4,0-0.7,0.3-0.8,0.8c-0.4,11.7-0.7,23.4-1.1,35c0,1,1.5,1,1.5,0
		c0.4-11.7,0.7-23.4,1.1-35c-0.2,0.2-0.5,0.5-0.8,0.8c3.9-0.1,7.8-0.2,11.7-0.3C53.3,231.5,53.3,230,52.3,230L52.3,230z"/>
	<path class="st3" d="M37.6,491c1.2,3.9-0.9,8-0.2,11.9c0.7,3.9,4.1,5.8,7.8,5.8c2.2,0,4.3-0.5,6.4-1.1c0.9-0.3,0.5-1.7-0.4-1.4
		c-3.7,1-9.6,2.3-11.8-1.8c-1.1-2-0.6-4.6-0.3-6.7c0.3-2.3,0.7-4.7,0-7C38.8,489.6,37.3,490,37.6,491L37.6,491z"/>
	<path class="st3" d="M389,521c6.7,0.2,13.3,0.4,20,0.6c1,0,1-1.5,0-1.5c-6.7-0.2-13.3-0.4-20-0.6C388,519.5,388,521,389,521
		L389,521z"/>
	<path class="st3" d="M422.4,520.1c0.1-9.3,0.1-18.7,0.2-28c0-1-1.5-1-1.5,0c-0.1,9.3-0.1,18.7-0.2,28
		C420.9,521.1,422.4,521.1,422.4,520.1L422.4,520.1z"/>
	<path class="st3" d="M435,521.4c4.4,0.2,8.9,0.5,13.3,0.7c1,0.1,1-1.5,0-1.5c-4.4-0.2-8.9-0.5-13.3-0.7
		C434,519.8,434,521.3,435,521.4L435,521.4z"/>
	<path class="st3" d="M536.3,521.1c4.4,0.2,8.9,0.4,13.3,0.5c1,0,1-1.5,0-1.5c-4.4-0.2-8.9-0.4-13.3-0.5
		C535.4,519.6,535.4,521.1,536.3,521.1L536.3,521.1z"/>
	<path class="st3" d="M562.8,514.7c-0.3-5.1-0.6-10.2-0.9-15.3c-0.1-1-1.6-1-1.5,0c0.3,5.1,0.6,10.2,0.9,15.3
		C561.4,515.7,562.9,515.7,562.8,514.7L562.8,514.7z"/>
	<path class="st3" d="M10,238.1c-0.3-9.2-0.5-18.5-0.8-27.7c-0.1-2.3-0.1-4.6-0.2-6.9c0-1.2-0.1-2.3-0.1-3.5c0-0.4-0.1-0.8,0-1.2
		c0.1-0.9,0.8-1,1.6-1c4.6,0.3,9.2,0.7,13.8,1.1c1,0.1,1-1.4,0-1.5c-2.6-0.2-5.2-0.4-7.9-0.6c-1.3-0.1-2.6-0.2-3.9-0.3
		c-1-0.1-2.1-0.3-3.1-0.1c-1.9,0.3-2,2.1-2,3.6c0.1,2.5,0.1,5,0.2,7.4c0.3,10.2,0.6,20.5,0.9,30.7C8.6,239,10.1,239,10,238.1
		L10,238.1z"/>
	<path class="st3" d="M23.3,218.8c0,9.3,0.1,18.7,0.1,28c0,1,1.5,1,1.5,0c0-9.3-0.1-18.7-0.1-28C24.8,217.8,23.3,217.8,23.3,218.8
		L23.3,218.8z"/>
	<path class="st3" d="M8.9,507.4c-0.3,8.8,0.2,17.5,1.4,26.2c0,0.3,0.4,0.6,0.7,0.6c3.1-0.3,6.2-0.6,9.3-0.9c1-0.1,1-1.6,0-1.5
		c-3.1,0.3-6.2,0.6-9.3,0.9c0.2,0.2,0.5,0.4,0.7,0.6c-1.2-8.6-1.6-17.2-1.3-25.8C10.4,506.5,8.9,506.5,8.9,507.4L8.9,507.4z"/>
	<path class="st3" d="M25.4,492.1c-0.3,9.1-0.6,18.2-0.8,27.3c0,1,1.5,1,1.5,0c0.3-9.1,0.6-18.2,0.8-27.3
		C26.9,491.1,25.4,491.1,25.4,492.1L25.4,492.1z"/>
	<path class="st3" d="M33.7,520.8c6.7,0,13.3,0,20,0c1,0,1-1.5,0-1.5c-6.7,0-13.3,0-20,0C32.7,519.3,32.7,520.8,33.7,520.8
		L33.7,520.8z"/>
	<path class="st3" d="M390.8,232.6c5.1,0.8,10.2,1,15.3,0.4c-0.2-0.2-0.5-0.5-0.8-0.8c0.8,9.3,1.7,18.6,2.5,27.9c0.1,1,1.6,1,1.5,0
		c-0.8-9.3-1.7-18.6-2.5-27.9c0-0.4-0.3-0.8-0.8-0.8c-5,0.6-10,0.5-14.9-0.3C390.3,231,389.9,232.5,390.8,232.6L390.8,232.6z"/>
	<path class="st3" d="M395,218.2c4.9,0,9.8,0,14.7,0c1,0,1-1.5,0-1.5c-4.9,0-9.8,0-14.7,0C394,216.7,394,218.2,395,218.2L395,218.2z
		"/>
	<path class="st3" d="M419.9,220.1c0.1,10.9,0.1,21.8,0.2,32.7c0,1,1.5,1,1.5,0c-0.1-10.9-0.1-21.8-0.2-32.7
		C421.4,219.1,419.9,219.1,419.9,220.1L419.9,220.1z"/>
	<path class="st3" d="M429.7,216.3c4.7-0.2,9.3-0.4,14-0.6c1,0,1-1.5,0-1.5c-4.7,0.2-9.3,0.4-14,0.6
		C428.7,214.8,428.7,216.3,429.7,216.3L429.7,216.3z"/>
	<path class="st3" d="M545,216.3c5.3,0.1,10.5,0.1,15.8,0.2c-0.2-0.2-0.5-0.5-0.8-0.8c0.8,11.9,1.7,23.8,2.5,35.7c0.1,1,1.6,1,1.5,0
		c-0.8-11.9-1.7-23.8-2.5-35.7c0-0.4-0.3-0.7-0.8-0.8c-5.3-0.1-10.5-0.1-15.8-0.2C544,214.8,544,216.3,545,216.3L545,216.3z"/>
	<path class="st3" d="M561,198.6c3.7,0.3,7.4,0.6,11.2,0.9c-0.2-0.2-0.5-0.5-0.8-0.8c0.1,10.9,0.3,21.8,0.4,32.6c0,1,1.5,1,1.5,0
		c-0.1-10.9-0.3-21.8-0.4-32.6c0-0.4-0.3-0.7-0.8-0.8c-3.7-0.3-7.4-0.6-11.2-0.9C560.1,197,560.1,198.5,561,198.6L561,198.6z"/>
	<path class="st3" d="M544.4,535.4c4.3-0.1,8.6-0.2,13-0.3c4.2-0.1,8.5,0.1,12.6-0.3c1.3-0.1,2.4-0.6,2.9-1.8
		c0.6-1.6,0.4-3.7,0.4-5.4c0.2-4.3,0.3-8.6,0.5-12.9c0-1-1.5-1-1.5,0c-0.1,3.8-0.3,7.6-0.4,11.4c-0.1,1.8,0,3.7-0.2,5.6
		c-0.1,1-0.6,1.5-1.7,1.6c-0.9,0.1-1.8,0.1-2.7,0.1c-7.6,0.1-15.3,0.3-22.9,0.4C543.4,533.9,543.4,535.4,544.4,535.4L544.4,535.4z"
		/>
	<path class="st3" d="M399.5,279.4c0-18.5-15.1-33.6-33.6-33.6l-11.2-1.6c-87.4-12.2-175.9-11.7-263.1,1.6
		c-18.5,0-33.6,15.1-33.6,33.6c-8,60.4-8,121.6,0,182c0,18.5,15.1,33.6,33.6,33.6c45.4,6.9,91.2,10.4,136.9,10.4
		c42.2,0,84.3-2.9,126.2-8.8l11.2-1.6c18.5,0,33.6-15.1,33.6-33.6C407.5,401,407.5,339.7,399.5,279.4z M397.5,461.1l0,0.1
		c0,17.5-14.2,31.7-31.7,31.7l-11.4,1.6c-87.2,12.2-175.6,11.7-262.6-1.6l-0.1,0c-17.5,0-31.7-14.2-31.7-31.7v-0.1
		c-8-60.2-8-121.3,0-181.6v-0.1c0-17.5,14.2-31.7,31.7-31.7l0.1,0c87.1-13.3,175.4-13.8,262.6-1.6l11.3,1.6l0.1,0
		c17.5,0,31.7,14.2,31.7,31.7l0,0.1C405.5,339.8,405.5,400.9,397.5,461.1z"/>
</g>
</svg>
