<?xml version="1.0" encoding="utf-8"?>
<!-- Generator: Adobe Illustrator 27.9.4, SVG Export Plug-In . SVG Version: 9.03 Build 54784)  -->
<svg version="1.1" id="Calque_1" xmlns="http://www.w3.org/2000/svg" xmlns:xlink="http://www.w3.org/1999/xlink" x="0px" y="0px"
	 viewBox="0 0 66.6 61.6" style="enable-background:new 0 0 66.6 61.6;" xml:space="preserve">
<path d="M9.1,55.1C8.4,55,7.5,55,6.8,54.6c-0.7-0.3-1-1.1-1.1-1.8c-0.4-2.1-0.2-4.4-0.3-6.5C5.2,41.4,5,36.4,4.9,31.5
	s-0.4-9.9-0.5-14.8c-0.1-2.4-0.2-4.9-0.3-7.3C4,7.8,3.3,5.3,5.1,4.6C6.7,4,8.6,4.1,10.3,4.1C12.7,4.1,15.1,4,17.6,4
	c5-0.1,9.9-0.1,14.9-0.1c5,0,9.9,0.1,14.9,0.2c2.3,0.1,4.7,0,7,0.2c1.7,0.1,3.1,0.7,3.9,2.3c1.1,2.3,0.9,5.2,1.3,7.7
	c0.3,2.6,0.7,5.3,1.2,7.9c0.9,5.9,1.8,11.9,2,17.9c0.1,2.6,0,5.5-0.4,7.8c-0.2,1.2-0.5,2.3-0.9,3.4c-0.1,0.4,0,0-0.2,0.4
	c-0.1,0.2-0.2,0.5-0.4,0.7c-0.1,0.2-0.2,0.4-0.4,0.6c-0.1,0.1-0.4,0.6-0.3,0.5c0.1-0.1-0.3,0.3-0.4,0.4c-0.2,0.2-0.3,0.3-0.5,0.4
	c-0.1,0.1-0.3,0.2,0,0c-0.1,0.1-0.2,0.1-0.3,0.2c-0.2,0.2-0.5,0.3-0.7,0.4c-0.4,0.2-0.8,0.4-1.3,0.6c0.3-0.1-0.3,0.1-0.4,0.1
	c-0.3,0.1-0.6,0.2-0.9,0.3c-2.5,0.8-4.9,1.1-7.4,1.3c-12.1,0.9-24.2-1-36.1-2.2C11.2,55.2,10.2,55.2,9.1,55.1
	c-2.5-0.2-2.5,3.7,0,3.9c12.4,0.9,24.8,3.1,37.3,2.5c5.1-0.2,11.5-0.7,15.6-4.2c4-3.4,4.5-9.7,4.6-14.6c0.1-6.6-0.9-13.1-1.8-19.6
	c-0.2-1.5-0.5-3-0.7-4.5c-0.1-0.7-0.2-1.4-0.3-2c0-0.3-0.1-0.6-0.1-0.9c0-0.1,0-0.3-0.1-0.4c0,0-0.1-0.6,0-0.3
	c-0.4-2.9-0.3-6-1.2-8.7c-0.7-2-1.8-3.8-3.7-4.8c-2.1-1.1-4.6-1.1-7-1.2C46.4,0.2,41.2,0.1,35.9,0S25.4,0,20.2,0
	c-2.7,0-5.3,0.1-8,0.1c-2.3,0-4.7,0-6.9,0.4c-1.8,0.3-3.7,1.3-4.5,3c-1.2,2.3-0.6,5.3-0.5,7.7C0.4,16.5,0.6,21.8,0.8,27
	s0.4,10.5,0.6,15.7c0.1,2.7,0.2,5.3,0.3,8c0.1,2.2,0.2,4.5,1.7,6.2c1.5,1.7,3.7,2,5.8,2.2C11.6,59.2,11.6,55.3,9.1,55.1z"/>
<path d="M15.1,29.1c6.2-2.6,12.5-5.1,18.7-7.7c3.2-1.3,6.4-2.6,9.6-3.9c1.1-0.5,2.8-1.5,3.9-0.4c1,1.1,0.8,2.8,0.6,4.1
	c-1,6.6-2.5,13.2-4.2,19.6c-0.2,0.8-0.4,1.6-0.6,2.4c-0.1,0.5-0.2,1.4-0.7,1.7c-0.4,0.2-1.1-0.1-1.6-0.2c-0.8-0.2-1.6-0.5-2.4-0.9
	c-1.2-0.6-2.3-1.3-3.4-2.1c-1.2-0.9-2.6-1.8-3.6-2.9c-1.2-1.3,0.4-2.7,1.3-3.7c1.1-1.1,2.3-2.2,3.4-3.4c2.1-2.2,3.9-4.6,4.6-7.5
	c0.2-1-0.6-1.8-1.6-1.6c-3,0.7-5.9,2.1-8.3,4c-2.5,2-4.5,4.6-7.6,5.6c-2.6,0.9-5.7,0.9-8.3-0.2c-0.5-0.2-1.8-0.8-1.7-1.4
	c0-0.8,1.8-1.5,2.4-1.7c1.5-0.7,0.2-2.9-1.3-2.2c-2.4,1-5,3.4-2.9,6c2,2.4,5.9,3,8.8,2.8c3.9-0.2,7-1.9,9.8-4.5
	c1.4-1.3,2.8-2.6,4.4-3.6c1.7-1,3.5-1.7,5.5-2.2c-0.5-0.5-1.1-1.1-1.6-1.6c-0.8,3.1-2.9,5.4-5.1,7.6c-2,2-5.7,4.7-4.5,7.9
	c0.5,1.5,1.9,2.4,3.1,3.3c1.3,1,2.6,2,4,2.8c2.2,1.3,6.6,3.6,8.8,1.2c1.1-1.2,1.3-3.3,1.7-4.8c0.5-1.9,1-3.8,1.4-5.7
	c0.9-3.8,1.7-7.6,2.4-11.5c0.5-3,1.7-7.1-1-9.5c-1.2-1.1-2.8-1.3-4.3-0.8c-1.8,0.6-3.6,1.5-5.4,2.2c-8.2,3.4-16.5,6.8-24.7,10.1
	C12.9,27.2,13.6,29.8,15.1,29.1z"/>
</svg>
