<?xml version="1.0" encoding="utf-8"?>
<!-- Generator: Adobe Illustrator 27.9.4, SVG Export Plug-In . SVG Version: 9.03 Build 54784)  -->
<svg version="1.1" xmlns="http://www.w3.org/2000/svg" xmlns:xlink="http://www.w3.org/1999/xlink" x="0px" y="0px"
	 viewBox="0 0 1927 1400" style="enable-background:new 0 0 1927 1400;" xml:space="preserve">
<style type="text/css">
	.st0{display:none;}
	.st1{display:none;opacity:0.16;}
	.st2{display:inline;}
	.st3{fill:#FFFFFF;}
	.st4{display:inline;fill:#FFFFFF;stroke:#000000;stroke-width:4;stroke-miterlimit:10;}
	.st5{display:inline;fill:none;stroke:#000000;stroke-width:4;stroke-miterlimit:10;}
</style>
<g id="Calque_3" class="st0">
</g>
<g id="Calque_2" class="st0">
</g>
<g id="Calque_4" class="st1">
	<g class="st2">
		<g>
			<path d="M300.4,401.6c19.4,28.8,49.9,46.9,81.9,58.5c17.2,6.2,35,10.7,53,14.3c21.1,4.2,42.5,7.3,63.9,9.1
				c43.6,3.7,87.7,2.3,130.9-4.9c39.1-6.5,77.4-17.7,113.7-33.6c35.5-15.5,69-35.6,99.3-59.8c3.8-3,7.5-6.1,11.1-9.2
				c1.5-1.3-0.7-3.4-2.1-2.1c-29.1,25-61.6,45.8-96.2,62.3c-34.8,16.6-71.7,28.8-109.5,36.4c-42.1,8.5-85.4,11.4-128.3,9.2
				c-40.4-2.1-81.4-8-120.1-19.7c-32.6-9.9-65-25.3-87.3-51.8c-2.8-3.3-5.3-6.7-7.7-10.3C302,398.5,299.4,400,300.4,401.6
				L300.4,401.6z"/>
		</g>
	</g>
	<g class="st2">
		<g>
			<path d="M531.3,247.3c23.4,24.9,44.3,52,62.4,81c18.1,29,33.4,59.7,45.5,91.6c12.5,32.8,21.7,66.9,27.3,101.5
				c6,37.3,8,75.3,5.9,113c-2.1,37.6-8.2,74.9-18.3,111.2c-1.3,4.6-2.6,9.2-4,13.7c-0.6,1.8,2.3,2.6,2.9,0.8
				c11.2-36.2,18.3-73.7,21.5-111.4c3.1-38,2.2-76.2-2.9-114c-4.8-35.5-13.2-70.5-25.2-104.3c-11.5-32.3-26-63.5-43.5-92.9
				c-17.5-29.5-37.8-57.2-60.6-82.8c-2.9-3.2-5.8-6.4-8.7-9.5C532.1,243.8,530,245.9,531.3,247.3L531.3,247.3z"/>
		</g>
	</g>
</g>
<g id="Calque_5" class="st0">
</g>
<g id="Calque_6">
	<g>
		<path d="M329.3,1368.2c-0.8-4.5-2.4-8.5-4.8-12.4c-4.8-7.7-11.6-13.9-17.8-20.5c-0.2-0.2-0.5-0.5-0.7-0.8
			c-1.2-1.4-2.5-2.8-3.6-4.2c-5-6.1-9-12.7-11-20.6c-1.5-6.2-2.5-12.2-5.3-17.9c-2.7-5.4-6.1-10.5-8.7-15.9
			c-5.4-11.4-7-23.9-7.9-36.4c-0.9-12.3-1.5-24.4-4-36.5c-2.3-11.1-5.7-22.1-9.7-32.7c-8.1-21.6-18.7-42-29.1-62.6
			c-10.4-20.6-20.7-41.3-28.1-63.2c-8.3-24.5-11.7-50.1-12-75.9c-0.3-26.1,1.2-52.4,3.8-78.4c2.3-23.1,6.8-46.9,20.2-66.3
			c23.7-34.6,67.6-47,92.6-80.1c0.2-0.3,0.5-0.6,0.7-0.9c2.3-3.1,7.5-0.1,5.2,3c-0.3,0.4-0.6,0.9-1,1.3c-2.7,3.6-5.6,7-8.8,10.2
			c-28.9,29.6-72.9,43.3-91.1,82.9c-10,21.7-11.8,46.2-13.3,69.7c-1.7,26.8-3.5,53.7-1.2,80.6c2,24.7,8.4,48.3,17.9,71.1
			c8.8,21.2,19.7,41.5,29.9,62c10.1,20.2,19.7,40.7,26,62.4c3.1,10.7,5.4,21.7,6.6,32.8c1.4,12.8,1.2,25.8,3.7,38.5
			c1.2,6.2,3.2,12.2,6.1,17.8c2.8,5.4,6.2,10.4,8.6,15.9c2.5,5.7,3.5,11.5,5,17.5c1.2,4.8,3.3,9.2,6.1,13.3
			c10.3,14.9,28.3,25.5,31.5,44.5C335.7,1370.4,330,1372,329.3,1368.2z"/>
		<path d="M662,974.9c-1.5,0.4-3.4-0.5-3.7-2.1c-0.1-0.3-0.1-0.7-0.2-1c-0.4-1.9-0.8-3.9-1.2-5.8c-3.9-18.7-7.7-37.3-11.6-56
			c-2-9.4-3.9-18.7-5.8-28.1c-1.8-8.8-3.5-17.6-5.6-26.4c-1.6-6.8-3.4-13.5-5.8-20c-0.6-1.6-1.2-3.2-1.8-4.8c-0.8-2-1.7-4-2.7-5.9
			c-2.4-4.9-5.3-9.5-8.5-14c-8.5-11.9-19.5-22-31.2-30.8c-12.1-9.2-25-17.1-38-25c-0.9-0.5-1.3-1.3-1.4-2.1c-0.2-2.2,2-4.5,4.4-3.1
			c0.3,0.2,0.6,0.4,0.9,0.6c1.3,0.8,2.6,1.6,4,2.4c13.2,8,26.2,16.4,38.3,26c11.8,9.4,22.6,20.2,30.9,32.9
			c9.4,14.4,14.2,30.8,17.9,47.5c4.1,18.5,7.7,37,11.5,55.5c3.9,18.7,7.7,37.4,11.6,56.1c0,0.1,0.1,0.3,0.1,0.4
			C664.4,972.8,663.6,974.4,662,974.9z"/>
		<path d="M654.6,1254.4c-0.4,6-0.8,12-1.3,17.9c-0.3,3.5-0.6,7.1-1,10.6c-1.5,15.4-3.3,30.8-5.5,46.1c-0.2,1.6-2.3,2.5-3.7,2.1
			c-1.7-0.5-2.3-2.1-2.1-3.7c2-13.7,3.6-27.5,5-41.2c0.4-4.2,0.8-8.4,1.2-12.6c0.1-0.9,0.2-1.8,0.2-2.7c1.6-19.7,2.7-39.4,3.1-59.1
			c0.5-23.4,0.1-46.9-1-70.3c-0.1-1.4-0.1-2.8-0.2-4.2c-0.1-1.1,0.7-2.1,1.6-2.6h0c0.2-0.1,0.5-0.2,0.7-0.3c0.2-0.1,0.4-0.1,0.6-0.1
			c1.7,0,2.9,1.4,3,3c0,0.7,0.1,1.4,0.1,2c0.2,3.3,0.3,6.6,0.5,9.8c0,0.6,0.1,1.3,0.1,2c0,0,0,0,0,0c0.1,1.3,0.1,2.7,0.2,4
			c0,0.4,0,0.8,0,1.2c0.3,7.8,0.5,15.6,0.6,23.3C656.9,1204.6,656.2,1229.5,654.6,1254.4z"/>
		<path d="M695.2,1143.2c-1.3,1.4-3.5,2.1-5.2,2.8c-2.3,1-4.6,1.9-6.9,2.8c-1.6,0.6-3.2,1.1-4.7,1.6c-0.3,0.1-0.7,0.2-1,0.3
			c-6.4,2-12.9,3.3-19.5,4.2c-0.1,0.2-0.3,0.4-0.4,0.6c-0.4,0.4-0.9,0.7-1.4,0.8c-1,0.2-2-0.1-2.8-0.8c-0.4-0.3-0.8-0.7-1.2-1
			c-0.9-0.8-1-2.2-0.6-3.3c0.5-1.2,1.5-1.7,2.7-1.9c0.6-0.1,1.1-0.1,1.7-0.2c8.6-1,17.2-3,25.4-6c2.1-0.8,4.2-1.6,6.3-2.5
			c1-0.4,1.9-0.9,2.9-1.4c0,0,0,0,0,0c-0.1-0.4-0.1-0.9-0.1-1c-0.7-3.7-1.5-7.4-2.5-11.1c-0.3-1.2-0.7-2.4-1-3.6
			c-0.3-1-0.1-1.8,0.4-2.5c0.7-1,2-1.4,3.2-1.2c1,0.2,1.8,0.8,2.2,2c0.3,1.1,0.6,2.1,0.9,3.2c1,3.7,1.8,7.5,2.6,11.2
			C696.4,1138.8,697,1141.2,695.2,1143.2z"/>
		<path d="M677.4,1150.8c1.3,9.5,2.7,18.9,5.1,28.2c1.2,4.7,2.7,9.3,4.5,13.7c1.8,4.4,3.8,8.8,4.8,13.4c0.9,4.1,0.6,8.1-1.4,11.7
			c-1.9,3.5-4.6,6.5-5.8,10.3c-1.4,4.2-0.3,8.5,2,12.1c2.2,3.4,5.3,6.3,7,10.1c1.5,3.5,2,7.6,1.3,11.4c-0.8,4.2-3.2,7.8-4.9,11.7
			c-1.9,4.4-2.7,8.9-0.6,13.4c1.6,3.5,4.8,6.2,5.9,9.7c1,3.3,0.3,6.7-0.5,10.2c-1,3.9-2.2,7.8-2.7,11.8c-0.6,4.3,0.1,8.3,2,12.3
			c1,2.1,2.1,4.1,2.8,6.4c0.6,2.1,1.1,4.4,1.4,6.6c0.6,5,0.7,10.1,0.9,15.1c0.2,5.2,0.5,10.4,0.7,15.7c0.2,5.3,0.5,10.6,0.8,15.9
			c0.2,3.2,0.2,6.4,0.4,9.6h6c0-1.3,0-2.6-0.1-3.8c-0.2-5.2-0.5-10.5-0.8-15.7c-0.5-10.4-0.9-20.9-1.5-31.3
			c-0.3-4.9-0.7-9.9-2.3-14.6c-1.3-4-4.3-7.9-4.5-11.9c-0.5-7.6,3.8-14.8,3.9-22.5c0.1-4.2-1.3-7.9-3.7-11.2
			c-2.2-3.1-4.6-5.9-3.7-9.8c1-4.2,3.5-7.9,5.1-11.9c1.7-4.2,2.1-8.8,1.4-13.2c-0.6-4.3-2.5-8.3-5.1-11.7c-2.1-2.8-5.4-5.9-5.8-9.5
			c-0.4-3.4,2.1-6.6,4-9.4c2.5-3.8,4.2-7.6,4.4-12.2c0.4-9.6-5.1-18.4-8-27.2c-3-9.3-4.8-19-6.2-28.7c-0.3-2.2-0.6-4.4-1-6.6
			c0-0.2-0.1-0.4-0.1-0.7c-0.2-1.6-2.3-2.5-3.7-2.1c-1.7,0.5-2.3,2.1-2.1,3.7C677.3,1150.1,677.3,1150.4,677.4,1150.8z"/>
		<path d="M647.3,1274c1.7,3,3.3,6,5,9c3.7,6.6,7.3,13.1,11,19.7c2.2,3.9,4.9,8.1,5,12.8c0.1,3.7-1.2,7.2-2.9,10.5
			c-1.9,3.7-4.1,7.2-5.9,10.8c-2,3.9-4,8.6-3.5,13c0.3,2.8,1.8,4.6,3.4,6.8c1.2,1.7,1.9,3.4,2.3,5.4c0.8,4.1,0.1,8.6-0.3,12.8
			c-0.5,5.5-0.5,11,0.5,16.5c0.5,2.9,1.3,5.8,2.4,8.6h6.5c-3.1-7.3-4.2-15.3-3.5-23.3c0.4-4.4,1.1-8.9,0.7-13.3
			c-0.2-2.4-0.7-4.7-1.7-6.9c-0.4-0.9-0.9-1.9-1.5-2.7c-0.7-1-1.6-2-2.2-3.1c-0.9-1.7-0.4-3.7,0.1-5.4c0.6-2,1.3-3.6,2.2-5.4
			c1.8-3.7,4.1-7.2,5.9-10.8c1.9-3.8,3.4-7.7,3.7-12c0.3-5-1.6-9.6-3.9-13.9c-5.6-10.3-11.4-20.5-17.1-30.8
			c-0.2-0.5-0.5-0.9-0.8-1.4c-1.3-2.3-4-1.6-5.1,0c-0.5,0.7-0.6,1.7-0.2,2.7C647.2,1273.7,647.2,1273.9,647.3,1274z"/>
		<path d="M437.8,1139c-0.4,0.7-0.8,1.4-1.3,2.1c-0.6,1-1.2,1.9-1.8,2.9c-4.5,6.7-9.7,13.1-16.5,17.6c-2.8,1.8-5.8,3.2-8.8,4.1
			c-5.2,1.6-10.8,1.8-16.3,1.1c-9.2-1.3-17.8-5.2-25.9-9.4c-8.3-4.3-16.5-8.8-24.7-13.3c-16.6-9.1-33-18.6-48.6-29.4
			c-14.3-9.9-27.9-20.9-40-33.5c-11.8-12.2-22.3-25.9-30.2-41c-0.8-1.4-0.4-3.3,1.1-4.1c1.3-0.8,3.3-0.3,4.1,1.1c1,1.8,2,3.7,3,5.5
			c8.2,14.2,18.6,26.9,30.2,38.4c12.1,11.9,25.5,22.4,39.7,31.8c15.3,10.3,31.3,19.4,47.5,28.2c8,4.4,16,8.8,24.2,12.9
			c7.6,3.7,15.8,7.1,24.3,7.4c2.7,0.1,5.3-0.1,7.9-0.7c2.1-0.5,4.2-1.2,6.1-2.1c2.5-1.2,4.8-2.7,6.9-4.5c4.9-4.2,8.8-9.5,12.2-15
			c0.6-0.9,1.2-1.9,1.7-2.8C434.6,1132.6,439.8,1135.6,437.8,1139z"/>
		<path d="M497.2,968c-0.2,1-0.9,1.8-2,2.2c-1.4,0.4-3.5-0.5-3.7-2.1c-0.1-0.8-0.3-1.6-0.4-2.4c-0.5-2.5-1.1-5-1.9-7.4
			c-1.6,1.5-3,3.1-4.4,4.8c-0.3,0.4-0.6,0.7-0.9,1.1c-1,1.2-2,2.4-3,3.7c-1.4,1.8-2.8,3.6-4.1,5.5c-4.7,6.6-9,13.6-12.9,20.7
			c-7.1,12.9-13.4,26.3-19.3,39.8c-6,13.6-11.3,27.5-16,41.6c-5.4,16.5-9.8,33.4-12.8,50.5c-0.3,2-0.7,4-1,6
			c-1.3,8.7-2.3,17.4-2.9,26.2c-0.1,1.5-0.2,3-0.2,4.5c-0.1,1.3-0.9,2.5-2.1,2.9c-0.3,0.1-0.6,0.1-0.9,0.1c-1.6,0-3.1-1.4-3-3
			c0-0.8,0.1-1.6,0.1-2.3c0.6-10.6,1.8-21.2,3.5-31.8c0.2-0.9,0.3-1.9,0.5-2.8c0.8-4.7,1.7-9.4,2.7-14.1
			c6.4-29.8,16.9-58.6,29.4-86.4c6.1-13.5,12.5-27,20-39.8c3.7-6.4,7.8-12.6,12.2-18.5c2.3-3,4.7-6,7.2-8.9c1.5-1.8,3.1-3.5,4.9-5
			c1-0.9,2.1-1.7,3.2-2.4c1.3-0.8,2.6-0.4,3.5,0.5c0.4,0.4,0.7,0.8,0.9,1.3c1.8,4.5,3.1,9.1,3.8,13.9
			C497.4,967,497.3,967.6,497.2,968z"/>
		<path d="M492.3,953.7c-0.5,0.8-1.4,1.4-2.4,1.5c-0.6,0.1-1.2-0.1-1.7-0.4c-0.1-0.1-0.3-0.2-0.4-0.3c-0.6-0.4-1.3-0.8-1.9-1.2
			c-13.4-8.4-27.9-14.6-42.2-21c-28.7-12.8-57.5-25.6-86.4-37.9c-14.2-6.1-28.4-12.1-42.8-17.8c-14-5.6-28.3-10.8-43.2-13.2
			c-1.6-0.3-2.5-2.3-2.1-3.7c0.5-1.7,2.1-2.3,3.7-2.1c16.8,2.7,32.8,8.9,48.4,15.3c29.2,11.9,58.1,24.5,86.9,37.2
			c14.4,6.4,28.9,12.8,43.3,19.2c13.6,6,27.2,12.2,39.7,20.3c0.6,0.4,1.1,1,1.3,1.7C492.8,952,492.8,952.9,492.3,953.7z"/>
		<path class="st3" d="M491.1,965.7c-1-0.4-2-0.8-3.1-1.2c-1.1-0.4-2.2-0.9-3.3-1.4c1.4-1.6,2.8-3.3,4.4-4.8
			C490,960.7,490.6,963.2,491.1,965.7z"/>
		<path d="M721.3,969.6c-2.1,0-4.2,0.1-6.2,0.2c-16.7,0.9-33.2,4.1-49.7,6.8c-8.4,1.4-16.9,2.6-25.3,3.5c-4.1,0.4-8.2,0.7-12.3,0.5
			c-4.2-0.2-8.1-1.1-12.1-2.4c-1.8-0.6-3.6-1.2-5.5-1.2c-1.7,0-3.2,0.8-4.5,1.7c-3,2-5.8,4.5-8.7,6.6c-6.1,4.3-13,7.9-20.4,9.1
			c-8.6,1.4-17.1-0.5-25.4-2.9c-8-2.3-16.1-4.7-24.1-7.2c-15.6-4.8-31.1-10.1-46.2-16.5c-0.4-0.2-0.8-0.4-1.3-0.5
			c-1.5-0.6-1.8-2.8-1.1-4.1c0.9-1.5,2.6-1.7,4.1-1.1c0.7,0.3,1.5,0.6,2.2,0.9c1.1,0.5,2.2,0.9,3.3,1.4c1,0.4,2.1,0.8,3.1,1.2
			c2,0.8,4.1,1.6,6.1,2.4c12.4,4.7,25.1,8.7,37.8,12.5c8,2.4,16.1,5.1,24.3,7c4,0.9,8,1.5,12.1,1.4c3.6-0.1,7.2-0.9,10.6-2.2
			c6.7-2.5,12.4-6.9,18-11.3c3.2-2.5,6.6-4.6,10.9-4.4c4.2,0.2,7.9,2.1,12,3c1.1,0.2,2.2,0.4,3.3,0.5c2,0.2,4,0.3,6,0.3
			c4.9-0.1,9.9-0.8,14.7-1.3c3.8-0.5,7.6-1,11.3-1.6c2-0.3,4-0.6,5.9-1c2.5-0.4,4.9-0.8,7.4-1.2c6-1,12-2,18-2.9
			c3.4-0.5,6.8-1,10.2-1.4h0c7.2-0.9,14.4-1.5,21.6-1.6C725.2,963.5,725.1,969.5,721.3,969.6z"/>
		<path class="st3" d="M430.9,1138.8c-3.4,5.5-7.3,10.7-12.2,15c-2.1,1.8-4.5,3.4-6.9,4.5c0.5-8.8,1.5-17.5,2.9-26.2
			C420,1134.3,425.5,1136.6,430.9,1138.8z"/>
		<path class="st3" d="M690.3,1139.3C690.3,1139.3,690.3,1139.3,690.3,1139.3c-1,0.5-2,0.9-2.9,1.4c-2.1,0.9-4.2,1.8-6.3,2.5
			c-8.2,3-16.7,5-25.4,6c-0.1-3.3-0.3-6.6-0.5-9.8c10.8-4.1,21.6-8.2,32.5-12.1c1,3.7,1.8,7.3,2.5,11.1
			C690.2,1138.4,690.3,1138.9,690.3,1139.3z"/>
		<path d="M871.9,1007.5c-0.2,0.2-0.4,0.3-0.5,0.5l0,0c-3,2.9-6,5.8-8.9,8.7c-12.7,12.2-25,24.9-38.3,36.4
			c-12.5,10.8-25.7,20.8-39,30.5c-6.7,4.9-13.5,9.7-20.2,14.5c-6.6,4.7-13,9.9-20.2,13.6c-7.4,3.9-15.2,5.1-23.4,6.2
			c-8.3,1.2-16.4,3.2-24.4,6c-1.1,0.4-2.3,0.8-3.5,1.2c-1.9,0.7-3.8,1.3-5.7,2c-10.9,3.9-21.7,8-32.5,12.1c-2,0.8-3.9,1.5-5.9,2.2
			c-0.9,0.4-1.9,0.7-2.8,1.1c-16.9,6.3-33.7,12.6-50.6,18.8c-7.9,2.9-15.8,5.9-24.2,7.2c-8.5,1.2-16.2-0.1-24.4-2.5
			c-3.9-1.2-7.9-2.4-12-2.8c-3.7-0.4-7.4-0.4-11.1-0.4c-7.4-0.1-14.8-0.3-21.6-3.4c-6.1-2.8-10.7-9.7-18.1-9.1
			c-4.3,0.4-8.4,1.6-12.8,1.4c-4.3-0.2-8.5-1-12.6-2.2c-7.7-2.3-15.2-5.5-22.7-8.5c-0.6-0.2-1.2-0.5-1.8-0.7c-1.3-0.5-2.6-1-3.9-1.6
			c-5.4-2.2-10.9-4.5-16.3-6.7c-1.4-0.6-2.8-1.2-4.2-1.8c-0.7-0.3-1.1-0.9-1.3-1.6c-0.2-0.8-0.1-1.8,0.3-2.5
			c0.1-0.1,0.1-0.2,0.2-0.3c0.9-1.2,2.5-1.4,3.9-0.8c0.7,0.3,1.4,0.6,2.2,0.9c3.3,1.4,6.6,2.8,10,4.2c8,3.3,16,6.6,24.1,9.7
			c7.7,3,15.9,6.1,24.3,6c4.2-0.1,8.2-1.6,12.4-1.5c3.5,0.1,6.7,1.4,9.6,3.4c2.8,1.9,5.2,4.2,8.1,5.8c3.2,1.8,6.8,2.6,10.4,3
			c7.3,0.8,14.7,0.1,22,1c8,1,15.5,4.6,23.5,5.5c8.2,0.9,16.4-1.1,24.2-3.7c8.2-2.7,16.2-5.9,24.3-8.9c14.1-5.2,28.2-10.5,42.3-15.7
			h0c0.2-0.1,0.5-0.2,0.7-0.3c2.2-0.8,4.5-1.7,6.7-2.5c8.3-3.1,16.6-6.2,24.8-9.3c1.3-0.5,2.7-1,4-1.5c1.1-0.4,2.1-0.8,3.2-1.2
			c5.5-2,11.1-3.9,16.8-5.3c7.9-2,16-2.4,24-4.2c7.9-1.8,14.6-5.9,21.1-10.6c13.3-9.4,26.6-18.9,39.6-28.6
			c13.2-9.8,26.1-20.2,38-31.5c12.8-12,25.2-24.4,37.8-36.6c0.1-0.2,0.3-0.3,0.5-0.4c0,0,0,0,0,0
			C870.9,1001,874.5,1004.9,871.9,1007.5z"/>
		<path d="M892.8,936.2c-0.4,2.9-1.7,5.7-4,7.6c-2,1.8-4.5,2.9-6.6,4.5c-3.1,2.4-5,6-6,9.9c0,0.2-0.1,0.4-0.2,0.6
			c-0.1,0.6-0.3,1.3-0.4,1.9c-0.7,3.9-0.7,8-0.4,12.2c0.8,11.3,3.3,23.2-2.3,33.7c-0.4,0.7-1,1.2-1.6,1.4l0,0
			c-2.2,0.7-5.1-1.7-3.6-4.4c0.1-0.2,0.3-0.5,0.4-0.8c0,0,0,0,0,0c1-2,1.6-4.1,2-6.3c1.9-10.3-1.5-20.8-1-31.2
			c0.1-2.4,0.4-4.8,0.9-7.1c0.5-2.4,1.3-4.8,2.4-7c0.3-0.7,0.7-1.3,1.1-1.9c0.9-1.4,1.9-2.8,3.1-3.9c1.8-1.8,3.8-3,5.9-4.3
			c2-1.2,3.5-2.4,4.1-4.7c0.6-2.4,0.6-4.9,0.6-7.4c-0.1-3.7-0.6-7.4-1.5-11c-0.3-1.1-0.6-2.2-0.9-3.2c0,0,0,0,0,0
			c-2-6.3-5.3-12.3-9.5-17.5c-0.6-0.8-1.3-1.6-2-2.3c-1.4-1.6-2.9-3.1-4.5-4.5c-2.1-1.9-4.4-3.7-6.8-5.2c-1-0.6-1.9-1.2-2.9-1.7
			c-5.5-2.8-11.6-4-17.5-1.6c-3.7,1.5-7.2,4.5-10.5,7.3c-3.5,3-6.9,6.2-10.9,8.6c-0.1,0.1-0.3,0.2-0.4,0.3c-3,1.8-6.2,3-9.5,3.8
			c-2.1,0.5-4.2,1-6.3,1.3c-5.7,1-11.2,2.1-16.6,4.2c-10.9,4.4-20.5,11.8-30.2,18.3c-10.8,7.3-21.5,14.5-32.3,21.8
			c-8.5,5.8-17.2,11.4-25.5,17.6h0c-1.7,1.3-3.4,2.6-5.1,4c-1.3,1-3,1.2-4.2,0c-0.6-0.6-1-1.6-0.9-2.6c0.1-0.7,0.3-1.3,0.9-1.7
			c2.6-2.1,5.2-4.1,7.8-6c10.5-7.7,21.4-14.8,32.2-22c11-7.4,22-14.8,33-22.2c9.9-6.6,20.1-13.1,31.9-15.7c5.7-1.2,11.5-1.8,17-3.7
			c4.5-1.6,8.2-4.5,11.7-7.6c3.7-3.2,7.3-6.6,11.4-9.1c2.5-1.5,5.2-2.7,8-3.3c2-0.5,3.9-0.6,6-0.6c0.3,0,0.6,0,0.9,0.1
			c11.2,1,21.2,8.7,28.3,17c5.6,6.6,10,14.4,12.4,22.7c0.5,1.8,1,3.7,1.3,5.5c0.1,0.4,0.1,0.8,0.2,1.1v0
			C893.4,926.1,893.6,931.2,892.8,936.2z"/>
		<path class="st3" d="M948.2,817.8c0,1.9-1,3.9-2,5.7c-2.4,4.3-5,8.2-6,13.1c-2,9.2,0,18.6-1,27.9c-0.4,3.9-1.7,8-4.5,11.2
			c-1.8,2.1-3.9,3.8-5.9,5.6c-2.2,2-4.5,3.9-6.7,5.9c-9,7.9-17.9,15.8-26.9,23.6c-1.4,1.2-2.7,2.4-4.1,3.6
			c-2.4-8.4-6.8-16.1-12.4-22.7c-7.1-8.3-17.1-15.9-28.3-17c-0.3,0-0.6,0-0.9-0.1c-0.9-11.5-1.7-22.9-2.6-34.4
			c-0.4-5.9-1-11.7-1.3-17.6c-0.1-2.1-0.2-4.4,1-6.2c0.4-0.5,1-1.1,1.6-1.4c0.8-0.4,1.7-0.7,2.8-0.9c4.7-0.9,10.1,1.3,15.1,0.7
			c5.6-0.6,10-4,14.2-7.5c4.6-3.8,9.2-7.6,13.8-11.4c4-3.3,7.9-6.7,12.6-9.1c4.4-2.3,9.4-3.2,14.2-2.6c2.4,0.3,5,1,7.1,2.2
			c2,1.2,2.3,3.1,2.9,5.2c1.2,4.6,2.4,9.5,5.2,13.4c1.5,2,3.3,3.5,5.3,4.9c1.7,1.2,3.5,2.2,4.8,3.4
			C947.4,814.7,948.2,816,948.2,817.8z"/>
		<path d="M949.4,829.9c-1.2,2-2.2,3.9-2.9,6.1c-0.7,2.2-1,4.3-1.1,6.5c-0.7,9.5,1.5,19.4-1.4,28.6c-1.7,5.3-5,9.2-9.1,12.8
			c-4.7,4.2-9.4,8.3-14.1,12.4c-9.3,8.2-18.7,16.4-28,24.6c0,0-0.1,0.1-0.1,0.1v0c-1.2,1-3,1.1-4.1-0.1c-1.1-1.1-1.2-3.2,0-4.2
			c0.9-0.8,1.8-1.5,2.6-2.3c1.4-1.2,2.7-2.4,4.1-3.6c9-7.9,17.9-15.8,26.9-23.6c2.2-2,4.5-3.9,6.7-5.9c2-1.8,4.2-3.5,5.9-5.6
			c2.7-3.2,4-7.3,4.5-11.2c1-9.3-1-18.7,1-27.9c1-4.9,3.6-8.8,6-13.1c1-1.8,2-3.8,2-5.7c0-1.8-0.8-3-2.1-4.2
			c-1.3-1.2-3.1-2.3-4.8-3.4c-2-1.4-3.8-3-5.3-4.9c-2.9-3.9-4.1-8.8-5.2-13.4c-0.5-2.1-0.9-4.1-2.9-5.2c-2.1-1.2-4.7-1.9-7.1-2.2
			c-4.9-0.7-9.9,0.3-14.2,2.6c-4.6,2.4-8.6,5.8-12.6,9.1c-4.6,3.8-9.2,7.6-13.8,11.4c-4.2,3.5-8.6,6.9-14.2,7.5
			c-5,0.6-10.4-1.6-15.1-0.7c-1.1,0.2-2,0.5-2.8,0.9c-0.6,0.3-1.2,0.8-1.6,1.4c-1.2,1.8-1.1,4.1-1,6.2c0.3,5.9,0.9,11.7,1.3,17.6
			c0.8,11.5,1.7,22.9,2.6,34.4c0,0.6,0.1,1.1,0.1,1.7c0.1,1.6-1.5,3-3,3c-1.7,0-2.9-1.4-3-3c0-0.4-0.1-0.8-0.1-1.2
			c-0.2-2.7-0.4-5.4-0.6-8c-0.9-12.5-1.9-25.1-2.8-37.6c-0.4-5.2-1.7-11.6,1.4-16.2c2.9-4.4,8.5-5.6,13.5-5.2
			c2.9,0.2,5.7,0.9,8.5,0.9c2.5,0.1,4.8-0.5,7-1.8c2.3-1.3,4.3-3,6.3-4.7c2.4-2,4.8-4,7.3-6c4.6-3.8,9.1-7.7,13.8-11.2
			c4.2-3.1,8.8-5.6,13.9-6.6c0.4-0.1,0.7-0.1,1.1-0.2c2.6-0.4,5.2-0.5,7.8-0.2c3.2,0.3,6.3,1.2,9.3,2.6c2.7,1.3,4.6,3.4,5.6,6.2
			c0,0,0,0,0,0c0.9,2.3,1.3,4.9,2,7.3c0,0,0,0,0,0c0.7,2.2,1.4,4.4,2.7,6.4c1.1,1.8,2.7,3.2,4.3,4.2c3.8,2.6,8,5.1,9.2,9.9
			C955.3,820.4,952.1,825.4,949.4,829.9z"/>
		<path class="st3" d="M870.1,996.5c-0.4,2.2-1,4.3-2,6.3c0,0,0,0,0,0c-0.2,0.1-0.3,0.2-0.5,0.4c-12.6,12.2-25,24.5-37.8,36.6
			c-12,11.3-24.9,21.6-38,31.5c-13.1,9.7-26.4,19.2-39.6,28.6c-6.5,4.6-13.2,8.8-21.1,10.6c-7.9,1.8-16.1,2.2-24,4.2
			c-5.7,1.4-11.3,3.3-16.8,5.3c-1.2-0.2-2.5,0.2-3.2,1.2c-1.3,0.5-2.7,1-4,1.5c-8.3,3.1-16.6,6.2-24.8,9.3c-2.2,0.8-4.5,1.7-6.7,2.5
			c-0.2,0-0.5,0.1-0.7,0.3h0c-14.1,5.2-28.2,10.5-42.3,15.7c-8.1,3-16.1,6.2-24.3,8.9c-7.8,2.6-15.9,4.6-24.2,3.7
			c-8-0.9-15.5-4.5-23.5-5.5c-7.3-0.9-14.7-0.2-22-1c-3.6-0.4-7.2-1.3-10.4-3c-2.9-1.6-5.4-3.9-8.1-5.8c-2.9-2-6.1-3.3-9.6-3.4
			c-4.2-0.1-8.2,1.4-12.4,1.5c-8.4,0.2-16.6-2.9-24.3-6c-8.1-3.2-16.1-6.4-24.1-9.7c-3.3-1.4-6.7-2.8-10-4.2
			c3-17.1,7.4-34,12.8-50.5c4.7-14.1,10-28,16-41.6c5.9-13.5,12.2-26.9,19.3-39.8c3.9-7.1,8.2-14.1,12.9-20.7
			c1.3-1.9,2.7-3.7,4.1-5.5c15,6.4,30.5,11.7,46.2,16.5c8,2.5,16,4.8,24.1,7.2c8.2,2.4,16.8,4.3,25.4,2.9c7.4-1.2,14.3-4.9,20.4-9.1
			c3-2.1,5.7-4.6,8.7-6.6c1.4-0.9,2.8-1.7,4.5-1.7c1.9,0,3.7,0.6,5.5,1.2c4,1.3,7.9,2.2,12.1,2.4c4.1,0.2,8.2-0.1,12.3-0.5
			c8.5-0.8,16.9-2.1,25.3-3.5c16.5-2.7,32.9-5.9,49.7-6.8c2.1-0.1,4.1-0.2,6.2-0.2c3.8-0.1,3.9-6.1,0-6c-7.2,0.1-14.5,0.8-21.6,1.6
			c8.2-6.2,16.9-11.8,25.5-17.6c10.8-7.3,21.5-14.5,32.3-21.8c9.7-6.5,19.3-13.9,30.2-18.3c5.4-2.2,10.9-3.2,16.6-4.2
			c2.1-0.4,4.2-0.8,6.3-1.3c0.5,0.5,1.2,0.7,2,0.8c5.5,0.7,11,1.4,16.3,3.1c5.4,1.7,9.9,4.6,13.8,8.7c4,4.3,7.7,8.9,11.4,13.6
			c3.5,4.4,6.8,9.1,9.7,14c2.9,5,5.2,10.3,6.5,15.9c-0.5,2.3-0.8,4.7-0.9,7.1C868.6,975.7,872,986.2,870.1,996.5z"/>
		<path d="M875.7,960.8c-0.4,0.5-0.9,0.9-1.6,1c-1.5,0.4-3.4-0.5-3.7-2.1c-0.1-0.5-0.2-1-0.4-1.5c-1.3-5.6-3.6-10.9-6.5-15.9
			c-2.8-4.9-6.1-9.6-9.7-14c-3.6-4.6-7.4-9.3-11.4-13.6c-3.9-4.1-8.4-7-13.8-8.7c-5.3-1.7-10.8-2.4-16.3-3.1c-0.8-0.1-1.5-0.4-2-0.8
			c-0.6-0.5-1-1.2-1-2.2c0-1.5,1.4-3.2,3-3c2.6,0.3,5.3,0.7,7.9,1.1c4.1,0.6,8.2,1.5,12.1,3c0.6,0.2,1.2,0.5,1.8,0.8h0
			c1.2,0.5,2.4,1.1,3.5,1.7c3.7,2.1,7,4.8,9.9,8.1c1.3,1.4,2.6,2.9,3.8,4.4c0.7,0.8,1.3,1.5,1.9,2.3c2.1,2.5,4.1,5,6,7.6
			c2,2.5,3.8,5.1,5.6,7.8c0.6,0.8,1.1,1.7,1.6,2.5c2.7,4.2,5,8.6,6.8,13.3c1.1,2.9,2,5.8,2.7,8.9c0,0,0,0.1,0,0.1
			C876.4,959.1,876.2,960.1,875.7,960.8z"/>
		<path class="st3" d="M658.1,971.7c-3.8,0.6-7.6,1.1-11.3,1.6c-4.8,0.6-9.8,1.3-14.7,1.3c-1.5-21.1-3.9-42.2-7.2-63.1
			c-1.7-10.6-3.7-21.2-5.8-31.8c-1-5-2-10-1.4-15.1c0.5-4,2-8.1,3.5-11.8c2.4-5.8,5.2-11.5,6.9-17.6c2.4,6.5,4.2,13.3,5.8,20
			c2.1,8.8,3.8,17.6,5.6,26.4c1.9,9.4,3.9,18.7,5.8,28.1c3.9,18.7,7.7,37.3,11.6,56C657.3,967.9,657.7,969.8,658.1,971.7z"/>
		<path d="M632.2,976.2c0.1,1.6-1.5,3-3,3c-1.7,0-2.9-1.4-3-3c0-0.6-0.1-1.2-0.1-1.7c-0.8-11.5-1.9-22.9-3.2-34.4
			c-1.3-10.6-2.8-21.2-4.5-31.7c-0.9-5.3-1.8-10.6-2.8-15.9c-1-5.3-2.2-10.5-3.1-15.8c-0.9-5.1-1.1-10.2-0.1-15.3
			c0.9-4.3,2.5-8.5,4.2-12.5c3.2-7.6,7.2-15.3,7-23.6c0-0.2,0-0.4,0-0.5c0.4-3.3,5.9-3.1,6,0.5c0.1,3.5-0.5,6.9-1.4,10.2
			c-1.7,6-4.5,11.8-6.9,17.6c-1.5,3.8-3,7.9-3.5,11.8c-0.6,5.1,0.3,10.1,1.4,15.1c2.2,10.6,4.1,21.1,5.8,31.8
			c3.3,20.9,5.8,41.9,7.2,63.1C632.1,975.2,632.1,975.7,632.2,976.2z"/>
		<path d="M492.5,1273.2c-13.6,5.9-27,12.4-40,19.4c-11.5,6.2-22.9,12.8-33.9,19.9c-11.3,7.2-22.2,14.9-33.4,22.2
			c-5.5,3.6-10.9,7.4-16.8,10.2c-5.6,2.7-11.8,3.8-17.5,0.8c-4.1-2.1-7-6-9.7-9.6c-1.4-1.9-2.6-3.5-4-5.2c-1.3-1.6-3.1-3.4-4.4-4.3
			c-1.3-0.9-2-2.6-1.1-4.1c0.8-1.3,2.8-2,4.1-1.1c4.4,3.1,7.4,7.5,10.6,11.8c1.2,1.6,2.7,3.5,4.4,5.1c1.4,1.3,3.2,2.4,5,3
			c5.5,1.5,11-2.1,15.4-4.8c5.7-3.5,11.3-7.2,16.9-10.9c10.8-7.2,21.5-14.6,32.6-21.5c22-13.7,45-25.7,68.8-36
			c1.5-0.6,3.2-0.5,4.1,1.1C494.4,1270.4,494,1272.6,492.5,1273.2z"/>
		<path d="M462.7,1350.7c14.5-20.1,29.2-40.4,45.5-59.1c8.8-10.2,18.3-19.8,28.8-28.2c1.3-1,1.1-3.2,0-4.2c-1.2-1.2-3-1-4.2,0
			c-18.8,15.2-34.3,34-49,53.1c-16,20.8-31.1,42.2-46.4,63.4c-5.8,8.1-11.7,16.2-17.5,24.4h7.4
			C439,1383.6,450.9,1367.1,462.7,1350.7z"/>
		<path class="st3" d="M859.2,883.5c-8.4,5.9-15.3,14.4-24.9,18.1c0,0,0,0,0,0c-0.6-0.3-1.2-0.5-1.8-0.8c-3.9-1.5-8-2.4-12.1-3
			c3.9-2.4,7.4-5.6,10.9-8.6c3.2-2.8,6.7-5.8,10.5-7.3C847.6,879.5,853.8,880.7,859.2,883.5z"/>
		<path d="M863.2,884.5c-0.4,0.2-0.7,0.4-1.1,0.7c-8.5,5.5-15.3,13.7-24.4,18.2c-1.5,0.8-3.1,1.4-4.8,1.9c-1.9,0.6-2.7-2.3-0.8-2.9
			c0.7-0.2,1.4-0.5,2.1-0.7h0c9.6-3.7,16.5-12.3,24.9-18.1c0.8-0.6,1.6-1.1,2.5-1.6C863.4,880.9,864.9,883.5,863.2,884.5z"/>
		<path class="st3" d="M873.5,894.9c-3.8,3.7-7.8,7.2-11.1,11.4c-1.7,2.1-4,3.8-6.1,5.5c-1.6,1.4-3.2,2.7-4.8,4
			c-1.2-1.5-2.5-2.9-3.8-4.4c-2.9-3.3-6.2-6-9.9-8.1c9.1-4.5,15.9-12.7,24.4-18.2c2.5,1.5,4.8,3.3,6.8,5.2
			C870.6,891.8,872.1,893.3,873.5,894.9z"/>
		<path d="M876.3,896.3c-0.3,0.3-0.6,0.6-0.9,0.8c-3.8,3.6-7.7,7.1-10.9,11.2c-1.8,2.2-4.1,3.9-6.3,5.7c-1.6,1.4-3.2,2.7-4.8,4.1
			c-0.7,0.6-1.4,1.1-2.1,1.7c-1.5,1.2-3.6-0.9-2.1-2.1c0.8-0.6,1.5-1.3,2.2-1.9c1.6-1.3,3.2-2.7,4.8-4c2.1-1.8,4.4-3.4,6.1-5.5
			c3.3-4.1,7.3-7.7,11.1-11.4c0.2-0.2,0.5-0.4,0.7-0.7C875.6,892.9,877.7,895,876.3,896.3z"/>
		<path class="st3" d="M884.9,914.7c-0.2,0.1-0.3,0.2-0.4,0.3c-6.1,6.5-12.6,12.7-19.4,18.4c-1.8-2.7-3.7-5.2-5.6-7.8
			c-2-2.6-4-5.1-6-7.6c1.6-1.4,3.2-2.7,4.8-4.1c2.2-1.8,4.5-3.5,6.3-5.7c3.2-4.1,7.2-7.6,10.9-11.2
			C879.6,902.4,882.9,908.3,884.9,914.7C884.9,914.7,884.9,914.7,884.9,914.7z"/>
		<path class="st3" d="M886.7,936.3c-0.6,2.3-2.2,3.5-4.1,4.7c-2.1,1.3-4.2,2.6-5.9,4.3c-1.2,1.2-2.2,2.5-3.1,3.9
			c-1.8-4.6-4.1-9.1-6.8-13.3c6.7-5.6,13.1-11.6,19.1-18c0.9,3.6,1.4,7.2,1.5,11C887.4,931.4,887.4,933.9,886.7,936.3z"/>
		<path d="M886.6,917.1c-0.2,0.3-0.5,0.5-0.8,0.8c-6,6.4-12.4,12.4-19.1,18c-0.7,0.6-1.4,1.2-2.1,1.7c-1.5,1.2-3.6-0.9-2.1-2.1
			c0.9-0.7,1.7-1.4,2.6-2.1c6.8-5.8,13.3-11.9,19.4-18.4c0.1-0.1,0.3-0.2,0.4-0.3C886.2,914,887.8,915.9,886.6,917.1z"/>
		<path d="M990.7,720.6c0.1,1.6-0.6,3.1-1.5,4.4c-4.2,5.9-8.7,11.7-13,17.5c-4.3,5.8-8.6,11.6-12.9,17.4
			c-8.6,11.5-17.1,23-25.7,34.5c-0.1,0.1-0.2,0.3-0.3,0.4c-1,1.3-2.6,2-4.1,1.1c-1.3-0.8-2-2.8-1.1-4.1c1.2-1.6,2.3-3.1,3.5-4.7
			c8.1-10.9,16.3-21.9,24.4-32.9c2.6-3.5,5.2-7,7.8-10.5c0.6-0.8,1.2-1.7,1.9-2.5c0.8-1.1,1.7-2.3,2.5-3.4c0.8-1,1.5-2,2.3-3
			c0.6-0.8,1.2-1.6,1.8-2.4c0.7-1,1.4-1.9,2.2-2.9c1.1-1.5,2.2-2.9,3.3-4.4c0.9-1.2,1.8-2.6,2.8-3.8c0.6-0.6-0.3-1.3-0.9-2
			c-0.9-1-1.9-2-3-2.9c-2.1-1.8-4.4-3.2-6.8-4.4c-1.1-0.6-2.4-1.3-3.7-1.5c-0.1,0-0.2,0-0.3-0.1c-0.1,0.1-0.1,0.1,0,0.1c0,0,0,0,0,0
			c-0.2,0.4-0.7,0.8-1,1.3c-1.9,2.9-3.9,5.8-5.9,8.6c-0.5,0.8-1,1.5-1.5,2.3c-0.6,0.9-1.2,1.7-1.8,2.6c-1.1,1.6-2.2,3.2-3.3,4.8
			c-0.6,0.8-1.1,1.7-1.7,2.5c-5,7.3-10,14.7-15,22c-5.7,8.4-11.6,16.8-19.1,23.7c-1.5,1.4-3,2.6-4.6,3.8c-1.3,1-3.4,0.2-4.1-1.1
			c-0.5-0.8-0.5-1.6-0.2-2.4c0.2-0.7,0.7-1.3,1.3-1.7c11.3-8.6,18.8-21.4,26.6-32.9c8.1-11.9,16.1-23.8,24.2-35.7
			c1-1.5,2.1-2.8,3.8-3.5c1.8-0.7,3.5-0.4,5.2,0.3c3,1.1,5.8,2.6,8.4,4.4c2.6,1.8,5.1,3.8,7.1,6.2
			C989.6,717.1,990.7,718.7,990.7,720.6z"/>
		<path class="st3" d="M967.8,743.8c-2.6,3.5-5.2,7-7.8,10.5c-8.1,11-16.3,21.9-24.4,32.9c0,0,0,0,0,0c-1.1-2.8-2.9-4.9-5.6-6.2
			c-2.9-1.4-6.1-2.2-9.3-2.6c7.5-6.9,13.3-15.2,19.1-23.7c5-7.3,10-14.7,15-22c0.2,0.1,0.3,0.2,0.5,0.3c0.8,0.4,1.6,0.9,2.4,1.4
			c1.6,1,3.1,2.1,4.5,3.4C964.3,739.5,966.2,741.5,967.8,743.8z"/>
		<path d="M969.7,746.4c-0.3-0.3-0.6-0.6-0.9-1c-0.2-0.3-0.4-0.6-0.4-0.8c-0.2-0.3-0.4-0.5-0.6-0.8c-1.7-2.2-3.6-4.3-5.7-6.1
			c-1.4-1.2-2.9-2.4-4.5-3.4c-0.8-0.5-1.6-1-2.4-1.4c-0.2-0.1-0.3-0.2-0.5-0.3c-0.1-0.1-0.3-0.1-0.4-0.2c-0.2-0.1-0.3-0.1-0.4-0.1
			c0,0,0,0,0,0c0,0,0,0,0,0c-1.3,1.4-3.5-0.7-2.1-2.1c1.4-1.4,3.2-0.9,4.7-0.1c0.4,0.2,0.8,0.4,1.2,0.7c1.9,1.1,3.8,2.4,5.5,3.8
			c2.4,2,4.6,4.2,6.6,6.7c0.8,1.1,1.6,2.1,2.3,3.3C972.9,746,970.8,747.6,969.7,746.4z"/>
		<path class="st3" d="M974.5,734.8c-0.8,1-1.5,2-2.3,3c-0.8,1.1-1.7,2.3-2.5,3.4c-1.9-2.5-4.1-4.7-6.6-6.7
			c-1.7-1.4-3.6-2.7-5.5-3.8c-0.4-0.2-0.8-0.5-1.2-0.7c1.1-1.6,2.2-3.2,3.3-4.8C965.4,726.9,970.7,730.3,974.5,734.8z"/>
		<path class="st3" d="M984.5,721.3c-1,1.2-1.8,2.6-2.8,3.8c-1.1,1.5-2.2,2.9-3.3,4.4c-0.7,1-1.4,1.9-2.2,2.9
			c-4-4.5-9.1-7.9-14.8-9.7c0.5-0.8,1-1.5,1.5-2.3c2-2.9,3.9-5.8,5.9-8.6c0.3-0.4,0.7-0.8,1-1.3c0,0,0,0,0,0c-0.1,0-0.1,0,0-0.1
			c0.1,0,0.2,0,0.3,0.1c1.3,0.3,2.6,1,3.7,1.5c2.4,1.2,4.7,2.7,6.8,4.4c1,0.9,2,1.8,3,2.9C984.2,720,985.1,720.7,984.5,721.3z"/>
		<path d="M977.6,736.7c-0.8,0.4-1.6,0.1-2.1-0.5c-0.3-0.4-0.7-0.9-1-1.3c-3.8-4.6-9.1-7.9-14.8-9.5c-0.2-0.1-0.5-0.1-0.7-0.2
			c-1.9-0.5-1.1-3.4,0.8-2.9c0.6,0.1,1.1,0.3,1.7,0.5c5.8,1.8,10.9,5.2,14.8,9.7c0.6,0.7,1.2,1.5,1.8,2.2
			C978.6,735.3,978.2,736.3,977.6,736.7z"/>
		<path d="M627.5,531.9c-5.1-20.4-13.5-39.9-24.4-57.8c-10.8-17.7-24.2-33.8-39.6-47.7c-15.4-13.9-32.8-25.8-51.6-34.6
			c-19-8.9-39.2-14.8-60.1-17.3c-21.1-2.5-42.6-1.3-63.4,3c-20.7,4.3-40.7,11.8-59,22.3c-18.6,10.7-35.3,24.5-49.1,40.9
			c-15.6,18.7-27.5,40.1-36.1,62.9c-7.4,19.6-12.1,40-14,60.8c-1.9,20.1-1,40.5,2.4,60.4c3.4,19.7,9.5,39,18.5,56.9
			c8.8,17.6,20.4,33.9,34.6,47.6c5.5,5.3,11.3,10.1,17.4,14.5c1.6,1.2,3.2,2.3,4.9,3.4c10.6,7.1,21.9,13,33.8,17.7
			c21.5,8.5,44.4,13.1,67.5,14.2c11,0.6,22,0.3,33-0.7c17.7-1.7,35.3-4.6,52.5-8.8c16.9-4.1,33.7-9.5,49.5-16.7
			c1.8-0.8,3.6-1.7,5.4-2.5c0,0,0.1,0,0.1-0.1c16.2-7.9,32-18,43.8-31.8c6.4-7.5,11.5-16,16-24.7c5.1-9.7,9.3-19.9,12.8-30.3
			c7.1-21.3,10.9-43.7,11.7-66C635.1,575.4,632.9,553.2,627.5,531.9z M624.7,630.9c-3.8,21.2-10.5,42-20.7,61
			c-4.4,8.3-9.2,16.5-15.5,23.5c-5.6,6.4-12.2,11.9-19.1,16.8c-15.2,10.6-32.3,18.2-49.8,24.1c-17.6,5.9-35.8,10.2-54.1,13.2
			c-7.7,1.3-15.5,2.3-23.2,3c-22.3,2.1-44.9,1-66.8-3.6c-22-4.7-43.2-12.9-62-25.2c-16.7-10.8-31.3-24.8-42.8-41.1
			c-11.1-15.6-19.5-33.1-25.3-51.3c-5.9-18.7-9.1-38.1-9.8-57.7c-0.7-19.7,1.2-39.5,5.6-58.7c5-21.7,13.2-42.8,24.3-62.1
			c11.2-19.4,25.4-36.9,42.8-51.1c15.8-12.9,33.9-23,52.9-30.1c19.3-7.2,39.8-11.3,60.4-12.2c20.6-0.8,41.2,1.6,60.9,7.5
			c19.3,5.8,37.6,14.7,54.3,26c16.7,11.4,31.7,25.2,44.5,40.8c12.7,15.5,23.3,32.9,31,51.3c8.1,19.3,13,39.9,15.1,60.7
			C629.4,587.4,628.6,609.4,624.7,630.9z"/>
		<path class="st3" d="M624.7,630.9c-3.8,21.2-10.5,42-20.7,61c-4.4,8.3-9.2,16.5-15.5,23.5c-5.6,6.4-12.2,11.9-19.1,16.8
			c-15.2,10.6-32.3,18.2-49.8,24.1c-17.6,5.9-35.8,10.2-54.1,13.2c-7.7,1.3-15.5,2.3-23.2,3c-22.3,2.1-44.9,1-66.8-3.6
			c-22-4.7-43.2-12.9-62-25.2c-16.7-10.8-31.3-24.8-42.8-41.1c-11.1-15.6-19.5-33.1-25.3-51.3c-5.9-18.7-9.1-38.1-9.8-57.7
			c-0.7-19.7,1.2-39.5,5.6-58.7c5-21.7,13.2-42.8,24.3-62.1c11.2-19.4,25.4-36.9,42.8-51.1c15.8-12.9,33.9-23,52.9-30.1
			c19.3-7.2,39.8-11.3,60.4-12.2c20.6-0.8,41.2,1.6,60.9,7.5c19.3,5.8,37.6,14.7,54.3,26c16.7,11.4,31.7,25.2,44.5,40.8
			c12.7,15.5,23.3,32.9,31,51.3c8.1,19.3,13,39.9,15.1,60.7C629.4,587.4,628.6,609.4,624.7,630.9z"/>
		<path class="st3" d="M665.4,1326c1.7-3.3,3-6.8,2.9-10.5c-0.1-4.7-2.8-8.8-5-12.8c-3.7-6.6-7.3-13.1-11-19.7
			c-1.5,15.4-3.3,30.8-5.5,46.1c-0.2,1.6-2.3,2.5-3.7,2.1c-1.7-0.5-2.3-2.1-2.1-3.7c2-13.7,3.6-27.5,5-41.2
			c0.4-4.2,0.8-8.4,1.2-12.6c-0.4-1-0.3-1.9,0.2-2.7c1.6-19.7,2.7-39.4,3.1-59.1c0.5-23.4,0.1-46.9-1-70.3c-0.9,0.4-1.9,0.7-2.8,1.1
			c-16.9,6.3-33.7,12.6-50.6,18.8c-7.9,2.9-15.8,5.9-24.2,7.2c-8.5,1.2-16.2-0.1-24.4-2.5c-3.9-1.2-7.9-2.4-12-2.8
			c-3.7-0.4-7.4-0.4-11.1-0.4c-7.4-0.1-14.8-0.3-21.6-3.4c-6.1-2.8-10.7-9.7-18.1-9.1c-4.3,0.4-8.4,1.6-12.8,1.4
			c-4.3-0.2-8.5-1-12.6-2.2c-7.7-2.3-15.2-5.5-22.7-8.5c-0.6,1-1.2,1.9-1.8,2.9c-4.5,6.7-9.7,13.1-16.5,17.6
			c-2.8,1.8-5.8,3.2-8.8,4.1c-5.2,1.6-10.8,1.8-16.3,1.1c-9.2-1.3-17.8-5.2-25.9-9.4c-8.3-4.3-16.5-8.8-24.7-13.3
			c-16.6-9.1-33-18.6-48.6-29.4c-14.3-9.9-27.9-20.9-40-33.5c-11.8-12.2-22.3-25.9-30.2-41c-0.8-1.4-0.4-3.3,1.1-4.1
			c1.3-0.8,3.3-0.3,4.1,1.1c1,1.8,2,3.7,3,5.5c8.2,14.2,18.6,26.9,30.2,38.4c12.1,11.9,25.5,22.4,39.7,31.8
			c15.3,10.3,31.3,19.4,47.5,28.2c8,4.4,16,8.8,24.2,12.9c7.6,3.7,15.8,7.1,24.3,7.4c2.7,0.1,5.3-0.1,7.9-0.7
			c0.6-10.6,1.8-21.2,3.5-31.8c-0.2-0.8-0.1-1.8,0.3-2.5c0.1-0.1,0.1-0.2,0.2-0.3c0.8-4.7,1.7-9.4,2.7-14.1
			c6.4-29.8,16.9-58.6,29.4-86.4c6.1-13.5,12.5-27,20-39.8c3.7-6.4,7.8-12.6,12.2-18.5c2.3-3,4.7-6,7.2-8.9c1.5-1.8,3.1-3.5,4.9-5
			c-13.4-8.4-27.9-14.6-42.2-21c-28.7-12.8-57.5-25.6-86.4-37.9c-14.2-6.1-28.4-12.1-42.8-17.8c-14-5.6-28.3-10.8-43.2-13.2
			c-1.6-0.3-2.5-2.3-2.1-3.7c0.5-1.7,2.1-2.3,3.7-2.1c16.8,2.7,32.8,8.9,48.4,15.3c29.2,11.9,58.1,24.5,86.9,37.2
			c14.4,6.4,28.9,12.8,43.3,19.2c13.6,6,27.2,12.2,39.7,20.3c0.6,0.4,1.1,1,1.3,1.7c0.4,0.4,0.7,0.8,0.9,1.3
			c1.8,4.5,3.1,9.1,3.8,13.9c0.1,0.5,0.1,1.1-0.1,1.5c12.4,4.7,25.1,8.7,37.8,12.5c8,2.4,16.1,5.1,24.3,7c4,0.9,8,1.5,12.1,1.4
			c3.6-0.1,7.2-0.9,10.6-2.2c6.7-2.5,12.4-6.9,18-11.3c3.2-2.5,6.6-4.6,10.9-4.4c4.2,0.2,7.9,2.1,12,3c1.1,0.2,2.2,0.4,3.3,0.5
			c-0.8-11.5-1.9-22.9-3.2-34.4c-1.3-10.6-2.8-21.2-4.5-31.7c-0.9-5.3-1.8-10.6-2.8-15.9c-1-5.3-2.2-10.5-3.1-15.8
			c-0.9-5.1-1.1-10.2-0.1-15.3c0.9-4.3,2.5-8.5,4.2-12.5c3.2-7.6,7.2-15.3,7-23.6c0-0.2,0-0.4,0-0.5c-2.4-4.9-5.3-9.5-8.5-14
			c-8.5-11.9-19.5-22-31.2-30.8c-12.1-9.2-25-17.1-38-25c-0.9-0.5-1.3-1.3-1.4-2.1c-15.9,7.2-32.6,12.5-49.5,16.7
			c-17.3,4.2-34.9,7.2-52.5,8.8c-11,1-22,1.3-33,0.7c-23-1.1-46-5.7-67.5-14.2c-11.8-4.7-23.2-10.6-33.8-17.7
			c-2.7,3.6-5.6,7-8.8,10.2c-28.9,29.6-72.9,43.3-91.1,82.9c-10,21.7-11.8,46.2-13.3,69.7c-1.7,26.8-3.5,53.7-1.2,80.6
			c2,24.7,8.4,48.3,17.9,71.1c8.8,21.2,19.7,41.5,29.9,62c10.1,20.2,19.7,40.7,26,62.4c3.1,10.7,5.4,21.7,6.6,32.8
			c1.4,12.8,1.2,25.8,3.7,38.5c1.2,6.2,3.2,12.2,6.1,17.8c2.8,5.4,6.2,10.4,8.6,15.9c2.5,5.7,3.5,11.5,5,17.5
			c1.2,4.8,3.3,9.2,6.1,13.3c10.3,14.9,28.3,25.5,31.5,44.5c0.6,3.8-5.1,5.4-5.8,1.6c-0.8-4.5-2.4-8.5-4.8-12.4
			c-4.8-7.7-11.6-13.9-17.8-20.5c-1.7,4.1-2.3,8.6-2.3,13.1c0.2,18,10.5,34.2,13.6,51.6h101.8c5.8-8.1,11.7-16.2,17.5-24.4
			c15.3-21.3,30.5-42.6,46.4-63.4c14.7-19.1,30.1-37.9,49-53.1c1.3-1,3-1.2,4.2,0c1.1,1.1,1.3,3.2,0,4.2
			c-10.5,8.5-20,18.1-28.8,28.2c-16.3,18.7-31,38.9-45.5,59.1c-11.8,16.4-23.7,32.9-35.5,49.4h236.9c-1.1-2.8-1.9-5.7-2.4-8.6
			c-1-5.5-1-10.9-0.5-16.5c0.4-4.2,1.1-8.7,0.3-12.8c-0.4-2-1.1-3.8-2.3-5.4c-1.6-2.2-3-4-3.4-6.8c-0.5-4.4,1.6-9.1,3.5-13
			C661.3,1333.1,663.5,1329.7,665.4,1326z M492.5,1273.2c-13.6,5.9-27,12.4-40,19.4c-11.5,6.2-22.9,12.8-33.9,19.9
			c-11.3,7.2-22.2,14.9-33.4,22.2c-5.5,3.6-10.9,7.4-16.8,10.2c-5.6,2.7-11.8,3.8-17.5,0.8c-4.1-2.1-7-6-9.7-9.6
			c-1.4-1.9-2.6-3.5-4-5.2c-1.3-1.6-3.1-3.4-4.4-4.3c-1.3-0.9-2-2.6-1.1-4.1c0.8-1.3,2.8-2,4.1-1.1c4.4,3.1,7.4,7.5,10.6,11.8
			c1.2,1.6,2.7,3.5,4.4,5.1c1.4,1.3,3.2,2.4,5,3c5.5,1.5,11-2.1,15.4-4.8c5.7-3.5,11.3-7.2,16.9-10.9c10.8-7.2,21.5-14.6,32.6-21.5
			c22-13.7,45-25.7,68.8-36c1.5-0.6,3.2-0.5,4.1,1.1C494.4,1270.4,494,1272.6,492.5,1273.2z"/>
		<path class="st3" d="M700.9,1400h-30.4c-3.1-7.3-4.2-15.3-3.5-23.3c0.4-4.4,1.1-8.9,0.7-13.3c-0.2-2.4-0.7-4.7-1.7-6.9
			c-0.4-0.9-0.9-1.9-1.5-2.7c-0.7-1-1.6-2-2.2-3.1c-0.9-1.7-0.4-3.7,0.1-5.4c0.6-2,1.3-3.6,2.2-5.4c1.8-3.7,4.1-7.2,5.9-10.8
			c1.9-3.8,3.4-7.7,3.7-12c0.3-5-1.6-9.6-3.9-13.9c-5.6-10.3-11.4-20.5-17.1-30.8c0.5-6,1-12,1.3-17.9c1.6-24.9,2.3-49.8,2-74.8
			c-0.1-7.8-0.3-15.6-0.6-23.3c0.5-0.1,1-0.4,1.4-0.8c0.2-0.2,0.3-0.4,0.4-0.6c6.6-0.8,13.1-2.2,19.5-4.2c1.3,9.5,2.7,18.9,5.1,28.2
			c1.2,4.7,2.7,9.3,4.5,13.7c1.8,4.4,3.8,8.8,4.8,13.4c0.9,4.1,0.6,8.1-1.4,11.7c-1.9,3.5-4.6,6.5-5.8,10.3c-1.4,4.2-0.3,8.5,2,12.1
			c2.2,3.4,5.3,6.3,7,10.1c1.5,3.5,2,7.6,1.3,11.4c-0.8,4.2-3.2,7.8-4.9,11.7c-1.9,4.4-2.7,8.9-0.6,13.4c1.6,3.5,4.8,6.2,5.9,9.7
			c1,3.3,0.3,6.7-0.5,10.2c-1,3.9-2.2,7.8-2.7,11.8c-0.6,4.3,0.1,8.3,2,12.3c1,2.1,2.1,4.1,2.8,6.4c0.6,2.1,1.1,4.4,1.4,6.6
			c0.6,5,0.7,10.1,0.9,15.1c0.2,5.2,0.5,10.4,0.7,15.7c0.2,5.3,0.5,10.6,0.8,15.9C700.7,1393.6,700.8,1396.8,700.9,1400z"/>
		<path d="M310.8,1395c0.5,1.7,0.8,3.3,1.2,5h6.1c-3.1-17.4-13.4-33.6-13.6-51.6c0-4.5,0.6-9,2.3-13.1c0.4-1,0.9-2,1.4-3
			c1.9-3.4-3.3-6.4-5.2-3c-0.2,0.4-0.4,0.8-0.6,1.1c-4.9,9.7-4.6,20.9-2.3,31.3C302.7,1373.1,307.8,1383.7,310.8,1395z"/>
		<path d="M477.5,544c4.5,1,10.1,3.1,11.6,7.3c1.9,5.2-2.4,10.1-6.9,12.6c-5.6,3.2-12.1,5.1-18.4,6.5c-6.7,1.5-13.6,2.3-20.5,2.2
			c-3.3,0-6.7-0.2-10-0.6c-3-0.4-6.2-1-8.8-2.5c-1-0.6-1.6-1-2.3-1.6c-0.3-0.3-0.6-0.6-0.9-1c-0.5-0.6,0.2,0.5-0.1-0.2
			c-0.1-0.3-0.3-0.6-0.5-0.8c-0.3-0.4,0,0,0,0.1c-0.1-0.2-0.1-0.4-0.2-0.6c-0.1-0.2-0.1-0.4-0.1-0.6c0.2,0.7,0,0.3,0,0
			c0-0.3,0-0.7,0-1c0,0.9,0.1-0.3,0.2-0.6c0.1-0.2,0.1-0.4,0.2-0.6c-0.2,0.7,0,0.1,0-0.1c0.2-0.3,0.4-0.7,0.5-1
			c0.2-0.4,0.5-0.8,0.8-1.2c-0.4,0.5-0.1,0.1,0,0c0.2-0.3,0.4-0.5,0.7-0.8c0.7-0.7,1.3-1.4,2.1-2.1c0.3-0.3,0.7-0.6,1-0.9
			c0.2-0.2,0.4-0.4,0.7-0.5c0.1-0.1,0.3-0.2,0.4-0.3c-0.2,0.2-0.2,0.2,0.1,0c3.2-2.4,6.7-4.4,10.2-6.3
			C449.6,543.2,464,541,477.5,544c1.6,0.3,3.2-0.5,3.7-2.1c0.4-1.5-0.5-3.3-2.1-3.7c-14.6-3.2-29.9-1.2-43.3,5.3
			c-3.8,1.8-7.6,4-11,6.5c-3.7,2.7-7.5,5.8-9.4,10.1c-2,4.6-0.7,9.4,3.2,12.6c5.8,4.8,13.5,5.5,20.8,5.9c7.7,0.4,15.5-0.2,23.1-1.7
			c7.3-1.4,14.8-3.6,21.4-7c6.2-3.2,11.9-9.1,11.5-16.6c-0.4-7-6-11.5-12.1-13.8c-1.4-0.5-2.8-0.9-4.2-1.2c-1.6-0.4-3.2,0.5-3.7,2.1
			C475,541.8,475.9,543.6,477.5,544z"/>
		<path d="M574.9,519.7c3.7,0.2,8.3,1.1,10.5,4.1c-0.3-0.4,0.1,0.2,0.1,0.3c0.1,0.2,0.3,0.4,0.4,0.7c0.3,0.6,0.1,0.2,0.1,0.1
			c0.1,0.3,0.2,0.6,0.3,0.9c0.2,0.8,0.1,1.5-0.1,2.4c-0.5,1.8-2,3.5-3.7,4.9c-1.8,1.6-4,2.8-6.2,3.9c-2.6,1.3-5.2,2.5-7.9,3.6
			c-5.6,2.2-11.3,4-17.2,5.2c-2.8,0.6-5.7,1.1-8.5,1.4c-2.8,0.3-5.7,0.6-8.4,0c-1-0.2-2-0.5-2.9-1c-0.5-0.3-1.1-0.6-1.6-0.9
			c-0.2-0.1-0.4-0.2-0.6-0.4c-0.4-0.3,0,0-0.5-0.4c-0.3-0.3-0.6-0.6-0.9-0.9c-0.5-0.5,0.2,0.5-0.1-0.2c-0.1-0.1-0.2-0.3-0.2-0.4
			c0,0-0.3-0.7-0.1-0.2c0.2,0.4-0.1-0.2-0.1-0.3c0-0.1-0.1-0.3-0.1-0.4c-0.2-0.5,0,0.6,0-0.1c0-0.3,0.1-1.1,0-0.4
			c0.1-0.4,0.1-0.7,0.3-1.1c0.1-0.2,0.1-0.4,0.2-0.5c0.2-0.4-0.4,0.6,0,0c0.2-0.4,0.4-0.8,0.6-1.2c0.2-0.3,0.4-0.6,0.6-1
			c0.5-0.7-0.2,0.3,0.1-0.1c0.1-0.2,0.3-0.3,0.4-0.5c0.6-0.7,1.3-1.4,1.9-2c0.7-0.7,1.4-1.3,2.2-1.9c0.9-0.8,1-0.8,1.9-1.5
			c1.4-1,2.9-2,4.4-3C550.2,522.5,562.5,519.1,574.9,519.7c1.6,0.1,3-1.4,3-3c0-1.7-1.4-2.9-3-3c-13-0.6-26.2,2.9-37.3,9.7
			c-3.6,2.2-7,4.6-10.1,7.5c-3,2.8-6.1,6.6-6.3,10.9c-0.2,4.9,3.8,8.3,7.9,10.2c6.5,2.9,13.9,1.6,20.6,0.4c6.5-1.2,12.9-3,19.1-5.4
			c6-2.3,12.3-4.9,17.4-9.1c5-4,8.4-11,4.6-17c-3.3-5.2-10-6.9-15.8-7.2c-1.6-0.1-3,1.4-3,3C571.9,518.4,573.3,519.6,574.9,519.7z"
			/>
		<path d="M448,556.5c-0.2-0.1-0.4-0.1-0.6-0.1c-0.5-0.1-0.8-0.1-1.4,0.1c-0.3,0.1-0.6,0.2-0.9,0.4c-0.3,0.1-0.5,0.4-0.8,0.6
			c-0.1,0.1-0.1,0.1-0.2,0.2c-0.2,0.2-0.4,0.5-0.6,0.8c-0.2,0.3-0.3,0.6-0.4,0.9c0,0.1-0.1,0.2-0.1,0.3c-0.2,1.1-0.2,2.2,0.4,3.2
			c0.3,0.5,0.8,1,1.3,1.4c0.1,0.1,0.3,0.1,0.4,0.2c0.1,0,0.3,0.1,0.4,0.2c0.5,0.1,0.9,0.2,1.4,0.1c0.1,0,0.3,0,0.4-0.1
			c0.2-0.1,0.5-0.2,0.7-0.3c0.3-0.2,0.5-0.3,0.7-0.6c0.1-0.1,0.1-0.2,0.2-0.2c0.2-0.2,0.3-0.3,0.5-0.5c0.3-0.3,0.7-0.7,1-1
			c0.3-0.4,0.6-0.8,0.8-1.3c0-0.3,0.1-0.5,0.1-0.8c0-0.4-0.1-0.8-0.3-1.2c-0.1-0.3-0.2-0.5-0.4-0.7c-0.1-0.2-0.3-0.4-0.5-0.5
			c-0.2-0.2-0.4-0.3-0.7-0.4c-0.4-0.2-0.7-0.3-1.2-0.3c-1.2-0.1-2.4-0.2-3.6-0.4c-0.3,0-0.5,0.1-0.8,0.1c-0.4,0.1-0.7,0.3-1,0.5
			c-0.5,0.4-0.9,0.9-1.1,1.6c-0.1,0.4-0.2,0.8-0.1,1.2c0.1,0.7,0.2,1.2,0.5,1.9c0.4,0.7,1,1.3,1.6,1.7c0.3,0.2,0.7,0.4,1.1,0.5
			c0.2,0.1,0.3,0.1,0.5,0.1c0.4,0.1,0.8,0.1,1.2,0.1c0.3,0,0.7-0.1,1-0.1c0.1,0,0.2,0,0.3-0.1c1-0.3,1.8-0.9,2.4-1.8
			c0.4-0.7,0.7-1.6,0.6-2.4c-0.1-0.8-0.2-1.2-0.5-1.9c-0.2-0.4-0.5-0.7-0.7-1c-0.6-0.6-1.3-1-2.1-1.3c-0.8-0.3-1.7-0.3-2.6-0.1
			c-1.1,0.2-2,1-2.6,1.9c0.4-0.4,0.7-0.7,1.1-1.1c-0.3,0.2-0.6,0.4-0.8,0.6c-0.2,0.2-0.4,0.5-0.5,0.7c0,0.1-0.1,0.1-0.1,0.2
			c-0.1,0.3-0.3,0.6-0.4,0.9c-0.1,0.3-0.1,0.7-0.1,1.1c0.1,1.2,0.5,2.3,1.4,3.1c0.1,0.1,0.1,0.1,0.2,0.2c0.3,0.2,0.5,0.5,0.8,0.6
			c0.6,0.4,1.3,0.5,2,0.6c0.3,0,0.7,0,1-0.1c0,0,0.1,0,0.1,0c0.3-0.1,0.6-0.2,0.8-0.3c0.3-0.2,0.6-0.4,0.8-0.6
			c0.2-0.2,0.3-0.3,0.5-0.6c0.6-0.8,1-1.9,1-3c0-0.5-0.1-1-0.3-1.5c-0.2-0.4-0.3-0.9-0.6-1.3c-0.3-0.4-0.6-0.8-0.9-1.1
			c-0.6-0.5-1.1-0.8-1.9-1.1c-0.2-0.1-0.5-0.1-0.7-0.1c-0.2,0-0.5-0.1-0.7-0.1c-0.8,0.1-1.4,0.2-2.1,0.6c-0.2,0.1-0.4,0.3-0.5,0.4
			c-0.2,0.1-0.4,0.3-0.5,0.4c-0.5,0.6-0.8,1.1-1.1,1.8c-0.1,0.3-0.2,0.6-0.2,1c0,0.4-0.1,0.7-0.1,1c0.1,0.9,0.3,1.9,0.8,2.6
			c0.5,0.6,0.8,1,1.5,1.4c0.4,0.3,0.8,0.4,1.3,0.5c0.7,0.2,1.1,0.1,1.8,0c0.1,0,0.3,0,0.4-0.1c0.8-0.3,1.3-0.6,1.9-1.1
			c0.4-0.3,0.7-0.7,1-1.1c0.3-0.4,0.5-0.9,0.6-1.4c0-0.1,0.1-0.2,0.1-0.4c0.1-0.4,0.1-0.8,0.1-1.1c0-0.5,0-1-0.2-1.5
			c-0.2-0.8-0.6-1.3-1.1-1.9c-0.1-0.1-0.2-0.2-0.3-0.3c-0.3-0.2-0.6-0.5-0.9-0.7c-1.1-0.7-2.4-0.8-3.7-0.5c-0.1,0-0.2,0.1-0.4,0.1
			c-0.3,0.1-0.7,0.3-1,0.5c-0.7,0.4-1.1,0.9-1.6,1.6c-0.2,0.3-0.3,0.7-0.5,1c-0.1,0.3-0.2,0.8-0.2,1.2c0,0.1,0,0.3,0,0.4
			c0,0.4,0.1,0.8,0.2,1.2c0.4,1.2,1.2,2.3,2.3,3c0.7,0.4,1.4,0.5,2.2,0.6c0.4,0,0.8-0.1,1.2-0.3c0.4-0.1,0.7-0.3,1-0.6
			c0.5-0.5,0.9-1.4,0.9-2.1c0-0.8-0.3-1.6-0.9-2.1c-0.2-0.2-0.4-0.3-0.6-0.5c-0.5-0.3-1-0.4-1.5-0.4c0,0,0,0-0.1,0
			c0.3,0,0.5,0.1,0.8,0.1c-0.2,0-0.3-0.1-0.4-0.1c0.2,0.1,0.5,0.2,0.7,0.3c-0.1-0.1-0.3-0.1-0.4-0.2c0.2,0.2,0.4,0.3,0.6,0.5
			c-0.1-0.1-0.2-0.2-0.3-0.3c0.2,0.2,0.3,0.4,0.5,0.6c-0.1-0.2-0.2-0.3-0.3-0.5c0.1,0.2,0.2,0.5,0.3,0.7c-0.1-0.2-0.1-0.4-0.1-0.5
			c0,0.3,0.1,0.5,0.1,0.8c0-0.2,0-0.3,0-0.5c0,0.3-0.1,0.5-0.1,0.8c0-0.2,0.1-0.3,0.1-0.4c-0.1,0.2-0.2,0.5-0.3,0.7
			c0.1-0.1,0.1-0.2,0.2-0.3c-0.2,0.2-0.3,0.4-0.5,0.6c0.1-0.1,0.2-0.2,0.3-0.3c-0.2,0.2-0.4,0.3-0.6,0.5c0.1-0.1,0.3-0.2,0.4-0.2
			c-0.2,0.1-0.5,0.2-0.7,0.3c0.2-0.1,0.3-0.1,0.5-0.1c-0.3,0-0.5,0.1-0.8,0.1c0.2,0,0.4,0,0.6,0c-0.3,0-0.5-0.1-0.8-0.1
			c0.2,0,0.3,0.1,0.5,0.1c-0.2-0.1-0.5-0.2-0.7-0.3c0.1,0.1,0.3,0.1,0.4,0.2c-0.2-0.2-0.4-0.3-0.6-0.5c0.1,0.1,0.3,0.2,0.4,0.4
			c-0.2-0.2-0.3-0.4-0.5-0.6c0.1,0.1,0.2,0.2,0.2,0.4c-0.1-0.2-0.2-0.5-0.3-0.7c0.1,0.2,0.1,0.4,0.1,0.5c0-0.3-0.1-0.5-0.1-0.8
			c0,0.2,0,0.4,0,0.6c0-0.3,0.1-0.5,0.1-0.8c0,0.2-0.1,0.4-0.2,0.7c0.1-0.2,0.2-0.5,0.3-0.7c-0.1,0.2-0.2,0.4-0.3,0.6
			c0.2-0.2,0.3-0.4,0.5-0.6c-0.1,0.2-0.2,0.3-0.4,0.4c0.2-0.2,0.4-0.3,0.6-0.5c-0.1,0.1-0.3,0.2-0.4,0.3c0.2-0.1,0.5-0.2,0.7-0.3
			c-0.2,0.1-0.3,0.1-0.5,0.1c0.3,0,0.5-0.1,0.8-0.1c-0.1,0-0.1,0-0.2,0c0.3,0,0.5,0.1,0.8,0.1c-0.1,0-0.3-0.1-0.4-0.1
			c0.2,0.1,0.5,0.2,0.7,0.3c-0.1-0.1-0.2-0.1-0.3-0.2c0.2,0.2,0.4,0.3,0.6,0.5c-0.1-0.1-0.2-0.2-0.3-0.3c0.2,0.2,0.3,0.4,0.5,0.6
			c-0.1-0.1-0.2-0.3-0.3-0.5c0.1,0.2,0.2,0.5,0.3,0.7c-0.1-0.2-0.1-0.4-0.2-0.6c0,0.3,0.1,0.5,0.1,0.8c0-0.2,0-0.5,0-0.7
			c0,0.3-0.1,0.5-0.1,0.8c0-0.2,0.1-0.4,0.2-0.6c-0.1,0.2-0.2,0.5-0.3,0.7c0.1-0.1,0.1-0.3,0.2-0.4c-0.2,0.2-0.3,0.4-0.5,0.6
			c0.1-0.1,0.2-0.2,0.3-0.3c-0.2,0.2-0.4,0.3-0.6,0.5c0.1-0.1,0.2-0.1,0.3-0.2c-0.2,0.1-0.5,0.2-0.7,0.3c0.1,0,0.2-0.1,0.4-0.1
			c-0.3,0-0.5,0.1-0.8,0.1c0.1,0,0.3,0,0.4,0c-0.3,0-0.5-0.1-0.8-0.1c0.1,0,0.3,0.1,0.4,0.1c-0.2-0.1-0.5-0.2-0.7-0.3
			c0.1,0.1,0.3,0.1,0.4,0.2c-0.2-0.2-0.4-0.3-0.6-0.5c0.2,0.1,0.3,0.3,0.4,0.4c-0.2-0.2-0.3-0.4-0.5-0.6c0.1,0.2,0.3,0.4,0.4,0.6
			c-0.1-0.2-0.2-0.5-0.3-0.7c0.1,0.2,0.1,0.4,0.2,0.6c0-0.3-0.1-0.5-0.1-0.8c0,0.2,0,0.3,0,0.5c0-0.3,0.1-0.5,0.1-0.8
			c0,0.2-0.1,0.3-0.1,0.4c0.1-0.2,0.2-0.5,0.3-0.7c-0.1,0.1-0.1,0.2-0.2,0.3c0.2-0.2,0.3-0.4,0.5-0.6c-0.1,0.1-0.2,0.2-0.3,0.3
			c0.2-0.2,0.4-0.3,0.6-0.5c-0.1,0.1-0.1,0.1-0.2,0.1c0.2-0.1,0.5-0.2,0.7-0.3c-0.1,0-0.1,0-0.2,0.1c0.3,0,0.5-0.1,0.8-0.1
			c-0.1,0-0.2,0-0.2,0c0.3,0,0.5,0.1,0.8,0.1c-0.1,0-0.2,0-0.3-0.1c0.2,0.1,0.5,0.2,0.7,0.3c-0.1-0.1-0.2-0.1-0.4-0.2
			c0.2,0.2,0.4,0.3,0.6,0.5c-0.1-0.1-0.2-0.2-0.3-0.3c0.2,0.2,0.3,0.4,0.5,0.6c-0.1-0.1-0.2-0.3-0.2-0.4c0.1,0.2,0.2,0.5,0.3,0.7
			c-0.1-0.1-0.1-0.3-0.1-0.4c0,0.3,0.1,0.5,0.1,0.8c0-0.1,0-0.2,0-0.3c0,0.3-0.1,0.5-0.1,0.8c0-0.1,0-0.2,0.1-0.2
			c-0.1,0.2-0.2,0.5-0.3,0.7c0-0.1,0.1-0.1,0.1-0.2c-0.2,0.2-0.3,0.4-0.5,0.6c0-0.1,0.1-0.1,0.2-0.2c-0.2,0.2-0.4,0.3-0.6,0.5
			c0.2-0.2,0.5-0.3,0.7-0.5c0.2-0.2,0.4-0.5,0.5-0.7c-0.2,0.2-0.3,0.4-0.5,0.6c0.1-0.1,0.1-0.2,0.2-0.2c-0.2,0.2-0.4,0.3-0.6,0.5
			c0.1-0.1,0.1-0.1,0.2-0.1c-0.2,0.1-0.5,0.2-0.7,0.3c0.1,0,0.2-0.1,0.3-0.1c-0.3,0-0.5,0.1-0.8,0.1c0.2,0,0.3,0,0.5,0
			c-0.3,0-0.5-0.1-0.8-0.1c0.2,0,0.3,0.1,0.5,0.1c-0.2-0.1-0.5-0.2-0.7-0.3c0.2,0.1,0.3,0.2,0.5,0.3c-0.2-0.2-0.4-0.3-0.6-0.5
			c0.1,0.1,0.3,0.2,0.4,0.4c-0.2-0.2-0.3-0.4-0.5-0.6c0.1,0.1,0.2,0.2,0.2,0.3c-0.1-0.2-0.2-0.5-0.3-0.7c0,0.1,0.1,0.2,0.1,0.3
			c0-0.3-0.1-0.5-0.1-0.8c0,0.1,0,0.2,0,0.3c0-0.3,0.1-0.5,0.1-0.8c0,0.1,0,0.2-0.1,0.3c0.1-0.2,0.2-0.5,0.3-0.7
			c0,0.1-0.1,0.2-0.2,0.3c0.2-0.2,0.3-0.4,0.5-0.6c-0.1,0.1-0.1,0.1-0.2,0.2c0.2-0.2,0.4-0.3,0.6-0.5c-0.1,0.1-0.2,0.1-0.3,0.2
			c0.2-0.1,0.5-0.2,0.7-0.3c-0.1,0-0.2,0.1-0.4,0.1c0.3,0,0.5-0.1,0.8-0.1c-0.2,0-0.3,0-0.5,0c0.3,0,0.5,0.1,0.8,0.1
			c-0.2,0-0.4-0.1-0.6-0.2c0.2,0.1,0.5,0.2,0.7,0.3c-0.2-0.1-0.3-0.2-0.5-0.3c0.2,0.2,0.4,0.3,0.6,0.5c-0.1-0.1-0.2-0.2-0.3-0.3
			c0.2,0.2,0.3,0.4,0.5,0.6c-0.1-0.1-0.1-0.2-0.2-0.3c0.1,0.2,0.2,0.5,0.3,0.7c0-0.1-0.1-0.2-0.1-0.3c0,0.3,0.1,0.5,0.1,0.8
			c0-0.1,0-0.2,0-0.3c0,0.3-0.1,0.5-0.1,0.8c0,0,0-0.1,0-0.1c-1,0.7-1.9,1.5-2.9,2.2c1.2,0.1,2.4,0.2,3.6,0.4
			c-0.7-1.7-1.4-3.4-2.1-5.1c-0.6,0.6-1.2,1.2-1.8,1.8c0.7-0.3,1.4-0.6,2.1-0.9c0,0-0.1,0-0.1,0c0.3,0,0.5,0.1,0.8,0.1
			c-0.1,0-0.1,0-0.2-0.1c0.2,0.1,0.5,0.2,0.7,0.3c0,0-0.1,0-0.1-0.1c0.2,0.2,0.4,0.3,0.6,0.5c-0.1,0-0.1-0.1-0.1-0.1
			c0.2,0.2,0.3,0.4,0.5,0.6c0-0.1-0.1-0.1-0.1-0.2c0.1,0.2,0.2,0.5,0.3,0.7c0-0.1-0.1-0.2-0.1-0.3c0,0.3,0.1,0.5,0.1,0.8
			c0-0.1,0-0.3,0-0.4c0,0.3-0.1,0.5-0.1,0.8c0-0.2,0.1-0.3,0.1-0.4c-0.1,0.2-0.2,0.5-0.3,0.7c0-0.1,0.1-0.2,0.2-0.3
			c-0.2,0.2-0.3,0.4-0.5,0.6c0.1-0.1,0.1-0.1,0.2-0.2c-0.2,0.2-0.4,0.3-0.6,0.5c0.1,0,0.1-0.1,0.2-0.1c-0.2,0.1-0.5,0.2-0.7,0.3
			c0.1,0,0.1,0,0.2,0c-0.3,0-0.5,0.1-0.8,0.1c0.1,0,0.1,0,0.2,0c-0.3,0-0.5-0.1-0.8-0.1c0.1,0,0.1,0,0.2,0.1
			c0.4,0.1,0.8,0.1,1.2,0.1c0.4,0,0.8-0.1,1.1-0.4c0.6-0.4,1.2-1.1,1.4-1.8c0.2-0.8,0.1-1.6-0.3-2.3c-0.2-0.2-0.3-0.4-0.5-0.6
			C449,556.9,448.5,556.6,448,556.5L448,556.5z"/>
		<path d="M543.3,533.7c-1,0.5-1.6,1.5-2,2.5c0,0.1,0,0.2-0.1,0.2c-0.1,0.3-0.1,0.7-0.1,1c0,0.4,0.1,0.9,0.2,1.3
			c0.1,0.4,0.3,0.8,0.5,1.2c0.2,0.4,0.5,0.7,0.7,1c0.3,0.3,0.6,0.6,1,0.8c0.1,0,0.1,0.1,0.2,0.1c0.3,0.1,0.6,0.3,0.9,0.4
			c0,0,0.1,0,0.1,0c0.3,0.1,0.6,0.1,0.9,0.1c0.1,0,0.2,0,0.3,0c0.8-0.1,1.3-0.2,1.9-0.6c0.4-0.2,0.7-0.5,1-0.8
			c0.5-0.6,0.7-0.9,1-1.7c0.2-0.4,0.2-0.8,0.2-1.3c0-0.2,0-0.3,0-0.5c0-0.4-0.1-0.9-0.2-1.3c-0.1-0.3-0.2-0.6-0.4-0.9
			c0-0.1-0.1-0.2-0.1-0.2c-0.2-0.3-0.5-0.7-0.8-1c-0.5-0.4-0.8-0.6-1.3-0.9c-0.2-0.1-0.4-0.2-0.6-0.2c-0.3-0.1-0.7-0.1-1-0.1
			c0,0-0.1,0-0.1,0c-0.1,0-0.7,0.1-0.8,0.1c0,0-0.1,0-0.1,0c-0.3,0.1-0.7,0.3-1,0.5c-0.7,0.5-1,0.8-1.5,1.5
			c-0.1,0.1-0.1,0.2-0.2,0.3c-0.2,0.3-0.3,0.7-0.4,1c-0.1,0.4-0.1,0.7-0.2,1.1c0,0.1,0,0.2,0,0.4c0.1,0.8,0.2,1.4,0.6,2.1
			c0.2,0.3,0.4,0.6,0.6,0.9c0.2,0.2,0.4,0.3,0.5,0.5c0.2,0.1,0.4,0.3,0.6,0.4c0.3,0.2,0.7,0.3,1,0.4c0.5,0.1,1,0.2,1.4,0.2
			c0.4,0,0.7-0.1,1.1-0.1c0.2,0,0.5-0.1,0.7-0.2c0.2-0.1,0.4-0.2,0.6-0.3c0.5-0.3,1-0.8,1.2-1.3c0.2-0.4,0.4-0.9,0.5-1.4
			c0.1-0.5,0.2-1,0.1-1.5c0-0.5-0.1-1-0.3-1.5c-0.2-0.5-0.3-0.9-0.6-1.3c-0.2-0.3-0.4-0.6-0.7-0.8c-0.3-0.3-0.6-0.5-0.9-0.7
			c-0.3-0.2-0.4-0.3-0.8-0.4c-0.1,0-0.7-0.1-0.8-0.1c0,0-0.1,0-0.1,0c-0.3,0-0.6,0.1-0.9,0.1c-0.1,0-0.1,0-0.2,0
			c-0.6,0.2-1,0.4-1.5,0.8c-0.2,0.1-0.4,0.3-0.5,0.4c-0.2,0.3-0.4,0.5-0.6,0.8c-0.1,0.1-0.1,0.2-0.1,0.2c-0.2,0.3-0.3,0.6-0.4,1
			c-0.1,0.4-0.2,0.9-0.2,1.4c0,0.4,0.1,0.7,0.1,1.1c0,0.1,0,0.2,0.1,0.3c0.3,0.7,0.5,1.2,1.1,1.8c0.5,0.5,1.4,0.9,2.1,0.9
			c0.4,0,0.8-0.1,1.2-0.3c0.4-0.1,0.7-0.3,1-0.6c0.5-0.6,0.9-1.3,0.9-2.1c0-0.8-0.3-1.5-0.9-2.1c0,0-0.1-0.1-0.1-0.1
			c0.2,0.2,0.3,0.4,0.5,0.6c-0.1-0.1-0.1-0.2-0.2-0.3c0.1,0.2,0.2,0.5,0.3,0.7c0-0.1-0.1-0.2-0.1-0.3c0,0.3,0.1,0.5,0.1,0.8
			c0-0.2,0-0.3,0-0.5c0,0.3-0.1,0.5-0.1,0.8c0-0.2,0.1-0.3,0.1-0.5c-0.1,0.2-0.2,0.5-0.3,0.7c0.1-0.2,0.2-0.3,0.3-0.5
			c-0.2,0.2-0.3,0.4-0.5,0.6c0.1-0.1,0.2-0.2,0.3-0.3c-0.2,0.2-0.4,0.3-0.6,0.5c0.1-0.1,0.2-0.1,0.3-0.2c-0.2,0.1-0.5,0.2-0.7,0.3
			c0.1,0,0.2-0.1,0.3-0.1c-0.3,0-0.5,0.1-0.8,0.1c0.1,0,0.1,0,0.2,0c-0.5-0.1-1-0.3-1.5-0.4c0,0,0.1,0.1,0.1,0.1
			c-0.2-0.2-0.4-0.3-0.6-0.5c0.2,0.1,0.3,0.3,0.4,0.4c-0.2-0.2-0.3-0.4-0.5-0.6c0.1,0.2,0.2,0.4,0.3,0.5c-0.1-0.2-0.2-0.5-0.3-0.7
			c0.1,0.2,0.2,0.5,0.2,0.7c0-0.3-0.1-0.5-0.1-0.8c0,0.2,0,0.5,0,0.7c0-0.3,0.1-0.5,0.1-0.8c0,0.2-0.1,0.4-0.2,0.6
			c0.1-0.2,0.2-0.5,0.3-0.7c0,0.1-0.1,0.2-0.2,0.3c0.4-0.4,0.7-0.7,1.1-1.1c-0.1,0.1-0.2,0.1-0.3,0.2c0.2-0.1,0.5-0.2,0.7-0.3
			c-0.1,0.1-0.3,0.1-0.4,0.1c0.3,0,0.5-0.1,0.8-0.1c-0.2,0-0.3,0-0.5,0c0.3,0,0.5,0.1,0.8,0.1c-0.2,0-0.3-0.1-0.5-0.1
			c0.2,0.1,0.5,0.2,0.7,0.3c-0.2-0.1-0.3-0.2-0.4-0.3c0.2,0.2,0.4,0.3,0.6,0.5c-0.1-0.1-0.2-0.2-0.3-0.3c0.2,0.2,0.3,0.4,0.5,0.6
			c-0.1-0.1-0.1-0.2-0.2-0.3c0.1,0.2,0.2,0.5,0.3,0.7c-0.1-0.1-0.1-0.3-0.1-0.4c0,0.3,0.1,0.5,0.1,0.8c0-0.2,0-0.3,0-0.5
			c0,0.3-0.1,0.5-0.1,0.8c0-0.2,0.1-0.3,0.1-0.5c-0.1,0.2-0.2,0.5-0.3,0.7c0.1-0.2,0.2-0.3,0.3-0.4c-0.2,0.2-0.3,0.4-0.5,0.6
			c0.1-0.1,0.2-0.2,0.3-0.3c-0.2,0.2-0.4,0.3-0.6,0.5c0.1-0.1,0.2-0.1,0.3-0.2c-0.2,0.1-0.5,0.2-0.7,0.3c0,0,0.1,0,0.1,0
			c-0.3,0-0.5,0.1-0.8,0.1c0.1,0,0.2,0,0.3,0c-0.3,0-0.5-0.1-0.8-0.1c0.1,0,0.2,0,0.3,0.1c-0.2-0.1-0.5-0.2-0.7-0.3
			c0.1,0,0.2,0.1,0.3,0.2c-0.2-0.2-0.4-0.3-0.6-0.5c0.1,0.1,0.2,0.2,0.3,0.3c-0.2-0.2-0.3-0.4-0.5-0.6c0.1,0.1,0.2,0.3,0.2,0.4
			c-0.1-0.2-0.2-0.5-0.3-0.7c0.1,0.2,0.1,0.4,0.2,0.6c0-0.3-0.1-0.5-0.1-0.8c0,0.2,0,0.4,0,0.6c0-0.3,0.1-0.5,0.1-0.8
			c0,0.2-0.1,0.3-0.1,0.4c0.1-0.2,0.2-0.5,0.3-0.7c0,0.1-0.1,0.2-0.2,0.3c0.2-0.2,0.3-0.4,0.5-0.6c-0.1,0.1-0.1,0.2-0.2,0.2
			c0.2-0.2,0.4-0.3,0.6-0.5c-0.1,0.1-0.2,0.1-0.3,0.2c0.2-0.1,0.5-0.2,0.7-0.3c-0.1,0-0.2,0.1-0.3,0.1c0.3,0,0.5-0.1,0.8-0.1
			c-0.1,0-0.2,0-0.3,0c0.3,0,0.5,0.1,0.8,0.1c-0.1,0-0.2,0-0.3-0.1c0.2,0.1,0.5,0.2,0.7,0.3c-0.1-0.1-0.2-0.1-0.3-0.2
			c0.2,0.2,0.4,0.3,0.6,0.5c-0.1-0.1-0.2-0.2-0.3-0.3c0.2,0.2,0.3,0.4,0.5,0.6c-0.1-0.2-0.2-0.3-0.3-0.5c0.1,0.2,0.2,0.5,0.3,0.7
			c-0.1-0.2-0.1-0.4-0.2-0.6c0,0.3,0.1,0.5,0.1,0.8c0-0.2,0-0.3,0-0.5c0,0.3-0.1,0.5-0.1,0.8c0-0.1,0.1-0.3,0.1-0.4
			c-0.1,0.2-0.2,0.5-0.3,0.7c0-0.1,0.1-0.2,0.2-0.3c-0.2,0.2-0.3,0.4-0.5,0.6c0.1-0.1,0.1-0.2,0.2-0.2c-0.2,0.2-0.4,0.3-0.6,0.5
			c0.1,0,0.1-0.1,0.2-0.1c0.3-0.2,0.6-0.4,0.8-0.8c0.3-0.3,0.4-0.6,0.5-1c0.1-0.4,0.1-0.8,0.1-1.2c0-0.4-0.1-0.8-0.4-1.1
			c-0.4-0.6-1-1.2-1.8-1.4C544.8,533.2,544.1,533.3,543.3,533.7L543.3,533.7z"/>
		<path d="M433.1,594.1c13.2-14,32.6-21.5,51.8-20.7c5.4,0.2,10.8,1.1,16,2.7c1.9,0.6,2.6-2.3,0.8-2.9c-19.2-5.8-40.8-2.5-57.7,8.1
			c-4.8,3-9.1,6.6-13,10.7C429.6,593.4,431.7,595.5,433.1,594.1L433.1,594.1z"/>
		<path d="M541.4,566c8.5-13.3,23.9-21.6,39.5-22.1c4.4-0.2,8.9,0.3,13.2,1.4c1.9,0.5,2.7-2.4,0.8-2.9c-16.3-4.2-34.1,0.4-46.8,11.3
			c-3.6,3.1-6.7,6.7-9.3,10.8C537.8,566.1,540.4,567.6,541.4,566L541.4,566z"/>
		<path d="M410.5,522.8c10.1-13.5,28-20.1,44.8-18.1c4.2,0.5,9.4,2,13.4,3.9c1.5,0.7,3.2,0.4,4.1-1.1c0.8-1.3,0.4-3.4-1.1-4.1
			c-17.4-8.3-38.9-6-54.6,5.1c-4.5,3.2-8.4,7-11.7,11.4c-1,1.3-0.2,3.4,1.1,4.1C407.9,524.8,409.5,524.1,410.5,522.8L410.5,522.8z"
			/>
		<path d="M521.4,520.6c8.2-13.9,24.7-21.8,40.7-21c2.4,0.1,4,0.4,6.4,0.9c2.3,0.5,4.6,1.2,6.8,2.1c1.5,0.6,3.3-0.7,3.7-2.1
			c0.5-1.7-0.6-3.1-2.1-3.7c-16.9-6.9-37.1-2.6-50.9,9c-3.9,3.3-7.3,7.3-9.9,11.7C514.3,520.9,519.5,523.9,521.4,520.6L521.4,520.6z
			"/>
		<path d="M401.3,610.9c13.7,7.7,28.6,13.2,43.9,16.3c15.4,3.1,31.2,3.9,46.9,2.2c15-1.6,29.5-5.5,43.4-11.5
			c13.1-5.7,25.3-13.3,36.3-22.3c11-9.1,20.7-19.7,28.7-31.5c1-1.4,1.9-2.9,2.9-4.4c2.1-3.3-3.1-6.3-5.2-3
			c-7.3,11.6-16.3,22-26.5,31.1c-10.3,9.1-21.9,16.7-34.3,22.7c-12.7,6.1-26.4,10.2-40.4,12.3c-14.8,2.2-30,2-44.7-0.4
			c-14.9-2.4-29.4-7.1-42.9-14c-1.7-0.9-3.4-1.8-5.1-2.7C401,603.8,397.9,609,401.3,610.9L401.3,610.9z"/>
		<path d="M407.8,591.8c-10,9.1-14.4,23.5-11.5,36.7c0.4,1.6,2.2,2.5,3.7,2.1c1.6-0.4,2.4-2.1,2.1-3.7c-2.5-11,1.4-23.1,9.9-30.8
			c1.2-1.1,1.1-3.1,0-4.2C410.8,590.6,409,590.7,407.8,591.8L407.8,591.8z"/>
		<path d="M306.2,468.8c-2.7-2-6.4-4.8-5.7-8.7c0.2-1.3,1-2.5,2.4-2.6c0.9-0.1,2.4,0.4,2.5,1.5c0.9-0.4,1.7-0.7,2.6-1.1
			c-0.9-1.1-0.3-2.9,0.5-3.9c1.2-1.5,3.2-1.7,5-1.1c4.6,1.6,6,6.8,7.2,11c0.5,1.9,3.4,1.1,2.9-0.8c-1.6-5.8-4.3-12.8-11.3-13.5
			c-2.7-0.3-5.3,1-6.7,3.3c-1.4,2.3-1.3,5,0.3,7c0.8,1,2.7,0.2,2.6-1.1c-0.2-2.4-2-4-4.3-4.4c-2.4-0.4-4.8,0.8-5.9,3
			c-1.2,2.4-0.9,5.2,0.3,7.5c1.4,2.7,3.9,4.5,6.2,6.3C306.2,472.6,307.7,470,306.2,468.8L306.2,468.8z"/>
	</g>
</g>
<g id="Calque_7" class="st0">
	<path class="st4" d="M1862.8,1263.7H64.2c-34.4,0-62.2-27.9-62.2-62.2V64.2C2,29.9,29.9,2,64.2,2h1798.5
		c34.4,0,62.2,27.9,62.2,62.2v1137.2C1925,1235.9,1897.1,1263.7,1862.8,1263.7z"/>
	<path class="st5" d="M1851.5,1231.7H75.5c-22.6,0-41-18.4-41-41V75c0-22.6,18.4-41,41-41h1776c22.6,0,41,18.4,41,41v1115.7
		C1892.5,1213.4,1874.1,1231.7,1851.5,1231.7z"/>
	<g class="st2">
		<g>
			<g>
				<path d="M722.1,140c-0.7-14.7-1.3-29.3-2-44c-0.1-1.6-1.3-3-3-3c-1.6,0-3.1,1.4-3,3c0.7,14.7,1.3,29.3,2,44c0.1,1.6,1.3,3,3,3
					C720.6,143,722.1,141.6,722.1,140L722.1,140z"/>
			</g>
		</g>
		<g>
			<g>
				<path d="M685.4,99.7c-0.6-0.7-0.6-1.4,0-2.3c-0.9,0.5-1.7,1-2.6,1.5c18.8,0,37.5,0.1,56.3,0.1c5.3,0,10.6,0,15.9,0
					c3.9,0,3.9-6,0-6c-22.4,0-44.8-0.1-67.3-0.1c-1.5,0-3-0.1-4.5,0c-1.3,0-2.3,0.4-3.1,1.5c-0.4,0.5-0.7,1.1-0.9,1.8
					c-1,2.7-0.2,5.8,1.8,7.8c1.1,1.2,3.1,1.1,4.2,0C686.6,102.8,686.5,100.9,685.4,99.7L685.4,99.7z"/>
			</g>
		</g>
		<g>
			<g>
				<path d="M773.3,98.7c-7-1.9-14.3,2.2-17.5,8.4c-3.6,6.9-1.6,15.2,2.9,21.2c4.9,6.5,12.4,10,20.1,12.2c8.3,2.4,17.3,4,25.9,2
					c6.8-1.6,13.4-6.1,16.2-12.6c3-6.9,1.5-14.6-2.5-20.8c-8.3-12.5-24.9-17.6-39.1-14.1c-13.9,3.4-24.9,15.3-27.7,29.3
					c-0.3,1.8-0.6,3.6-0.7,5.3c-0.1,1.6,1.4,3,3,3c1.7,0,2.9-1.4,3-3c0.7-11.4,8-22.1,18.5-27c10.6-5,24.8-3.2,33.6,4.7
					c4.2,3.8,7.5,9.1,7.6,14.7c0.1,5.6-3.4,10.1-8.4,12.8c-6,3.2-13.3,3-19.9,1.8c-6.8-1.3-13.8-3.1-19.5-7
					c-5.3-3.6-9.8-10.1-8.7-16.6c0.4-2.7,2-5.2,4.1-6.8c1.3-1,2.4-1.5,3.9-1.9c1.1-0.3,2.5-0.2,3.7,0.1
					C775.4,105.5,777,99.7,773.3,98.7L773.3,98.7z"/>
			</g>
		</g>
		<g>
			<g>
				<path d="M822.9,89.2c9.8,15.1,15.1,32.8,15,50.8c0,3.9,6,3.9,6,0c0.1-14.9-3.3-29.6-9.7-43c-1.8-3.7-3.8-7.3-6.1-10.8
					c-0.9-1.4-2.7-1.9-4.1-1.1C822.6,85.9,822,87.9,822.9,89.2L822.9,89.2z"/>
			</g>
		</g>
		<g>
			<g>
				<path d="M822.2,113.1c16.1,4.1,32.2,8.3,48.3,12.4c4.6,1.2,9.1,2.4,13.7,3.5c3.7,1,5.3-4.8,1.6-5.8
					c-16.1-4.1-32.2-8.3-48.3-12.4c-4.6-1.2-9.1-2.4-13.7-3.5C820.1,106.3,818.5,112.1,822.2,113.1L822.2,113.1z"/>
			</g>
		</g>
		<g>
			<g>
				<path d="M825.8,118.8c15.5-5.9,29.7-14.9,41.6-26.4c2.8-2.7-1.5-6.9-4.2-4.2c-11.1,10.8-24.4,19.4-38.9,24.9
					c-1.5,0.6-2.6,2-2.1,3.7C822.5,118.1,824.3,119.3,825.8,118.8L825.8,118.8z"/>
			</g>
		</g>
		<g>
			<g>
				<path d="M887.3,132.7c-5.2-8-5.7-18.6-1.7-27.1c2.1-4.4,5.1-8,9.1-10.6c2.1-1.3,4.1-2.3,6.3-3.1c2.2-0.8,4.8-1.3,6.8-1.5
					c5.4-0.5,10.6,0.4,15.3,2.9c1.4,0.8,3.3,0.4,4.1-1.1c0.8-1.4,0.4-3.3-1.1-4.1c-10.2-5.4-23-5-33,0.7
					c-10.1,5.8-16,16.8-16.2,28.3c-0.1,6.5,1.6,13,5.1,18.5c0.9,1.4,2.7,1.9,4.1,1.1C887.6,136,888.2,134.1,887.3,132.7L887.3,132.7
					z"/>
			</g>
		</g>
		<g>
			<g>
				<path d="M877.1,121.2c13.3,0,26.7,0,40-0.1c3.9,0,3.9-6,0-6c-13.3,0-26.7,0-40,0.1C873.2,115.2,873.2,121.2,877.1,121.2
					L877.1,121.2z"/>
			</g>
		</g>
		<g>
			<g>
				<path d="M874.6,136.6c14,11.7,34.3,14.3,51,7.3c4.8-2,9.2-4.8,13.1-8.3c1.2-1.1,1.1-3.1,0-4.2c-1.2-1.2-3-1.1-4.2,0
					c-11.9,10.6-29.7,13.1-44.5,7.5c-3.8-1.4-8-3.9-11.2-6.5c-1.2-1-3-1.2-4.2,0C873.5,133.4,873.3,135.5,874.6,136.6L874.6,136.6z"
					/>
			</g>
		</g>
		<g>
			<g>
				<path d="M946,133.8c-1.4-10.9-2.7-21.9-4.1-32.8c-1.9,0.5-3.7,1-5.6,1.5c4.4,6.4,9.2,12.6,14.2,18.6c2.4,2.8,4.8,5.6,7.3,8.4
					c2.4,2.7,4.9,5.5,7.9,7.6c5.2,3.5,11.9,2.2,15.1-3.2c2.6-4.4,2.9-10.5,1.2-15.4c-2.4-6.7-8.2-12.9-7.4-20.4c0.2-1.6-1.5-3-3-3
					c-1.8,0-2.8,1.4-3,3c-0.7,6.6,2.9,12.5,5.8,18.1c1.1,2.2,2.1,4.3,2.5,6.8c-0.1-0.6,0,0.4,0,0.4c0,0.3,0,0.6,0.1,0.9
					c0,0.5,0,1,0,1.5c0,0.3,0,0.6-0.1,0.9c-0.1,0.9,0.1-0.5-0.1,0.4c-0.1,0.6-0.2,1.1-0.4,1.7c-0.1,0.3-0.2,0.5-0.3,0.8
					c0,0-0.3,0.8-0.2,0.4c0.2-0.4-0.2,0.4-0.2,0.4c-0.1,0.2-0.3,0.5-0.4,0.7c-0.1,0.2-0.3,0.4-0.4,0.7c0.3-0.4,0.1-0.1,0,0
					c-0.2,0.2-0.4,0.4-0.5,0.5c-0.3,0.2-0.3,0.2,0,0c-0.1,0.1-0.3,0.2-0.4,0.3c-0.2,0.1-0.4,0.2-0.5,0.3c-0.4,0.2,0.7-0.2-0.1,0
					c-0.2,0.1-0.5,0.1-0.7,0.2c-0.7,0.2,0.5,0-0.3,0c-1.1,0-2-0.2-3.1-0.8c-2.7-1.5-4.7-4.1-6.8-6.4c-2.4-2.6-4.7-5.3-7-8
					c-5-5.9-9.7-12.1-14.1-18.5c-0.8-1.1-2-1.8-3.4-1.4c-1.2,0.3-2.4,1.6-2.2,2.9c1.4,10.9,2.7,21.9,4.1,32.8c0.2,1.6,1.2,3,3,3
					C944.5,136.8,946.2,135.4,946,133.8L946,133.8z"/>
			</g>
		</g>
		<g>
			<g>
				<path d="M997.5,102.5c-3.2,10.9,0.7,23.2,9.7,30.1c8.9,6.8,22.2,6.4,31-0.5c8.5-6.8,10.6-19.8,5.5-29.2
					c-5.7-10.7-19.7-13.8-30.6-10.3c-11.8,3.7-21.3,14.3-23.2,26.7c-0.2,1.6,0.4,3.2,2.1,3.7c1.4,0.4,3.5-0.5,3.7-2.1
					c1.3-9.2,7.2-16.9,15.4-21c7.9-4,19.3-3.8,25.6,3.5c2.6,2.9,3.8,7.1,3.7,11.1c-0.1,3.9-1.4,8.1-3.9,11
					c-5.6,6.5-15.8,7.9-23.2,4.1c-4.3-2.3-7.7-6.2-9.3-10.7c-1.8-4.9-2.1-9.8-0.7-14.7C1004.3,100.4,998.5,98.8,997.5,102.5
					L997.5,102.5z"/>
			</g>
		</g>
		<g>
			<g>
				<path d="M1069.6,128.8c-3.1-12.7-6.2-25.5-9.3-38.2c-0.3-1.4-1.9-2.4-3.3-2.1c-1.6,0.2-2.4,1.4-2.6,2.9
					c-1.5,12.3,6.5,25.5,19,28c5.9,1.2,12.4,0.3,17.5-3c5.1-3.2,8.6-8.5,9.4-14.5c0.9-6.7-1-13.8-6.1-18.4c-2.3-2.1-5.5,0-5,2.9
					c2.8,15.3,8.7,30.1,17.3,43.1c0.9,1.4,2.7,1.9,4.1,1.1c1.3-0.8,2-2.7,1.1-4.1c-8.3-12.7-13.9-26.8-16.6-41.7
					c-1.7,1-3.3,1.9-5,2.9c6.6,6,6,17.4-1,22.7c-7.6,5.8-18.6,4.1-24.4-3.3c-3.5-4.5-4.9-10.1-4.2-15.7c-2,0.3-3.9,0.5-5.9,0.8
					c3.1,12.7,6.2,25.5,9.3,38.2C1064.7,134.2,1070.5,132.6,1069.6,128.8L1069.6,128.8z"/>
			</g>
		</g>
		<g>
			<g>
				<path d="M1135.7,130.5c-8.6-12.5-13.4-27.3-13.6-42.5c0-3.9-6-3.9-6,0c0.2,16.2,5.2,32.2,14.4,45.5c0.9,1.3,2.6,1.9,4.1,1.1
					C1135.9,133.8,1136.6,131.8,1135.7,130.5L1135.7,130.5z"/>
			</g>
		</g>
		<g>
			<g>
				<path d="M1181.9,82.9c-13-5-28.8,2.5-33,15.7c-2.1,6.6-1.3,14,1.9,20.2c3.2,6.2,9.1,10.7,15.9,12.3c7.9,1.9,16.2,0.1,22.5-4.9
					c1.3-1,1.1-3.2,0-4.2c-1.3-1.3-3-1-4.2,0c-8.4,6.7-22.4,4.6-28.1-4.6c-2.8-4.5-3.7-10.1-2.7-15c1.1-5.3,4.3-9.5,9-12.1
					c5.3-3,11.5-3.6,17.2-1.4c1.5,0.6,3.3-0.6,3.7-2.1C1184.5,84.9,1183.5,83.5,1181.9,82.9L1181.9,82.9z"/>
			</g>
		</g>
		<g>
			<g>
				<path d="M1233.2,78.3c-7.2-1.5-15.1-3-22.2-0.2c-5.9,2.4-10.8,7.5-11.3,14c-0.5,5.9,3.5,10.9,8.4,13.5
					c5.1,2.7,10.7,3.4,16.3,3.5c6.2,0.1,13.6-0.2,18.4,4.1c0-1.4,0-2.8,0-4.2c-8.2,9.4-20.3,14.9-32.6,15c-3.6,0-6.9-0.3-10.3-1.2
					c-3.8-0.9-5.4,4.9-1.6,5.8c13.5,3.3,28.4,0.5,39.9-7.5c3.3-2.3,6.3-4.9,9-8c1-1.2,1.3-3.1,0-4.2c-4.6-4.1-10.5-5.3-16.4-5.7
					c-5.3-0.3-10.4,0.1-15.2-1.2c-2.3-0.6-4-1.3-6-2.6c-0.6-0.4-1.4-1.1-2.1-1.9c-0.4-0.4-0.2-0.2-0.1-0.1c-0.2-0.2-0.3-0.5-0.5-0.7
					c-0.2-0.3-0.3-0.5-0.4-0.8c-0.3-0.5,0.1,0.2-0.2-0.4c-0.7-2.1-0.7-4,0.3-5.9c1.1-2.2,2.8-3.8,4.9-5.1c6-3.5,13.8-1.8,20.2-0.5
					c1.6,0.3,3.2-0.5,3.7-2.1C1235.7,80.5,1234.8,78.6,1233.2,78.3L1233.2,78.3z"/>
			</g>
		</g>
	</g>
	<g class="st2">
		<g>
			<path d="M838.3,339c-3-16.6-5.9-33.2-8.9-49.8c-0.3-1.6-2.2-2.5-3.7-2.1c-1.7,0.5-2.4,2.1-2.1,3.7c3,16.6,5.9,33.2,8.9,49.8
				c0.3,1.6,2.2,2.5,3.7,2.1C837.9,342.3,838.6,340.6,838.3,339L838.3,339z"/>
		</g>
	</g>
	<g class="st2">
		<g>
			<path d="M788.5,289c19.7,0,39.4,0,59.1,0c5.6,0,11.3,0,16.9,0c3.9,0,3.9-6,0-6c-19.7,0-39.4,0-59.1,0c-5.6,0-11.3,0-16.9,0
				C784.6,283,784.6,289,788.5,289L788.5,289z"/>
		</g>
	</g>
	<g class="st2">
		<g>
			<path d="M865.4,312.9c0.3-0.3,0.6-0.5,0.9-0.8c0,0,0.7-0.5,0.4-0.3c-0.3,0.2,0.2-0.2,0.3-0.2c0.7-0.5,1.5-0.9,2.2-1.3
				c0.2-0.1,0.3-0.2,0.5-0.2c0.4-0.2-0.4,0.1,0.1,0c0.4-0.2,0.8-0.3,1.2-0.4c0.8-0.3,1.7-0.4,2.5-0.6c0.1,0,0.6-0.1,0.1,0
				c0.2,0,0.4,0,0.6-0.1c0.4,0,0.8-0.1,1.2-0.1c0.9,0,1.7,0,2.6,0.1c0.2,0,1.2,0.1,0.7,0.1c0.4,0.1,0.8,0.1,1.2,0.2
				c0.9,0.2,1.7,0.4,2.5,0.7c0.4,0.1,0.7,0.3,1.1,0.4c0.9,0.3-0.3-0.1,0.2,0.1c0.2,0.1,0.4,0.2,0.5,0.2c0.8,0.4,1.5,0.8,2.3,1.3
				c0.3,0.2,0.6,0.4,1,0.6c0.1,0.1,0.6,0.5,0.2,0.1c0.1,0.1,0.3,0.2,0.4,0.4c0.7,0.6,1.3,1.2,1.8,1.8c1.8,2.1,3.1,5.1,3.2,8
				c0.1,3.6-0.9,6.7-2.8,9.8c-0.9,1.4-1.9,2.6-3.3,3.9c-1.2,1.1-2.5,2-4.2,2.9c-2.8,1.4-6.4,1.9-9.4,1.1c-0.4-0.1-0.8-0.2-1.1-0.3
				c-0.2-0.1-1.1-0.4-0.7-0.2c-0.8-0.3-1.6-0.8-2.4-1.3c-1.3-0.8-2.3-1.6-3.5-3c-1.1-1.2-2.1-2.7-3-4.5c-0.1-0.2-0.2-0.4-0.3-0.5
				c-0.1-0.1-0.1-0.3-0.2-0.4c0.1,0.2,0.1,0.2,0,0c-0.2-0.4-0.3-0.9-0.5-1.3c-0.3-1-0.6-1.9-0.7-2.9c-0.5-3.1,0-6.9,1.7-9.8
				c1.9-3.3-3.2-6.4-5.2-3c-9.1,15.6,6.3,38.4,24.5,32.9c8.8-2.7,15.6-10.9,16.7-20c1.1-8.7-3.9-16.8-11.6-20.6
				c-8.4-4.1-19.1-3.6-26.1,3.2C858.3,311.3,862.6,315.6,865.4,312.9L865.4,312.9z"/>
		</g>
	</g>
	<g class="st2">
		<g>
			<path d="M926.8,339.3c-1.9-9.3-3.9-18.7-5.8-28c-0.3-1.6-2.2-2.5-3.7-2.1c-1.6,0.5-2.4,2.1-2.1,3.7c1.9,9.3,3.9,18.7,5.8,28
				c0.3,1.6,2.2,2.5,3.7,2.1C926.3,342.6,927.1,340.9,926.8,339.3L926.8,339.3z"/>
		</g>
	</g>
	<g class="st2">
		<g>
			<path d="M902.4,315.9c12.7-1.2,25.5-2.4,38.2-3.7c1.6-0.2,3-1.3,3-3c0-1.5-1.4-3.2-3-3c-12.7,1.2-25.5,2.4-38.2,3.7
				c-1.6,0.2-3,1.3-3,3C899.4,314.4,900.8,316,902.4,315.9L902.4,315.9z"/>
		</g>
	</g>
	<g class="st2">
		<g>
			<path d="M955.6,334.7c-3.5-2.9-5.2-7-5.2-11.4c0-4.2,1.8-8.4,5.2-10.9c2-1.5,3.8-2.2,6.3-2.7c1.8-0.4,4.2-0.3,6,0.1
				c4.4,1,7.6,3.7,9.4,7.9c0.9,2,1.3,4.4,1.2,6.8c-0.1,2.3-0.8,4.7-2.2,6.8c-2.1,3.3,3.1,6.3,5.2,3c6.7-10.5,1.7-25.7-10.1-29.9
				c-5.5-2-12-1.2-17.1,1.6c-5.5,3.1-8.9,8.6-9.7,14.8c-0.8,6.6,1.7,13.7,6.8,18c1.2,1,3,1.2,4.2,0
				C956.6,337.9,956.8,335.8,955.6,334.7L955.6,334.7z"/>
		</g>
	</g>
	<g class="st2">
		<g>
			<path d="M946.5,329c9.3-0.7,18.7-1.3,28-2c1.6-0.1,3-1.3,3-3c0-1.5-1.4-3.1-3-3c-9.3,0.7-18.7,1.3-28,2c-1.6,0.1-3,1.3-3,3
				C943.5,327.5,944.9,329.1,946.5,329L946.5,329z"/>
		</g>
	</g>
	<g class="st2">
		<g>
			<path d="M989.5,305.2c-7,7.3-5.6,19.6,1.3,26.5c7.8,7.9,20.1,8.8,30.4,6.1c6.8-1.8,13.1-4.9,19.3-8c1.5-0.7,1.9-2.8,1.1-4.1
				c-0.9-1.5-2.6-1.8-4.1-1.1c-9,4.5-18.5,9.2-28.7,8.5c-4.1-0.3-8.4-1.5-11.8-4c-3.1-2.2-5-5.3-5.8-9c-0.8-3.7-0.1-8,2.6-10.7
				C996.5,306.6,992.2,302.4,989.5,305.2L989.5,305.2z"/>
		</g>
	</g>
	<g class="st2">
		<g>
			<path d="M1125.3,270.8c-17.7-2.5-36,1.6-50.9,11.5c-4.2,2.8-8.1,6-11.6,9.6c-1,1.1-1.3,3.2,0,4.2c7.7,6.1,16.4,10.8,25.8,13.8
				c4.6,1.5,9.4,2.4,14.2,3.1c4.9,0.6,9.9,0.5,14.8,0.8c4.3,0.3,8.5,1.2,11.5,4.3c1.3,1.3,2.2,2.8,2.6,4.5c0.3,1.4,0,3-0.8,4.2
				c-0.7,1.2-1.9,2.2-3.4,3c-1.6,0.9-3.1,1.4-5,1.9c-4.5,1.1-9.3,1.4-13.9,1.5c-11.5,0.2-22.8-1.8-33.5-6c-1.5-0.6-3.3,0.6-3.7,2.1
				c-0.5,1.7,0.6,3.1,2.1,3.7c10.3,4,21.3,6.1,32.4,6.2c5.3,0.1,10.8-0.3,16-1.3c4.2-0.8,8.4-2.3,11.7-5.1c3.5-3.1,5.1-8,3.7-12.5
				c-1.4-4.6-5.1-8.4-9.4-10.3c-5.1-2.2-10.7-2.4-16.1-2.5c-5-0.1-10-0.6-14.9-1.7c-10.8-2.4-21.2-7.1-29.9-14c0,1.4,0,2.8,0,4.2
				c11.3-11.5,26.9-18.7,42.9-19.9c4.5-0.3,9.3-0.3,13.7,0.4c1.6,0.2,3.2-0.4,3.7-2.1C1127.8,273.1,1127,271,1125.3,270.8
				L1125.3,270.8z"/>
		</g>
	</g>
	<g class="st2">
		<g>
			<path d="M1139.1,312c0.3,10.5,9.2,19.4,19.5,20.8c10.3,1.4,19.3-5.9,22.2-15.6c1.6-5.3,1.1-11-1.4-15.9c-0.8-1.4-2.7-1.9-4.1-1.1
				c-1.4,0.8-1.8,2.7-1.1,4.1c0.1,0.2,0.2,0.5,0.4,0.7c0,0.1,0.3,0.7,0.1,0.3c0.2,0.4,0.3,0.8,0.4,1.2c0.1,0.4,0.3,0.9,0.4,1.3
				c0.1,0.3,0.1,0.5,0.1,0.8c0.1,0.6,0-0.3,0.1,0.4c0.1,0.9,0.1,1.9,0.1,2.8c0,0.4-0.1,0.8-0.1,1.2c0.1-0.5,0,0.2-0.1,0.3
				c-0.1,0.3-0.1,0.6-0.2,0.9c-0.8,3.6-2.5,6.6-5.1,9.1c-2.6,2.4-5.9,3.7-9.6,3.6c-3.4-0.1-7.3-1.7-10-4.1
				c-3.3-2.9-5.4-6.8-5.6-10.9C1145,308.1,1139,308.1,1139.1,312L1139.1,312z"/>
		</g>
	</g>
	<g class="st2">
		<g>
			<path d="M1200,329.2c-2.8-4.6-5.6-9.7-5.8-15.3c-0.2-4,1.1-8,4.1-10.7c2.8-2.5,6.3-2.6,9.3-0.4c1.2,0.8,2,2,2.3,3.5
				c-0.1-0.5,0,0.1,0,0.2c0,0.3,0,0.5,0,0.8c0-0.3-0.1,0.7-0.2,0.9c-0.2,0.7-0.8,1.6-1.3,2.2c-4.1,4.3-11,2.9-16.4,1.7
				c-1.6-0.4-3.2,0.5-3.7,2.1c-0.4,1.5,0.5,3.3,2.1,3.7c7.1,1.6,14.8,2.8,21-2c2.4-1.9,4.1-4.6,4.5-7.7c0.4-3-0.7-5.8-2.6-8.1
				c-3.7-4.4-10.2-5.9-15.4-3.6c-5.3,2.3-8.6,8-9.4,13.5c-1.2,8,2.3,15.6,6.4,22.3C1196.8,335.5,1202,332.5,1200,329.2L1200,329.2z"
				/>
		</g>
	</g>
	<g class="st2">
		<g>
			<path d="M1229.4,321.6c-0.7,0.2-0.7,0.2-1.5,0.1c0.4,0-0.1,0-0.2,0c-0.3-0.1-0.6-0.2-0.9-0.3c0.4,0.2-0.5-0.2-0.5-0.2
				c-0.2-0.1-0.4-0.2-0.6-0.3c-0.5-0.4-0.8-0.6-1.3-1.1c-1.5-1.5-2.3-3.7-2.3-5.7c0.1-5.6,4.6-10.5,8.5-14c1.9-1.7,4.2-3.2,6.7-3.9
				c0.9-0.2,2-0.3,2.6-0.2c1.2,0.2,2,0.7,2.6,1.5c-0.3-0.4,0,0,0.1,0.2c0.1,0.2,0.2,0.4,0.3,0.6c0.4,0.7-0.1-0.5,0.1,0.3
				c0,0.2,0.1,0.4,0.2,0.7c0,0.2,0.1,0.7,0,0.2c0,0.3,0,0.6,0,0.8c0,0.2,0,0.4,0,0.6c0,0.4,0,0.4,0,0.1c0,0.2-0.1,0.4-0.1,0.6
				c-0.4,2.1-1.2,3.5-2.7,4.9c0,0-0.7,0.6-0.3,0.3c-0.2,0.2-0.5,0.3-0.7,0.5c-0.5,0.3-1.1,0.6-1.7,0.8c-1.6,0.6-3.2,0.8-4.9,0.9
				c-3.4,0.1-6.8-0.5-10.2-1.2c-1.6-0.3-3.2,0.5-3.7,2.1c-0.4,1.5,0.5,3.4,2.1,3.7c7.4,1.5,16.3,3,22.7-2c4.7-3.7,7.4-11.2,4.1-16.6
				c-1.9-3.1-5.4-4.8-8.9-4.7c-3.7,0.1-7.2,1.8-10.2,4c-6.1,4.5-11.8,11.2-12.6,19c-0.9,8,6.3,16.6,14.7,14.6
				C1234.8,326.5,1233.2,320.7,1229.4,321.6L1229.4,321.6z"/>
		</g>
	</g>
	<g class="st2">
		<g>
			<path d="M1257.9,296c-1.2,9.9-2.4,19.8-3.6,29.8c-0.3,2.1,2.1,3.2,3.8,2.9c7.1-1.3,14.1-2.5,21.2-3.8c1.6-0.3,2.5-2.2,2.1-3.7
				c-0.5-1.7-2.1-2.4-3.7-2.1c-7.1,1.3-14.1,2.5-21.2,3.8c1.3,1,2.5,1.9,3.8,2.9c1.2-9.9,2.4-19.8,3.6-29.8c0.2-1.6-1.5-3-3-3
				C1259.1,293,1258.1,294.4,1257.9,296L1257.9,296z"/>
		</g>
	</g>
	<g class="st2">
		<g>
			<path d="M1297.5,327.8c12.3-8.6,22.3-20.2,28.8-33.7c0.7-1.5,0.4-3.2-1.1-4.1c-1.3-0.8-3.4-0.4-4.1,1.1
				c-6,12.6-15.2,23.5-26.7,31.6c-1.3,0.9-1.9,2.6-1.1,4.1C1294.1,328,1296.1,328.7,1297.5,327.8L1297.5,327.8z"/>
		</g>
	</g>
	<g class="st2">
		<g>
			<path d="M1280.4,290.1c8.7,7.3,17.3,14.7,26,22c1.2,1,3,1.2,4.2,0c1.1-1.1,1.2-3.2,0-4.2c-8.7-7.3-17.3-14.7-26-22
				c-1.2-1-3-1.2-4.2,0C1279.3,287,1279.1,289.1,1280.4,290.1L1280.4,290.1z"/>
		</g>
	</g>
	<g class="st2">
		<g>
			<path d="M1073.3,390.1c14.3,10.4,28.6,20.8,42.9,31.3c14.3,10.4,28.6,20.8,42.9,31.3c8,5.9,16.1,11.7,24.1,17.6
				c1.3,1,3.3,0.2,4.1-1.1c0.9-1.5,0.2-3.1-1.1-4.1c-14.3-10.4-28.6-20.8-42.9-31.3c-14.3-10.4-28.6-20.8-42.9-31.3
				c-8-5.9-16.1-11.7-24.1-17.6c-1.3-1-3.3-0.2-4.1,1.1C1071.4,387.5,1072,389.1,1073.3,390.1L1073.3,390.1z"/>
		</g>
	</g>
	<g class="st2">
		<g>
			<path d="M1157.5,479.5c14.1,6.9,28.8,12.5,43.9,16.6c4.3,1.2,8.7,2.2,13,3.1c1.7,0.4,4-0.8,3.8-2.9c-2-17.2-3.9-34.4-5.9-51.7
				c-0.6-4.9-1.1-9.7-1.7-14.6c-0.2-1.6-1.2-3-3-3c-1.5,0-3.2,1.4-3,3c2,17.2,3.9,34.4,5.9,51.7c0.6,4.9,1.1,9.7,1.7,14.6
				c1.3-1,2.5-1.9,3.8-2.9c-19.2-4-37.9-10.4-55.5-19.1c-1.5-0.7-3.2-0.4-4.1,1.1C1155.6,476.7,1156,478.8,1157.5,479.5
				L1157.5,479.5z"/>
		</g>
	</g>
	<g class="st2">
		<g>
			<path d="M930.9,601.6c19.3,3.2,39.2-6.1,50.2-22.1c3-4.4,5.2-9.3,6.6-14.5c-2-0.3-3.9-0.5-5.9-0.8c1.5,18.3,3,36.7,4.5,55
				c0.1,1.6,1.3,3,3,3c1.5,0,3.1-1.4,3-3c-1.5-18.3-3-36.7-4.5-55c-0.1-1.5-1-2.8-2.6-2.9c-1.4-0.2-2.9,0.7-3.3,2.1
				c-4.2,16.5-18.9,29-35.5,32.2c-2.3,0.4-4.2,0.6-6.7,0.7c-2.4,0-5.1-0.1-7.1-0.5c-1.6-0.3-3.2,0.4-3.7,2.1
				C928.4,599.3,929.3,601.3,930.9,601.6L930.9,601.6z"/>
		</g>
	</g>
	<g class="st2">
		<g>
			<path d="M1015.7,566.3c0.6-2.4,2.5-4.1,4.9-4.8c0.4-0.1,0.8-0.2,1.2-0.3c0,0,0.5-0.1,0.2,0c-0.3,0,0.3,0,0.4,0c0.4,0,0.7,0,1.1,0
				c0.2,0,1.2,0.1,0.7,0c0.4,0.1,0.8,0.2,1.2,0.3c0.2,0.1,0.4,0.1,0.6,0.2c-0.1,0-0.3-0.2,0,0c0.7,0.3,1.6,0.9,2,1.2
				c2.6,2.1,4,5.1,4.5,8.4c0.1,0.4,0.1,1.4,0.1,2c0,0.9-0.1,1.8-0.3,2.8c-0.4,1.9-1,3.8-1.8,5.5c-3.6,7.4-10.6,12.5-13.7,20.3
				c-1.4,3.6-1.5,7.8,0.6,11.1c2.1,3.4,5.6,5.1,9.5,5.5c9.8,1,16.1-7.4,20.8-14.6c0.9-1.4,0.3-3.3-1.1-4.1c-1.5-0.9-3.2-0.3-4.1,1.1
				c-2.1,3.3-4.3,6.7-7.4,9.1c-1.3,1.1-2.6,1.8-4,2.2c-0.4,0.1-0.7,0.2-1.1,0.3c-0.6,0.1-0.5,0.1-0.8,0.1c-0.4,0-0.8,0-1.2,0
				c-0.2,0-0.4,0-0.7,0c-0.1,0-0.7-0.1-0.3,0c-0.7-0.1-1.5-0.3-2.1-0.6c0.4,0.2-0.4-0.3-0.5-0.3c-0.2-0.1-0.4-0.2-0.5-0.3
				c-0.4-0.3,0.4,0.4-0.2-0.2c-0.6-0.6-0.7-0.7-1.2-1.5c-0.3-0.5-0.3-0.5-0.4-0.9c-0.1-0.2-0.3-1.2-0.2-0.8
				c-0.2-1.7,0.1-2.9,0.8-4.5c0.6-1.5,1.8-3.3,2.8-4.8c2.3-3.3,5.1-6.2,7.5-9.4c2.5-3.5,4.5-7.6,5.3-11.8c1.4-7.7-1.2-16.7-8.5-20.6
				c-7.2-3.9-17.8-0.5-19.8,7.9C1009,568.5,1014.8,570.1,1015.7,566.3L1015.7,566.3z"/>
		</g>
	</g>
	<g class="st2">
		<g>
			<path d="M1066.3,566.7c1.1-3.5,4.2-6.5,7.5-7.9c4-1.6,7.8-1.4,11.2,0.9c3.1,2,5.4,5.8,5.8,9.5c0.5,3.9-0.9,7.6-4,10.3
				c-3.2,2.9-7.9,4.2-11.9,3.1c-1.6-0.4-3.3,0.5-3.7,2.1c-0.5,1.7,0.6,3.1,2.1,3.7c5.8,2.2,12.2,1.4,18.3,1.1
				c2.9-0.1,5.6-0.1,8.2,0.5c1.3,0.4,2,0.6,3.2,1.4c0.5,0.3,0.7,0.5,1.2,1c0.2,0.2,0.4,0.4,0.6,0.6c0.2,0.3,0.2,0.3,0.1,0.1
				c0.1,0.2,0.2,0.3,0.3,0.5c0.3,0.5,0.6,1,0.8,1.5c-0.3-0.6,0.1,0.2,0.1,0.3c0.1,0.3,0.2,0.5,0.2,0.8c0.1,0.3,0.1,0.5,0.2,0.8
				c0.2,0.9,0-0.6,0,0.3c0,0.7,0.1,1.3,0,2c0,0.3,0,0.6-0.1,0.9c0.1-0.7-0.1,0.3-0.1,0.3c-0.1,0.6-0.3,1.1-0.4,1.7
				c-0.4,1.3-0.6,1.8-1.4,3.1c-0.7,1.1-1.2,1.9-1.8,2.6c-0.8,0.9-2,2-2.5,2.4c-0.5,0.4-1,0.7-1.5,1c-0.3,0.2-0.5,0.3-0.8,0.4
				c0,0-0.9,0.4-0.4,0.2c-1.7,0.7-3.6,1.2-5.4,1.4c-8.3,1.1-16.6-1.9-24.4-4.6c-1.5-0.5-3.3,0.6-3.7,2.1c-0.5,1.7,0.6,3.2,2.1,3.7
				c7.9,2.8,16.3,5.6,24.7,5c3.8-0.3,7.7-1.1,11-3.1c2.7-1.6,4.8-3.8,6.6-6.3c3.3-4.6,5.1-11.1,3.2-16.6c-2.4-6.6-8.7-9.6-15.4-10
				c-7.2-0.5-14.8,1.7-21.5-0.9c-0.5,1.9-1.1,3.9-1.6,5.8c11.3,3,23.9-5.9,23.6-17.9c-0.1-5.5-2.8-11.1-7.1-14.6
				c-4.5-3.7-10.4-4.9-16.1-3.4c-6.2,1.7-11.4,6.4-13.3,12.6C1059.4,568.8,1065.2,570.4,1066.3,566.7L1066.3,566.7z"/>
		</g>
	</g>
	<g class="st2">
		<g>
			<path d="M1126.9,605.7c-2.7,6-5.4,12-8.1,18c-0.6,1.4-0.5,3.3,1.1,4.1c1.3,0.7,3.4,0.5,4.1-1.1c2.7-6,5.4-12,8.1-18
				c0.6-1.4,0.5-3.3-1.1-4.1C1129.7,604,1127.6,604.2,1126.9,605.7L1126.9,605.7z"/>
		</g>
	</g>
	<g class="st2">
		<g>
			<path d="M1158.2,551.2c-7.3,8.9-15.2,19-14.2,31.2c0.4,5.3,2.5,10.8,6.6,14.3c3.4,2.9,8.1,4.3,12.5,3.7c5.4-0.6,10-3.6,12-8.8
				c0.6-1.5-0.6-3.3-2.1-3.7c-1.7-0.5-3.1,0.6-3.7,2.1c-0.3,0.9,0.2-0.3-0.1,0.2c-0.1,0.2-0.2,0.3-0.3,0.5c-0.1,0.2-0.2,0.4-0.4,0.6
				c-0.1,0.1-0.3,0.5,0,0.1c-0.2,0.3-0.5,0.6-0.7,0.8c-0.1,0.1-0.3,0.2-0.4,0.4c-0.5,0.5,0.2-0.1-0.3,0.2c-0.3,0.2-0.7,0.5-1.1,0.7
				c-0.2,0.1-0.4,0.2-0.6,0.3c0.1-0.1,0.5-0.2-0.1,0c-0.8,0.3-1.6,0.5-2.5,0.7c-0.9,0.2,0.3,0-0.2,0c-0.2,0-0.4,0-0.6,0
				c-0.4,0-0.9,0-1.3,0c-1.2,0-1,0-2.1-0.3c-1-0.2-1.5-0.4-2-0.7c-0.3-0.2-0.7-0.4-1-0.6c-0.2-0.1-0.3-0.2-0.5-0.3
				c-0.5-0.4,0.1,0.2-0.3-0.2c-6.5-5.5-5.9-15.4-2.4-22.7c2.6-5.3,6.2-9.8,9.9-14.3c1-1.3,1.2-3,0-4.2
				C1161.4,550.1,1159.2,549.9,1158.2,551.2L1158.2,551.2z"/>
		</g>
	</g>
	<g class="st2">
		<g>
			<path d="M1170.5,577.2c-0.7,12.7-1.3,25.3-2,38c-0.1,1.6,1.4,3,3,3c1.7,0,2.9-1.4,3-3c0.7-12.7,1.3-25.3,2-38c0.1-1.6-1.4-3-3-3
				C1171.8,574.2,1170.6,575.6,1170.5,577.2L1170.5,577.2z"/>
		</g>
	</g>
	<g class="st2">
		<g>
			<path d="M1224.8,547.3c-10.5-0.6-22.5-0.8-30.9,6.5c-6,5.3-8.1,15.4-4.2,22.5c2.2,4.1,6.4,6.3,10.9,6.6
				c5.5,0.3,10.5-2.6,15.9-2.4c3.9,0.1,6.9,2.9,8.2,6.2c1.7,4,1.3,8-0.9,11.8c-6.3,10.8-20.4,12-31.8,12.8c-1.6,0.1-3,1.3-3,3
				c0,1.5,1.4,3.1,3,3c11.6-0.8,24-1.9,32.7-10.4c3.8-3.6,6.4-8.4,6.9-13.7c0.4-4.8-1.3-9.7-4.4-13.4c-3.3-4-8.3-5.7-13.4-5.1
				c-2.9,0.3-5.7,1.1-8.5,1.7c-2.3,0.5-4.7,0.8-6.9,0.1c-0.2-0.1-0.3-0.1-0.5-0.2c0.5,0.2,0,0-0.1-0.1c-0.3-0.2-0.7-0.4-1-0.6
				c-0.7-0.4,0.4,0.4-0.2-0.1c-0.1-0.1-0.3-0.2-0.4-0.3c-0.2-0.1-0.3-0.3-0.4-0.4c-0.1-0.1-0.6-0.8-0.2-0.3c-0.4-0.6-0.8-1.3-1.1-2
				c0.3,0.6-0.2-0.5-0.2-0.7c-0.2-0.5-0.3-1-0.4-1.5c0-0.1-0.1-0.6,0,0c0-0.2,0-0.4-0.1-0.7c0-0.4,0-0.8,0-1.2c0-0.5,0-0.9,0.1-1.4
				c0,0,0.1-0.9,0-0.4c0,0.3,0.1-0.6,0.1-0.7c0.2-0.8,0.4-1.7,0.7-2.5c0.1-0.3,0.2-0.5,0.3-0.8c0,0.1-0.2,0.5,0-0.1
				c0.2-0.5,0.5-1,0.8-1.5c1-1.7,2.2-2.9,3.9-4c2.4-1.6,5-2.5,7.8-3.1c5.6-1.2,11.6-0.9,17.4-0.6c1.6,0.1,3-1.4,3-3
				C1227.8,548.6,1226.4,547.4,1224.8,547.3L1224.8,547.3z"/>
		</g>
	</g>
	<g class="st2">
		<g>
			<path d="M1264.8,558.6c-2.2-1.6-4.5-3.2-6.7-4.7c-1.1-0.7-2.8-0.4-3.6,0.5c-12,12.4-14.7,31.8-7.8,47.5
				c3.3,7.5,9.3,14.9,17.8,16.5c4,0.8,8.4,0.1,11.2-3.2c3-3.6,3.1-8.3,1.1-12.4c-2.3-4.7-6.9-7.6-12-8.2c-6.4-0.8-12.6,1.8-18.3,4.3
				c-1.5,0.6-1.8,2.8-1.1,4.1c0.9,1.5,2.6,1.7,4.1,1.1c4.1-1.7,8.5-3.6,13-3.6c0.9,0,1.9,0.1,2.8,0.3c1.1,0.2,1.5,0.4,2.3,0.8
				c1.2,0.7,2.4,1.7,3.1,2.7c0.4,0.6,0.8,1.3,1.1,1.9c-0.1-0.3,0.2,0.6,0.2,0.7c0,0.2,0.2,1.2,0.2,0.7c0,0.4,0,0.8,0,1.2
				c0,0-0.1,0.5,0,0.2c0.1-0.3-0.1,0.3-0.1,0.3c-0.2,0.7-0.3,1-0.7,1.6c-0.4,0.5-0.6,0.7-1.1,1c-0.2,0.1-0.8,0.4-0.6,0.4
				c0.3-0.1-0.2,0.1-0.3,0.1c-0.2,0.1-0.5,0.1-0.7,0.2c-0.1,0-0.6,0.1-0.1,0c-0.1,0-0.3,0-0.4,0c-0.3,0-0.7,0-1,0
				c-0.1,0-1.2-0.1-0.7,0c-0.5-0.1-0.9-0.2-1.4-0.3c-3-0.8-5.6-2.5-7.8-4.8c-2.2-2.4-4-5.5-5.4-8.6c-1.1-2.6-2.2-6.7-2.6-9.4
				c-0.5-3.5-0.5-7.1,0-10.5c0.2-1.4,0.7-3.8,1.2-5.5c0.5-1.8,1.1-3.6,1.8-5.1c1.7-3.7,3.8-6.8,6.5-9.6c-1.2,0.2-2.4,0.3-3.6,0.5
				c2.2,1.6,4.5,3.2,6.7,4.7c1.3,0.9,3.3,0.2,4.1-1.1C1266.8,561.2,1266.1,559.5,1264.8,558.6L1264.8,558.6z"/>
		</g>
	</g>
	<g class="st2">
		<g>
			<path d="M1296.4,601.2c-0.8,10.1-4.8,20-11.3,27.8c-1,1.2-1.2,3,0,4.2c1.1,1.1,3.2,1.2,4.2,0c7.6-9.1,12.2-20.2,13.1-32.1
				c0.1-1.6-1.5-3-3-3C1297.7,598.2,1296.5,599.6,1296.4,601.2L1296.4,601.2z"/>
		</g>
	</g>
	<g class="st2">
		<g>
			<path d="M1319.9,557.5c6.2,3.2,13.1,1.5,19.3-0.9c2.7-1,5.3-2.1,8.1-2.7c1.3-0.3,2-0.4,3.2-0.5c0.5,0,1.1,0,1.6,0
				c0.3,0,0.6,0,1,0c0,0,1,0.1,0.5,0c0.6,0.1,1.2,0.2,1.8,0.4c0.2,0.1,0.4,0.1,0.6,0.2c0.9,0.3-0.5-0.3,0.4,0.2
				c1.1,0.6,1.6,0.8,2.4,1.9c-0.3-0.4,0.1,0.2,0.2,0.3c0.2,0.3,0.3,0.5,0.5,0.8c0.2,0.5,0.4,1.1,0.5,1.7c0.2,1.3,0.1,2.9-0.1,4.2
				c-0.5,3.3-1.4,6.7-2.1,10c-0.8,3.5-1.6,7.1-2.4,10.6c-1.9,8.2-3.7,16.5-5.6,24.7c-0.4,1.6,0.5,3.2,2.1,3.7
				c1.5,0.4,3.3-0.5,3.7-2.1c1.7-7.6,3.4-15.2,5.1-22.8c0.9-3.9,1.7-7.7,2.6-11.6c0.8-3.5,1.7-7,2.3-10.5c0.6-3.6,0.7-7.2-0.8-10.6
				c-1.1-2.5-3.2-4.5-5.6-5.7c-5.1-2.4-11.1-1.7-16.3-0.1c-3.4,1.1-6.7,2.6-10.1,3.6c-3.2,0.9-6.7,1.4-9.7-0.2
				c-1.4-0.7-3.3-0.4-4.1,1.1C1318.1,554.8,1318.5,556.8,1319.9,557.5L1319.9,557.5z"/>
		</g>
	</g>
	<g class="st2">
		<g>
			<path d="M1325.3,590.5c10.7-0.6,21.3-1.3,32-1.9c1.6-0.1,3-1.3,3-3c0-1.5-1.4-3.1-3-3c-10.7,0.6-21.3,1.3-32,1.9
				c-1.6,0.1-3,1.3-3,3C1322.3,589.1,1323.7,590.6,1325.3,590.5L1325.3,590.5z"/>
		</g>
	</g>
	<g class="st2">
		<g>
			<path d="M1400.2,549.6c-6-3.2-13.1-1.3-17.8,3.3c-4.8,4.6-6.3,11.4-3.3,17.4c5.1,9.9,17.9,11.2,26.3,17.1
				c0.3,0.2,0.5,0.4,0.8,0.5c-0.4-0.3,0.1,0.1,0.2,0.2c0.5,0.4,1,0.9,1.4,1.3c0.2,0.2,0.4,0.4,0.6,0.7c0.1,0.1,0.6,0.7,0.4,0.5
				c-0.2-0.2,0.3,0.5,0.4,0.5c0.2,0.3,0.3,0.5,0.5,0.8c0.4,0.7,0.5,0.9,0.7,1.4c0.1,0.3,0.2,0.7,0.3,1c0,0.2,0.2,1.1,0.1,0.7
				c0.1,0.7,0.1,1.3,0,2c0,0.1-0.1,0.7,0,0.4c0-0.3,0,0.2,0,0.2c-0.1,0.4-0.2,0.8-0.3,1.2c-0.1,0.3-0.2,0.7-0.3,1
				c-0.1,0.1-0.1,0.3-0.2,0.4c0.1-0.1,0.2-0.4-0.1,0.1c-0.3,0.7-0.7,1.3-1.1,1.9c-0.5,0.7-0.5,0.7-1.1,1.4c-0.5,0.6-1.1,1.1-1.7,1.7
				c-0.1,0.1-0.2,0.2-0.4,0.3c0.1,0,0.2-0.2,0,0c-0.3,0.2-0.6,0.4-0.9,0.6c-0.7,0.4-1.4,0.8-2.1,1.1c-0.3,0.1-0.1,0,0,0
				c-0.2,0.1-0.4,0.1-0.6,0.2c-0.3,0.1-0.6,0.2-0.9,0.3c-0.4,0.1-0.7,0.2-1.1,0.3c-0.6,0.1-0.1,0.1-0.7,0.1c-0.7,0-1.5,0.1-2.2,0
				c-0.4,0-0.1,0,0,0c-0.2,0-0.4-0.1-0.6-0.1c-0.4-0.1-0.8-0.2-1.2-0.3c-0.3-0.1-0.6-0.2-0.8-0.3c0.5,0.2-0.4-0.2-0.5-0.2
				c-0.6-0.3-1.3-0.7-1.9-1.1c-0.4-0.3,0.1,0.1-0.3-0.2c-0.3-0.2-0.5-0.4-0.8-0.7c-0.5-0.5-1-1-1.5-1.6c0.3,0.3-0.2-0.3-0.3-0.5
				c-0.2-0.3-0.4-0.6-0.6-0.9c-0.4-0.6-0.7-1.2-1-1.8c-0.3-0.5-0.1-0.2-0.1-0.1c-0.1-0.1-0.1-0.3-0.2-0.4c-0.1-0.3-0.2-0.7-0.3-1
				c-0.2-0.7-0.4-1.4-0.6-2.2c-0.1-0.3-0.1-0.6-0.2-0.9c-0.1-0.5,0,0.4,0-0.1c0-0.1,0-0.3,0-0.4c-0.1-0.7-0.1-1.5-0.1-2.2
				c0-0.3,0-0.7,0.1-1c0-0.1,0.1-0.9,0-0.4c0.1-0.7,0.3-1.5,0.5-2.2c0.1-0.5,0.5-1.5,0.6-1.8c0.1-0.3,0.6-1.3,0.9-1.8
				c3.8-6.2,11-9.5,14.8-15.8c3.1-5.3,3.8-13-0.5-17.8c-1.1-1.2-2.5-2-4-2.6c-1.5-0.6-3.3,0.7-3.7,2.1c-0.5,1.7,0.6,3.1,2.1,3.7
				c-0.5-0.2,0.3,0.2,0.4,0.3c0.1,0.1,0.2,0.1,0.3,0.2c-0.1-0.1-0.4-0.4,0,0c0.2,0.2,0.4,0.4,0.6,0.6c0.4,0.4,0.1,0.1,0,0
				c0.1,0.1,0.2,0.3,0.3,0.4c0.1,0.1,0.4,0.8,0.3,0.6c-0.1-0.2,0.2,0.5,0.2,0.7c0.1,0.3,0.2,0.6,0.2,1c0,0.1,0.1,0.3,0.1,0.4
				c-0.1-0.3,0-0.2,0,0.1c0,0.7,0.1,1.4,0,2.1c0,0.2,0,0.3,0,0.5c0,0.5,0.1-0.4,0,0.1c-0.1,0.4-0.1,0.8-0.2,1.2
				c-0.4,1.6-0.6,2.2-1.4,3.5c-1.7,2.9-4.5,5.2-7,7.4c-2.9,2.5-5.7,5.2-7.7,8.4c-6.5,10.5-1.6,26.6,10.4,30.6
				c13,4.4,27.6-10.6,21.9-23.4c-4.6-10.2-17.3-12-25.9-17.4c-0.5-0.3-1-0.7-1.5-1c-0.4-0.3,0.2,0.2-0.3-0.2
				c-0.3-0.2-0.5-0.4-0.8-0.7c-0.4-0.4-0.8-0.8-1.2-1.2c-0.1-0.1-0.6-0.7-0.4-0.5c0.2,0.3,0-0.1-0.1-0.1c-0.1-0.2-0.2-0.3-0.4-0.5
				c-0.3-0.5-0.6-0.9-0.8-1.4c-0.1-0.2-0.1-0.3-0.2-0.5c0,0,0.2,0.4,0.1,0.1c-0.1-0.4-0.3-0.7-0.4-1.1c-0.1-0.3-0.2-0.7-0.2-1
				c0.1,0.5,0-0.2,0-0.4c0-0.3,0-0.7,0-1c0-0.1,0.1-0.7,0-0.3c0,0.3,0.1-0.3,0.1-0.3c0.4-1.5,0.6-2,1.4-3.4c0.4-0.7,0.4-0.6,1-1.3
				c0.5-0.6,1.1-1.1,1.7-1.6c-0.3,0.2,0.3-0.2,0.4-0.3c0.3-0.2,0.6-0.4,0.9-0.6c0.3-0.2,0.6-0.3,0.9-0.5c0.1-0.1,0.3-0.1,0.4-0.2
				c0.3-0.1-0.2,0.1,0.3-0.1c0.6-0.2,1.2-0.4,1.9-0.5c0.1,0,0.7-0.1,0.3-0.1c-0.3,0,0.2,0,0.2,0c0.4,0,0.8,0,1.2,0
				c0.2,0,1,0.1,0.8,0c-0.2,0,0.6,0.1,0.8,0.2c0.9,0.2,1,0.3,1.5,0.6C1400.6,556.6,1403.6,551.4,1400.2,549.6L1400.2,549.6z"/>
		</g>
	</g>
	<g class="st2">
		<g>
			<path d="M1433.7,551.6c0.2-0.2,0.4-0.4,0.7-0.6c0,0,0.4-0.3,0.2-0.1c-0.3,0.2,0.2-0.2,0.3-0.2c0.5-0.4,1.1-0.7,1.6-1
				c0.1-0.1,0.8-0.4,0.3-0.2c0.3-0.1,0.6-0.2,1-0.3c0.6-0.2,1.2-0.4,1.8-0.5c0.1,0,0.3-0.1,0.4-0.1c0.5-0.1-0.4,0,0.1,0
				c0.3,0,0.6-0.1,0.9-0.1c0.6,0,1.3,0,1.9,0c0.3,0,0.7,0,1,0.1c0.4,0,0,0-0.1,0c0.1,0,0.3,0,0.4,0.1c0.7,0.1,1.3,0.3,2,0.5
				c1.4,0.4,1.7,0.5,3.1,1.3c1.3,0.7,1.6,1,2.6,2c0.2,0.2,0.4,0.4,0.6,0.6c0.1,0.1,0.2,0.2,0.3,0.3c0,0-0.2-0.3,0,0
				c0.4,0.5,0.8,1.1,1.1,1.7c0.4,0.7,0.3,0.5,0.5,1.3c0.2,0.5,0.4,1.6,0.5,1.9c0,0.2,0.1,1.2,0.1,1.8c0,0.3,0,0.6,0,0.9
				c0,0.2,0,0.3,0,0.5c-0.1,0.5,0.1-0.4,0,0.1c-0.1,0.7-0.3,1.3-0.5,2c-0.1,0.3-0.2,0.6-0.3,0.9c-0.1,0.1-0.1,0.3-0.2,0.4
				c-0.2,0.5,0.1-0.3-0.1,0.2c-0.3,0.6-0.6,1.2-1,1.8c-0.2,0.3-0.3,0.5-0.5,0.8c-0.1,0.1-0.2,0.3-0.3,0.4c-0.3,0.4,0.2-0.3-0.1,0.1
				c-0.4,0.5-0.9,1-1.4,1.5c-0.2,0.2-0.5,0.4-0.7,0.6c-0.1,0.1-0.2,0.2-0.4,0.3c-0.4,0.4,0.5-0.4-0.3,0.2c-0.5,0.4-1,0.7-1.6,1
				c-0.3,0.2-0.5,0.3-0.8,0.4c0,0-0.5,0.2-0.2,0.1c0.2-0.1-0.4,0.2-0.5,0.2c-0.6,0.2-1.2,0.4-1.8,0.5c-0.6,0.1-0.8,0.1-1.7,0.1
				c-1.3,0-2.1-0.1-3.6-0.6c-0.6-0.2-0.6-0.2-1.3-0.6c-0.7-0.3-1.3-0.7-1.9-1.2c-0.3-0.2-1-0.8-1.5-1.3c-0.5-0.5-1.1-1.2-1.4-1.5
				c-0.3-0.4-0.9-1.3-1.2-1.9c-0.2-0.3-0.4-0.7-0.5-1c-0.2-0.5-0.1-0.2-0.3-0.6c-0.3-0.8-0.5-1.5-0.7-2.3c-0.2-0.8-0.2-0.9-0.2-1.9
				c0-0.4,0-0.7,0-1.1c0-0.1,0.1-1,0-0.6c0.1-0.9,0.3-1.7,0.6-2.5c0.5-1.5-0.6-3.3-2.1-3.7c-1.6-0.5-3.2,0.6-3.7,2.1
				c-2.4,6.9,0.3,14.7,5.5,19.6c5.5,5.1,13.3,6.6,20,3.1c6.1-3.2,10.3-10.1,10.5-17c0.2-6.9-4.1-13.1-10.4-15.8
				c-6.9-3-15.4-2.4-21,3C1426.7,550,1430.9,554.3,1433.7,551.6L1433.7,551.6z"/>
		</g>
	</g>
	<g class="st2">
		<g>
			<path d="M1448.6,557.8c8.9,5.1,14.4,15.3,14.6,25.4c0.1,5.1-1.2,10-3.9,14.5c-2.7,4.4-6.6,8-11.2,10.6c-5.2,2.9-11,4.2-17,3.6
				c-1.6-0.2-3,1.5-3,3c0,1.7,1.4,2.8,3,3c12.5,1.2,25-5.3,32.1-15.4c7.3-10.3,7.5-23.9,2.1-35.1c-3-6.1-7.8-11.4-13.7-14.8
				C1448.3,550.7,1445.3,555.8,1448.6,557.8L1448.6,557.8z"/>
		</g>
	</g>
	<g class="st2">
		<g>
			<path d="M1581.2,539.1c-11.7-1-25.9-0.7-34,9.1c-3.4,4.1-5.7,9.3-5.5,14.7c0.3,5.6,3.2,10.4,7.9,13.4c4.6,3,10.2,3.9,15.6,4.5
				c2.5,0.3,5.1,0.4,7.6,0.7c-0.4-0.1,0.1,0,0.2,0c0.3,0,0.7,0.1,1,0.2c0.5,0.1,1.1,0.2,1.6,0.3c1.3,0.3,2.6,0.6,3.9,1.1
				c2,0.7,4,1.6,5.9,3c-0.4-0.3,0.4,0.3,0.4,0.3c0.2,0.1,0.3,0.3,0.5,0.4c0.4,0.4,0.9,0.8,1.2,1.3c0,0.1,0.3,0.5,0.1,0.1
				c0.2,0.2,0.3,0.5,0.5,0.7c0.2,0.2,0.3,0.5,0.4,0.8c0,0.1,0.4,0.9,0.2,0.4c0.8,2.1,0.9,3.9,0,6.2c-0.7,1.9-2.5,3.9-4.2,5.3
				c-4.8,3.8-11.2,5.1-17.2,4.8c-5.9-0.3-12-2.5-16.6-6.2c-1.3-1-3-1.2-4.2,0c-1.1,1.1-1.3,3.2,0,4.2c9.4,7.6,22.7,10.3,34.2,6.1
				c5.5-2,10.9-5.7,13.4-11.1c2.4-5.3,1.5-11.2-2.3-15.6c-3.4-3.8-8.5-6-13.3-7.2c-4.9-1.2-10.3-1.2-15-1.9
				c-4.9-0.7-9.7-1.9-12.9-5.4c-1.3-1.5-2.3-3.8-2.5-5.5c-0.2-2.4,0.1-4.2,1-6.6c0.4-0.9,1.2-2.4,1.9-3.5c0.7-1,1.4-1.9,2.4-2.8
				c2-1.9,4.6-3.4,7.4-4.3c6.7-2.2,13.8-2,20.8-1.3c1.6,0.1,3-1.5,3-3C1584.2,540.3,1582.8,539.2,1581.2,539.1L1581.2,539.1z"/>
		</g>
	</g>
	<g class="st2">
		<g>
			<path d="M1559.8,525.2c3.6,26.8,5,53.9,4.2,80.9c-0.2,7.7-0.6,15.4-1.2,23.1c-0.1,1.6,1.5,3,3,3c1.7,0,2.9-1.4,3-3
				c2-27,1.9-54.1-0.5-81c-0.7-7.7-1.5-15.3-2.5-23c-0.2-1.6-1.2-3-3-3C1561.3,522.2,1559.6,523.6,1559.8,525.2L1559.8,525.2z"/>
		</g>
	</g>
	<g class="st2">
		<g>
			<path d="M1639.1,543.3c-15.6-0.8-30.2,11.1-34.3,25.8c-2.1,7.4-1.3,15.3,2.2,22.1c3.3,6.5,8.8,11.8,15.2,15.2
				c7.4,3.9,16,5.3,24.1,3.2c3.7-1,2.1-6.8-1.6-5.8c-11.7,3.1-24.8-3-31.2-13.3c-1.7-2.8-2.7-5.2-3.4-8.4c-0.6-2.7-0.6-6.2-0.1-9
				c1.2-6.4,4.6-12,9.4-16.4c5.4-4.9,12.4-7.7,19.7-7.4c1.6,0.1,3-1.4,3-3C1642.1,544.6,1640.7,543.4,1639.1,543.3L1639.1,543.3z"/>
		</g>
	</g>
	<g class="st2">
		<g>
			<path d="M1680,604.4c-5.8-16.4-7.8-33.9-5.9-51.2c0.2-1.6-1.5-3-3-3c-1.8,0-2.8,1.4-3,3c-2,17.8,0.1,36,6.1,52.8
				c0.5,1.5,2,2.5,3.7,2.1C1679.3,607.7,1680.5,605.9,1680,604.4L1680,604.4z"/>
		</g>
	</g>
	<g class="st2">
		<g>
			<path d="M1647.1,556.6c16,0.6,32,1.3,48,1.9c1.6,0.1,3-1.4,3-3c0-1.7-1.4-2.9-3-3c-16-0.6-32-1.3-48-1.9c-1.6-0.1-3,1.4-3,3
				C1644.1,555.3,1645.4,556.5,1647.1,556.6L1647.1,556.6z"/>
		</g>
	</g>
	<g class="st2">
		<g>
			<path d="M1704.5,593c5.6,11.6,20.1,18.1,32.5,15.2c15.9-3.7,23.1-22.6,21.2-37.4c-1.5-12.1-9.7-25-23.1-25.4
				c-10.3-0.3-19.5,6.7-25.5,14.6c-6.1,8.1-9.8,19.2-6.7,29.2C1703.4,590.4,1703.9,591.7,1704.5,593c0.7,1.5,2.8,1.8,4.1,1.1
				c1.5-0.9,1.8-2.6,1.1-4.1c-0.1-0.2-0.2-0.5-0.3-0.7c-0.2-0.5,0.1,0.3-0.1-0.3c-0.2-0.5-0.4-1.1-0.6-1.7c-0.1-0.5-0.3-1-0.4-1.4
				c-0.1-0.3-0.1-0.6-0.2-0.9c0-0.1-0.1-0.9-0.1-0.6c0.1,0.4,0-0.3,0-0.5c0-0.3-0.1-0.6-0.1-0.9c0-0.6,0-1.2,0-1.7
				c0-0.5,0-1,0.1-1.5c0-0.3,0-0.6,0.1-0.9c0-0.2,0.1-0.9,0-0.3c0.3-2.2,0.9-4.4,1.7-6.6c0.1-0.2,0.2-0.5,0.3-0.7
				c0.1-0.2,0.4-0.9,0.1-0.4c0.2-0.6,0.5-1.1,0.8-1.7c0.5-1,1.1-2,1.6-3c0.6-1,1.2-1.9,1.9-2.8c0.1-0.1,0.6-0.7,0.4-0.5
				c-0.2,0.2,0.3-0.3,0.3-0.4c0.4-0.5,0.8-0.9,1.2-1.4c1.5-1.7,3.2-3.3,5-4.7c-0.4,0.3,0,0,0.2-0.1c0.2-0.2,0.5-0.3,0.7-0.5
				c0.4-0.3,0.9-0.6,1.4-0.9c0.9-0.6,1.9-1.1,2.9-1.6c0.2-0.1,0.4-0.2,0.7-0.3c0.6-0.3-0.2,0.1,0.3-0.1c0.5-0.2,1-0.4,1.4-0.5
				c1-0.3,2-0.6,3-0.8c0.2,0,0.4-0.1,0.7-0.1c-0.6,0.1-0.1,0,0.2,0c0.5,0,1-0.1,1.5-0.1c0.5,0,1,0,1.5,0c0.2,0,0.4,0,0.7,0.1
				c0.7,0.1-0.4-0.1,0.3,0c1,0.2,1.9,0.4,2.8,0.7c0.3,0.1,0.5,0.2,0.8,0.3c-0.5-0.2-0.1,0,0.1,0.1c0.5,0.2,1,0.5,1.5,0.8
				c0.5,0.3,0.9,0.6,1.3,0.9c0.1,0.1,0.2,0.1,0.3,0.2c0,0-0.4-0.3-0.1-0.1c0.2,0.2,0.5,0.4,0.7,0.6c0.9,0.8,1.8,1.7,2.6,2.6
				c0.5,0.6,0.4,0.4,0.9,1.2c0.5,0.7,0.9,1.4,1.4,2.1c0.8,1.5,1.5,3,2.1,4.6c2.2,6.6,2,13.9,0,20.5c-1.9,6.3-5.9,12.3-12,15.3
				c-0.8,0.4-2.1,0.8-3.4,1.1c-0.7,0.2-1.3,0.3-2,0.4c-0.4,0.1,0,0,0,0c-0.2,0-0.3,0-0.5,0c-0.4,0-0.8,0.1-1.2,0.1
				c-1.4,0.1-2.7,0-4.1-0.2c-0.4,0,0,0,0,0c-0.2,0-0.4-0.1-0.6-0.1c-0.3-0.1-0.6-0.1-0.9-0.2c-0.7-0.2-1.4-0.3-2.1-0.5
				c-0.6-0.2-1.2-0.4-1.8-0.6c-0.8-0.3-0.8-0.3-1.6-0.7c-1.3-0.6-2.5-1.3-3.7-2.1c-0.3-0.2-0.5-0.4-0.8-0.6
				c-0.1-0.1-0.3-0.2-0.4-0.3c0.1,0,0.2,0.2,0,0c-0.6-0.5-1.1-1-1.7-1.5c-0.5-0.5-1-1-1.4-1.5c-0.6-0.6-0.7-0.8-1.1-1.4
				c-0.7-1-1.4-2.1-1.9-3.3c-0.7-1.5-2.8-1.8-4.1-1.1C1704.1,589.7,1703.8,591.5,1704.5,593z"/>
		</g>
	</g>
	<g class="st2">
		<g>
			<path d="M1090.5,659.3c31.8,1.5,63.6,2.3,95.4,2.4c31.7,0.1,63.4-0.4,95.1-1.7c17.8-0.7,35.7-1.6,53.5-2.7c1.6-0.1,3-1.3,3-3
				c0-1.5-1.4-3.1-3-3c-31.7,2-63.5,3.3-95.3,3.9c-31.7,0.6-63.4,0.6-95.2-0.1c-17.9-0.4-35.7-1-53.5-1.8c-1.6-0.1-3,1.4-3,3
				C1087.5,657.9,1088.9,659.2,1090.5,659.3L1090.5,659.3z"/>
		</g>
	</g>
	<g class="st2">
		<g>
			<path d="M1152.5,681c22.4,0,44.7,0,67.1,0c6.3,0,12.6,0,18.9,0c3.9,0,3.9-6,0-6c-22.4,0-44.7,0-67.1,0c-6.3,0-12.6,0-18.9,0
				C1148.6,675,1148.6,681,1152.5,681L1152.5,681z"/>
		</g>
	</g>
	<g class="st2">
		<g>
			<path d="M1048.3,805.6c-4.3,12.9-7.6,26.6-6.9,40.3c0.7,13.3,5.8,26.4,16.5,34.8c10.1,7.9,23.2,11.1,35.9,10.5
				c13.1-0.7,25.8-5.6,36.3-13.3c10.7-7.9,19.2-18.6,23.8-31.1c4.8-13,5.1-27.7,1.1-40.9c-4-13-12.3-24.2-23-32.4
				c-8.6-6.6-19.2-10.6-30.1-10.7c-10.2-0.1-20.4,3.2-28.8,9c-9.2,6.3-16.5,15.3-21.3,25.4C1050.5,799.8,1049.3,802.7,1048.3,805.6
				c-0.5,1.5,0.6,3.3,2.1,3.7c1.6,0.5,3.2-0.6,3.7-2.1c3.4-10,8.9-19.1,16.8-26.2c2-1.8,3.3-2.9,5.4-4.3c2-1.4,4.1-2.6,6.3-3.6
				c0.5-0.3,1-0.5,1.6-0.7c0,0,0.9-0.4,0.3-0.1c0.3-0.1,0.5-0.2,0.8-0.3c1.1-0.5,2.3-0.9,3.5-1.2c2.2-0.7,4.5-1.2,6.8-1.6
				c0.9-0.1-0.6,0.1,0.3,0c0.3,0,0.6-0.1,0.8-0.1c0.6-0.1,1.1-0.1,1.7-0.1c1.2-0.1,2.4-0.1,3.7-0.1c1.1,0,2.3,0.1,3.4,0.2
				c1.5,0.1,1.7,0.2,3.2,0.4c2.4,0.4,4.8,1.1,7.1,1.9c2.3,0.8,4.1,1.6,6.5,3c9.9,5.5,18.5,14.4,23.6,24.7
				c5.6,11.2,7.3,24.5,4.9,36.8c-2.4,12.2-8.6,23.1-17.5,31.7c-8.6,8.3-19.5,14.2-31.2,16.7c-11,2.3-23.4,1.4-33.5-3.7
				c-5.1-2.5-9.4-5.9-12.9-10.3c-3.8-4.9-6.1-10.5-7.4-16.6c-2.5-12.3-0.2-25.6,3.1-37.7c0.8-2.9,1.7-5.8,2.7-8.6
				c0.5-1.5-0.6-3.3-2.1-3.7C1050.4,803,1048.9,804,1048.3,805.6z"/>
		</g>
	</g>
	<g class="st2">
		<g>
			<path d="M1194.1,882.2c10-14.1,19.9-28.3,29.9-42.4c10-14.1,19.9-28.3,29.9-42.4c5.6-8,11.3-16,16.9-24.1
				c0.9-1.3,0.2-3.3-1.1-4.1c-1.5-0.9-3.2-0.3-4.1,1.1c-10,14.1-19.9,28.3-29.9,42.4c-10,14.1-19.9,28.3-29.9,42.4
				c-5.6,8-11.3,16-16.9,24.1c-0.9,1.3-0.2,3.3,1.1,4.1C1191.5,884.2,1193.2,883.6,1194.1,882.2L1194.1,882.2z"/>
		</g>
	</g>
	<g class="st2">
		<g>
			<path d="M1218,803.6c0,0.4,0.1,0.9,0.1,1.3c0,0.3,0,0.6,0,0.8c0,0.1-0.1,0.5,0,0.1c0.1-0.4,0,0.1,0,0.2c-0.1,0.5-0.2,1-0.4,1.5
				c-0.1,0.2-0.2,0.4-0.2,0.7c-0.2,0.5,0,0,0-0.1c-0.1,0.1-0.1,0.3-0.2,0.4c-0.2,0.5-0.5,0.9-0.7,1.4c-0.1,0.2-0.3,0.4-0.4,0.6
				c-0.1,0.1-0.2,0.3-0.3,0.4c-0.2,0.3,0.3-0.3,0,0c-0.8,0.8-1.5,1.6-2.3,2.3c0.4-0.3,0,0-0.2,0.1c-0.2,0.2-0.5,0.3-0.7,0.5
				c-0.5,0.3-1,0.6-1.5,0.8c-0.2,0.1-0.4,0.2-0.7,0.3c-0.3,0.1,0.1-0.1,0.2-0.1c-0.2,0.1-0.3,0.1-0.4,0.2c-0.5,0.2-1.1,0.3-1.6,0.5
				c-0.2,0.1-0.5,0.1-0.7,0.1c-0.5,0.1,0.5,0-0.3,0c-0.5,0-1.1,0.1-1.6,0.1c-0.2,0-0.5,0-0.7,0c-0.1,0-0.2,0-0.4,0
				c0.1,0,0.6,0.1,0.1,0c-0.5-0.1-1.1-0.2-1.6-0.4c-0.4-0.1-0.8-0.3-1.2-0.4c-0.5-0.2,0.6,0.3-0.1,0c-0.2-0.1-0.4-0.2-0.6-0.3
				c-0.7-0.3-1.4-0.7-2.1-1.1c-0.3-0.2-0.6-0.4-0.9-0.6c-0.1-0.1-0.6-0.5-0.2-0.1c0.4,0.3-0.1-0.1-0.2-0.1c-0.5-0.4-0.9-0.8-1.3-1.3
				c-0.1-0.1-0.2-0.2-0.3-0.4c-0.3-0.4,0.4,0.6,0.2,0.2c-0.2-0.2-0.3-0.5-0.5-0.7c-0.1-0.2-0.3-0.5-0.4-0.7
				c-0.1-0.1-0.1-0.3-0.2-0.4c-0.2-0.4,0.3,0.8,0.1,0.2c-0.2-0.5-0.3-1-0.4-1.5c-0.2-0.8,0,0.7,0,0c0-0.3,0-0.5,0-0.8
				c0-0.2,0-0.5,0-0.7c0-0.1,0-0.2,0-0.3c0-0.6,0.1-0.1,0,0.2c0.2-0.5,0.2-1,0.3-1.5c0.1-0.2,0.1-0.5,0.2-0.7c0-0.1,0.1-0.2,0.1-0.3
				c0.2-0.6-0.3,0.6-0.1,0.2c0.2-0.5,0.5-1,0.7-1.5c0.3-0.5,0.6-1,0.9-1.4c0.1-0.2,0.3-0.4,0.4-0.6c-0.6,0.9,0,0,0.2-0.2
				c0.8-0.9,1.6-1.7,2.5-2.5c0.2-0.2,0.4-0.4,0.7-0.5c0.1-0.1-0.6,0.5-0.1,0.1c0.1-0.1,0.2-0.2,0.4-0.3c0.5-0.3,1-0.7,1.5-1
				c0.5-0.3,1-0.6,1.5-0.8c0.2-0.1,0.5-0.2,0.8-0.4c0.4-0.2,0,0-0.2,0.1c0.2,0,0.3-0.1,0.5-0.2c1-0.4,2.1-0.7,3.2-0.9
				c0.8-0.2-0.6,0,0.1,0c0.3,0,0.5,0,0.8-0.1c0.5,0,1,0,1.5,0c0.8,0.1-0.7-0.1,0,0c0.3,0.1,0.5,0.1,0.8,0.2c0.2,0.1,0.5,0.1,0.7,0.2
				c0.1,0,0.2,0.1,0.3,0.1c0.3,0.1-0.8-0.4-0.2-0.1c0.4,0.2,0.9,0.4,1.3,0.7c0.1,0.1,0.2,0.2,0.3,0.2c0.1,0.1-0.6-0.5-0.2-0.2
				c0.2,0.2,0.4,0.4,0.6,0.6c0.2,0.2,0.4,0.4,0.5,0.6c0.1,0.1,0.4,0.5,0.1,0.1c-0.3-0.5,0,0,0.1,0.1c0.4,0.5,0.7,1,0.9,1.6
				c0.1,0.2,0.1,0.3,0.2,0.5c0.2,0.4-0.2-0.6-0.1-0.2c0.1,0.3,0.3,0.7,0.4,1c0.2,0.7,0.4,1.5,0.6,2.2c0.1,0.4,0.2,0.8,0.2,1.2
				c0,0.1,0,0.2,0,0.3c0.1,0.3,0-0.3,0-0.3C1217.8,802.9,1218,803.5,1218,803.6c0.2,1.6,1.3,3.1,3,3c1.5-0.1,3.2-1.3,3-3
				c-0.7-6.5-3.3-13.5-10.2-15.3c-5.3-1.4-11.1,0.6-15.4,3.8c-4.6,3.4-8.4,8.2-8.9,14.1c-0.6,6.5,4.5,11.5,10,13.9
				c2.4,1,4.8,1.8,7.5,1.7c2.7-0.1,5.4-0.9,7.8-2.2c4.5-2.4,8.2-7,9.1-12.1c0.2-1.3,0.3-2.5,0.2-3.8c-0.2-1.6-1.3-3.1-3-3
				C1219.5,800.7,1217.8,802,1218,803.6z"/>
		</g>
	</g>
	<g class="st2">
		<g>
			<path d="M1269,829.1c0.3,0.4,0.5,0.8,0.8,1.2c0.1,0.2,0.3,0.5,0.4,0.8c0.4,0.8-0.1-0.5,0.1,0.3c0.2,0.5,0.4,1.1,0.5,1.6
				c0.1,0.3,0.1,0.5,0.2,0.8c0.1,0.4,0.1,0.4,0,0c0,0.2,0,0.4,0.1,0.6c0,0.6,0.1,1.1,0,1.7c0,0.3,0,0.6,0,0.8c0,0.1-0.1,1,0,0.3
				c-0.2,1.1-0.4,2.2-0.8,3.3c-0.1,0.3-0.2,0.5-0.3,0.8c0.2-0.6-0.1,0.3-0.2,0.3c-0.2,0.5-0.5,1-0.8,1.5c-0.8,1.3-0.9,1.5-2,2.5
				c-0.4,0.4-0.8,0.8-1.2,1.1c0.5-0.4-0.3,0.2-0.3,0.2c-0.2,0.2-0.5,0.3-0.7,0.5c-0.4,0.2-0.8,0.4-1.2,0.7c-0.8,0.4,0.5-0.1-0.3,0.1
				c-0.4,0.1-0.7,0.2-1.1,0.4c-0.5,0.2-1.1,0.2-1.6,0.3c-0.8,0.1,0.6-0.1-0.2,0c-0.2,0-0.5,0.1-0.7,0.1c-0.9,0.1-1.9,0.1-2.8,0.1
				c-0.4,0-0.8,0-1.2-0.1c-0.2,0-0.4,0-0.6-0.1c-0.7,0,0.7,0.1,0.1,0c-0.7-0.1-1.4-0.3-2-0.5c-0.3-0.1-0.6-0.2-0.9-0.3
				c-0.6-0.2,0.6,0.3,0.1,0.1c-0.1-0.1-0.3-0.1-0.4-0.2c-0.6-0.3-1.1-0.7-1.6-1c0.9,0.6,0.1,0-0.2-0.2c-0.2-0.2-0.3-0.3-0.5-0.5
				c-0.1-0.1-0.5-0.4-0.5-0.6c0.1,0.3,0.4,0.6,0.1,0.2c-0.1-0.2-0.2-0.3-0.3-0.5c-0.2-0.3-0.8-1.1-0.8-1.5c0,0.3,0.3,0.7,0.1,0.2
				c0-0.1-0.1-0.3-0.1-0.4c-0.1-0.3-0.2-0.6-0.3-0.9c-0.1-0.4-0.4-1.2-0.3-1.5c-0.1,0.5,0.1,0.7,0,0.2c0-0.1,0-0.3,0-0.4
				c0-0.3,0-0.7-0.1-1c0-0.6,0-1.2,0.1-1.8c0-0.3,0.1-0.6,0.1-0.9c0-0.6-0.1,0.8,0,0.2c0-0.2,0.1-0.4,0.1-0.6c0.2-1.3,0.6-2.5,1-3.7
				c0.1-0.3,0.2-0.6,0.3-0.9c0.1-0.2,0.1-0.3,0.2-0.4c-0.3,0.9-0.1,0.3,0,0.1c0.3-0.6,0.6-1.2,0.9-1.8c0.3-0.5,0.6-1.1,0.9-1.6
				c0.2-0.3,0.3-0.5,0.5-0.8c0.1-0.1,0.2-0.3,0.3-0.4c0.5-0.6-0.3,0.4,0,0c0.8-0.9,1.6-1.8,2.5-2.6c0.1-0.1,0.2-0.2,0.3-0.3
				c0.4-0.4-0.6,0.4-0.1,0.1c0.2-0.2,0.5-0.3,0.7-0.5c0.5-0.3,1.1-0.6,1.6-0.9c0.4-0.2,0.1-0.2-0.2,0.1c0.1-0.1,0.4-0.2,0.5-0.2
				c0.3-0.1,0.6-0.2,0.9-0.3c0.3-0.1,0.5-0.1,0.8-0.2c0.6-0.1-0.2,0-0.3,0c0-0.1,0.5,0,0.5-0.1c0.3,0,0.6,0,1,0c0.1,0,0.3,0,0.4,0
				c0.1,0,0.2,0,0.3,0c0.3,0,0.2,0-0.4-0.1c0.5-0.2,1.6,0.3,2,0.5c0.1,0.1,0.3,0.1,0.4,0.2c0.5,0.2-0.7-0.4,0,0
				c0.3,0.2,0.6,0.3,0.9,0.5c0.4,0.2,0.7,0.4,1,0.6c0.1,0.1,0.3,0.2,0.4,0.3c0.4,0.3-0.5-0.4,0.1,0.1c0.7,0.6,1.4,1.3,2.1,2
				c0.4,0.4,0.7,0.8,1,1.2c0.1,0.1,0.6,0.7,0.1,0.1C1268.7,828.6,1268.8,828.8,1269,829.1c0.9,1.3,2.6,2,4.1,1.1
				c1.3-0.8,2-2.8,1.1-4.1c-4.2-5.8-10.6-10.9-18.1-8.8c-5.8,1.6-10.1,6.8-12.5,12.2c-2.5,5.7-3.4,12.5-0.6,18.2
				c3.4,6.8,11.3,8.2,18.1,7.2c5.7-0.8,10.4-4.2,13.2-9.2c2.7-4.8,3.7-10.9,1.7-16.1c-0.5-1.3-1.1-2.5-1.8-3.6
				c-0.9-1.3-2.6-1.9-4.1-1.1C1268.8,825.7,1268.1,827.8,1269,829.1z"/>
		</g>
	</g>
	<g class="st2">
		<g>
			<path d="M1381.8,868c-0.5-21.3-1-42.6-1.5-63.9c-0.1-6-0.3-12.1-0.4-18.1c-0.1-3.9-6.1-3.9-6,0c0.5,21.3,1,42.6,1.5,63.9
				c0.1,6,0.3,12.1,0.4,18.1C1375.9,871.8,1381.9,871.9,1381.8,868L1381.8,868z"/>
		</g>
	</g>
	<g class="st2">
		<g>
			<path d="M1336.5,784.9c21.3,1.6,42.6,3.1,63.9,4.7c6,0.4,12.1,0.9,18.1,1.3c1.6,0.1,3-1.5,3-3c0-1.7-1.4-2.9-3-3
				c-21.3-1.6-42.6-3.1-63.9-4.7c-6-0.4-12.1-0.9-18.1-1.3c-1.6-0.1-3,1.5-3,3C1333.5,783.6,1334.9,784.8,1336.5,784.9L1336.5,784.9
				z"/>
		</g>
	</g>
	<g class="st2">
		<g>
			<path d="M1426.3,868.5c6.8-24.4,13.5-48.8,20.3-73.2c1.9-6.9,3.8-13.8,5.7-20.7c-1.8,0.2-3.7,0.5-5.5,0.7
				c14.2,21,25.3,44,32.8,68.2c2.1,6.9,4,13.9,5.6,21c0.4,1.6,2.2,2.5,3.7,2.1c1.6-0.4,2.4-2.1,2.1-3.7
				c-5.6-25.2-14.9-49.6-27.6-72.1c-3.5-6.3-7.3-12.5-11.4-18.5c-1.4-2.1-4.8-1.9-5.5,0.7c-6.8,24.4-13.5,48.8-20.3,73.2
				c-1.9,6.9-3.8,13.8-5.7,20.7C1419.5,870.6,1425.3,872.2,1426.3,868.5L1426.3,868.5z"/>
		</g>
	</g>
	<g class="st2">
		<g>
			<path d="M1434.5,833c14,0,28,0,42,0c3.9,0,3.9-6,0-6c-14,0-28,0-42,0C1430.6,827,1430.6,833,1434.5,833L1434.5,833z"/>
		</g>
	</g>
	<g class="st2">
		<g>
			<path d="M1511.5,863.7c11.5-23.4,22.9-46.9,34.4-70.3c3.2-6.6,6.4-13.1,9.6-19.7c0.7-1.5,0.4-3.2-1.1-4.1
				c-1.3-0.8-3.4-0.4-4.1,1.1c-11.5,23.4-22.9,46.9-34.4,70.3c-3.2,6.6-6.4,13.1-9.6,19.7c-0.7,1.5-0.4,3.2,1.1,4.1
				C1508.7,865.6,1510.8,865.2,1511.5,863.7L1511.5,863.7z"/>
		</g>
	</g>
	<g class="st2">
		<g>
			<path d="M1489.1,783.5c16.5,21,32.9,41.9,49.4,62.9c4.6,5.9,9.3,11.8,13.9,17.7c1,1.3,3.2,1,4.2,0c1.3-1.3,1-3,0-4.2
				c-16.5-21-32.9-41.9-49.4-62.9c-4.6-5.9-9.3-11.8-13.9-17.7c-1-1.3-3.2-1-4.2,0C1487.9,780.5,1488.1,782.2,1489.1,783.5
				L1489.1,783.5z"/>
		</g>
	</g>
	<g class="st2">
		<g>
			<path d="M1045.6,970.8c2.6,9.6,0.7,19.6-1,29.2c-1.5,8.3-2.9,16.8-1.8,25.3c1,8,3.9,16,10.3,21.2c6.3,5.2,14.3,7,22.3,6.6
				c9.2-0.5,18.2-3.3,26.8-6.5c1.5-0.6,2.6-2,2.1-3.7c-0.4-1.5-2.2-2.7-3.7-2.1c-7.1,2.7-14.8,5.2-22.3,6
				c-7.1,0.8-14.2,0.2-20.1-3.9c-5.8-4-8.6-10.8-9.5-17.8c-1-7.6,0.2-15.5,1.6-23.1c1.9-10.8,4-22,1.1-32.9
				C1050.4,965.5,1044.6,967.1,1045.6,970.8L1045.6,970.8z"/>
		</g>
	</g>
	<g class="st2">
		<g>
			<path d="M1123.2,1046.4c-6.6-10.3-10-22.5-9.9-34.7c0.1-11.8,3.2-24,10.2-33.6c3.1-4.3,7.4-8.1,12.5-9.7c2.4-0.8,4.3-0.9,7-0.7
				c0.1,0,0.8,0.1,0.3,0c0.3,0,0.6,0.1,1,0.2c0.6,0.1,1.3,0.3,1.9,0.5c1.4,0.4,1.9,0.6,3.1,1.3c2,1.1,3.5,2.4,4.6,4.1
				c1.3,2,1.9,4.1,1.8,6.6c-0.2,5.1-3.9,10-7.9,13.5c-5.1,4.4-11.6,6.7-17.8,9.3c-6.4,2.7-12.7,5.7-17.6,10.8
				c-2.7,2.8,1.5,7,4.2,4.2c9.3-9.6,23.8-10.9,34.1-19.1c4.9-3.9,9.4-9.5,10.6-15.8c1.1-6.2-0.9-12.6-5.8-16.6
				c-4.4-3.6-10.2-5.4-15.9-5c-6.5,0.5-12.3,3.6-16.9,8.1c-9.5,9.3-14,23.3-15.2,36.3c-1.3,15,2.3,30.6,10.5,43.3
				c0.9,1.4,2.7,1.9,4.1,1.1C1123.5,1049.7,1124.1,1047.8,1123.2,1046.4L1123.2,1046.4z"/>
		</g>
	</g>
	<g class="st2">
		<g>
			<path d="M1243.8,1047c-9.7-7.1-16.5-18-19.2-29.7c-2.6-11.6-0.8-23.7,4.9-34.2c5.4-10,14.6-19.2,25.5-22.5
				c2.8-0.8,5.2-1.2,8.1-1.1c2.4,0.1,4.8,0.7,6.9,2c4.4,2.7,6,7.5,5.7,12.5c-0.4,6.1-3.9,11.5-8.8,15.6c-5.5,4.6-12.4,7.4-18.9,10.1
				c-1.4,0.6-1.8,2.5-1.2,3.7c0.6,1.4,2,2,3.5,1.7c9.1-1.8,18.7-3.7,27.8-1.2c6.7,1.8,13.2,6.3,15.2,13c0.9,3,0.9,6.1,0.1,9.1
				c-0.8,3.3-2.3,6.3-4.5,9.1c-2,2.6-4.7,5-7.5,6.8c-3.4,2.1-7.2,3.4-11.1,4.3c-10,2.2-20.5,1-30.6-0.1c-1.6-0.2-3,1.5-3,3
				c0,1.8,1.4,2.8,3,3c18.1,1.9,40,3.4,52.9-12.1c5.3-6.3,8.5-14.5,6.9-22.7c-1.6-8.7-8.7-14.9-16.6-18c-11-4.4-23.2-2.1-34.4,0.1
				c0.8,1.8,1.5,3.7,2.3,5.5c12.4-5.2,26.5-12,30-26.3c1.5-6.4,0.7-13.2-3.5-18.4c-4.1-5.1-10.9-7.1-17.2-6.6
				c-13.5,1.1-25.2,10.5-32.8,21.4c-7.7,11-11.4,24.9-9.7,38.3c1.7,13.6,8.3,26.6,18.7,35.7c1.3,1.2,2.8,2.3,4.2,3.4
				c1.3,1,3.3,0.2,4.1-1.1C1245.8,1049.6,1245.1,1048,1243.8,1047L1243.8,1047z"/>
		</g>
	</g>
	<g class="st2">
		<g>
			<path d="M1314.8,962.6c-9.1,11.7-14.1,26.2-14.3,41.1c-0.1,14,4.1,28.9,14,39.3c4.7,4.9,10.9,8.6,17.7,9.6
				c6.7,1,13.3-0.5,19.2-3.8c12.3-6.9,20-20.3,20.5-34.2c0.6-15.9-6.5-31.1-15.6-43.7c-1.2-1.7-2.4-3.3-3.7-4.9c-1-1.3-3.2-1-4.2,0
				c-1.3,1.3-1,3,0,4.2c8.6,11,16.2,24.2,17.4,38.3c0.6,6.3-0.1,12.9-2.7,18.6c-2.5,5.5-6.1,10.4-11,14.1c-4.3,3.3-9.7,5.6-15,5.7
				c-5.6,0.2-11.2-1.9-15.5-5.5c-9.6-8-14.2-20.8-15-33c-0.9-13.2,2.5-26.5,9.6-37.7c0.9-1.3,1.8-2.6,2.7-3.9c1-1.3,1.2-3,0-4.2
				C1318,961.5,1315.8,961.3,1314.8,962.6L1314.8,962.6z"/>
		</g>
	</g>
	<g class="st2">
		<g>
			<path d="M1393.2,1042.3c-6.9-9.3-10.4-20.8-10-32.4c0.4-11.1,4.5-22.5,12.8-30.2c3.7-3.4,8.7-6.2,13.5-6.7c5.1-0.5,10,1,13.8,4.3
				c3.7,3.3,6.3,7.9,7,12.6c0.8,5.5-0.8,11-3.8,15.7c-7.4,11.4-22.3,13.9-34.8,10.7c-1.4-0.4-3,0.3-3.5,1.7
				c-0.5,1.2-0.2,3.2,1.2,3.7c16.7,7.1,33.4,14.2,50.2,21.3c1.5,0.6,3.2,0.4,4.1-1.1c0.7-1.3,0.4-3.5-1.1-4.1
				c-16.7-7.1-33.4-14.2-50.2-21.3c-0.8,1.8-1.5,3.7-2.3,5.5c13.3,3.4,29.1,1.2,38.6-9.5c4.4-5,7.2-11.2,7.7-17.8
				c0.5-6.3-1.4-12.7-5.2-17.7c-3.7-4.9-9.1-8.7-15.3-9.8c-6.5-1.1-12.9,0.5-18.4,3.9c-11.2,6.9-17.8,19.4-19.6,32.1
				c-2.1,14.6,1.3,30,10.2,42c1,1.3,2.6,2,4.1,1.1C1393.4,1045.7,1394.2,1043.7,1393.2,1042.3L1393.2,1042.3z"/>
		</g>
	</g>
	<g class="st2">
		<g>
			<path d="M1463.4,1038c-2-17.6-3-35.4-2.8-53.1c0-5.1,0.2-10.2,0.4-15.3c-1.9,0.5-3.7,1-5.6,1.5c10.7,17.7,23.2,34.4,37,49.8
				c3.9,4.3,7.9,8.6,12,12.7c0.8,0.8,2.2,1.1,3.3,0.6c1-0.4,2-1.6,1.8-2.7c-2.6-20.1-5.1-40.2-7.7-60.2c-0.7-5.8-1.5-11.5-2.2-17.3
				c-0.2-1.6-1.2-3-3-3c-1.5,0-3.2,1.4-3,3c2.6,20.1,5.1,40.2,7.7,60.2c0.7,5.8,1.5,11.5,2.2,17.3c1.7-0.7,3.4-1.4,5.1-2.1
				c-14.4-14.3-27.4-30-38.8-46.8c-3.2-4.8-6.3-9.6-9.3-14.5c-1.6-2.6-5.5-1.4-5.6,1.5c-0.7,17.7-0.4,35.5,1,53.2
				c0.4,5.1,0.9,10.2,1.5,15.2c0.2,1.6,1.2,3,3,3C1461.9,1041,1463.6,1039.6,1463.4,1038L1463.4,1038z"/>
		</g>
	</g>
	<g class="st2">
		<g>
			<path d="M1526.9,1035.6c-5.3-16.5-9.6-35.3-2.5-51.7c2.9-6.6,7.3-12.6,13.4-16.3c0.8-0.5,1.6-0.9,2.4-1.3c0.9-0.5,1.1-0.5,2-0.9
				c1.5-0.5,3.1-1,4.7-1.2c0.2,0,0.4-0.1,0.6-0.1c-0.1,0-0.4,0,0,0c0.4,0,0.7-0.1,1.1-0.1c0.9-0.1,1.7-0.1,2.6-0.1
				c1.8,0,3,0.1,4.5,0.4c3.7,0.7,6.4,1.8,9.5,3.9c2.6,1.8,4.8,4.3,6.2,7.5c0.7,1.5,2.8,1.8,4.1,1.1c1.5-0.9,1.8-2.6,1.1-4.1
				c-6.5-14-25.1-18-38.3-12.1c-16,7.1-23.5,25.6-23.6,42.2c-0.1,11.8,2.9,23.3,6.4,34.4c0.5,1.5,2.1,2.5,3.7,2.1
				C1526.3,1038.9,1527.4,1037.1,1526.9,1035.6L1526.9,1035.6z"/>
		</g>
	</g>
	<g class="st2">
		<g>
			<path d="M1512.5,1011c11.3-0.7,22.7-1.3,34-2c1.6-0.1,3-1.3,3-3c0-1.6-1.4-3.1-3-3c-11.3,0.7-22.7,1.3-34,2c-1.6,0.1-3,1.3-3,3
				C1509.5,1009.6,1510.9,1011.1,1512.5,1011L1512.5,1011z"/>
		</g>
	</g>
	<g class="st2">
		<g>
			<path d="M1523.6,1039.2c15.6,5,32.8,3.4,47.4-3.8c4.1-2,7.9-4.5,11.5-7.4c1.3-1,1.1-3.2,0-4.2c-1.2-1.2-3-1-4.2,0
				c-11.4,9.2-26.5,13.4-41,12.1c-4.1-0.3-8.1-1.2-12.1-2.5c-1.5-0.5-3.3,0.6-3.7,2.1C1521,1037.2,1522,1038.8,1523.6,1039.2
				L1523.6,1039.2z"/>
		</g>
	</g>
	<g class="st2">
		<g>
			<path d="M1601.2,1033.3c-5.1-17.1-8.2-34.8-8.9-52.7c-0.2-5.1-0.2-10.2-0.1-15.3c-1,1-2,2-3,3c18.7-1.6,42.2-3.2,54.7,13.5
				c2.6,3.4,4.3,7,5.1,11.1c0.7,3.6,0.3,7.7-1.2,11.1c-3.5,7.8-11.3,12.8-19,15.8c-11.1,4.3-23.1,5.8-33.7,11.6
				c-3.4,1.8-0.4,7,3,5.2c9.7-5.3,20.9-6.8,31.2-10.6c9-3.3,18-8.6,22.8-17.2c4.8-8.6,3.9-18.9-1.1-27.2
				c-5.2-8.7-13.7-14.7-23.3-17.6c-12.4-3.7-25.7-2.7-38.5-1.7c-1.7,0.1-3,1.3-3,3c-0.5,18.3,1.3,36.7,5.3,54.6c1.1,5,2.5,10,3.9,15
				C1596.5,1038.5,1602.3,1037,1601.2,1033.3L1601.2,1033.3z"/>
		</g>
	</g>
	<g class="st2">
		<g>
			<path d="M660.6,85.3c3.3-6,9-10.3,15.4-12.4c3.7-1.2,6.6-1.7,10.2-1.8c0.9,0,1.8,0,2.7,0.1c0.4,0,0.8,0.1,1.2,0.1
				c0.2,0,0.4,0,0.6,0.1c0.7,0.1-0.2-0.1,0.4,0.1c1.8,0.3,3.5,0.7,5.2,1.3c3.5,1.1,6.9,3.2,9.6,5.8c2.8,2.7,7-1.5,4.2-4.2
				c-11.9-11.6-32.2-11.9-45.4-2.4c-3.8,2.8-7.1,6.2-9.4,10.4C653.6,85.6,658.8,88.6,660.6,85.3L660.6,85.3z"/>
		</g>
	</g>
	<g class="st2">
		<g>
			<path d="M1183.6,157.1c15.7,3.3,32.6,0.2,46.2-8.4c3.9-2.5,7.5-5.4,10.7-8.7c2.7-2.8-1.5-7-4.2-4.2
				c-10.2,10.4-24.5,16.4-38.9,16.7c-4.2,0.1-8.2-0.3-12.2-1.1c-1.6-0.3-3.2,0.5-3.7,2.1C1181.1,154.9,1182.1,156.8,1183.6,157.1
				L1183.6,157.1z"/>
		</g>
	</g>
	<g class="st2">
		<g>
			<path d="M752.3,288.6c1.1-7.1,4.5-13,9.7-17.9c2.5-2.3,5.4-4.2,8.7-5.8c1.4-0.7,2.8-1.2,4.5-1.7c0.8-0.3,1.7-0.5,2.5-0.7
				c0.4-0.1,0.9-0.2,1.3-0.3c0.2,0,0.4-0.1,0.6-0.1c0,0,1-0.1,0.5-0.1c1.9-0.2,3.9-0.3,5.9-0.2c2,0.1,3.5,0.4,5.7,1
				c3.7,1.1,5.3-4.7,1.6-5.8c-15.9-4.5-33.5,3.5-42.1,17.2c-2.4,3.8-4.1,8.2-4.7,12.6c-0.2,1.6,0.4,3.2,2.1,3.7
				C750,291.1,752,290.2,752.3,288.6L752.3,288.6z"/>
		</g>
	</g>
	<g class="st2">
		<g>
			<path d="M1290.5,351.1c12.5,1,25.4-4.9,33.2-14.7c2.4-3,4.2-6.2,5.6-9.7c0.6-1.5-0.7-3.3-2.1-3.7c-1.7-0.5-3.1,0.6-3.7,2.1
				c-5.2,12.8-19.3,21.1-33,19.9c-1.6-0.1-3,1.5-3,3C1287.5,349.8,1288.9,351,1290.5,351.1L1290.5,351.1z"/>
		</g>
	</g>
	<g class="st2">
		<g>
			<path d="M912.6,548.1c-4.8-7.2-15.8-5.8-20.9,0.4c-6.6,8-4.8,19.9-4.6,29.5c0.3,11.5,0.7,23,1,34.5c0.2,5.5,0.2,11.1,0.5,16.6
				c0.3,4.7,0.9,9.6,3.3,13.8c2.4,4.3,6.5,6.9,11.4,7.3c4.2,0.4,8.9-1.5,10.7-5.5c0.7-1.5,0.4-3.2-1.1-4.1c-1.3-0.8-3.4-0.4-4.1,1.1
				c-0.2,0.3-0.3,0.7-0.5,1c-0.1,0.1-0.4,0.4,0,0c-0.1,0.1-0.2,0.2-0.3,0.3c-0.1,0.1-0.7,0.6-0.3,0.3c-0.3,0.2-0.7,0.4-1,0.6
				c-0.4,0.2,0.4-0.1,0,0c-0.2,0.1-0.3,0.1-0.5,0.2c-0.3,0.1-0.6,0.2-0.9,0.2c0.6-0.1-0.5,0-0.6,0c-0.4,0-0.8,0-1.1,0
				c-0.6,0-0.2,0-0.1,0c-0.2,0-0.4-0.1-0.6-0.1c-0.3-0.1-0.7-0.2-1-0.3c-1-0.3-0.8-0.2-1.7-0.7c-0.8-0.5-0.7-0.4-1.4-1
				c-0.6-0.6-1.1-1.2-1.5-1.9c-2-3.3-2.4-7.2-2.7-10.9c-0.3-4.9-0.3-9.7-0.5-14.6c-0.3-10.3-0.6-20.5-0.9-30.8
				c-0.2-5-0.3-10.1-0.5-15.1c-0.1-4-0.1-8.1,1.1-12c0.3-1,0.7-2,1.2-2.9c0.6-1,0.7-1.3,1.5-2c0.7-0.7,0.8-0.8,1.7-1.3
				c0.9-0.6,1.2-0.7,2.1-1c0.4-0.1,0.8-0.2,1.2-0.3c0.2,0,0.4-0.1,0.6-0.1c-0.4,0.1,0.1,0,0.2,0c0.4,0,0.9,0,1.3,0
				c0.1,0,0.3,0,0.4,0c0.3,0-0.3-0.1,0.2,0c0.4,0.1,0.8,0.2,1.2,0.3c0.5,0.2-0.4-0.2,0.1,0c0.2,0.1,0.4,0.2,0.6,0.3
				c0.4,0.3,0.9,0.8,1.2,1.1c0.9,1.3,2.6,1.9,4.1,1.1C912.9,551.4,913.5,549.4,912.6,548.1L912.6,548.1z"/>
		</g>
	</g>
	<g class="st2">
		<g>
			<path d="M1772.5,533.7c0.4-0.5,0.7-0.9,1.2-1.3c0.7-0.6-0.5,0.3,0.3-0.2c0.2-0.1,0.5-0.3,0.7-0.4c0.7-0.4-0.5,0.1,0.3-0.1
				c0.3-0.1,0.5-0.2,0.8-0.2c0.3-0.1,0.5-0.1,0.8-0.2c-0.7,0.1,0.4,0,0.6,0c0.3,0,0.6,0,0.8,0c0,0,0.9,0.1,0.5,0
				c-0.4,0,0.5,0.1,0.5,0.1c0.3,0.1,0.6,0.1,0.9,0.2c1.4,0.4,1.9,0.6,3.1,1.3c1.8,1.1,3.3,2.5,4.3,4.5c1.4,2.7,1.8,6,1.8,9
				c0,3.6-0.6,7.1-1.1,10.6c-0.6,3.8-1.2,7.7-1.7,11.5c-0.9,7.7-1.3,15.5-1.2,23.2c0.1,9,1,18,2.5,26.8c1-1.3,1.9-2.5,2.9-3.8
				c-7.3,0.1-14.5,0.2-21.8,0.3c-3.9,0.1-3.9,6.1,0,6c7.3-0.1,14.5-0.2,21.8-0.3c2.1,0,3.2-1.9,2.9-3.8c-2.7-16.4-3-33.2-0.9-49.6
				c1.6-12.8,7.6-31.5-6.5-39.6c-5.4-3.1-13.2-3.6-17.5,1.8c-1,1.3-1.2,3,0,4.2C1769.3,534.7,1771.5,534.9,1772.5,533.7
				L1772.5,533.7z"/>
		</g>
	</g>
	<g class="st2">
		<g>
			<path d="M1576.5,825c10.7,0,21.3,0,32,0c3.9,0,3.9-6,0-6c-10.7,0-21.3,0-32,0C1572.6,819,1572.6,825,1576.5,825L1576.5,825z"/>
		</g>
	</g>
	<g class="st2">
		<g>
			<path d="M978.5,839c9.3,0,18.7,0,28,0c3.9,0,3.9-6,0-6c-9.3,0-18.7,0-28,0C974.6,833,974.6,839,978.5,839L978.5,839z"/>
		</g>
	</g>
	<g class="st2">
		<g>
			<g>
				<path d="M142.2,183.5c2.6,24.8,2.8,49.9,0.8,74.8c-0.6,6.9-1.3,13.8-2.3,20.6c-0.2,1.6,0.4,3.2,2.1,3.7c1.4,0.4,3.5-0.5,3.7-2.1
					c3.4-25,4.6-50.3,3.4-75.5c-0.4-7.2-0.9-14.3-1.7-21.5c-0.2-1.6-1.3-3-3-3C143.7,180.5,142,181.9,142.2,183.5L142.2,183.5z"/>
			</g>
		</g>
		<g>
			<g>
				<path d="M181.6,177.1c5.5,24.3,8.2,49.2,8.2,74.1c0,7.1-0.2,14.2-0.7,21.3c-0.1,1.6,1.5,3,3,3c1.7,0,2.9-1.4,3-3
					c1.6-25.4,0.4-51-3.7-76.1c-1.1-7-2.5-14-4-20.9c-0.4-1.6-2.2-2.5-3.7-2.1C182.1,173.9,181.3,175.6,181.6,177.1L181.6,177.1z"/>
			</g>
		</g>
		<g>
			<g>
				<path d="M223.6,176.8c7,21.7,10.3,44.5,9.5,67.3c-0.2,6.5-0.8,13.1-1.6,19.5c-0.2,1.6,1.5,3,3,3c1.8,0,2.8-1.4,3-3
					c3.1-23.1,2.1-46.7-2.9-69.5c-1.4-6.4-3.1-12.7-5.1-18.9c-0.5-1.5-2.1-2.5-3.7-2.1C224.2,173.5,223.1,175.3,223.6,176.8
					L223.6,176.8z"/>
			</g>
		</g>
		<g>
			<g>
				<path d="M146.7,315.2c1,19.4,2.1,38.9,3.1,58.3c0.3,5.5,0.6,11,0.9,16.5c0.1,1.6,1.3,3,3,3c1.6,0,3.1-1.4,3-3
					c-1-19.4-2.1-38.9-3.1-58.3c-0.3-5.5-0.6-11-0.9-16.5c-0.1-1.6-1.3-3-3-3C148.1,312.2,146.6,313.6,146.7,315.2L146.7,315.2z"/>
			</g>
		</g>
		<g>
			<g>
				<path d="M190.4,308.2c2.8,21.3,5.6,42.6,8.3,63.9c0.8,6,1.6,12,2.3,18c0.2,1.6,1.2,3,3,3c1.5,0,3.2-1.4,3-3
					c-2.8-21.3-5.6-42.6-8.3-63.9c-0.8-6-1.6-12-2.3-18c-0.2-1.6-1.2-3-3-3C192,305.2,190.2,306.5,190.4,308.2L190.4,308.2z"/>
			</g>
		</g>
		<g>
			<g>
				<path d="M226.8,299.9c4.1,22.2,8.2,44.4,12.3,66.6c1.2,6.3,2.3,12.6,3.5,18.9c0.3,1.6,2.2,2.5,3.7,2.1c1.7-0.5,2.4-2.1,2.1-3.7
					c-4.1-22.2-8.2-44.4-12.3-66.6c-1.2-6.3-2.3-12.6-3.5-18.9c-0.3-1.6-2.2-2.5-3.7-2.1C227.2,296.7,226.5,298.3,226.8,299.9
					L226.8,299.9z"/>
			</g>
		</g>
		<g>
			<g>
				<path d="M144.2,184.2c15.7-5.6,17.3-24.1,25.8-35.9c1.9-2.6,4.3-5,7.2-6.5c1.1-0.6,2.9-1.1,4.4-1.3c2.2-0.2,4.4,0.1,6.6,0.8
					c7.4,2.2,13.7,7.3,18.8,13c5.9,6.7,10.4,14.5,14.8,22.2c1.9,3.4,7.1,0.3,5.2-3c-8-14.1-17.2-29.6-32.7-36.3
					c-4.7-2.1-9.7-3.3-14.9-2.3c-3.8,0.7-7.4,2.7-10.2,5.4c-5.8,5.4-9,13-12,19.9c-1.7,3.9-3.6,7.9-6.1,11.4c-2.1,3-5.2,5.7-8.6,6.9
					c-1.5,0.5-2.5,2-2.1,3.7C140.9,183.6,142.6,184.7,144.2,184.2L144.2,184.2z"/>
			</g>
		</g>
		<g>
			<g>
				<path d="M150.5,393c5.8,9.4,11.5,18.9,17.3,28.3c2.9,4.7,5.7,9.4,8.6,14.1c2.4,4,4.7,8.6,8.3,11.7c3.5,3,8,4.3,12.5,3.1
					c4.2-1.2,7.8-4.1,10.7-7.3c3.3-3.6,5.8-7.8,8.4-11.9c3-4.6,5.9-9.2,8.9-13.8c6.8-10.4,13.5-20.8,20.3-31.3
					c0.9-1.4,0.3-3.3-1.1-4.1c-1.5-0.9-3.2-0.3-4.1,1.1c-5.7,8.8-11.3,17.5-17,26.3c-2.9,4.4-5.8,8.9-8.6,13.3
					c-2.7,4.2-5.3,8.4-8.2,12.5c-2.2,3.1-4.8,6.1-8.1,8.1c-2.9,1.7-5.8,2.2-8.8,0.3c-3.2-2.1-5.2-6.4-7.1-9.6
					c-2.8-4.5-5.5-9.1-8.3-13.6c-6.1-10.1-12.3-20.2-18.4-30.2C153.6,386.7,148.5,389.7,150.5,393L150.5,393z"/>
			</g>
		</g>
		<g>
			<g>
				<path d="M190.1,276.8c10.7,7.7,21.4,15.4,32.1,23.1c1.3,0.9,3.3,0.2,4.1-1.1c0.9-1.5,0.2-3.2-1.1-4.1
					c-10.7-7.7-21.4-15.4-32.1-23.1c-1.3-0.9-3.3-0.2-4.1,1.1C188.2,274.2,188.8,275.8,190.1,276.8L190.1,276.8z"/>
			</g>
		</g>
		<g>
			<g>
				<path d="M137.8,283.6c11.7,9.8,24.9,17.7,39.2,23.3c3.9,1.6,8,2.9,12,4.1c3.7,1.1,5.3-4.7,1.6-5.8c-13.9-4.1-27-10.4-38.9-18.6
					c-3.3-2.3-6.6-4.8-9.7-7.4c-1.2-1-3-1.2-4.2,0C136.7,280.4,136.5,282.5,137.8,283.6L137.8,283.6z"/>
			</g>
		</g>
		<g>
			<g>
				<path d="M232.5,260.6c-13.1,1.2-26.1,2.4-39.2,3.6c-1.6,0.1-3,1.3-3,3c0,1.5,1.4,3.1,3,3c13.1-1.2,26.1-2.4,39.2-3.6
					c1.6-0.1,3-1.3,3-3C235.5,262.1,234.1,260.5,232.5,260.6L232.5,260.6z"/>
			</g>
		</g>
		<g>
			<g>
				<path d="M148.2,319.8c13.6-3.5,27.6-4.7,41.6-3.8c1.6,0.1,3-1.5,3-3c0-1.7-1.4-2.9-3-3c-14.5-1-29.1,0.4-43.2,4
					C142.9,315,144.5,320.7,148.2,319.8L148.2,319.8z"/>
			</g>
		</g>
	</g>
</g>
</svg>
