<?xml version="1.0" encoding="utf-8"?>
<!-- Generator: Adobe Illustrator 27.9.4, SVG Export Plug-In . SVG Version: 9.03 Build 54784)  -->
<svg version="1.1" id="Calque_1" xmlns="http://www.w3.org/2000/svg" xmlns:xlink="http://www.w3.org/1999/xlink" x="0px" y="0px"
	 viewBox="0 0 583 557.1" style="enable-background:new 0 0 583 557.1;" xml:space="preserve">
<style type="text/css">
	.st0{fill:#FFFFFF;}
	.st1{fill:none;stroke:#000000;stroke-width:3.4588;stroke-miterlimit:10;}
</style>
<g>
	<path d="M583,191.1H276.8c-0.1-0.2-0.2-0.5-0.5-0.8c-20.3-19.8-49.5-22.6-75.5-22.6c-0.1-0.2-0.2-0.5-0.4-1c-0.8-1-1.6-1.9-2.3-2.6
		c10.6-16.2,21.4-32.5,33.2-49.7c12.1-17.7,24.5-35.1,35-49.8c3.2-4.5,6.6-9.2,10-13.7c0.6-0.8,1.2-1.7,1.9-2.5
		c1-1.4,2.1-2.9,3.1-4.3c0.3-0.4,0.6-0.8,0.9-1.2c1.2-1.6,2.4-3.2,3.3-5c3.8-0.4,7.1-2.5,8.8-5.5c2-3.4,2-7.7,0-10.9
		c0-0.1-0.1-0.1-0.1-0.2c0-0.1,0-0.1-0.1-0.2l-0.1-0.2c-2.2-3-5.9-4.4-9.9-3.7c-4.4,0.8-8,3.8-9.2,7.8c-0.1,0.1-0.1,0.2-0.1,0.3
		c-0.7,2.9-0.2,5.8,1.5,8.2c-12.3,12.4-22.5,27-32.3,41.1l-2.2,3.2c-6,8.5-12,17.1-18,25.6c-6,8.5-12,17.1-18,25.6l-19.8,28
		c-0.9-0.2-2.1-0.5-3.3-0.8c-3.5-0.7-7.1-0.6-10.8,0.1c-9.8-19.4-17.6-39.5-23.3-54.9c-2-5.4-4-10.8-5.9-16.1
		c-4.8-13.2-9.8-26.9-15.3-40.2c-4.7-11.5-9-20.9-13.4-29.8c2.5-3.3,2.8-7.4,1-10.9c-1.3-2.5-3.8-4.2-6.9-4.7
		c-2.9-0.3-6,0.7-8.3,2.6c-2,1.8-3.1,4.2-3.1,6.8c0,4.3,2.9,8,7,9.3c6.1,19.4,12.5,38.6,19.2,56.9c7,19,14.4,38,22.2,56.3
		c4.5,10.8,9.4,21.6,13.6,31c-1.8,1.6-3.4,3.2-4.7,5c-0.2,0.4-0.2,0.7-0.2,1.1c-15.3,1-28.6,2.8-40.9,5.4c-8.4,1.8-16,4-23.2,6.5
		c-3.7,1.3-11.4,4-12.3,10.2H0v353h7.9l5.3,13h0.3h0.4h2.5h73h3.3h8.7h3.3h8.7h3.3h8.7h3.3h8.7h3.3h8.7h3.3h8.7h3.3h8.7h3.3h8.7h3.3
		h8.7h3.3h364.4h2.4h0.4h0.4l5.9-13h8.8V191.1z M354.8,247.1l11.3,1.6l0.2,0c17.2,0,31.2,14,31.2,31.2l0,0.2c8,60.3,8,121.3,0,181.5
		l0,0.2c0,17.2-14,31.2-31.3,31.2l-11.4,1.6c-87.3,12.2-175.6,11.7-262.5-1.6l-0.2,0c-17.2,0-31.2-14-31.2-31.2l0-0.2
		c-8-60.2-8-121.2,0-181.5l0-0.2c0-17.2,14-31.2,31.2-31.2l0.2,0C179.3,235.4,267.6,234.8,354.8,247.1z"/>
	<g id="tv">
		<g>
			<path class="st0" d="M2.5,193.6v348h578v-348L2.5,193.6L2.5,193.6z M398,461.6v0.1c0,17.5-14.2,31.7-31.7,31.7l-11.4,1.6
				c-87.2,12.2-175.6,11.7-262.6-1.6h-0.1c-17.5,0-31.7-14.2-31.7-31.7v-0.1c-8-60.2-8-121.3,0-181.6v-0.1
				c0-17.5,14.2-31.7,31.7-31.7h0.1c87.1-13.3,175.4-13.8,262.6-1.6l11.3,1.6h0.1c17.5,0,31.7,14.2,31.7,31.7v0.1
				C406,340.3,406,401.4,398,461.6z"/>
			<path d="M581,542.1H2v-349h579V542.1z M3,541.1h577v-347H3V541.1z M228.9,504.2c-45.7,0-91.4-3.5-136.7-10.4c0,0,0,0,0,0
				c-17.8,0-32.2-14.4-32.2-32.2c-8-60.3-8-121.4,0-181.8c0-17.8,14.4-32.2,32.2-32.2c87-13.3,175.4-13.8,262.8-1.6l11.3,1.6
				c0,0,0,0,0,0c17.8,0,32.2,14.4,32.2,32.2c8,60.4,8,121.5,0,181.7v0.1c0,17.8-14.4,32.2-32.2,32.2l-11.3,1.6
				C313.1,501.3,271,504.2,228.9,504.2z M92.2,248.7c-17.2,0-31.2,14-31.2,31.2l0,0.2c-8,60.3-8,121.3,0,181.5l0,0.2
				c0,17.2,14,31.2,31.2,31.2l0.2,0c86.8,13.3,175.1,13.8,262.5,1.6l11.4-1.6c17.3,0,31.3-14,31.3-31.2l0-0.2
				c8-60.2,8-121.2,0-181.5l0-0.2c0-17.2-14-31.2-31.2-31.2l-0.2,0l-11.3-1.6c-87.3-12.2-175.6-11.7-262.5,1.6L92.2,248.7z"/>
		</g>
		<g>
			<polygon class="st0" points="573.1,541.6 567.2,556.6 14.3,556.6 8.9,541.6 			"/>
			<path d="M567.5,557.1H13.9l-5.8-16h565.6L567.5,557.1z M14.7,556.1h552.2l5.5-14H9.6L14.7,556.1z"/>
		</g>
		<g>
			<path d="M200.4,168.1c0,0.9-1.1,1.7-1.9,0.8c-0.2-0.3-0.5-0.6-0.7-0.8c-5.2-5.8-12.8-9.2-20.6-9.1c-7.9,0.1-15.6,4-20.5,10.1
				c-0.1,0.1-0.2,0.2-0.2,0.3c-0.6,0.8-1.7,0.5-2.1-0.2c-0.1-0.3-0.1-0.6,0.1-1c1.4-1.9,3.1-3.6,4.9-5.1c1.1-0.9,2.3-1.7,3.6-2.5
				c2.7-1.6,5.7-2.7,8.7-3.4c3.6-0.8,7.3-0.9,10.9-0.2c1.2,0.2,2.4,0.5,3.5,0.8c0.4,0.1,0.9,0.3,1.3,0.4c0.3,0.1,0.6,0.2,0.9,0.3
				c0.7,0.3,1.4,0.6,2.1,0.9c0.5,0.3,1,0.5,1.5,0.8c1.3,0.7,2.5,1.6,3.7,2.5c0.1,0.1,0.3,0.2,0.4,0.3c0.5,0.4,0.9,0.7,1.3,1.1
				c1,0.9,1.9,1.8,2.7,2.9C200.3,167.6,200.4,167.9,200.4,168.1z"/>
			<path d="M155.6,170.3c0,0-0.1,0-0.1,0c-0.6,0-1.2-0.4-1.5-0.9c-0.2-0.6-0.2-1,0.1-1.5c1.4-1.9,3-3.6,5-5.3c1-0.8,2.1-1.6,3.7-2.5
				c2.6-1.5,5.6-2.7,8.8-3.5c3.8-0.8,7.5-0.9,11.1-0.2c1.3,0.2,2.7,0.6,3.5,0.8c0.2,0,0.4,0.1,0.7,0.2c0.2,0.1,0.4,0.1,0.6,0.2
				l0.9,0.3l2.1,0.9c0.3,0.2,0.5,0.3,0.8,0.4c0.3,0.1,0.5,0.3,0.8,0.4c1.3,0.7,2.5,1.6,3.7,2.5c0.1,0.1,0.2,0.1,0.2,0.1
				c0.1,0.1,0.2,0.1,0.3,0.2l0.2,0.2c0.4,0.3,0.7,0.6,1.1,0.9c0.8,0.8,1.9,1.7,2.8,3c0.4,0.7,0.5,1.1,0.5,1.4c0,0.7-0.5,1.4-1.1,1.6
				c-0.6,0.2-1.2,0-1.7-0.5c-0.2-0.3-0.5-0.6-0.7-0.8c-5.1-5.7-12.7-9-20.2-9c-7.7,0.1-15.2,3.8-20.1,9.9c0,0-0.1,0.1-0.1,0.1v0.1
				l-0.1,0.1C156.6,170.1,156.1,170.3,155.6,170.3z M177.7,157c-1.9,0-3.9,0.2-5.9,0.7c-3.2,0.7-6.1,1.9-8.6,3.3
				c-1.5,0.9-2.6,1.7-3.5,2.5c-1.9,1.6-3.6,3.3-4.8,5c-0.1,0.2-0.1,0.4,0,0.5c0.1,0.1,0.4,0.3,0.6,0.3c0.2,0,0.4-0.1,0.5-0.2
				c0.1-0.2,0.2-0.3,0.3-0.4c5.1-6.3,12.9-10.1,20.8-10.2c7.8-0.1,15.7,3.4,21,9.3c0.2,0.2,0.5,0.5,0.7,0.9c0.1,0.2,0.3,0.2,0.5,0.1
				c0.3-0.1,0.5-0.4,0.5-0.7c0-0.1-0.1-0.3-0.3-0.9c-0.8-1.1-1.8-2-2.6-2.8c-0.3-0.3-0.7-0.6-1-0.9l-0.3-0.2
				c-0.1-0.1-0.1-0.1-0.2-0.1c-0.1-0.1-0.2-0.1-0.3-0.2c-1.1-0.8-2.3-1.7-3.6-2.4c-0.3-0.2-0.5-0.3-0.7-0.4
				c-0.3-0.1-0.5-0.3-0.8-0.4l-2-0.9l-0.9-0.3c-0.2,0-0.4-0.1-0.6-0.2c-0.2-0.1-0.4-0.1-0.6-0.2c-0.9-0.2-2.2-0.6-3.5-0.8
				C180.9,157.1,179.3,157,177.7,157z"/>
		</g>
		<g>
			<path class="st0" d="M169.2,157.4c-2.8,1.2-5.6,2.4-8.3,3.7c-12-26.3-23-53.1-33.1-80.2c-5.1-13.6-9.9-27.4-14.5-41.2
				c-2.3-6.9-4.5-13.8-6.7-20.8c-0.2-0.7-0.3-1.7-0.8-2.2c-0.4-0.5-1-0.5-1.6-0.7c-1.4-0.5-2.7-1.4-3.5-2.6
				c-1.1-1.6-1.6-3.8-1.1-5.6c1-3.5,4.9-5.5,8.4-5c1.9,0.3,3.5,1.4,4.4,3c1.7,2.9,1.1,6.4-1.2,8.7c-0.4,0.4-0.4,0.9-0.2,1.4
				c9.1,18,16.4,36.7,23.4,55.5s13.6,37.8,21.3,56.3C159.9,137.8,164.3,147.8,169.2,157.4z"/>
			<path d="M160.7,161.7l-0.2-0.5c-11.6-25.5-22.8-52.5-33.1-80.2c-4.6-12.4-9.4-25.9-14.5-41.2c-2.5-7.6-4.9-15.1-6.7-20.8
				c-0.1-0.2-0.1-0.4-0.1-0.6c-0.1-0.5-0.3-1.1-0.5-1.4c-0.2-0.3-0.5-0.3-0.9-0.4c-0.2,0-0.3-0.1-0.5-0.1c-1.6-0.6-2.9-1.6-3.8-2.8
				c-1.2-1.8-1.7-4.1-1.2-6c1-3.6,5-5.9,9-5.4c2.1,0.3,3.8,1.5,4.8,3.2c1.8,3,1.3,6.8-1.3,9.3c-0.1,0.1-0.3,0.4-0.1,0.9
				c8.6,17,15.6,34.5,23.4,55.5c1.9,5.1,3.7,10.1,5.6,15.2c5,13.5,10.1,27.5,15.7,41.1c5,12,9.3,21.4,13.5,29.7l0.2,0.5l-0.5,0.2
				c-2.7,1.2-5.6,2.4-8.3,3.7L160.7,161.7z M106.9,3.2c-3.1,0-6,2-6.8,4.7c-0.4,1.6,0,3.6,1,5.2c0.7,1,1.9,1.9,3.3,2.4
				c0.1,0,0.3,0.1,0.4,0.1c0.5,0.1,1,0.2,1.4,0.7c0.4,0.4,0.6,1.2,0.8,1.8c0,0.2,0.1,0.4,0.1,0.5c1.8,5.7,4.2,13.2,6.7,20.8
				c5.1,15.3,9.9,28.8,14.5,41.2c10.3,27.6,21.3,54.4,32.9,79.7c2.4-1.1,4.9-2.2,7.4-3.3c-4.2-8.2-8.4-17.5-13.3-29.3
				c-5.6-13.5-10.8-27.5-15.7-41.1c-1.9-5.1-3.7-10.2-5.6-15.2c-7.8-21-14.8-38.4-23.4-55.4c-0.3-0.8-0.2-1.5,0.3-2
				c2.2-2.2,2.7-5.5,1.1-8.1c-0.8-1.5-2.3-2.5-4-2.8C107.6,3.2,107.2,3.2,106.9,3.2z"/>
		</g>
		<g>
			<path d="M171.8,157.7c0-0.1,0-0.2-0.1-0.2c0,0,0,0,0-0.1c-9.1-17.9-16.6-36.6-23.6-55.5c-7-18.8-13.6-37.8-21.2-56.3
				c-4.2-10.2-8.6-20.2-13.5-30c2.4-3,3-7.1,1.1-10.6c-1.3-2.5-3.8-4-6.5-4.4C102.7,0,97.2,3.9,97.2,9.5c0,4.2,2.9,7.8,6.9,8.9
				c6,19.2,12.4,38.2,19.3,57.1c6.9,18.9,14.3,37.7,22.2,56.3c4.4,10.5,9.1,21,13.8,31.4c0,0.1,0.1,0.1,0.1,0.2
				c0.3,0.4,1,0.4,1.4,0.2c3.5-1.5,6.9-3,10.4-4.6C171.9,158.7,172,158.2,171.8,157.7z M127.8,80.9c-5.1-13.6-9.9-27.4-14.5-41.2
				c-2.3-6.9-4.5-13.8-6.7-20.8c-0.2-0.7-0.3-1.7-0.8-2.2c-0.4-0.5-1-0.5-1.6-0.7c-1.4-0.5-2.7-1.4-3.5-2.6
				c-1.1-1.6-1.6-3.8-1.1-5.6c1-3.5,4.9-5.5,8.4-5c1.9,0.3,3.5,1.4,4.4,3c1.7,2.9,1.1,6.4-1.2,8.7c-0.4,0.4-0.4,0.9-0.2,1.4
				c9.1,18,16.4,36.7,23.4,55.5c7,18.8,13.6,37.8,21.3,56.3c4.1,10,8.5,20,13.4,29.6c-2.8,1.2-5.6,2.4-8.3,3.7
				C148.9,134.8,137.8,108,127.8,80.9z"/>
			<path d="M160.3,164.2c-0.5,0-0.9-0.2-1.2-0.5l-0.1-0.2c0-0.1-0.1-0.1-0.1-0.2c-4.3-9.4-9.2-20.4-13.8-31.4
				c-7.8-18.3-15.3-37.3-22.2-56.3c-6.7-18.3-13.2-37.4-19.2-56.9c-4.1-1.3-7-5-7-9.3c0-2.6,1.1-5,3.1-6.8c2.2-2,5.3-3,8.3-2.6
				c3.1,0.5,5.6,2.2,6.9,4.7c1.9,3.5,1.5,7.6-1,10.9c4.4,8.8,8.6,18.3,13.4,29.8c5.4,13.2,10.4,26.9,15.3,40.2
				c2,5.4,3.9,10.8,5.9,16.1c5.8,15.6,13.6,35.9,23.6,55.4l0,0.1c0.1,0.1,0.1,0.2,0.1,0.3c0.3,0.8,0,1.5-0.8,1.8
				c-3.4,1.5-6.8,3.1-10.4,4.6C160.9,164.1,160.6,164.2,160.3,164.2z M159.9,163.1c0.2,0.1,0.5,0.1,0.7,0c3.7-1.6,7.1-3.1,10.4-4.6
				c0.3-0.1,0.3-0.3,0.3-0.5h-0.2v-0.5c-9.9-19.5-17.8-39.9-23.6-55.4c-2-5.4-4-10.8-5.9-16.2c-4.8-13.2-9.8-26.9-15.3-40.1
				c-4.8-11.6-9.1-21.1-13.5-30l-0.1-0.3l0.2-0.2c2.4-3,2.8-6.8,1.1-10c-1.2-2.2-3.4-3.7-6.1-4.1c-2.6-0.3-5.4,0.6-7.5,2.4
				c-1.8,1.6-2.8,3.7-2.8,6c0,3.9,2.7,7.4,6.5,8.4l0.3,0.1l0.1,0.3c6.1,19.5,12.6,38.7,19.3,57.1c6.9,19,14.4,38,22.2,56.3
				c4.6,10.9,9.5,21.9,13.8,31.4l0,0C159.9,163,159.9,163.1,159.9,163.1z M171.3,157.7h0.5H171.3
				C171.3,157.6,171.3,157.6,171.3,157.7z M160.6,161.6l-0.2-0.5c-12.2-26.8-23.3-53.8-33-80.1l0,0c-4.6-12.4-9.4-25.9-14.5-41.2
				c-2.5-7.6-4.9-15.1-6.7-20.8c-0.1-0.2-0.1-0.4-0.1-0.6c-0.1-0.5-0.3-1.1-0.5-1.4c-0.2-0.3-0.5-0.3-0.9-0.4
				c-0.2,0-0.3-0.1-0.5-0.1c-1.6-0.6-2.9-1.6-3.8-2.8c-1.2-1.8-1.7-4.1-1.2-6c1-3.6,5-5.9,9-5.4c2.1,0.3,3.8,1.5,4.8,3.2
				c1.8,3,1.3,6.8-1.3,9.3c-0.1,0.1-0.3,0.4-0.1,0.9c8.6,17,15.6,34.5,23.4,55.5c1.9,5.1,3.7,10.1,5.6,15.2
				c5,13.5,10.1,27.5,15.7,41.1c4.8,11.6,9,21,13.4,29.6l0.2,0.5l-0.5,0.2c-2.7,1.2-5.6,2.4-8.3,3.7L160.6,161.6z M106.9,3.2
				c-3.1,0-6,2-6.8,4.7c-0.4,1.6,0,3.6,1,5.2c0.7,1,1.9,1.9,3.3,2.4c0.1,0,0.3,0.1,0.4,0.1c0.5,0.1,1,0.2,1.4,0.7
				c0.4,0.4,0.6,1.2,0.8,1.8c0,0.2,0.1,0.4,0.1,0.5c1.8,5.7,4.2,13.2,6.7,20.8c5.1,15.3,9.9,28.8,14.5,41.2l0,0
				c9.7,26.2,20.7,53,32.8,79.6c2.4-1.2,4.9-2.2,7.4-3.3c-4.3-8.5-8.5-17.8-13.2-29.2c-5.6-13.5-10.8-27.5-15.7-41.1
				c-1.9-5.1-3.7-10.2-5.6-15.2c-7.8-21-14.8-38.4-23.4-55.4c-0.3-0.8-0.2-1.5,0.3-2c2.2-2.2,2.7-5.5,1.1-8.1
				c-0.8-1.5-2.3-2.5-4-2.8C107.6,3.2,107.2,3.2,106.9,3.2z"/>
		</g>
		<g>
			<path class="st0" d="M292,31.2c-1.5,2.7-4.4,4.1-7.4,4.2c-0.4,0-0.8,0.2-1,0.6c-1,2.2-2.5,4.1-3.9,6.1c-1.5,2-3,4-4.4,6.1
				c-3,4.1-6,8.2-9,12.4c-5.9,8.1-11.7,16.3-17.5,24.5c-11.7,16.6-23.2,33.3-34.5,50.2c-6.2,9.2-12.2,18.4-18.3,27.6
				c-1.3-0.7-2.6-1.4-4-2.1c-0.5-0.3-1-0.5-1.5-0.8c-0.7-0.3-1.3-0.7-2-1.1c11.7-16.7,23.5-33.4,35.2-50.1
				c11.5-16.6,22.8-33.3,34.8-49.4c6.4-8.7,13.2-17.1,20.8-24.7c0.4-0.5,0.4-1.1,0-1.6c-1.7-1.9-2.4-4.5-1.8-6.9
				c1.7-5.7,10.5-8.8,14.3-3.4C293.5,25.3,293.5,28.6,292,31.2z"/>
			<path d="M196.2,163.5l-0.4-0.2c-1.3-0.7-2.6-1.4-4-2.1c-0.3-0.2-0.5-0.3-0.8-0.4c-0.3-0.1-0.5-0.3-0.8-0.4
				c-0.5-0.2-1-0.5-1.4-0.8c-0.2-0.1-0.4-0.2-0.5-0.3l-0.5-0.3l0.3-0.4c5.9-8.4,11.8-16.8,17.7-25.1c5.9-8.3,11.7-16.6,17.5-25
				c2.2-3.2,4.5-6.5,6.7-9.7c9.1-13.2,18.4-26.8,28.1-39.7c7.4-10.1,14-17.9,20.8-24.8c0.2-0.3,0.2-0.6,0-0.9
				c-1.8-2-2.5-4.8-1.9-7.3c1-3.2,4.2-5.9,7.8-6.5c3.1-0.5,5.8,0.6,7.4,2.9c1.8,2.6,1.9,6.1,0.2,8.9c-1.5,2.7-4.4,4.3-7.8,4.5
				c-0.3,0-0.5,0.1-0.6,0.3c-0.8,1.8-2,3.4-3.1,5c-0.3,0.4-0.5,0.8-0.8,1.1c-1.5,2-3,4-4.4,6.1c-3,4-6,8.2-9,12.4
				c-5.9,8.1-11.8,16.4-17.4,24.4c-12.3,17.4-23.6,33.9-34.5,50.3c-4.1,6.1-8.2,12.4-12.2,18.4c-2,3.1-4,6.1-6.1,9.2L196.2,163.5z
				 M189.2,158.7C189.2,158.7,189.3,158.7,189.2,158.7c0.6,0.3,1,0.6,1.5,0.8c0.3,0.2,0.5,0.3,0.8,0.4c0.3,0.1,0.5,0.3,0.8,0.4
				c1.2,0.6,2.4,1.3,3.6,1.9c1.9-2.9,3.9-5.9,5.8-8.8c4-6,8.1-12.3,12.2-18.4c11-16.4,22.3-32.8,34.5-50.2
				c5.7-8.1,11.6-16.4,17.5-24.5c3-4.2,6.1-8.4,9-12.4c1.4-2.1,2.9-4.1,4.4-6.1c0.3-0.4,0.5-0.8,0.8-1.1c1.2-1.6,2.2-3.1,3-4.9
				c0.3-0.6,0.8-0.9,1.5-0.9c3-0.1,5.6-1.6,7-3.9l0,0c1.4-2.5,1.4-5.6-0.2-7.9c-1.4-2-3.8-2.9-6.4-2.5c-3.3,0.5-6.1,2.9-7,5.7
				c-0.6,2.2,0.1,4.6,1.7,6.4c0.6,0.7,0.6,1.6,0,2.2c-6.8,6.8-13.4,14.6-20.8,24.7c-9.7,13-19,26.6-28.1,39.7
				c-2.2,3.2-4.5,6.5-6.7,9.7c-5.8,8.3-11.7,16.6-17.5,25C200.8,142.2,195,150.5,189.2,158.7z"/>
		</g>
		<g>
			<path d="M293.9,21.8L293.9,21.8c0-0.1-0.1-0.1-0.1-0.2s-0.1-0.1-0.1-0.2c-5-6.7-15.9-3.6-18.2,4c0,0.1-0.1,0.1-0.1,0.2
				c-0.7,2.9-0.1,5.8,1.6,8.2c-13.3,13.4-24,29.1-34.8,44.5c-12,17.1-24,34.1-36,51.2c-6.7,9.5-13.4,19-20.1,28.5
				c-0.1,0.2-0.2,0.3-0.3,0.5c-0.3,0.5-0.1,1.3,0.4,1.5c3.2,1.7,6.3,3.3,9.5,5c0.6,0.3,1.2,0.1,1.5-0.4c0-0.1,0.1-0.1,0.1-0.2
				c11-16.9,22.2-33.6,33.6-50.2c11.5-16.8,23.2-33.3,35-49.8c3.3-4.6,6.6-9.2,10-13.7c1.7-2.3,3.3-4.6,5-6.8c1.5-2,3.2-4,4.3-6.3
				c3.5-0.3,6.9-2.1,8.7-5.3C295.8,29.1,295.9,25,293.9,21.8z M292,31.2c-1.5,2.7-4.4,4.1-7.4,4.2c-0.4,0-0.8,0.2-1,0.6
				c-1,2.2-2.5,4.1-3.9,6.1c-1.5,2-3,4-4.4,6.1c-3,4.1-6,8.2-9,12.4c-5.9,8.1-11.7,16.3-17.5,24.5c-11.7,16.6-23.2,33.3-34.5,50.2
				c-6.2,9.2-12.2,18.4-18.3,27.6c-1.3-0.7-2.6-1.4-4-2.1c-0.5-0.3-1-0.5-1.5-0.8c-0.7-0.3-1.3-0.7-2-1.1
				c11.7-16.7,23.5-33.4,35.2-50.1c11.5-16.6,22.8-33.3,34.8-49.4c6.4-8.7,13.2-17.1,20.8-24.7c0.4-0.5,0.4-1.1,0-1.6
				c-1.7-1.9-2.4-4.5-1.8-6.9c1.7-5.7,10.5-8.8,14.3-3.4C293.5,25.3,293.5,28.6,292,31.2z"/>
			<path d="M196.3,165.6c-0.3,0-0.5-0.1-0.8-0.2c-1.6-0.8-3.1-1.7-4.7-2.5c-1.6-0.8-3.2-1.7-4.8-2.5c-0.3-0.1-0.6-0.4-0.7-0.8
				c-0.2-0.5-0.1-1,0.1-1.4c0-0.1,0.1-0.2,0.2-0.3c0-0.1,0.1-0.1,0.1-0.2l20.1-28.6c6-8.5,12-17.1,18-25.6c6-8.5,12-17,18-25.6
				l2.2-3.2c9.9-14.1,20.1-28.7,32.3-41.1c-1.6-2.5-2.1-5.4-1.5-8.2c0-0.1,0.1-0.2,0.1-0.3c1.2-4,4.8-7.1,9.2-7.8
				c3.9-0.7,7.6,0.7,9.9,3.7l0.1,0.2c0,0,0.1,0.1,0.1,0.2c0,0,0.1,0.1,0.1,0.2c2,3.3,2,7.5,0,10.9c-1.7,3.1-5,5.1-8.8,5.5
				c-0.9,1.8-2.1,3.4-3.3,5c-0.3,0.4-0.6,0.8-0.9,1.2c-1.1,1.4-2.1,2.8-3.1,4.3c-0.6,0.8-1.2,1.7-1.9,2.5c-3.4,4.5-6.7,9.1-10,13.7
				c-10.5,14.7-22.9,32.2-35,49.8c-11.9,17.4-22.9,33.8-33.5,50.1c0,0.1,0,0.1-0.1,0.1v0l-0.1,0.1
				C197.3,165.3,196.8,165.6,196.3,165.6z M275.9,25.7c-0.6,2.7-0.1,5.4,1.5,7.7l0.2,0.3l-0.3,0.3c-12.4,12.5-22.6,27.1-32.5,41.3
				l-2.2,3.2c-6,8.5-12,17.1-18,25.6c-6,8.5-12,17-18,25.6l-20.1,28.5c0,0.1-0.1,0.1-0.1,0.2c0,0.1-0.1,0.1-0.1,0.2
				c-0.1,0.2-0.1,0.4,0,0.6c0,0.1,0.1,0.2,0.2,0.2c1.7,0.9,3.3,1.7,4.9,2.6c1.6,0.8,3.1,1.6,4.7,2.5c0.3,0.2,0.6,0.1,0.8-0.2
				c0-0.1,0-0.1,0.1-0.1v0l0.1-0.1c10.7-16.4,21.7-32.8,33.6-50.2c12.1-17.7,24.5-35.1,35-49.8c3.3-4.6,6.6-9.2,10-13.7
				c0.6-0.8,1.2-1.7,1.8-2.5c1-1.4,2.1-2.9,3.2-4.3c0.3-0.4,0.6-0.8,0.9-1.2c1.2-1.6,2.5-3.2,3.4-5l0.1-0.3l0.3,0
				c3.6-0.3,6.7-2.2,8.3-5c1.9-3.1,1.9-7,0-10l-0.1-0.1c0,0-0.1-0.1-0.1-0.2c0,0-0.1-0.1-0.1-0.1c-2.1-2.7-5.3-3.9-8.8-3.2
				c-4,0.7-7.3,3.5-8.4,7.1C276,25.6,275.9,25.7,275.9,25.7z M196.2,163.5l-0.4-0.2c-1.3-0.7-2.6-1.4-4-2.1
				c-0.3-0.2-0.5-0.3-0.8-0.4c-0.3-0.1-0.5-0.3-0.8-0.4c-0.5-0.2-1-0.5-1.4-0.8c-0.2-0.1-0.4-0.2-0.5-0.3l-0.5-0.3l0.3-0.4
				c5.9-8.4,11.8-16.8,17.7-25.1c5.9-8.3,11.7-16.6,17.5-25c2.2-3.2,4.5-6.5,6.7-9.7c9.1-13.2,18.4-26.8,28.1-39.7
				c7.4-10.1,14-17.9,20.8-24.8c0.2-0.3,0.2-0.6,0-0.9c-1.8-2-2.5-4.8-1.9-7.3c1-3.2,4.2-5.9,7.8-6.5c3.1-0.5,5.8,0.6,7.4,2.9
				c1.8,2.6,1.9,6.1,0.2,8.9c-1.5,2.7-4.4,4.3-7.8,4.5c-0.3,0-0.5,0.1-0.6,0.3c-0.8,1.8-2,3.4-3.1,5c-0.3,0.4-0.5,0.8-0.8,1.1
				c-1.5,2-3,4-4.4,6.1c-3,4-6,8.2-9,12.4c-5.9,8.1-11.8,16.4-17.4,24.4c-12.3,17.4-23.6,33.9-34.5,50.3
				c-4.1,6.1-8.2,12.4-12.2,18.4c-2,3.1-4,6.1-6.1,9.2L196.2,163.5z M189.2,158.7C189.2,158.7,189.3,158.7,189.2,158.7
				c0.6,0.3,1,0.6,1.5,0.8c0.3,0.2,0.5,0.3,0.8,0.4c0.3,0.1,0.5,0.3,0.8,0.4c1.2,0.6,2.4,1.3,3.6,1.9c1.9-2.9,3.9-5.9,5.8-8.8
				c4-6,8.1-12.3,12.2-18.4c11-16.4,22.3-32.8,34.5-50.2c5.7-8.1,11.6-16.4,17.5-24.5c3-4.2,6.1-8.4,9-12.4c1.4-2.1,2.9-4.1,4.4-6.1
				c0.3-0.4,0.5-0.8,0.8-1.1c1.2-1.6,2.2-3.1,3-4.9c0.3-0.6,0.8-0.9,1.5-0.9c3-0.1,5.6-1.6,7-3.9l0,0c1.4-2.5,1.4-5.6-0.2-7.9
				c-1.4-2-3.8-2.9-6.4-2.5c-3.3,0.5-6.1,2.9-7,5.7c-0.6,2.2,0.1,4.6,1.7,6.4c0.6,0.7,0.6,1.6,0,2.2c-6.8,6.8-13.4,14.6-20.8,24.7
				c-9.7,13-19,26.6-28.1,39.7c-2.2,3.2-4.5,6.5-6.7,9.7c-5.8,8.3-11.7,16.6-17.5,25C200.8,142.2,195,150.5,189.2,158.7z"/>
		</g>
		<g>
			<path d="M0.5,191.6v352h582v-352L0.5,191.6L0.5,191.6z M580.5,541.6H2.5v-348h578V541.6z"/>
			<path d="M583,544.1H0v-353h583V544.1z M1,543.1h581v-351H1V543.1z M581,542.1H2v-349h579V542.1z M3,541.1h577v-347H3V541.1z"/>
		</g>
		<g>
			<path d="M415.2,514.3H31.8v-292h383.3v292H415.2z M33.8,512.3h379.3v-288H33.8V512.3z"/>
			<path d="M415.2,514.8H31.3v-293h384.3v292.5h-0.4V514.8z M32.3,513.8h382.3v-291H32.3V513.8z M413.6,512.8H33.3v-289h380.3V512.8
				z M34.3,511.8h378.3v-287H34.3V511.8z"/>
		</g>
		<g>
			<path d="M557.2,514.3H427.8V403.6h129.3v110.7H557.2z M429.8,512.3h125.3V405.6H429.8V512.3z"/>
			<path d="M557.2,514.8H427.3V403.1h130.3v111.2h-0.4V514.8z M428.3,513.8h128.3V404.1H428.3V513.8z M555.6,512.8H429.3V405.1
				h126.3V512.8z M430.3,511.8h124.3V406.1H430.3V511.8z"/>
		</g>
		<g>
			<path d="M557.2,390.3H427.8v-168h129.3v168H557.2z M429.8,388.3h125.3v-164H429.8V388.3z"/>
			<path d="M557.2,390.8H427.3v-169h130.3v168.5h-0.4V390.8z M428.3,389.8h128.3v-167H428.3V389.8z M555.6,388.8H429.3v-165h126.3
				V388.8z M430.3,387.8h124.3v-163H430.3V387.8z"/>
		</g>
		<g>
			<path d="M547.4,310.8H437.6v-7.1h109.8V310.8z M438.4,310.1h108.2v-5.6H438.4V310.1z"/>
			<path d="M547.9,311.3H437.1v-8.1h110.8V311.3z M438.9,309.6h107.2V305H438.9V309.6z"/>
		</g>
		<g>
			<path d="M547.4,322.8H437.6v-7.1h109.8V322.8z M438.4,322.1h108.2v-5.6H438.4V322.1z"/>
			<path d="M547.9,323.3H437.1v-8.1h110.8V323.3z M438.9,321.6h107.2V317H438.9V321.6z"/>
		</g>
		<g>
			<path d="M547.4,334.8H437.6v-7.1h109.8V334.8z M438.4,334.1h108.2v-5.6H438.4V334.1z"/>
			<path d="M547.9,335.3H437.1v-8.1h110.8V335.3z M438.9,333.6h107.2V329H438.9V333.6z"/>
		</g>
		<g>
			<path d="M547.4,346.8H437.6v-7.1h109.8V346.8z M438.4,346.1h108.2v-5.6H438.4V346.1z"/>
			<path d="M547.9,347.3H437.1v-8.1h110.8V347.3z M438.9,345.6h107.2V341H438.9V345.6z"/>
		</g>
		<g>
			<path d="M547.4,358.8H437.6v-7.1h109.8V358.8z M438.4,358.1h108.2v-5.6H438.4V358.1z"/>
			<path d="M547.9,359.3H437.1v-8.1h110.8V359.3z M438.9,357.6h107.2V353H438.9V357.6z"/>
		</g>
		<g>
			<path d="M547.4,370.8H437.6v-7.1h109.8V370.8z M438.4,370.1h108.2v-5.6H438.4V370.1z"/>
			<path d="M547.9,371.3H437.1v-8.1h110.8V371.3z M438.9,369.6h107.2V365H438.9V369.6z"/>
		</g>
		<g>
			<path d="M547.4,382.8H437.6v-7.1h109.8V382.8z M438.4,382.1h108.2v-5.6H438.4V382.1z"/>
			<path d="M547.9,383.3H437.1v-8.1h110.8V383.3z M438.9,381.6h107.2V377H438.9V381.6z"/>
		</g>
		<g>
			<path d="M547.4,298.8H437.6v-7.1h109.8V298.8z M438.4,298.1h108.2v-5.6H438.4V298.1z"/>
			<path d="M547.9,299.3H437.1v-8.1h110.8V299.3z M438.9,297.6h107.2V293H438.9V297.6z"/>
		</g>
		<g>
			<path d="M547.4,286.8H437.6v-7.1h109.8V286.8z M438.4,286.1h108.2v-5.6H438.4V286.1z"/>
			<path d="M547.9,287.3H437.1v-8.1h110.8V287.3z M438.9,285.6h107.2V281H438.9V285.6z"/>
		</g>
		<g>
			<path d="M547.4,274.8H437.6v-7.1h109.8V274.8z M438.4,274.1h108.2v-5.6H438.4V274.1z"/>
			<path d="M547.9,275.3H437.1v-8.1h110.8V275.3z M438.9,273.6h107.2V269H438.9V273.6z"/>
		</g>
		<g>
			<path d="M547.4,262.8H437.6v-7.1h109.8V262.8z M438.4,262.1h108.2v-5.6H438.4V262.1z"/>
			<path d="M547.9,263.3H437.1v-8.1h110.8V263.3z M438.9,261.6h107.2V257H438.9V261.6z"/>
		</g>
		<g>
			<path d="M547.4,250.8H437.6v-7.1h109.8V250.8z M438.4,250.1h108.2v-5.6H438.4V250.1z"/>
			<path d="M547.9,251.3H437.1v-8.1h110.8V251.3z M438.9,249.6h107.2V245H438.9V249.6z"/>
		</g>
		<g>
			<path d="M547.4,238.8H437.6v-7.1h109.8V238.8z M438.4,238.1h108.2v-5.6H438.4V238.1z"/>
			<path d="M547.9,239.3H437.1v-8.1h110.8V239.3z M438.9,237.6h107.2V233H438.9V237.6z"/>
		</g>
		<g>
			<path class="st0" d="M197.8,168.1c-13.6,0-27.4,0.2-41.1,1.1c4.9-6.2,12.6-10,20.5-10.1C185.1,158.9,192.6,162.4,197.8,168.1z"/>
			<path d="M155.6,169.7l0.7-0.9c5-6.3,12.8-10.2,20.9-10.3c7.9-0.2,15.5,3.1,21,9.2l0.8,0.8h-1.1c-11.3,0-26.2,0.1-41.1,1.1
				L155.6,169.7z M177.8,159.6c-0.2,0-0.4,0-0.6,0c-7.4,0.1-14.6,3.4-19.4,9c14-0.9,27.9-1,38.8-1
				C191.6,162.4,184.8,159.6,177.8,159.6z"/>
		</g>
		<g>
			<path class="st0" d="M273.7,191.6H80.1c0.6-5,7.3-7.1,11.3-8.5c6.6-2.3,13.2-4.1,20-5.7c13.6-3.1,27.6-4.7,41.5-5.7
				c13.9-0.9,27.8-1.2,41.6-1.4c14.4-0.2,28.9,0,43,3.1C250.8,176.5,263.8,182.1,273.7,191.6z"/>
			<path d="M274.9,192.1H79.5l0.1-0.6c0.6-5.1,6.9-7.3,11.1-8.7l0.6-0.2c6-2.1,12.4-3.9,20.1-5.7c11.9-2.7,25.1-4.5,41.6-5.7
				c13.2-0.9,26.2-1.2,41.6-1.4c13.2-0.2,28.5-0.1,43.1,3.1c15.2,3.5,27.5,9.7,36.4,18.3L274.9,192.1z M80.7,191.1h191.7
				c-8.8-8-20.5-13.8-35.1-17.2c-14.5-3.2-29.8-3.3-42.9-3.1c-15.4,0.2-28.4,0.5-41.6,1.4c-16.4,1.2-29.6,3-41.4,5.7
				c-7.6,1.8-14,3.6-19.9,5.7l-0.6,0.2C87.2,185,81.6,187,80.7,191.1z"/>
		</g>
		<g>
			<path d="M276.3,191.6c-0.1,0.8-1.2,1.4-1.9,0.7c-0.2-0.2-0.5-0.5-0.7-0.7c-10-9.4-22.9-15.1-36.2-18c-14.1-3.1-28.6-3.3-43-3.1
				c-13.9,0.2-27.8,0.4-41.6,1.4c-13.9,0.9-27.9,2.6-41.5,5.7c-6.8,1.5-13.5,3.4-20,5.7c-4,1.4-10.7,3.6-11.3,8.5c0,0.3-0.1,0.7,0,1
				c0,0.5-0.2,0.8-0.6,1c-0.3,0.1-0.6,0.1-0.9,0c-0.4-0.1-0.7-0.5-0.7-1c0-0.3,0-0.7,0-1c0.4-5.9,7.3-8.7,12.1-10.4
				c7.6-2.7,15.3-4.8,23.1-6.5c13.6-2.9,27.4-4.5,41.3-5.4c0.8-0.1,1.6-0.1,2.3-0.2c13.7-0.8,27.4-1,41.1-1.1c0.5,0,1.1,0,1.6,0h1
				c26.6,0,55.7,3,75.6,22.5C276.3,191,276.4,191.3,276.3,191.6z"/>
			<path d="M79,194.3c-0.2,0-0.4,0-0.6-0.1c-0.6-0.1-1-0.8-1-1.5v-1c0.4-6.6,8.5-9.5,12.4-10.9c7.2-2.6,14.8-4.7,23.2-6.5
				c12.4-2.6,25.9-4.4,41.4-5.4c0.4,0,0.8-0.1,1.2-0.1c0.4,0,0.8,0,1.1-0.1c13-0.8,25.9-1,41.2-1.1h2.6c26.1,0,55.6,2.7,76,22.6
				c0.5,0.5,0.5,1,0.4,1.4c-0.1,0.6-0.5,1.1-1.1,1.3c-0.6,0.2-1.2,0.1-1.6-0.4l-0.7-0.7c-9.1-8.5-21.5-14.7-36-17.9
				c-14.5-3.2-29.8-3.3-42.9-3.1c-13.7,0.2-27.8,0.4-41.6,1.4c-15.5,1-29,2.9-41.4,5.7c-6.8,1.5-13.6,3.4-19.9,5.7l-0.3,0.1
				c-4,1.4-10.1,3.5-10.6,8c0,0.1,0,0.2,0,0.3c0,0.2,0,0.4,0,0.5l0,0.2c0,0.7-0.3,1.2-0.9,1.4C79.5,194.3,79.2,194.3,79,194.3z
				 M197.8,168.7c-15.3,0.1-28.1,0.3-41.1,1.1c-0.3,0-0.7,0.1-1.1,0.1c-0.4,0-0.7,0-1.1,0.1c-15.4,1-28.9,2.8-41.3,5.4
				c-8.3,1.8-15.9,3.9-23,6.5c-5.6,2-11.4,4.7-11.8,10l0,1c0,0.3,0.2,0.5,0.3,0.5c0.2,0.1,0.4,0.1,0.6,0c0.1-0.1,0.2-0.2,0.3-0.5
				c-0.1-0.3,0-0.6,0-0.8c0-0.1,0-0.2,0-0.3c0.6-5.1,7-7.4,11.3-8.9l0.3-0.1c6.4-2.3,13.2-4.2,20.1-5.7c12.4-2.8,26-4.7,41.6-5.7
				c13.8-1,28-1.2,41.6-1.4c13.2-0.2,28.5-0.1,43.1,3.1c14.6,3.2,27.2,9.5,36.4,18.1l0.7,0.7c0.2,0.2,0.4,0.2,0.6,0.1
				c0.2-0.1,0.5-0.3,0.5-0.5l0-0.1c0,0,0.1-0.2-0.2-0.4c-20.1-19.7-49.3-22.4-75.2-22.4H197.8z"/>
		</g>
		<g>
			<polygon points="164,556.6 158.1,542.2 156.2,543 161.8,556.6 			"/>
			<path d="M164.7,557.1h-3.3l-5.9-14.4l2.8-1.2L164.7,557.1z M162.1,556.1h1.1l-5.4-13.2l-1,0.4L162.1,556.1z"/>
		</g>
		<g>
			<polygon points="176,556.6 170.1,542.2 168.2,543 173.8,556.6 			"/>
			<path d="M176.7,557.1h-3.3l-5.9-14.4l2.8-1.2L176.7,557.1z M174.1,556.1h1.1l-5.4-13.2l-1,0.4L174.1,556.1z"/>
		</g>
		<g>
			<polygon points="188,556.6 182.1,542.2 180.2,543 185.8,556.6 			"/>
			<path d="M188.7,557.1h-3.3l-5.9-14.4l2.8-1.2L188.7,557.1z M186.1,556.1h1.1l-5.4-13.2l-1,0.4L186.1,556.1z"/>
		</g>
		<g>
			<polygon points="574.2,543 573.9,543.6 568,556.6 565.9,556.6 571.7,543.6 572.4,542.2 			"/>
			<path d="M568.3,557.1h-3.2l6.1-13.7l0.9-1.8l2.7,1.2l-0.5,1.1L568.3,557.1z M566.7,556.1h1l5.8-12.9l-0.9-0.4l-0.5,1L566.7,556.1
				z"/>
		</g>
		<g>
			<polygon points="200,556.6 194.1,542.2 192.2,543 197.8,556.6 			"/>
			<path d="M200.7,557.1h-3.3l-5.9-14.4l2.8-1.2L200.7,557.1z M198.1,556.1h1.1l-5.4-13.2l-1,0.4L198.1,556.1z"/>
		</g>
		<g>
			<polygon points="152,556.6 146.1,542.2 144.2,543 149.8,556.6 			"/>
			<path d="M152.7,557.1h-3.3l-5.9-14.4l2.8-1.2L152.7,557.1z M150.1,556.1h1.1l-5.4-13.2l-1,0.4L150.1,556.1z"/>
		</g>
		<g>
			<polygon points="92,556.6 86.1,542.2 84.2,543 89.8,556.6 			"/>
			<path d="M92.7,557.1h-3.3l-5.9-14.4l2.8-1.2L92.7,557.1z M90.1,556.1h1.1l-5.4-13.2l-1,0.4L90.1,556.1z"/>
		</g>
		<g>
			<polygon points="140,556.6 134.1,542.2 132.2,543 137.8,556.6 			"/>
			<path d="M140.7,557.1h-3.3l-5.9-14.4l2.8-1.2L140.7,557.1z M138.1,556.1h1.1l-5.4-13.2l-1,0.4L138.1,556.1z"/>
		</g>
		<g>
			<polygon points="15.7,556.6 13.5,556.6 8.2,543.6 7.9,543 9.8,542.2 10.3,543.6 			"/>
			<path d="M16.4,557.1h-3.3l-5.4-13.3l-0.5-1l2.9-1.2l0.7,1.9L16.4,557.1z M13.8,556.1H15l-5.4-13.2l-0.9,0.4l0.1,0.1L13.8,556.1z"
				/>
		</g>
		<g>
			<polygon points="104,556.6 98.1,542.2 96.2,543 101.8,556.6 			"/>
			<path d="M104.7,557.1h-3.3l-5.9-14.4l2.8-1.2L104.7,557.1z M102.1,556.1h1.1l-5.4-13.2l-1,0.4L102.1,556.1z"/>
		</g>
		<g>
			<polygon points="116,556.6 110.1,542.2 108.2,543 113.8,556.6 			"/>
			<path d="M116.7,557.1h-3.3l-5.9-14.4l2.8-1.2L116.7,557.1z M114.1,556.1h1.1l-5.4-13.2l-1,0.4L114.1,556.1z"/>
		</g>
		<g>
			<polygon points="128,556.6 122.1,542.2 120.2,543 125.8,556.6 			"/>
			<path d="M128.7,557.1h-3.3l-5.9-14.4l2.8-1.2L128.7,557.1z M126.1,556.1h1.1l-5.4-13.2l-1,0.4L126.1,556.1z"/>
		</g>
		<g>
			<path d="M52.8,230.5c-3.9,0.1-7.8,0.2-11.7,0.3c-0.4,0-0.7,0.3-0.8,0.8c-0.4,11.7-0.7,23.4-1.1,35c0,1,1.5,1,1.5,0
				c0.4-11.7,0.7-23.4,1.1-35c-0.2,0.2-0.5,0.5-0.8,0.8c3.9-0.1,7.8-0.2,11.7-0.3C53.8,232,53.8,230.5,52.8,230.5L52.8,230.5z"/>
			<path d="M40,267.8c-0.6,0-1.2-0.4-1.2-1.2c0.2-5.9,0.4-11.8,0.6-17.7c0.2-5.8,0.3-11.5,0.5-17.3c0.2-0.8,0.7-1.3,1.3-1.3
				l11.7-0.3c0.7,0,1.2,0.5,1.2,1.2c0,0.6-0.4,1.3-1.3,1.4l-10.5,0.3c-0.2,5.5-0.4,11-0.5,16.5c-0.2,5.8-0.3,11.5-0.5,17.3
				C41.2,267.4,40.6,267.8,40,267.8z M40.8,232.9c-0.2,5.3-0.3,10.6-0.5,16c-0.2,5.9-0.4,11.8-0.6,17.7c0,0.2,0.1,0.2,0.3,0.2
				s0.2,0,0.2-0.2c0.2-5.8,0.4-11.5,0.5-17.3c0.2-5.5,0.3-11,0.5-16.4L40.8,232.9z M41.4,231.3l-0.3,0c-0.2,0-0.3,0.2-0.3,0.4
				c0,0.1,0,0.1,0,0.2L41.4,231.3z M42.3,231.2l0,0.3c0,0.1,0,0.2,0,0.2l10.4-0.3c0.4,0,0.4-0.3,0.4-0.4c0-0.2-0.2-0.2-0.2-0.2
				L42.3,231.2z"/>
		</g>
		<g>
			<path d="M38.1,491.5c1.2,3.9-0.9,8-0.2,11.9s4.1,5.8,7.8,5.8c2.2,0,4.3-0.5,6.4-1.1c0.9-0.3,0.5-1.7-0.4-1.4
				c-3.7,1-9.6,2.3-11.8-1.8c-1.1-2-0.6-4.6-0.3-6.7c0.3-2.3,0.7-4.7,0-7C39.3,490.1,37.8,490.5,38.1,491.5L38.1,491.5z"/>
			<path d="M45.7,509.7c-4.4,0-7.6-2.4-8.3-6.2c-0.3-1.9-0.1-3.8,0.2-5.6c0.3-2.2,0.6-4.2,0-6.2l0,0c-0.1-0.5,0-0.9,0.3-1.2
				c0.3-0.3,0.8-0.5,1.2-0.3c0.5,0.1,0.8,0.5,1,1c0.7,2.2,0.4,4.5,0.1,6.7l-0.1,1c-0.3,2-0.6,4.2,0.3,5.9c1.9,3.6,7,2.7,11.2,1.6
				c0.4-0.1,0.8-0.1,1.1,0.2c0.3,0.3,0.5,0.8,0.4,1.2c-0.1,0.4-0.4,0.8-0.8,0.9C50.2,509.1,48,509.7,45.7,509.7z M38.6,491.3
				c0.7,2.2,0.4,4.5,0,6.7c-0.3,1.8-0.5,3.6-0.2,5.3c0.7,4,4.2,5.4,7.3,5.4c2.2,0,4.3-0.5,6.3-1.1c0.2-0.1,0.1-0.3,0.1-0.3
				c0-0.1-0.2-0.2-0.2-0.1c-3,0.8-9.9,2.7-12.4-2c-1.1-2-0.7-4.5-0.4-6.5l0.1-1c0.3-2.1,0.6-4.3-0.1-6.3c0-0.2-0.1-0.3-0.2-0.3
				c-0.1,0-0.2,0-0.3,0.1C38.6,491.1,38.5,491.2,38.6,491.3z"/>
		</g>
		<g>
			<path d="M389.5,521.5c6.7,0.2,13.3,0.4,20,0.6c1,0,1-1.5,0-1.5c-6.7-0.2-13.3-0.4-20-0.6C388.5,520,388.5,521.5,389.5,521.5
				L389.5,521.5z"/>
			<path d="M409.5,522.6l-20-0.6c-0.8,0-1.2-0.6-1.2-1.2c0-0.6,0.4-1.2,1.2-1.2l20,0.6h0c0.8,0,1.2,0.6,1.2,1.2
				C410.8,521.9,410.3,522.6,409.5,522.6z M389.5,520.5c-0.2,0-0.2,0.1-0.2,0.2s0,0.2,0.2,0.2h0l20,0.6c0.2,0,0.2-0.1,0.2-0.2
				s0-0.2-0.2-0.2L389.5,520.5z"/>
		</g>
		<g>
			<path d="M422.9,520.6c0.1-9.3,0.1-18.7,0.2-28c0-1-1.5-1-1.5,0c-0.1,9.3-0.1,18.7-0.2,28C421.4,521.6,422.9,521.6,422.9,520.6
				L422.9,520.6z"/>
			<path d="M422.2,521.8c-0.6,0-1.2-0.4-1.2-1.2c0-4.7,0.1-9.3,0.1-14c0-4.7,0-9.4,0.1-14c0-1.6,2.5-1.6,2.5,0c0,4.7-0.1,9.3-0.1,14
				c0,4.7,0,9.3-0.1,14C423.4,521.4,422.8,521.8,422.2,521.8z M422.3,492.3c-0.1,0-0.2,0-0.2,0.2c0,4.7-0.1,9.3-0.1,14
				c0,4.7,0,9.4-0.1,14c0,0.2,0.1,0.2,0.2,0.2s0.2,0,0.2-0.2v0c0-4.6,0.1-9.3,0.1-14c0-4.7,0-9.4,0.1-14
				C422.6,492.4,422.5,492.3,422.3,492.3z"/>
		</g>
		<g>
			<path d="M435.5,521.9c4.4,0.2,8.9,0.5,13.3,0.7c1,0.1,1-1.5,0-1.5c-4.4-0.2-8.9-0.5-13.3-0.7
				C434.5,520.3,434.5,521.8,435.5,521.9L435.5,521.9z"/>
			<path d="M448.9,523.1c0,0-0.1,0-0.1,0c-2.2-0.1-4.4-0.2-6.6-0.3c-2.2-0.1-4.4-0.2-6.6-0.4l0,0c-0.8-0.1-1.3-0.8-1.2-1.5
				c0-0.3,0.2-0.6,0.4-0.8c0.2-0.2,0.5-0.3,0.9-0.3c2.2,0.1,4.4,0.2,6.6,0.3c2.2,0.1,4.4,0.2,6.6,0.4c0,0,0,0,0,0
				c0.5,0,0.8,0.2,1.1,0.6c0.2,0.4,0.2,1-0.1,1.4C449.6,522.9,449.3,523.1,448.9,523.1z M435.5,521.4c2.2,0.1,4.4,0.2,6.6,0.3
				c2.2,0.1,4.4,0.2,6.6,0.4c0.2,0,0.2,0,0.2,0c0.1-0.1,0.1-0.2,0-0.3c0-0.1-0.1-0.1-0.2-0.1c-2.2-0.1-4.4-0.2-6.7-0.4
				c-2.2-0.1-4.4-0.2-6.6-0.4c-0.1,0-0.2,0.1-0.2,0.1C435.3,521,435.2,521.3,435.5,521.4z"/>
		</g>
		<g>
			<path d="M536.8,521.6c4.4,0.2,8.9,0.4,13.3,0.5c1,0,1-1.5,0-1.5c-4.4-0.2-8.9-0.4-13.3-0.5C535.9,520.1,535.9,521.6,536.8,521.6
				L536.8,521.6z"/>
			<path d="M550.1,522.6c-4.3-0.1-8.6-0.3-13.3-0.5c-0.7,0-1.2-0.5-1.2-1.2c0-0.7,0.5-1.2,1.2-1.2c4.3,0.1,8.6,0.3,13.3,0.5
				c0,0,0,0,0,0c0.8,0,1.2,0.6,1.2,1.2C551.3,521.9,550.9,522.6,550.1,522.6z M536.8,520.6c-0.1,0-0.2,0.2-0.2,0.2s0,0.2,0.2,0.2
				l0,0c4.7,0.2,9,0.4,13.3,0.5c0.2,0,0.2-0.1,0.2-0.2s0-0.2-0.2-0.2C545.3,520.8,541,520.7,536.8,520.6z"/>
		</g>
		<g>
			<path d="M563.3,515.2c-0.3-5.1-0.6-10.2-0.9-15.3c-0.1-1-1.6-1-1.5,0c0.3,5.1,0.6,10.2,0.9,15.3
				C561.9,516.2,563.4,516.2,563.3,515.2L563.3,515.2z"/>
			<path d="M562.6,516.4c-0.6,0-1.2-0.4-1.3-1.2l-0.9-15.3c0-0.4,0.1-0.7,0.3-0.9c0.2-0.2,0.5-0.3,0.8-0.4c0.7-0.1,1.4,0.4,1.5,1.2
				l0.9,15.3c0,0.4-0.1,0.7-0.3,0.9c-0.2,0.2-0.5,0.3-0.8,0.4C562.7,516.4,562.7,516.4,562.6,516.4z M561.6,499.6
				C561.6,499.6,561.5,499.6,561.6,499.6c-0.1,0-0.2,0.1-0.2,0.2l0.9,15.3c0,0.3,0.4,0.3,0.4,0.3c0.1,0,0.2-0.1,0.1-0.2l0,0
				l-0.9-15.3C561.9,499.6,561.6,499.6,561.6,499.6z"/>
		</g>
		<g>
			<path d="M10.5,238.6c-0.3-9.2-0.5-18.5-0.8-27.7c-0.1-2.3-0.1-4.6-0.2-6.9c0-1.2-0.1-2.3-0.1-3.5c0-0.4-0.1-0.8,0-1.2
				c0.1-0.9,0.8-1,1.6-1c4.6,0.3,9.2,0.7,13.8,1.1c1,0.1,1-1.4,0-1.5c-2.6-0.2-5.2-0.4-7.9-0.6c-1.3-0.1-2.6-0.2-3.9-0.3
				c-1-0.1-2.1-0.3-3.1-0.1c-1.9,0.3-2,2.1-2,3.6c0.1,2.5,0.1,5,0.2,7.4c0.3,10.2,0.6,20.5,0.9,30.7
				C9.1,239.5,10.6,239.5,10.5,238.6L10.5,238.6z"/>
			<path d="M9.8,239.7c-0.3,0-0.5-0.1-0.8-0.2c-0.3-0.2-0.5-0.5-0.6-0.9l-0.9-30.7c-0.1-1.2-0.1-2.5-0.1-3.7c0-1.2,0-2.5-0.1-3.7
				c0-1.3,0-3.7,2.4-4.1c0.9-0.2,1.8-0.1,2.7,0l0.6,0.1l3.9,0.3c2.7,0.2,5.3,0.4,7.9,0.6c0.8,0.1,1.3,0.8,1.2,1.5
				c0,0.3-0.2,0.6-0.4,0.8c-0.2,0.2-0.5,0.3-0.9,0.3c-4.5-0.4-9.1-0.8-13.8-1.1c-0.9,0-1,0.2-1.1,0.6c-0.1,0.3,0,0.5,0,0.7
				c0,0.1,0,0.3,0,0.4c0,0.6,0,1.2,0,1.7c0,0.6,0.1,1.2,0.1,1.8c0,1.1,0.1,2.3,0.1,3.4c0,1.1,0,2.3,0.1,3.4
				c0.2,4.6,0.3,9.2,0.4,13.9c0.1,4.6,0.2,9.2,0.4,13.8c0.1,0.6-0.4,1.1-1,1.2C9.9,239.7,9.9,239.7,9.8,239.7z M10.9,197.3
				c-0.3,0-0.6,0-0.9,0.1c-1.3,0.2-1.6,1.3-1.6,3.1c0,1.2,0.1,2.5,0.1,3.7c0,1.2,0.1,2.5,0.1,3.7l0.9,30.7c0,0.2,0.3,0.2,0.4,0.2
				c0.1,0,0.1-0.1,0.1-0.1l0,0c-0.2-4.6-0.3-9.2-0.4-13.9c-0.1-4.6-0.2-9.2-0.4-13.8c-0.1-1.1-0.1-2.3-0.1-3.5c0-1.1,0-2.3-0.1-3.4
				c0-0.6,0-1.2-0.1-1.7c0-0.6-0.1-1.2-0.1-1.8c0-0.1,0-0.2,0-0.4c0-0.3-0.1-0.6,0-1c0.1-1.4,1.5-1.4,2.1-1.4
				c4.7,0.3,9.3,0.7,13.8,1.1c0.1,0,0.2-0.1,0.2-0.1c0,0,0-0.3-0.3-0.4c-2.6-0.2-5.2-0.4-7.9-0.6l-4.5-0.4
				C11.9,197.3,11.4,197.3,10.9,197.3z"/>
		</g>
		<g>
			<path d="M23.8,219.3c0,9.3,0.1,18.7,0.1,28c0,1,1.5,1,1.5,0c0-9.3-0.1-18.7-0.1-28C25.3,218.3,23.8,218.3,23.8,219.3L23.8,219.3z
				"/>
			<path d="M24.6,248.5c-0.6,0-1.2-0.4-1.2-1.2c0-4.6,0-9.3,0-14c0-4.7-0.1-9.4-0.1-14c0-1.6,2.5-1.6,2.5,0c0,4.6,0,9.3,0,14
				c0,4.7,0.1,9.4,0.1,14C25.9,248.1,25.3,248.5,24.6,248.5z M24.5,219c-0.1,0-0.2,0-0.2,0.2c0,4.6,0,9.3,0,14c0,4.7,0.1,9.4,0.1,14
				c0,0.2,0.1,0.2,0.2,0.2s0.2,0,0.2-0.2c0-4.6,0-9.3,0-14c0-4.7-0.1-9.4-0.1-14C24.8,219.1,24.7,219,24.5,219z"/>
		</g>
		<g>
			<path d="M9.4,507.9c-0.3,8.8,0.2,17.5,1.4,26.2c0,0.3,0.4,0.6,0.7,0.6c3.1-0.3,6.2-0.6,9.3-0.9c1-0.1,1-1.6,0-1.5
				c-3.1,0.3-6.2,0.6-9.3,0.9c0.2,0.2,0.5,0.4,0.7,0.6c-1.2-8.6-1.6-17.2-1.3-25.8C10.9,507,9.4,507,9.4,507.9L9.4,507.9z"/>
			<path d="M12.9,535.2l-0.1-0.1l-1.2,0.1c0,0,0,0,0,0c-0.6,0-1.2-0.5-1.2-1.1c-1.2-8.9-1.7-17.5-1.4-26.2c0-0.7,0.5-1.2,1.2-1.2
				c0.3,0,0.6,0.1,0.9,0.3c0.3,0.2,0.4,0.6,0.4,1c-0.3,8.3,0.1,16.6,1.1,24.6l8.2-0.8c0.5,0,0.7,0.1,0.9,0.3
				c0.2,0.2,0.3,0.5,0.4,0.8c0.1,0.6-0.4,1.4-1.2,1.5l-8,0.8L12.9,535.2z M11.2,533.6c0,0.1,0,0.3,0.1,0.4c0,0.1,0.1,0.2,0.2,0.2
				l0.4,0l0,0c-0.1-0.1-0.2-0.2-0.3-0.3C11.4,533.8,11.3,533.7,11.2,533.6z M12.7,533.5c0,0,0,0.1,0,0.1l0,0.3l8-0.8
				c0.3,0,0.3-0.4,0.3-0.4c0-0.1-0.1-0.1-0.2-0.1L12.7,533.5z M10.1,507.7c-0.1,0-0.2,0-0.2,0.2l0,0c-0.3,8.2,0.1,16.3,1.2,24.8
				l0.4,0c-1.1-8-1.4-16.3-1.1-24.7c0-0.1,0-0.2-0.1-0.2C10.3,507.7,10.2,507.7,10.1,507.7z"/>
		</g>
		<g>
			<path d="M25.9,492.6c-0.3,9.1-0.6,18.2-0.8,27.3c0,1,1.5,1,1.5,0c0.3-9.1,0.6-18.2,0.8-27.3C27.4,491.6,25.9,491.6,25.9,492.6
				L25.9,492.6z"/>
			<path d="M25.9,521.1c-0.6,0-1.2-0.4-1.2-1.2c0.2-9.1,0.5-18.3,0.8-27.2l0-0.1c0-1.6,2.5-1.6,2.5,0c-0.2,9.1-0.5,18.3-0.8,27.2
				l0,0.1C27.1,520.7,26.5,521.1,25.9,521.1z M26.6,492.3c-0.1,0-0.2,0-0.2,0.2l0,0.1c-0.3,8.9-0.6,18.1-0.8,27.2
				c0,0.2,0.1,0.2,0.2,0.2s0.2,0,0.2-0.2l0-0.1c0.3-8.9,0.6-18.1,0.8-27.2C26.9,492.4,26.8,492.3,26.6,492.3z"/>
		</g>
		<g>
			<path d="M34.2,521.3c6.7,0,13.3,0,20,0c1,0,1-1.5,0-1.5c-6.7,0-13.3,0-20,0C33.2,519.8,33.2,521.3,34.2,521.3L34.2,521.3z"/>
			<path d="M54.2,521.8h-20c-0.8,0-1.2-0.6-1.2-1.2s0.4-1.2,1.2-1.2h20c0.8,0,1.2,0.6,1.2,1.2S55,521.8,54.2,521.8z M34.2,520.3
				c-0.2,0-0.2,0.1-0.2,0.2s0,0.2,0.2,0.2h20c0.2,0,0.2-0.1,0.2-0.2s0-0.2-0.2-0.2H34.2z"/>
		</g>
		<g>
			<path d="M391.3,233.1c5.1,0.8,10.2,1,15.3,0.4c-0.2-0.2-0.5-0.5-0.8-0.8c0.8,9.3,1.7,18.6,2.5,27.9c0.1,1,1.6,1,1.5,0
				c-0.8-9.3-1.7-18.6-2.5-27.9c0-0.4-0.3-0.8-0.8-0.8c-5,0.6-10,0.5-14.9-0.3C390.8,231.5,390.4,233,391.3,233.1L391.3,233.1z"/>
			<path d="M409.1,261.8c-0.6,0-1.2-0.4-1.3-1.2c-0.4-4.7-0.8-9.3-1.3-14c-0.4-4.2-0.8-8.4-1.1-12.6c-4.6,0.4-9.2,0.2-14.2-0.5
				c-0.4,0-0.7-0.3-0.9-0.6c-0.2-0.4-0.1-1,0.2-1.4c0.3-0.4,0.7-0.5,1.1-0.5c4.5,0.7,9,0.9,13.5,0.4l0-0.2l0.1,0.1
				c0.4,0,0.7-0.1,1.1-0.1c0,0,0,0,0,0c0.9,0,1.4,0.7,1.4,1.3c0.4,4.6,0.8,9.3,1.2,13.9c0.4,4.7,0.9,9.3,1.2,14
				c0,0.4-0.1,0.7-0.3,0.9c-0.2,0.2-0.5,0.3-0.8,0.4C409.2,261.8,409.2,261.8,409.1,261.8z M406.4,234c0.4,4.2,0.7,8.4,1.1,12.6
				c0.4,4.7,0.9,9.3,1.2,14c0,0.3,0.4,0.3,0.4,0.3c0.1,0,0.2-0.1,0.1-0.2c-0.4-4.7-0.8-9.3-1.3-14c-0.4-4.2-0.8-8.5-1.1-12.7l-0.2,0
				C406.6,234,406.5,234,406.4,234z M391.5,232.1c-0.1,0-0.1,0.1-0.2,0.2c-0.1,0.2-0.1,0.3,0,0.3l0.1,0c4.9,0.8,9.5,0.9,14,0.5
				c0-0.1,0-0.3,0-0.4l0-0.2C400.7,232.9,396.1,232.8,391.5,232.1C391.5,232.1,391.5,232.1,391.5,232.1z M406.2,232.4l0.6,0.6
				c0-0.1,0-0.2,0-0.3c0-0.2-0.1-0.3-0.3-0.3C406.4,232.4,406.3,232.4,406.2,232.4z"/>
		</g>
		<g>
			<path d="M395.5,218.7c4.9,0,9.8,0,14.7,0c1,0,1-1.5,0-1.5c-4.9,0-9.8,0-14.7,0C394.5,217.2,394.5,218.7,395.5,218.7L395.5,218.7z
				"/>
			<path d="M410.2,219.2h-14.7c-0.8,0-1.2-0.6-1.2-1.2s0.4-1.2,1.2-1.2h14.7c0.8,0,1.2,0.6,1.2,1.2S411,219.2,410.2,219.2z
				 M395.5,217.7c-0.2,0-0.2,0.1-0.2,0.2s0,0.2,0.2,0.2h14.7c0.2,0,0.2-0.1,0.2-0.2s0-0.2-0.2-0.2H395.5z"/>
		</g>
		<g>
			<path d="M420.4,220.6c0.1,10.9,0.1,21.8,0.2,32.7c0,1,1.5,1,1.5,0c-0.1-10.9-0.1-21.8-0.2-32.7
				C421.9,219.6,420.4,219.6,420.4,220.6L420.4,220.6z"/>
			<path d="M421.3,254.5c-0.6,0-1.2-0.4-1.2-1.2c0-5.4-0.1-10.9-0.1-16.3c0-5.4,0-10.9-0.1-16.3v0c0-1.6,2.5-1.6,2.5,0
				c0,5.4,0.1,10.9,0.1,16.3c0,5.4,0,10.9,0.1,16.3C422.6,254.1,422,254.5,421.3,254.5z M420.9,220.6c0,5.4,0.1,10.9,0.1,16.3
				c0,5.4,0,10.9,0.1,16.3c0,0.2,0.1,0.3,0.2,0.3s0.2,0,0.2-0.2c0-5.4-0.1-10.9-0.1-16.3c0-5.4,0-10.9-0.1-16.3
				c0-0.2-0.1-0.3-0.2-0.3C421,220.3,420.9,220.4,420.9,220.6z"/>
		</g>
		<g>
			<path d="M430.2,216.8c4.7-0.2,9.3-0.4,14-0.6c1,0,1-1.5,0-1.5c-4.7,0.2-9.3,0.4-14,0.6C429.2,215.3,429.2,216.8,430.2,216.8
				L430.2,216.8z"/>
			<path d="M430.2,217.3L430.2,217.3c-0.8,0-1.3-0.6-1.3-1.2s0.4-1.2,1.2-1.2l14-0.6h0c0.8,0,1.3,0.6,1.3,1.2c0,0.6-0.4,1.2-1.2,1.2
				L430.2,217.3z M444.2,215.2l-14,0.6c-0.2,0-0.3,0.1-0.3,0.2c0,0.1,0,0.2,0.2,0.2l14-0.6c0.2,0,0.3-0.1,0.3-0.2
				S444.4,215.2,444.2,215.2z"/>
		</g>
		<g>
			<path d="M545.5,216.8c5.3,0.1,10.5,0.1,15.8,0.2c-0.2-0.2-0.5-0.5-0.8-0.8c0.8,11.9,1.7,23.8,2.5,35.7c0.1,1,1.6,1,1.5,0
				c-0.8-11.9-1.7-23.8-2.5-35.7c0-0.4-0.3-0.7-0.8-0.8c-5.3-0.1-10.5-0.1-15.8-0.2C544.5,215.3,544.5,216.8,545.5,216.8
				L545.5,216.8z"/>
			<path d="M563.8,253.1c-0.6,0-1.2-0.4-1.3-1.2c-0.4-6-0.8-11.9-1.3-17.9c-0.4-5.5-0.8-11.1-1.2-16.6c-2.2,0-4.5-0.1-6.7-0.1
				c-2.6,0-5.3,0-7.9-0.1c-0.7,0-1.2-0.5-1.3-1.2c0-0.7,0.4-1.3,1.1-1.4c2.7,0,5.4,0.1,8,0.1c2.6,0,5.2,0,7.9,0.1
				c0.8,0.2,1.3,0.7,1.3,1.3c0.4,5.9,0.8,11.9,1.2,17.8c0.4,6,0.8,11.9,1.2,17.9c0,0.4-0.1,0.7-0.3,0.9c-0.2,0.2-0.5,0.3-0.8,0.4
				C563.9,253.1,563.9,253.1,563.8,253.1z M561.1,217.5c0.4,5.5,0.8,11,1.2,16.5c0.4,6,0.8,11.9,1.2,17.9c0,0.3,0.4,0.3,0.4,0.3
				c0.1,0,0.2-0.1,0.1-0.2c-0.4-6-0.8-11.9-1.3-17.9c-0.4-5.5-0.8-11.1-1.2-16.6l-0.3,0C561.2,217.5,561.2,217.5,561.1,217.5z
				 M560.9,215.8l0.6,0.6c0-0.1,0-0.2,0-0.3c0-0.2-0.2-0.3-0.4-0.3C561,215.9,561,215.8,560.9,215.8z M545.4,215.7
				c-0.2,0-0.2,0.3-0.2,0.3c0,0.3,0.2,0.3,0.3,0.3h0c2.6,0,5.3,0.1,7.9,0.1c2.2,0,4.4,0,6.6,0.1c0-0.1,0-0.2,0-0.2l0-0.4
				c-2.2,0-4.4-0.1-6.6-0.1C550.7,215.7,548.1,215.7,545.4,215.7z"/>
		</g>
		<g>
			<path d="M561.5,199.1c3.7,0.3,7.4,0.6,11.2,0.9c-0.2-0.2-0.5-0.5-0.8-0.8c0.1,10.9,0.3,21.8,0.4,32.6c0,1,1.5,1,1.5,0
				c-0.1-10.9-0.3-21.8-0.4-32.6c0-0.4-0.3-0.7-0.8-0.8c-3.7-0.3-7.4-0.6-11.2-0.9C560.6,197.5,560.6,199,561.5,199.1L561.5,199.1z"
				/>
			<path d="M573,233c-0.6,0-1.2-0.4-1.2-1.2c0-5.4-0.1-10.7-0.2-16.1c-0.1-5.1-0.1-10.2-0.2-15.3c-3.4-0.3-6.7-0.5-10-0.8l0,0
				c-0.8-0.1-1.2-0.8-1.1-1.5c0-0.7,0.5-1.1,1.1-1.1c3.8,0.3,7.5,0.6,11.2,0.9c0.8,0.2,1.3,0.7,1.3,1.3c0,0.4,0,0.9,0,1.3l0.1,0.1
				l-0.1,0c0,4.9,0.1,9.8,0.2,14.7c0.1,5.5,0.2,11,0.2,16.5C574.3,232.6,573.7,233,573,233z M572.4,200.4c0,5.1,0.1,10.1,0.2,15.2
				c0.1,5.4,0.1,10.8,0.2,16.2c0,0.2,0.1,0.3,0.2,0.3s0.2,0,0.2-0.2c0-5.5-0.1-11-0.2-16.4c-0.1-5-0.1-9.9-0.2-14.8l-0.3,0
				C572.6,200.5,572.5,200.4,572.4,200.4z M572.3,198.8l0.6,0.6c0-0.1,0-0.2,0-0.3c0-0.2-0.3-0.3-0.4-0.3
				C572.4,198.8,572.4,198.8,572.3,198.8z M561.5,198.6c3.3,0.3,6.5,0.5,9.9,0.8c0-0.1,0-0.1,0-0.2l0-0.4c-3.3-0.3-6.6-0.5-10-0.8
				c0,0,0,0.2,0,0.2C561.3,198.3,561.3,198.5,561.5,198.6z"/>
		</g>
		<g>
			<path d="M544.9,535.9c4.3-0.1,8.6-0.2,13-0.3c4.2-0.1,8.5,0.1,12.6-0.3c1.3-0.1,2.4-0.6,2.9-1.8c0.6-1.6,0.4-3.7,0.4-5.4
				c0.2-4.3,0.3-8.6,0.5-12.9c0-1-1.5-1-1.5,0c-0.1,3.8-0.3,7.6-0.4,11.4c-0.1,1.8,0,3.7-0.2,5.6c-0.1,1-0.6,1.5-1.7,1.6
				c-0.9,0.1-1.8,0.1-2.7,0.1c-7.6,0.1-15.3,0.3-22.9,0.4C543.9,534.4,543.9,535.9,544.9,535.9L544.9,535.9z"/>
			<path d="M544.9,536.4L544.9,536.4c-0.7,0-1.2-0.5-1.3-1.2c0-0.6,0.4-1.3,1.2-1.4c3.8-0.1,7.6-0.1,11.4-0.2
				c3.8-0.1,7.7-0.2,11.5-0.2c0.9,0,1.8,0,2.7-0.1c0.9-0.1,1.2-0.4,1.3-1.2c0.1-1.1,0.1-2.2,0.1-3.3c0-0.8,0-1.5,0.1-2.2
				c0-1.9,0.1-3.8,0.2-5.7c0.1-1.9,0.1-3.8,0.2-5.7c0-1.6,2.5-1.6,2.5,0c-0.1,2.2-0.2,4.3-0.2,6.5c-0.1,2.2-0.2,4.3-0.3,6.5
				c0,0.3,0,0.6,0,1c0,1.5,0.1,3.2-0.4,4.6c-0.5,1.3-1.7,2-3.3,2.1c-4.1,0.4-8.5,0.2-12.6,0.3L544.9,536.4z M573.5,514.9
				c-0.1,0-0.2,0-0.2,0.2c0,1.9-0.1,3.8-0.2,5.7c-0.1,1.9-0.1,3.8-0.2,5.7c0,0.7,0,1.5-0.1,2.2c0,1.1,0,2.3-0.1,3.4
				c-0.1,1.3-0.8,1.9-2.2,2c-0.9,0.1-1.8,0.1-2.7,0.1c-3.8,0-7.7,0.1-11.5,0.2c-3.8,0.1-7.6,0.1-11.4,0.2c-0.3,0-0.3,0.3-0.3,0.4
				c0,0.2,0.2,0.2,0.2,0.2l13-0.3c4.1-0.1,8.5,0.1,12.6-0.3c1.3-0.1,2.1-0.6,2.5-1.5c0.4-1.2,0.4-2.8,0.4-4.2c0-0.4,0-0.7,0-1
				c0.1-2.2,0.2-4.3,0.2-6.5c0.1-2.2,0.2-4.3,0.3-6.5C573.8,515,573.7,514.9,573.5,514.9z"/>
		</g>
		<g>
			<path d="M400,279.9c0-18.5-15.1-33.6-33.6-33.6l-11.2-1.6c-87.4-12.2-175.9-11.7-263.1,1.6c-18.5,0-33.6,15.1-33.6,33.6
				c-8,60.4-8,121.6,0,182c0,18.5,15.1,33.6,33.6,33.6c45.4,6.9,91.2,10.4,136.9,10.4c42.2,0,84.3-2.9,126.2-8.8l11.2-1.6
				c18.5,0,33.6-15.1,33.6-33.6C408,401.5,408,340.2,400,279.9z M398,461.6v0.1c0,17.5-14.2,31.7-31.7,31.7l-11.4,1.6
				c-87.2,12.2-175.6,11.7-262.6-1.6h-0.1c-17.5,0-31.7-14.2-31.7-31.7v-0.1c-8-60.2-8-121.3,0-181.6v-0.1
				c0-17.5,14.2-31.7,31.7-31.7h0.1c87.1-13.3,175.4-13.8,262.6-1.6l11.3,1.6h0.1c17.5,0,31.7,14.2,31.7,31.7v0.1
				C406,340.3,406,401.4,398,461.6z"/>
			<path d="M229,506.4c-45.5,0-91.5-3.5-137-10.4c0,0,0,0,0,0c-18.7,0-34-15.3-34-34.1c-8-60.4-8-121.6,0-182.1
				c0-18.7,15.3-34,34.1-34c87-13.3,175.6-13.8,263.2-1.6l11.2,1.6c0,0,0,0,0,0c18.7,0,34,15.3,34,34.1c8,60.4,8,121.6,0,182.1
				c0,18.7-15.3,34-34.1,34l-11.1,1.6C313.8,503.4,271.3,506.4,229,506.4z M229,236.4c-45.8,0-91.5,3.5-136.8,10.4
				c-18.3,0-33.2,14.9-33.2,33.1c-8,60.4-8,121.6,0,181.9c0,18.3,14.9,33.2,33.1,33.2c45.5,6.9,91.5,10.4,136.9,10.4
				c42.2,0,84.7-3,126.1-8.8l11.2-1.6c18.3,0,33.2-14.9,33.2-33.1c8-60.5,8-121.6,0-181.9l0-0.1c0-18.3-14.8-33.1-33.1-33.1
				l-11.3-1.6C313.2,239.3,271.1,236.4,229,236.4z M228.9,504.2c-45.7,0-91.4-3.5-136.7-10.4c0,0,0,0,0,0
				c-17.8,0-32.2-14.4-32.2-32.2c-8-60.3-8-121.4,0-181.8c0-17.8,14.4-32.2,32.2-32.2c87-13.3,175.4-13.8,262.8-1.6l11.3,1.6
				c0,0,0,0,0,0c17.8,0,32.2,14.4,32.2,32.2c8,60.4,8,121.5,0,181.7v0.1c0,17.8-14.4,32.2-32.2,32.2l-11.3,1.6
				C313.1,501.3,271,504.2,228.9,504.2z M92.2,248.7c-17.2,0-31.2,14-31.2,31.2l0,0.2c-8,60.3-8,121.3,0,181.5l0,0.2
				c0,17.2,14,31.2,31.2,31.2l0.2,0c86.8,13.3,175.1,13.8,262.5,1.6l11.4-1.6c17.3,0,31.3-14,31.3-31.2l0-0.2
				c8-60.2,8-121.2,0-181.5l0-0.2c0-17.2-14-31.2-31.2-31.2l-0.2,0l-11.3-1.6c-87.3-12.2-175.6-11.7-262.5,1.6L92.2,248.7z"/>
		</g>
		<g>
			<rect x="14" y="554.5" width="553.4" height="2.1"/>
			<path d="M567.9,557.1H13.5V554h554.4V557.1z M14.5,556.1h552.4V555H14.5V556.1z"/>
		</g>
	</g>
</g>
<circle class="st1" cx="492.5" cy="478.7" r="21.5"/>
<g>
	<path d="M459.4,425.2c0.6-2-0.2-4.1-1.3-5.7c-1.2-1.6-2.7-3-4.5-3.8c-2-0.8-4-0.5-5.9,0.3c-1.7,0.7-3.6,1.9-4.8,3.3
		c-1.4,1.7-1.4,3.9-1.4,6c0.1,4.8,1.3,9.6,3.4,14c0.4,0.8,1.5,1,2.2,0.6c0.8-0.5,0.9-1.4,0.6-2.2c-1.1-2.3-1.9-4.7-2.4-7.2
		c3.6,0.3,7.5,0,10.8-1.6C457.6,428.2,458.9,426.9,459.4,425.2z M454.8,426c-1.4,0.8-3.1,1.1-4.7,1.3c-1.8,0.2-3.6,0.2-5.3,0
		c-0.1-1.4-0.2-2.8-0.1-4.1c0.1-1.5,1-2.2,2.2-3c1.2-0.8,2.6-1.7,4.1-1.7c1.4-0.1,2.5,0.7,3.5,1.6c0.9,0.9,1.9,2.1,2,3.4
		C456.6,424.7,455.7,425.5,454.8,426z"/>
	<path d="M462.4,438.3c0.2,1,1.5,1.4,2.3,1c2-1.2,4.3-1.8,6.7-1.7c2,0.1,2-3.1,0-3.2c-2.2-0.1-4.3,0.3-6.3,1.1
		c-0.7-4-1.5-8.1-2.2-12.1c-0.2-0.8-1.2-1.3-2-1.1c-0.9,0.2-1.3,1.1-1.1,2C460.7,428.9,461.6,433.6,462.4,438.3z"/>
	<path d="M476.6,437.8c0.9-0.2,1.3-1.1,1.1-2c-0.3-1.4-0.4-2.8-0.5-4.2c0,0,0.1,0,0.1,0c0.1,0,0.2-0.1,0.3-0.1
		c0.6-0.3,1.3-0.4,2-0.6c0.7-0.1,1.3-0.1,2,0c0.1,0,0.2,0,0.3,0c0.5,1.9,1,3.9,1.3,5.9c0.2,0.8,1.2,1.3,2,1.1c0.9-0.2,1.3-1.1,1.1-2
		c-0.5-2.5-1-5-1.8-7.5c-0.4-1.2-0.7-2.4-1.1-3.6c-0.4-1-0.7-2.1-1.3-3c-1.5-2.1-4.2-2.5-6.1-0.7c-1.9,1.7-2,4.5-2,6.9
		c-0.1,2.9,0.2,5.9,0.7,8.8C474.8,437.6,475.8,438,476.6,437.8z M477.5,424.2c0.2-0.5,0.8-1.3,1.4-1.1c0.5,0.1,0.9,1.2,1.1,1.8
		c0.3,0.9,0.6,1.9,0.9,2.8c-1.3,0-2.6,0.2-3.9,0.6c0-0.1,0-0.2,0-0.3C477.1,426.7,477.1,425.4,477.5,424.2z"/>
	<path d="M497.9,419.9c-1.1,2.2-2.2,4.4-3.2,6.6c-1.7-2-3.7-3.8-5.9-5.4c-0.7-0.5-1.8-0.2-2.2,0.6c-0.4,0.8-0.2,1.7,0.6,2.2
		c0.3,0.2,0.6,0.4,0.9,0.7c0.1,0.1,0.1,0.1,0.2,0.2c0,0,0,0,0,0c0.2,0.1,0.3,0.2,0.5,0.4c0.6,0.5,1.2,1,1.7,1.5
		c0.5,0.5,1.1,1.1,1.6,1.6c0.3,0.3,0.5,0.6,0.7,0.9c0.1,0.1,0.1,0.2,0.2,0.2c0,0,0,0,0,0c0.1,0.1,0.2,0.3,0.3,0.4
		c-0.9,2.1-1.7,4.3-2.4,6.4c-0.3,0.8,0.3,1.7,1.1,2c0.9,0.2,1.7-0.3,2-1.1c1.8-5.4,4.1-10.6,6.7-15.6
		C501.6,419.7,498.9,418,497.9,419.9z"/>
	<path d="M527.8,427c-0.1-2.6-0.2-5.2-0.8-7.7c-0.3-1.1-1.6-1.5-2.5-1c-2.7,1.4-4.7,3.7-6,6.3c0,0-0.1,0.1-0.1,0.1
		c-0.2-0.1-0.7-0.2-0.8-0.3c-0.7-0.3-1.5-0.7-2.2-1.1c-1.3-0.7-2.5-1.6-3.7-2.6c-1.3-1-3.1-1.6-4.4-0.3c-1.4,1.3-0.5,3.5-0.2,5.1
		c0.7,3.5,1.3,7.1,2,10.6c0.2,0.9,1.3,1.4,2.1,1.2c1-0.3,1.4-1.2,1.2-2.1c-0.6-3.2-1.2-6.4-1.8-9.6c-0.1-0.6-0.2-1.1-0.3-1.7
		c0.9,0.7,1.8,1.4,2.8,2c2.3,1.4,6.3,3.8,8.2,0.7c0.7-1.1,1.1-2.2,2-3.1c0.3-0.3,0.6-0.6,0.9-0.9c0.2,1.7,0.2,3.5,0.3,5.2
		c0.2,2.7,0.5,5.4,1.6,7.9c0.4,0.9,1.6,1,2.4,0.6c0.9-0.5,1-1.5,0.6-2.4C528,431.9,527.9,429.4,527.8,427z"/>
	<path d="M541.3,433.5c-0.6,0.2-1.2,0.4-1.9,0.5c-0.1,0-0.7,0.1-0.2,0c-0.1,0-0.3,0-0.4,0c-0.3,0-0.7,0-1,0c-0.3,0-0.7,0-1,0
		c-0.1,0-0.3,0-0.4,0c-0.1,0-0.2,0-0.3-0.1c-0.6-0.1-1.3-0.3-1.9-0.5c-0.1,0-0.1,0-0.2,0c-0.1-1.2-0.3-2.3-0.4-3.5
		c1.4,0,2.9,0,4.3,0c0.9,0,1.8-0.8,1.7-1.7c0-0.9-0.8-1.7-1.7-1.7c-1.6,0-3.1,0-4.7,0c-0.1-0.8-0.2-1.6-0.2-2.4
		c0-1.2,0.2-2.2,1.4-2.8c1.3-0.6,2.9-0.4,4.4-0.2c0.9,0.1,1.8-0.2,2.1-1.2c0.2-0.8-0.3-2-1.2-2.1c-2-0.3-4.2-0.6-6.2,0.2
		c-1.9,0.7-3.3,2.1-3.8,4.1c-0.4,2,0,4.1,0.2,6c0.2,2.2,0.5,4.5,0.7,6.7c0.1,0.9,0.7,1.7,1.7,1.7c0.1,0,0.1,0,0.2,0
		c0.2,0.2,0.4,0.3,0.6,0.4c2.8,1.1,6.1,1.1,8.9,0c0.8-0.3,1.5-1.2,1.2-2.1C543.1,433.9,542.2,433.1,541.3,433.5z"/>
</g>
</svg>
