<?xml version="1.0" encoding="utf-8"?>
<!-- Generator: Adobe Illustrator 27.9.4, SVG Export Plug-In . SVG Version: 9.03 Build 54784)  -->
<svg version="1.1" id="Calque_1" xmlns="http://www.w3.org/2000/svg" xmlns:xlink="http://www.w3.org/1999/xlink" x="0px" y="0px"
	 viewBox="0 0 740.4 658.9" style="enable-background:new 0 0 740.4 658.9;" xml:space="preserve">
<style type="text/css">
	.st0{fill:#FFFFFF;}
	.st1{fill:#D1D1D1;}
</style>
<path d="M739,418.8h1.4l-1.4-1.7v-0.8h-0.7l-37.7-47.4h-85.5c-0.2-23.1-0.4-46.2-0.6-69.3c0-3.7,0-7.4-1.5-10.8
	c-1.5-3.3-4.1-5.8-6.5-8.4c-2.8-3.1-5.7-6.1-8.5-9.2c-2.4-2.6-4.8-4.7-8.5-5.1c-4-0.4-8.2,0-12.2,0.1c-4.3,0.1-8.6,0.2-12.8,0.2
	c-8.4,0.1-16.8,0.3-25.1,0.4c-34.1,0.4-68.1,0.4-102.2,0.2c-16.9-0.2-33.9-0.4-50.8-0.7c-4.1-0.1-8.3-0.5-12.4-0.1
	c-1.6,0.1-3.1,0.5-4.5,1.3c-1.8,1-3.1,2.5-4.6,3.9c-2.9,2.9-5.9,5.7-8.8,8.6c-1.5,1.5-3.1,3-4.6,4.5c-1.3,1.3-2.8,2.6-3.9,4.1
	c-2.3,3-2,6.8-2,10.3c0,4.3,0,8.6,0,12.8c0,8.4,0,16.8-0.1,25.1c0,10.7-0.1,21.4-0.1,32.1h-77.4l-37.7,47.4h-0.7v0.8l-1.4,1.7h1.4
	v9.2h17.2v102.7c-0.2-6.2-0.5-12.3-0.9-18.5c-0.4-6.3-0.8-12.6-0.9-18.8c-0.1-3-0.3-5.7-1.7-8.4c-1.3-2.4-3-4.5-4.3-6.9
	c-5.8-10.3-7.3-22.1-11.3-33.1c-2.2-5.9-4.5-11.6-6.8-17.4c-2.3-5.7-4.4-11.5-6.8-17.2c-2.2-5.1-4.7-10.2-6.3-15.6
	c-1.6-5.7-1.4-11.5-1-17.4c0.2-2.7,0.5-5.4,0.7-8.1c3.5-0.7,6.9-1.5,10.4-2.2c0.8-0.2,1.3-1.1,1.1-1.9c-3.2-10.5-2.2-21.4-1.9-32.2
	c0.2-5.4,0.1-10.8-0.5-16.1c-0.6-5.6-1.6-11.1-2.5-16.6c-3.7-22.8-0.7-45.9,1-68.7c0.9-12.3,1.8-24.7,2.8-37
	c10.4,2.9,20.7,5.9,30.9,9.2c10.5,3.4,20.9,7.1,31.5,10.4c10.3,3.3,20.9,6,31.7,6.9c11,0.9,21.6-1,32.2-3.9
	c12.3-3.4,24.5-6.9,36.8-10.4c0.6-0.2,1-0.7,1.1-1.3c1-0.2,1.9-0.2,2.8,0.5c1.2,0.9,2.4,1.9,3.7,2.7c2.6,1.6,5.5,2.7,8.5,3
	c5.7,0.7,11-1.6,16.1-4c0.4,3,1,6,1.6,9c0.6,3.2,1.2,6.4,1.4,9.6c0.3,3.4,0,6.6-0.5,10c-0.5,3.8-1,7.6,0.1,11.4
	c0.3,1,1.4,1.4,2.3,0.9c16-8.9,34.6-11.1,52.6-10.9c10.1,0.1,20.2,0.9,30.3,1.6c9.6,0.6,19.2,0.8,28.8,1.4c10.5,0.6,21,1.8,31,5.2
	c1.2,0.4,2.1-0.8,1.9-1.9c-3.1-17.9-6.2-35.7-9.3-53.6c-0.9-5.1-1.8-10.2-2.6-15.2c-0.1-0.3-0.2-0.6-0.3-0.7c-0.2-0.6-0.6-1.1-1.4-1
	c-17.8,1.3-35.7,1.8-53.6,1.9c-18,0.1-35.9-0.2-53.9-0.4c-10.1-0.1-20.2-0.2-30.3-0.4c-0.8,0-1.6,0.7-1.5,1.5
	c0.2,1.8,0.5,3.5,1.1,5.2c-5-4.8-10.5-11.4-17.9-8c-4.1,1.9-6.3,5.9-8.4,9.6c-0.5,0.9-1.1,1.8-2,2.4c-0.9,0.6-1.9,1-2.9,1.5
	c-2,0.8-4,1.6-6.1,2.2c-0.1-0.7-0.7-1.4-1.5-1.3c-10.7,0.2-21.4,0.3-32,0.5c-5.3,0.1-10.6,0.2-15.9,0.2c-4.4,0.1-8.9-0.1-13.3,0.6
	c-0.5,0.1-1,0.2-1.4,0.3c-13.3-8.7-28.7-13.1-43.8-17.7c-7.6-2.3-15.2-4.6-22.6-7.7c-7.4-3-14.1-6.9-20.7-11.4
	c-3.7-2.5-7.4-5.1-11.3-7.1c0-0.1,0.1-0.2,0.1-0.3c6.6-17.8,9.2-36.9,8.4-55.8c-0.4-9.6-1.7-19.2-3.7-28.6c-2-9.2-4.5-18.5-8.4-27.1
	c-3.9-8.5-10-15.3-17.7-20.6c-7.1-5-15.2-8.5-23.6-10.6c-16.8-4.1-34.8-2.2-50.8,4.3C100.7,12.3,90.6,24.9,83.4,38
	c-3.6,6.5-6.6,13.4-9,20.5c-3.1,9.1-4.2,18.5-4.6,28.1c-0.2,5-0.3,10-0.4,15c-0.1,5.1-0.1,10.1,0.4,15.2c0.8,9.7,3.3,19,7.7,27.7
	c1.9,3.7,4.1,7.3,6.5,10.7c-10.6,3-20,9.8-27.2,18.1c-10.8,12.3-17.1,27.6-23.6,42.5c-1.7,3.9-3.5,7.7-5.7,11.3
	c-2.2,3.5-4.8,6.8-7.4,10c-5.1,6.5-9.7,13.4-13.3,20.9c-3.6,7.5-7,15.8-6.6,24.3c0.4,8.2,4.4,15.6,8.7,22.5
	c4.2,6.7,8.4,13.7,14.9,18.5c6,4.5,14.2,7.1,17.7,14.2c0.7,1.5,1.1,3.1,1,4.8c0,1.1,1.4,2,2.3,1.3c1.1-0.8,2.2-1.6,3.4-2.5
	c4.8,3.1,8.9,7,12.9,11c2,1.9,4,3.9,5.8,6c1.7,2,2.9,4.4,4.4,6.6c1.3,1.8,3.1,3,5.2,3.4c-0.6,1.7-0.7,3.6-0.5,5.4
	c0.4,3.1,1.5,6.5,4.3,8.2c2.9,1.8,6.3,2.1,9.7,2c0,0.1,0.1,0.2,0.1,0.2c2.3,3.5,2.9,7.7,3.4,11.8c0.5,4.8,1,9.7,1.5,14.5
	c1,9.6,2,19.3,3,28.9c2,19.3,4,38.5,5.7,57.8c0.9,9.7,1.7,19.4,2.5,29.1c0.2,2.4,0.3,4.7,0.7,7.1c0.4,2.1,1.1,4.1,1.7,6.1
	c1.5,4.4,2.2,8.8,2.5,13.4c0.5,9.6,0.2,19.2,0.3,28.8c0,4.8,0.1,9.6,0.1,14.4c0,2.2-0.1,4.4-0.5,6.6c-0.4,2.1-1.2,4-2,5.9
	c-1,2.3-4.8,9.4-0.4,10.3c1.6,0.3,3.3,0.4,4.9,0.4c-0.7,1.8-0.6,3.8-0.5,5.8c0.1,3.3,0.3,6.6,0.4,9.9c0.2,6-0.1,12.8,3.5,17.9
	c1.6,2.3,3.8,4,6.4,4.8c2.8,0.9,5.7,0.9,8.6,1c6.7,0.2,13.3,0.3,20,0.3c6.7-0.1,13.3-0.3,19.9-1c3.1-0.3,6.2-0.5,9.2-1.2
	c2.6-0.5,5.1-1.7,6.7-3.9c1.7-2.3,2.3-5.3,2.7-8c0.3-2.8,0.1-5.8-0.6-8.5c-1.4-5.3-4.7-9.8-9.2-12.8c-5.7-3.8-12.5-4-19-2.8
	c-1.7,0.3-3.4,0.8-5.1,1.2c-1,0.3-1.6,0.3-2.4-0.2c-0.7-0.4-1.4-1-2-1.5c-2.3-1.8-4.9-4.4-4.1-7.5c0-0.1,0.1-0.3,0.1-0.4
	c1.4-0.1,2.9-0.2,4.3-0.2c1.1,0,2-1.3,1.3-2.3c-1.7-2.2-3.3-4.5-5-6.7c-1.5-2-3.2-3.9-3.4-6.5c-0.2-2.7-0.2-5.4-0.3-8.1
	c-0.1-2.9-0.3-5.9-0.5-8.8c-0.8-11.2-2-22.4-3.1-33.6c-0.6-5.5-0.8-10.8-0.5-16.3c0.3-5.4,1-10.7,1.6-16c1.3-11.1,2.4-22.3,3.7-33.5
	c1.2-11.1,2.4-22.2,4-33.3c0.8-5.5,1.7-11,2.8-16.4c0.3-1.3,0.5-2.7,0.8-4c0.1-0.7,0.3-1.3,0.4-2c0.1-0.5,0.2-1.7,0.5-2.2
	c0.5-0.6,1.9-0.8,2.6-0.9c1.2-0.2,2.5-0.2,3.8,0c4.9,0.7,8.9,3.9,12.1,7.5c3.2,3.6,5.9,7.8,8.2,12.1c4.9,9,8.6,18.5,13.4,27.6
	c5.1,9.7,10.7,19,15.9,28.6c2.5,4.7,4.5,9.4,5.3,14.7c0.7,5.4,0.7,11,0.7,16.5c0,2.6-0.1,5.1-0.3,7.7c-0.3,0.3-0.5,0.8-0.3,1.4
	c1.5,5.9,2,12,1.3,18c-0.3,3-1.1,6-1.5,9c-0.4,3-0.3,6.1-0.1,9.1c0.4,6.2,0.7,12.3,0.3,18.4c-0.4,6-1.5,11.9-3,17.7
	c-0.4,1.4-0.9,2.8-1.2,4.2c-0.3,1.2-0.1,2.5,1,3.2c1,0.6,2.1,0.4,3.2,0.2c0.5-0.1,0.9-0.1,1.4-0.2c-0.5,1.5-0.8,3.1-0.9,4.7
	c-0.3,3.2-0.5,6.4-0.6,9.5c-0.2,3.4-0.3,6.7-0.3,10.1c0,1.5,0,3.1,0,4.6c0,1.2,0.2,2.5,1.2,3.4c1.1,1,2.9,0.9,4.2,1
	c1.7,0.1,3.4,0.2,5,0.3c3.2,0.2,6.4,0.3,9.7,0.4c6.6,0.2,13.2,0.2,19.8-0.1c2.4-0.1,4.7-0.2,7.1-0.3h12.1V650c0.1,0,0.2,0,0.3,0
	c5.7-0.6,12.1-1.5,17.1-4.6c5.1-3.2,3.7-9.3,1.9-14c-1.8-4.7-4.6-9.1-8.7-12c-2.6-1.8-5.5-2.7-8.6-3.2c-0.7-0.1-1.3-0.2-2-0.3V428
	h418.6v222.9h27.3V428H739V418.8z M246.9,611.3c-0.1,0-0.1,0-0.2,0c0.1-0.1,0.1-0.1,0.2-0.2V611.3z M245.1,587.5
	c0.8-9.6,1.4-19.2,1.8-28.9v43.5c-0.6-1.9-1.3-3.7-1.6-5.6C244.7,593.6,244.8,590.5,245.1,587.5z M72.9,337.3
	c-0.1-0.1-0.2-0.1-0.3-0.2c-0.2-0.2-0.3-0.4-0.5-0.6c0,0,0,0,0,0c0,0,0,0,0,0c0,0,0,0,0,0c0,0-0.1-0.1-0.1-0.1
	c-0.1-0.1-0.2-0.2-0.2-0.3c-0.2-0.3-0.4-0.5-0.6-0.8c-0.8-1-1.6-2-2.5-3c-1.6-1.9-3.4-3.6-5.2-5.2c-0.1,0-0.1-0.1-0.2-0.1
	c0-0.2,0-0.5,0-0.8c-0.3-2.5-2.4-4.1-4.3-5.5c-3.6-2.6-6.2-5.9-8.2-9.9c-2-4-3.3-8.4-4.5-12.8c-1.3-4.5-2.5-9-4.1-13.3
	c-0.9-2.4-2.2-4.6-3-7.1c-1-2.9-0.1-5.5,1.2-8.1c4.9-9.9,10.3-19.6,16.2-28.9c6.2-9.7,13.2-18.9,21.8-26.7c3,7.2,3.3,15.3,3.7,23
	c0.5,9.2,0.6,18.5,0.6,27.7c0,15.7,0,31.5-2.1,47.1c-1.1,8.3-2.9,16.5-5.8,24.4C74.1,336.5,73.5,336.9,72.9,337.3z"/>
<g>
	<g>
		<rect x="248.1" y="426.7" class="st0" width="24.8" height="222.9"/>
		<path d="M274.2,650.9h-27.3V425.5h27.3V650.9z M249.4,648.4h22.2V428h-22.2V648.4z"/>
	</g>
	<g>
		<rect x="231" y="417.5" class="st0" width="506.8" height="9.2"/>
		<path d="M739,428H229.7v-11.8H739V428z M232.2,425.5h504.2v-6.7H232.2V425.5z"/>
	</g>
	<g>
		<polygon class="st0" points="700,370.1 268.7,370.1 231,417.5 737.7,417.5 		"/>
		<path d="M740.4,418.8h-512l39.8-50h432.5L740.4,418.8z M233.6,416.2h501.5l-35.7-44.9H269.3L233.6,416.2z"/>
	</g>
	<g>
		<rect x="694" y="426.7" class="st0" width="24.8" height="222.9"/>
		<path d="M720.1,650.9h-27.3V425.5h27.3V650.9z M695.3,648.4h22.2V428h-22.2V648.4z"/>
	</g>
	<path d="M614.6,299.5c0-3.7,0-7.4-1.5-10.8c-1.5-3.3-4.1-5.8-6.5-8.4c-2.8-3.1-5.7-6.1-8.5-9.2c-2.4-2.6-4.8-4.7-8.5-5.1
		c-4-0.4-8.2,0-12.2,0.1c-4.3,0.1-8.6,0.2-12.8,0.2c-8.4,0.1-16.8,0.3-25.1,0.4c-34.1,0.4-68.1,0.4-102.2,0.2
		c-16.9-0.2-33.9-0.4-50.8-0.7c-4.1-0.1-8.3-0.5-12.4-0.1c-1.6,0.1-3.1,0.5-4.5,1.3c-1.8,1-3.1,2.5-4.6,3.9
		c-2.9,2.9-5.9,5.7-8.8,8.6c-1.5,1.5-3.1,3-4.6,4.5c-1.3,1.3-2.8,2.6-3.9,4.1c-2.3,3-2,6.8-2,10.3c0,4.3,0,8.6,0,12.8
		c0,8.4,0,16.8-0.1,25.1c-0.1,17.1-0.1,34.2-0.1,51.4c0,4.1,0,8.2,0,12.3c0,1.1,1.5,1.3,2,0.6c0.1,0,0.1,0,0.2,0
		c34.8,0.2,69.5,0.4,104.3,0.6c34.6,0.2,69.2,0.4,103.7,0.6c19.3,0.1,38.7,0.2,58,0.3c0.6,0.6,1.9,0.4,1.9-0.7
		C615.1,367.6,614.9,333.6,614.6,299.5z M353.4,285.4c1.5-1.5,3.1-3,4.6-4.5c2.9-2.9,5.9-5.7,8.8-8.6c1.3-1.2,2.5-2.6,4.2-3.4
		c1.8-0.9,3.9-0.8,5.8-0.8c16.6,0.2,33.1,0.6,49.7,0.8c33.2,0.4,66.4,0.4,99.5,0.1c16.6-0.1,33.2-0.4,49.8-0.7c4-0.1,8-0.3,12-0.2
		c1.8,0,3.5,0.2,5,1.1c1.6,1,2.8,2.5,4.1,3.8c2.8,3,5.6,6,8.4,9c2.1,2.3,4.5,4.6,5.8,7.4c-4.3,0.1-8.7,0.1-13,0.2
		c0-0.2-0.1-0.5-0.3-0.7c-1.4-1.4-2.8-2.8-4.2-4.2c-1.3-1.3-2.5-2.7-3.9-3.8c-2.8-2.2-6.7-1.5-10-1.5c-8.1,0-16.1,0.1-24.2,0.1
		c-16,0.1-32.1,0.1-48.1,0.2c-16.1,0.1-32.1,0.1-48.2,0.2c-15.9,0.1-31.9,0.2-47.8,0.1c-8,0-16.1-0.1-24.1-0.1c-4,0-8-0.1-12-0.2
		c-1.6,0-2.9,0.2-4.2,1.3c-1.3,1.2-2.6,2.5-3.8,3.8c-1.2,1.3-2.4,2.7-3.5,4.1c-0.1,0.2-0.2,0.4-0.2,0.5c-4.7-0.1-9.4-0.1-14.1-0.2
		C350.7,287.9,352.2,286.7,353.4,285.4z M595.5,289.6c-29,0.3-58,0.6-87.1,0.6c-34.1,0.1-68.1,0-102.2-0.3
		c-13.4-0.1-26.7-0.3-40.1-0.4c1.9-2.4,4.1-4.8,6.4-6.9c1.4-1.2,3.4-0.7,5.1-0.7c1.9,0,3.9,0.1,5.8,0.1c7.9,0.1,15.8,0.2,23.6,0.2
		c15.6,0,31.3,0,46.9-0.1c15.7-0.1,31.3-0.1,47-0.2c15.7-0.1,31.4-0.1,47.1-0.2c7.8,0,15.6-0.1,23.5-0.1c4,0,7.9,0,11.8-0.1
		c1.7,0,3.4-0.1,4.9,1c1.5,1.1,2.7,2.5,4,3.8C593.3,287.5,594.4,288.5,595.5,289.6z M509.8,399.7c-34.6-0.2-69.2-0.4-103.7-0.6
		c-19.5-0.1-39-0.2-58.5-0.3c0.1-32.7,0.2-65.3,0.3-98c0-1.9,0-3.8,0-5.7c0-1.3,0.1-2.5,0.6-3.7c0.1,0,0.1,0,0.2,0
		c34.2,0.5,68.5,0.8,102.7,0.9c34.1,0.1,68.1,0.1,102.2-0.2c19.2-0.1,38.4-0.3,57.6-0.6c0.3,0,0.5-0.1,0.7-0.2
		c1,3.7,0.7,7.7,0.7,11.4c0,4.1,0.1,8.2,0.1,12.3c0.1,8.2,0.1,16.4,0.2,24.6c0.1,16.6,0.3,33.2,0.4,49.7c0,3.6,0.1,7.2,0.1,10.9
		C578.8,400.1,544.3,399.9,509.8,399.7z"/>
	<path class="st0" d="M611.1,289.4c-4.3,0.1-8.7,0.1-13,0.2c0-0.2-0.1-0.5-0.3-0.7c-1.4-1.4-2.8-2.8-4.2-4.2
		c-1.3-1.3-2.5-2.7-3.9-3.8c-2.8-2.2-6.7-1.5-10-1.5c-8.1,0-16.1,0.1-24.2,0.1c-16,0.1-32.1,0.1-48.1,0.2
		c-16.1,0.1-32.1,0.1-48.2,0.2c-15.9,0.1-31.9,0.2-47.8,0.1c-8,0-16.1-0.1-24.1-0.1c-4,0-8-0.1-12-0.2c-1.6,0-2.9,0.2-4.2,1.3
		c-1.3,1.2-2.6,2.5-3.8,3.8c-1.2,1.3-2.4,2.7-3.5,4.1c-0.1,0.2-0.2,0.4-0.2,0.5c-4.7-0.1-9.4-0.1-14.1-0.2c1.1-1.4,2.6-2.6,3.9-3.9
		c1.5-1.5,3.1-3,4.6-4.5c2.9-2.9,5.9-5.7,8.8-8.6c1.3-1.2,2.5-2.6,4.2-3.4c1.8-0.9,3.9-0.8,5.8-0.8c16.6,0.2,33.1,0.6,49.7,0.8
		c33.2,0.4,66.4,0.4,99.5,0.1c16.6-0.1,33.2-0.4,49.8-0.7c4-0.1,8-0.3,12-0.2c1.8,0,3.5,0.2,5,1.1c1.6,1,2.8,2.5,4.1,3.8
		c2.8,3,5.6,6,8.4,9C607.4,284.3,609.8,286.6,611.1,289.4z"/>
	<path class="st1" d="M595.5,289.6c-29,0.3-58,0.6-87.1,0.6c-34.1,0.1-68.1,0-102.2-0.3c-13.4-0.1-26.7-0.3-40.1-0.4
		c1.9-2.4,4.1-4.8,6.4-6.9c1.4-1.2,3.4-0.7,5.1-0.7c1.9,0,3.9,0.1,5.8,0.1c7.9,0.1,15.8,0.2,23.6,0.2c15.6,0,31.3,0,46.9-0.1
		c15.7-0.1,31.3-0.1,47-0.2c15.7-0.1,31.4-0.1,47.1-0.2c7.8,0,15.6-0.1,23.5-0.1c4,0,7.9,0,11.8-0.1c1.7,0,3.4-0.1,4.9,1
		c1.5,1.1,2.7,2.5,4,3.8C593.3,287.5,594.4,288.5,595.5,289.6z"/>
	<path class="st0" d="M613.3,400.2c-34.5-0.2-69-0.4-103.5-0.6c-34.6-0.2-69.2-0.4-103.7-0.6c-19.5-0.1-39-0.2-58.5-0.3
		c0.1-32.7,0.2-65.3,0.3-98c0-1.9,0-3.8,0-5.7c0-1.3,0.1-2.5,0.6-3.7c0.1,0,0.1,0,0.2,0c34.2,0.5,68.5,0.8,102.7,0.9
		c34.1,0.1,68.1,0.1,102.2-0.2c19.2-0.1,38.4-0.3,57.6-0.6c0.3,0,0.5-0.1,0.7-0.2c1,3.7,0.7,7.7,0.7,11.4c0,4.1,0.1,8.2,0.1,12.3
		c0.1,8.2,0.1,16.4,0.2,24.6c0.1,16.6,0.3,33.2,0.4,49.7C613.2,393,613.3,396.6,613.3,400.2z"/>
	<path d="M499.6,316.8c6.3-0.2,12.5-0.4,18.8-0.7c3.1-0.1,6.2-0.3,9.3-0.7c3-0.4,5.9-1,8.9-1.6c2.5-0.5,5.7-0.5,7,2.1
		c0.6,1.2,0.3,2.6,0,3.9c-0.3,1.6-0.6,3.1-0.9,4.7c-0.9,6.1-1,12.2-0.6,18.3c0.3,6.1,1.1,12.2,1.7,18.3c0.3,3.1,0.7,6.2,0.9,9.3
		c0.1,1.3,0.3,2.8-0.3,4c-0.5,1-1.5,1.7-2.5,2.1c-2.5,1-5.5,1-8.1,1c-3,0-6.1-0.1-9.1-0.2c-6.5-0.2-13-0.3-19.5-0.5
		c-25.7-0.7-51.4-1.3-77.1-2c-1.6,0-3.1-0.1-4.7-0.1c-1.4,0-3,0.1-4.4-0.3c-2.9-0.8-2.6-4.5-2.6-6.9c-0.1-6.4-0.2-12.7-0.3-19.1
		c-0.1-6.3-0.3-12.6-0.4-18.9c-0.1-3.1,0-6.2,0.1-9.3c0.1-1.3,0.1-2.5,0.4-3.8c0.1-0.5,0.2-1.3,0.6-1.7c0.4-0.3,1.2-0.2,1.7-0.2
		c1.5,0.1,2.9,0.3,4.3,0.5c3.2,0.4,6.4,0.8,9.6,1.1c6.4,0.6,12.8,0.9,19.2,1.1c12.9,0.4,25.7,0.1,38.6-0.4
		C493.4,317.1,496.5,316.9,499.6,316.8c1.3,0,1.3-2,0-2c-13.5,0.5-27,1-40.5,0.8c-6.7-0.1-13.5-0.3-20.2-0.7
		c-3.4-0.2-6.7-0.5-10.1-0.9c-3.2-0.4-6.5-0.9-9.7-1.2c-1.5-0.2-3.1-0.1-4,1.3c-1.2,1.8-1,4.6-1.1,6.7c-0.4,6.5,0,12.9,0.2,19.4
		c0.1,6.7,0.2,13.5,0.3,20.3c0,3.3,0,6.6,0.2,9.8c0.2,2.5,0.9,5,3.4,6c1.1,0.4,2.2,0.5,3.4,0.5c1.8,0.1,3.7,0.1,5.5,0.1
		c3.4,0.1,6.8,0.2,10.2,0.3c6.7,0.2,13.4,0.3,20.1,0.5c13.5,0.3,27,0.7,40.5,1c6.8,0.2,13.6,0.3,20.3,0.5c3.4,0.1,6.8,0.2,10.2,0.3
		c3.2,0.1,6.5,0.2,9.7-0.1c2.4-0.2,4.8-0.6,6.8-2.1c2.2-1.7,2.4-4.3,2.1-6.9c-0.5-6.5-1.4-13-2-19.5c-0.6-6.4-1.1-12.9-0.7-19.4
		c0.2-3.2,0.5-6.5,1.2-9.7c0.5-2.7,1.4-5.3-0.4-7.7c-1.6-2.1-4.2-2.9-6.7-2.6c-1.4,0.1-2.8,0.5-4.3,0.8c-1.8,0.4-3.6,0.7-5.3,1
		c-6.4,0.8-13,0.9-19.5,1.1c-3.1,0.1-6.3,0.2-9.4,0.3C498.3,314.9,498.3,316.9,499.6,316.8z"/>
	<g>
		<path d="M437.2,336c1.6,1.1,2.5,3,3.4,4.6c1,1.8,2,3.6,3,5.4c2,3.7,3.8,7.5,5.5,11.3c0.4,0.8,1.8,0.6,1.9-0.3
			c0.6-3.8,2.5-7.1,4.1-10.5c1.7-3.5,2.6-7.2,3.7-11c0.4-1.3-1.7-1.9-2-0.6c-1.1,3.8-2.1,7.6-3.8,11.1c-1.6,3.3-3.4,6.6-4,10.3
			c0.6-0.1,1.3-0.2,1.9-0.3c-1.8-4.1-3.7-8.1-5.8-12c-1-1.9-2.1-3.8-3.2-5.7c-1-1.7-1.9-3.3-3.6-4.4
			C437.1,333.4,436.1,335.3,437.2,336L437.2,336z"/>
		<path d="M456.4,347.6c-0.5,2.6-0.5,5.4,1.3,7.5c1.8,2.1,4.9,3.1,7.6,3.4c5.3,0.4,10.6-2.9,11.9-8.2c1-3.8-0.1-8.5-2.3-11.8
			c-1.1-1.6-2.5-3-4.4-3.6c-2.1-0.7-4.4-0.3-6.3,0.6C459.8,337.7,457.3,343,456.4,347.6c-0.3,1.3,1.8,1.9,2,0.6
			c0.7-3.4,2.1-7,4.7-9.4c2.5-2.3,6.4-3,8.9-0.4c2.2,2.3,3.2,5.9,3.3,9c0.1,4.1-2.7,7.7-6.6,8.7c-2.6,0.7-5.5,0.2-7.8-1.1
			c-1.2-0.7-2.2-1.6-2.6-3c-0.3-1.2-0.2-2.6,0.1-3.9C458.7,346.9,456.7,346.3,456.4,347.6z"/>
		<path d="M484.2,336.8c-0.2,6.8-0.1,13.6,0.2,20.4c0.1,1.4,2.2,1.4,2.1,0c-0.4-6.8-0.5-13.6-0.2-20.4
			C486.3,335.5,484.2,335.5,484.2,336.8L484.2,336.8z"/>
		<path d="M476.8,337.9c5.7,0.2,11.3,0.1,17-0.2c1.4-0.1,1.4-2.2,0-2.1c-5.7,0.3-11.3,0.4-17,0.2
			C475.4,335.7,475.4,337.8,476.8,337.9L476.8,337.9z"/>
		<path d="M499.1,357c-0.8-5.5-1.3-11-1.4-16.6c0-1.3-0.2-2.3,0.9-3.2c0.8-0.7,1.8-1,2.8-1.2c2.2-0.3,4.5,0.3,6.5,1.1
			c1.2,0.5,2.3-1.3,1.1-1.8c-2.4-1.1-5-1.8-7.7-1.4c-2.3,0.3-5.1,1.6-5.6,4.1c-0.3,1.5-0.1,3.2,0,4.7c0.1,1.6,0.2,3.3,0.3,4.9
			c0.3,3.4,0.7,6.7,1.2,10C497.3,358.9,499.3,358.3,499.1,357L499.1,357z"/>
		<path d="M497.4,347c3.2,0,6.4,0,9.6,0c1.4,0,1.4-2.1,0-2.1c-3.2,0-6.4,0-9.6,0C496.1,344.8,496.1,347,497.4,347L497.4,347z"/>
		<path d="M498.3,358.5c4.5,0.3,9-0.5,13.1-2.5c0.5-0.2,0.7-1,0.4-1.5c-0.3-0.5-0.9-0.6-1.5-0.4c-3.7,1.8-7.9,2.5-12,2.2
			C496.9,356.3,496.9,358.4,498.3,358.5L498.3,358.5z"/>
	</g>
	<path d="M94.5,156.7c-1.8,0-3.5,0.2-5.2,0.5c-0.6,0.1-1.2,0.2-1.8,0.3c-13.6,2.9-25.1,12.4-33.1,23.5c-4.7,6.5-8.4,13.6-11.8,20.8
		c-3.5,7.4-6.3,15-10,22.2c-3.8,7.4-9.4,13.4-14.2,20.1c-4.7,6.6-8.7,13.8-11.8,21.3c-1.6,3.8-2.9,7.9-3.4,12c-0.5,4-0.1,8,1.1,11.9
		c1.2,3.8,3.1,7.4,5.1,10.8c2,3.4,4.1,6.7,6.3,10c2.1,3.2,4.5,6.2,7.4,8.8c3,2.7,6.5,4.5,9.9,6.6c5.3,3.2,10.8,7.7,12,13.9
		c2.2-1.6,4.4-3.3,6.6-4.9c1.5-1.1,2.9-2.1,4.3-3.2c1.2-0.9,2.6-1.7,3.5-2.9c1.9-2.3-0.5-4-2.3-5.3c-2.1-1.5-3.9-3.2-5.5-5.2
		c-5.6-7.2-7.6-16.4-10.1-25c-0.7-2.2-1.3-4.5-2.1-6.6c-0.9-2.4-2-4.6-3-6.9c-0.1-0.3-0.2-0.6-0.3-1c-0.4-1.1-0.6-2.2-0.6-3.4
		c0-1.3,0.2-2.7,0.6-4c0.9-2.7,2.4-5.2,3.7-7.7c9.8-18.6,20.4-37.6,36.2-51.8c0.5-0.5,1-0.9,1.5-1.3c0.7-0.6,1.9-0.6,2.4,0.3
		c0.1,0.1,0.1,0.2,0.2,0.3c4.2,8.6,4.4,18.8,4.9,28.2c0.4,9.3,0.5,18.7,0.5,28c0,7.8,0,15.7-0.4,23.6c-0.6,14.4-2,29.2-6.5,43
		c-0.4,1.3-0.9,2.6-1.4,3.9c-0.7,1.8-3.6,1-2.9-0.8c0.1-0.2,0.2-0.4,0.2-0.6c2.9-7.9,4.7-16.1,5.8-24.4c2.1-15.6,2.1-31.4,2.1-47.1
		c0-9.2-0.1-18.5-0.6-27.7c-0.4-7.6-0.7-15.8-3.7-23c-8.6,7.7-15.6,16.9-21.8,26.7c-5.9,9.3-11.3,19.1-16.2,28.9
		c-1.3,2.6-2.1,5.2-1.2,8.1c0.8,2.4,2.1,4.7,3,7.1c1.7,4.3,2.9,8.9,4.1,13.3c1.2,4.3,2.5,8.7,4.5,12.8c2,4,4.6,7.3,8.2,9.9
		c1.9,1.4,4,3,4.3,5.5c0,0.3,0,0.5,0,0.8c0,1.1-0.5,2.1-1.2,3c-0.7,0.9-1.6,1.7-2.4,2.4c-3,2.3-6.1,4.6-9.2,6.8
		c-0.9,0.6-1.8,1.3-2.6,1.9c-1.1,0.8-2.3,1.6-3.4,2.5c-1,0.7-2.3-0.2-2.3-1.3c0-1.7-0.3-3.3-1-4.8c-3.5-7.2-11.6-9.8-17.7-14.2
		c-6.5-4.8-10.7-11.8-14.9-18.5c-4.3-6.8-8.3-14.2-8.7-22.5c-0.4-8.5,3-16.8,6.6-24.3c3.6-7.5,8.2-14.4,13.3-20.9
		c2.6-3.3,5.2-6.5,7.4-10c2.2-3.6,4-7.4,5.7-11.3c6.5-14.8,12.8-30.1,23.6-42.5c7.6-8.7,17.7-15.8,28.9-18.5
		c2.9-0.7,5.9-1.1,8.9-1.2C96.5,153.6,96.5,156.6,94.5,156.7z"/>
	<path d="M307.7,191.8c-0.8-0.5-1.6-1.1-2.5-1.5c-6.7-4-13.8-7.1-21.2-9.7c-14.9-5.3-30.4-8.7-44.9-15c-3.6-1.6-7.1-3.3-10.5-5.3
		c-3.4-1.9-6.6-4.2-9.7-6.4c-3.4-2.4-7-4.9-10.8-6.7c-3.1-1.5-6.4-2.7-9.9-3.1c-0.8-0.1-1.5-0.6-1.5-1.5c0-0.8,0.7-1.6,1.5-1.5
		c3.9,0.4,7.5,1.7,11,3.3c4.5,2.2,8.6,5,12.7,7.9c6.5,4.5,13.3,8.4,20.7,11.4c7.4,3,15,5.4,22.6,7.7c15.1,4.5,30.5,9,43.8,17.7
		c0.1,0,0.1,0.1,0.2,0.1C310.9,190.3,309.3,192.9,307.7,191.8z"/>
	<path d="M73.7,339.5c-0.4,0.7-1.4,0.9-2.1,0.5c-0.5-0.2-0.8-0.5-1.2-0.9c-0.6-0.6-1-1.2-1.5-1.9c-0.7-0.9-1.4-1.8-2.2-2.7
		c-1.4-1.6-2.9-3.1-4.5-4.6c-0.3-0.3-0.6-0.5-0.8-0.7c-0.6-0.5-0.5-1.6,0-2.2c0.6-0.6,1.4-0.5,2-0.1c0.1,0,0.1,0.1,0.2,0.1
		c1.9,1.6,3.6,3.3,5.2,5.2c0.9,1,1.7,2,2.5,3c0.2,0.2,0.4,0.5,0.6,0.8c0.1,0.1,0.2,0.2,0.2,0.3c0,0,0,0.1,0.1,0.1c0,0,0,0,0,0
		c0,0,0,0,0,0c0,0,0,0,0,0c0.2,0.2,0.3,0.4,0.5,0.6c0.1,0.1,0.1,0.1,0.3,0.2c0.1,0,0.1,0.1,0.2,0.1
		C73.9,337.8,74.1,338.8,73.7,339.5z"/>
	<path d="M114,355.7c-0.5,0.2-1,0.4-1.6,0.4c-1.1,0-2.3-0.4-3.2-0.8c0,0-0.1,0-0.1,0c-1.7-0.8-3.3-1.9-4.9-2.9c-3.3-2-6.6-4-10-6
		c-1.7-1-0.1-3.7,1.5-2.6c3.6,2.1,7.1,4.3,10.7,6.4c1.5,0.9,3.2,2.2,4.9,2.7c0.2,0.1,0.8,0.2,1.1,0.2c0,0,0-0.1-0.1-0.2
		c-0.2-0.2-0.3-0.8-0.4-1.1c-0.2-0.3-0.4-0.7-0.6-1c-1.9-2.8-5.2-4.7-8.1-6.3c-3.2-1.8-6.5-3.1-10-4.1c-1.8-0.5-1.2-2.9,0.4-3
		c4.4-0.4,8.5,1.5,12.9,1.8c0.9,0.1,1.7,0,2.6-0.1c0.2,0,0.2-0.1,0.3-0.1c-0.1-0.2-0.4-0.5-0.5-0.7c-1.1-1.2-3-1.8-4.6-2.4
		c-3.8-1.4-7.9-2.6-11.8-3.2c-2-0.3-4-0.3-6,0.3c-1.9,0.6-3.6,1.8-5.3,2.8c-3.3,1.9-7.1,3.7-9.8,6.5c-1.4,1.4-3.5-0.8-2.2-2.2
		c0.3-0.3,0.7-0.7,1.1-1c0.8-0.7,1.6-1.3,2.5-1.9c0.6-0.4,1.2-0.7,1.8-1.1c0.2-0.1,0.5-0.3,0.7-0.4c1.1-0.7,2.2-1.3,3.3-2
		c1.3-0.8,2.7-1.6,4-2.3c2.1-1.1,4.3-1.8,6.7-1.9c2.4-0.1,4.9,0.4,7.2,1c2.3,0.6,4.6,1.2,6.8,1.9c2.1,0.7,4.5,1.4,6.3,2.7
		c1.5,1.1,3.2,2.9,2.5,4.9c-0.7,2.1-3.4,2.3-5.3,2.2c-0.6,0-1.2-0.1-1.8-0.1c2.7,1.5,5.4,3.3,7.5,5.6
		C114.6,349.6,117.3,354,114,355.7z"/>
	<path d="M110.9,361c-1.5,1.2-3.4,1.2-5.2,0.7c0,0,0,0,0,0c-0.6-0.2-1.2-0.4-1.8-0.7c-0.8-0.4-1.6-0.9-2.4-1.4
		c-1.5-1-2.9-2.3-4.2-3.4c-1.1-0.8-2.1-1.7-3.2-2.6c-0.9-0.7-1.9-1.4-3.2-1.4c-2,0-2-3,0-3.1c2.3,0,4.2,1.3,5.9,2.7
		c1.8,1.5,3.7,3,5.5,4.5c1.5,1.2,3.6,2.7,5.6,2.5c1.9-0.1,1.4-2.3,1.2-3.6c0,0,0,0,0-0.1c-0.3-1.9,2.5-2.7,3-0.7
		c0.1,0.5,0.2,1,0.3,1.6C112.6,357.9,112.4,359.8,110.9,361z"/>
	<path class="st0" d="M112.5,353c-0.3,0.1-0.9-0.1-1.1-0.2c-1.8-0.5-3.4-1.8-4.9-2.7c-3.6-2.1-7.1-4.3-10.7-6.4
		c-1.7-1-3.2,1.6-1.5,2.6c3.3,2,6.6,4,10,6c1.6,1,3.2,2,4.9,2.9c0,0,0.1,0,0.1,0c0,0,0,0,0,0.1c0.3,1.3,0.7,3.5-1.2,3.6
		c-2,0.2-4.1-1.4-5.6-2.5c-1.9-1.4-3.7-3-5.5-4.5c-1.7-1.4-3.6-2.8-5.9-2.7c-2,0-2,3.1,0,3.1c1.2,0,2.2,0.7,3.2,1.4
		c1.1,0.8,2.1,1.7,3.2,2.6c1.4,1.1,2.8,2.3,4.2,3.4c-0.1,0.5,0.1,1,0.4,1.4c0.7,0.8,1.1,1.9,1.1,3c0,0.5,0.1,0.8-0.5,0.9
		c-0.6,0.2-1.2,0-1.8-0.2c-2.2-0.8-3.9-2.7-5.9-3.9c-2.2-1.2-4.7-2.1-7.2-1.7c-2.2,0.4-3.9,1.8-5.5,3.3c-1,0.9-2,1.9-3.2,2.4
		c-0.2,0-0.4,0.1-0.6,0.2c-0.5,0.1-1,0.2-1.5,0.1c-2.3-0.3-3.5-2.2-4.6-4.1c-2.6-4.4-6.1-8-9.8-11.6c-3.8-3.7-7.6-7.3-12-10.3
		c3.1-2.3,6.2-4.5,9.2-6.8c0.9-0.7,1.8-1.5,2.4-2.4c1.6,1.4,3.1,2.9,4.5,4.6c0.8,0.9,1.5,1.8,2.2,2.7c0.5,0.6,0.9,1.3,1.5,1.9
		c-0.4,0.3-0.7,0.6-1.1,1c-1.4,1.4,0.8,3.6,2.2,2.2c2.7-2.8,6.4-4.5,9.8-6.5c1.7-1,3.4-2.2,5.3-2.8c1.9-0.6,4-0.6,6-0.3
		c4,0.6,8.1,1.8,11.8,3.2c1.5,0.6,3.4,1.1,4.6,2.4c0.1,0.1,0.4,0.4,0.5,0.7c0,0-0.1,0.1-0.3,0.1c-0.9,0.1-1.7,0.2-2.6,0.1
		c-4.3-0.3-8.4-2.2-12.9-1.8c-1.6,0.2-2.2,2.5-0.4,3c3.5,1,6.8,2.3,10,4.1c2.9,1.6,6.2,3.5,8.1,6.3c0.2,0.3,0.4,0.6,0.6,1
		c0.1,0.3,0.2,0.9,0.4,1.1C112.5,352.9,112.5,353,112.5,353z"/>
	<path d="M105,367.1c-2.4,2-5.8,0.5-8-1.1c-2.1-1.6-4.3-3.4-7.1-3.8c-2.6-0.4-4.3,1.4-6,3c-1.2,1.2-2.6,2.1-4.1,2.7
		c-0.7,0.2-1.4,0.4-2.2,0.4c-0.5,0-1,0-1.4-0.1c-2.1-0.4-3.9-1.7-5.2-3.4c-1.6-2.1-2.7-4.5-4.4-6.6c-1.8-2.1-3.8-4-5.8-6
		c-4-4-8.1-7.9-12.9-11c-0.1-0.1-0.2-0.2-0.4-0.2c-1.7-1-0.1-3.7,1.5-2.6c0.5,0.3,1,0.6,1.4,1c4.4,3,8.2,6.6,12,10.3
		c3.6,3.6,7.2,7.1,9.8,11.6c1.1,1.8,2.3,3.8,4.6,4.1c0.5,0.1,1.1,0,1.5-0.1c0.2,0,0.4-0.1,0.6-0.2c1.2-0.5,2.3-1.4,3.2-2.4
		c1.6-1.5,3.3-2.9,5.5-3.3c2.5-0.4,5,0.4,7.2,1.7c2,1.2,3.7,3,5.9,3.9c0.5,0.2,1.2,0.4,1.8,0.2c0.5-0.2,0.5-0.4,0.5-0.9
		c-0.1-1.1-0.5-2.2-1.1-3c-0.3-0.4-0.5-0.9-0.4-1.4c0-0.3,0.2-0.5,0.4-0.8c0.5-0.5,1.7-0.7,2.2,0c0.6,0.7,1.2,1.7,1.6,2.8
		c0,0,0,0,0,0C106.5,363.6,106.6,365.8,105,367.1z"/>
	<path d="M429.1,203c-3.9,1.1-8.1-1.6-11.5-3.2c-0.7-0.3-1.3-0.7-2-1c-1-0.5-2-1-2.9-1.5c-1.9-1-3.9-2.1-5.7-3.3
		c-0.9-0.6-1.8-1.1-2.6-1.7c-2.5-1.7-4.8-3.6-7-5.7c-1.4-1.4,0.7-3.5,2.2-2.2c6,5.7,13.2,9.7,20.7,13.3c2.5,1.2,6.9,4,9.5,1.6
		c2.8-2.5-3.1-5.3-4.8-6c-3.3-1.3-6.6-2.5-9.6-4.4c-3.1-2-5.9-4.4-8.5-7c-2.5-2.5-4.9-5.5-8.5-6.4c-3.4-0.9-6.4,1.2-8.4,3.8
		c-2.2,2.8-3.2,6.6-6.3,8.6c-1.5,1-3.3,1.6-4.9,2.3c-1.6,0.6-3.2,1.2-4.9,1.7c-0.2,0.1-0.5,0.1-0.7,0.2c-1.9,0.6-2.7-2.4-0.8-2.9
		c0.3-0.1,0.7-0.2,1-0.3c2.1-0.6,4.1-1.4,6.1-2.2c1-0.4,2-0.8,2.9-1.5c0.9-0.6,1.5-1.5,2-2.4c2.1-3.7,4.3-7.7,8.4-9.6
		c7.4-3.4,12.9,3.2,17.9,8c0.7,0.6,1.3,1.3,2,1.8c1,0.8,2,1.7,3.1,2.4c2.2,1.5,4.5,2.8,6.9,3.7c3.5,1.3,7.6,2.5,9.9,5.7
		C434.6,198,432.8,202,429.1,203z"/>
	<path d="M415.9,205.6c0,0.4-0.2,0.8-0.8,1.1c-0.7,0.3-1.4,0.6-2,1c-5.1,2.4-10.4,4.7-16.1,4c-3-0.4-5.9-1.4-8.5-3
		c-1.3-0.8-2.5-1.8-3.7-2.7c-0.9-0.7-1.9-0.7-2.8-0.5c-0.5,0.1-1,0.3-1.5,0.4c-1.9,0.6-2.7-2.3-0.8-3c0.1,0,0.2-0.1,0.3-0.1
		c1.5-0.5,3-0.9,4.6-0.4c1.4,0.4,2.4,1.4,3.5,2.3c2.3,1.8,5,3.1,7.9,3.7c5.9,1.2,11.6-1.5,16.8-4c0.3-0.1,0.6-0.3,0.8-0.4
		c1.1-0.5,2,0.2,2.3,1.1c0,0,0,0,0,0C415.9,205.3,415.9,205.4,415.9,205.6z"/>
	<path d="M548.7,176.4c-0.4,0-0.7,0.1-1.1,0.1c-9.7,0.7-19.4,1.2-29.1,1.4c-17.9,0.5-35.9,0.4-53.8,0.2c-17.4-0.2-34.7-0.4-52.1-0.6
		c0.5,2.5,1.4,4.8,2.7,7c0.2,0.3,0.2,0.6,0.2,0.8c-0.1,1.3-2,2.1-2.9,0.7c-0.9-1.6-1.7-3.2-2.2-4.9c-0.5-1.7-0.9-3.4-1.1-5.2
		c-0.1-0.8,0.8-1.5,1.5-1.5c10.1,0.1,20.2,0.2,30.3,0.4c18,0.2,35.9,0.5,53.9,0.4c17.9-0.1,35.7-0.6,53.6-1.9c0.8-0.1,1.3,0.4,1.4,1
		C550.4,175.2,549.9,176.3,548.7,176.4z"/>
	<path class="st0" d="M559,242.1c-17.7-5.5-36.6-4.6-54.9-5.7c-19.6-1.2-39.3-3.2-58.8-0.1c-9.4,1.5-18.7,4.2-27.1,8.6
		c-0.4-2.6,0-5.3,0.3-7.9c0.5-3.3,0.8-6.5,0.6-9.8c-0.4-6.5-2-12.9-3-19.3c-0.1-0.8-0.2-1.5-0.3-2.3c0-0.1,0-0.3-0.1-0.4
		c0,0,0,0,0,0c-0.2-2.1-0.3-4.2-0.2-6.3c0.7,0.3,1.3,0.7,2,1c3.4,1.6,7.6,4.3,11.5,3.2c3.7-1,5.5-5,3.2-8.2
		c-2.3-3.2-6.4-4.3-9.9-5.7c-2.5-1-4.8-2.2-6.9-3.7c0-0.3-0.1-0.5-0.2-0.8c-1.3-2.2-2.2-4.5-2.7-7c17.4,0.2,34.7,0.4,52.1,0.6
		c18,0.2,35.9,0.3,53.8-0.2c9.7-0.3,19.4-0.7,29.1-1.4c3.1,17.7,6.1,35.3,9.2,53C557.6,233.7,558.3,237.9,559,242.1z"/>
	<path d="M560.5,245.8c-10-3.4-20.5-4.6-31-5.2c-9.6-0.5-19.2-0.7-28.8-1.4c-10.1-0.7-20.2-1.5-30.3-1.6c-18-0.2-36.6,2-52.6,10.9
		c-0.9,0.5-2,0-2.3-0.9c-1.1-3.7-0.6-7.6-0.1-11.4c0.5-3.3,0.7-6.6,0.5-10c-0.2-3.2-0.8-6.4-1.4-9.6c-0.6-3-1.1-6-1.6-9
		c-0.1-1.1-0.3-2.1-0.3-3.2c-0.2-2.4-0.2-4.7,0-7.1c0-0.1,0-0.3,0-0.4c0.2-1.9,3.3-2,3.1,0c-0.1,0.6-0.1,1.3-0.1,1.9
		c-0.1,2.1,0,4.2,0.2,6.3c0,0,0,0,0,0c0,0.1,0,0.3,0.1,0.4c0.1,0.8,0.2,1.5,0.3,2.3c0.9,6.4,2.6,12.8,3,19.3
		c0.2,3.3-0.2,6.5-0.6,9.8c-0.4,2.6-0.7,5.3-0.3,7.9c8.5-4.4,17.7-7.1,27.1-8.6c19.5-3.1,39.2-1.1,58.8,0.1
		c18.3,1.1,37.2,0.3,54.9,5.7c-0.7-4.2-1.5-8.4-2.2-12.6c-3.1-17.7-6.1-35.3-9.2-53c0-0.2-0.1-0.4-0.1-0.6c-0.3-1.6,1.7-2.5,2.6-1.5
		c0.2,0.2,0.3,0.4,0.3,0.7c0.9,5.1,1.8,10.2,2.6,15.2c3.1,17.9,6.2,35.7,9.3,53.6C562.6,244.9,561.7,246.2,560.5,245.8z"/>
	<path d="M407.4,193.5c-0.1,0.2-0.3,0.3-0.4,0.5c-1.5,1.7-3.5,2.9-5.5,4c-1.1,0.6-2.2,1.1-3.3,1.5c-1.3,0.6-2.6,1.2-3.9,1.5
		c-1.9,0.5-2.7-2.5-0.8-2.9c1.2-0.3,2.3-0.8,3.5-1.3c1-0.5,2.1-0.9,3.1-1.4c1.6-0.8,3.1-1.8,4.4-3.1c0.3-0.3,0.6-0.6,0.9-0.9
		c0.5-0.6,1.6-0.6,2.2,0C408,192,407.9,192.9,407.4,193.5z"/>
	<path class="st0" d="M424.9,193.3c-3.3-1.3-6.6-2.5-9.6-4.4c-3.1-2-5.9-4.4-8.5-7c-2.5-2.5-4.9-5.5-8.5-6.4
		c-3.4-0.9-6.4,1.2-8.4,3.8c-2.2,2.8-3.2,6.6-6.3,8.6c-1.5,1-3.3,1.6-4.9,2.3c-1.6,0.6-3.2,1.2-4.9,1.7c1,4.2,3.2,8,6.3,11
		c1.5-0.5,3-0.9,4.6-0.4c1.4,0.4,2.4,1.4,3.5,2.3c2.3,1.8,5,3.1,7.9,3.7c5.9,1.2,11.6-1.5,16.8-4c-0.2-2.4-0.2-4.7,0-7.1
		c-1.9-1-3.9-2.1-5.7-3.3c-1.5,1.7-3.5,2.9-5.5,4c-1.1,0.6-2.2,1.1-3.3,1.5c-1.3,0.6-2.6,1.2-3.9,1.5c-1.9,0.5-2.7-2.5-0.8-2.9
		c1.2-0.3,2.3-0.8,3.5-1.3c1-0.5,2.1-0.9,3.1-1.4c1.6-0.8,3.1-1.8,4.4-3.1c-2.5-1.7-4.8-3.6-7-5.7c-1.4-1.4,0.7-3.5,2.2-2.2
		c6,5.7,13.2,9.7,20.7,13.3c2.5,1.2,6.9,4,9.5,1.6C432.4,196.8,426.6,194,424.9,193.3z M392.7,196.9c-3.3,1.2-6.8,1-10.2,0.9
		c-0.9,0-1.5-0.7-1.5-1.5c0-0.8,0.7-1.6,1.5-1.5c3.3,0.2,6.4,0.3,9.4-0.7c0.8-0.3,1.6,0.3,1.9,1.1
		C394,195.9,393.4,196.6,392.7,196.9z"/>
	<path d="M392.7,196.9c-3.3,1.2-6.8,1-10.2,0.9c-0.9,0-1.5-0.7-1.5-1.5c0-0.8,0.7-1.6,1.5-1.5c3.3,0.2,6.4,0.3,9.4-0.7
		c0.8-0.3,1.6,0.3,1.9,1.1C394,195.9,393.4,196.6,392.7,196.9z"/>
	<path d="M218.9,536.8c0,0.3-0.1,0.6-0.2,0.8c-0.7,1.1-2.9,0.9-2.8-0.8c0-0.2,0-0.3,0-0.5c0.1-2.6,0.2-5.2,0.3-7.7
		c0.1-5.5,0.1-11.1-0.7-16.5c-0.7-5.3-2.7-10-5.3-14.7c-5.2-9.6-10.9-18.9-15.9-28.6c-4.8-9-8.5-18.6-13.4-27.6
		c-2.3-4.3-5-8.4-8.2-12.1c-3.2-3.6-7.2-6.8-12.1-7.5c-1.2-0.2-2.5-0.2-3.8,0c-0.7,0.1-2.2,0.3-2.6,0.9c-0.3,0.5-0.4,1.7-0.5,2.2
		c-0.1,0.7-0.3,1.3-0.4,2c-0.3,1.3-0.5,2.7-0.8,4c-1,5.4-1.9,10.9-2.8,16.4c-1.6,11.1-2.8,22.2-4,33.3c-1.2,11.2-2.4,22.3-3.7,33.5
		c-0.6,5.3-1.3,10.6-1.6,16c-0.3,5.5-0.1,10.8,0.5,16.3c1.1,11.2,2.3,22.4,3.1,33.6c0.2,2.9,0.4,5.9,0.5,8.8
		c0.1,2.7,0.1,5.4,0.3,8.1c0.2,2.6,1.9,4.5,3.4,6.5c1.7,2.2,3.3,4.5,5,6.7c0.7,1-0.3,2.3-1.3,2.3c-1.4,0-2.9,0.1-4.3,0.2
		c-0.6,0.1-1.3,0.1-1.9,0.2c-0.4,0.1-0.8,0.1-1.2,0.2c-8,1.3-15.6,4.1-23.6,5.4c-1.3,0.2-2.7,0.4-4,0.6h0c-1.2,0.1-2.4,0.2-3.6,0.2
		c-1.7,0-3.3-0.1-4.9-0.4c-4.4-0.9-0.7-8,0.4-10.3c0.9-1.9,1.6-3.8,2-5.9c0.4-2.2,0.5-4.4,0.5-6.6c0-4.8,0-9.6-0.1-14.4
		c0-9.6,0.2-19.2-0.3-28.8c-0.2-4.6-1-9-2.5-13.4c-0.7-2-1.4-4-1.7-6.1c-0.4-2.3-0.5-4.7-0.7-7.1c-0.8-9.7-1.6-19.4-2.5-29.1
		c-1.8-19.3-3.7-38.6-5.7-57.8c-1-9.6-2-19.3-3-28.9c-0.5-4.8-1-9.7-1.5-14.5c-0.4-4.1-1-8.3-3.4-11.8c-0.1-0.1-0.1-0.2-0.1-0.2
		c-0.7-1.6,1.7-2.9,2.8-1.3c0.3,0.4,0.5,0.8,0.7,1.2h0c0.8,1.4,1.3,2.8,1.8,4.3c1.2,4.1,1.4,8.6,1.8,12.8c0.5,4.8,1,9.6,1.5,14.4
		c1,9.5,2,19,2.9,28.4c2,19.1,3.9,38.3,5.6,57.4c0.9,9.6,1.7,19.2,2.5,28.8c0.3,4.3,2.1,8.2,3.2,12.3c1.2,4.4,1.4,9.1,1.5,13.7
		c0.2,9.5,0.1,19.1,0.2,28.6c0,4.7,0.2,9.3,0,14c-0.1,2.2-0.4,4.4-1,6.5c-0.6,2-1.5,3.8-2.3,5.7c-0.4,1-0.8,1.9-1.1,2.9
		c-0.2,0.5-0.3,1-0.4,1.5c0,0.2-0.1,0.4-0.1,0.6c0,0,0,0.1,0,0.1c0.1,0,0.3,0.1,0.3,0.1c0.3,0,0.5,0,0.8,0.1c0.5,0,0.9,0.1,1.4,0.1
		c1,0,2,0,3,0c4.2-0.2,8.3-1.1,12.3-2.1c7.2-1.8,14.4-4.1,21.8-4.6c-1.2-1.6-2.3-3.1-3.5-4.7c-1.5-2.1-3.1-4-3.6-6.6
		c-0.4-2.7-0.3-5.6-0.4-8.3c-0.3-5.9-0.7-11.7-1.2-17.6c-0.5-5.8-1.1-11.7-1.7-17.5c-0.6-5.7-1.4-11.4-1.5-17.1
		c-0.2-11.2,1.7-22.4,2.9-33.5c1.3-11.6,2.5-23.3,3.8-34.9c1.3-11.5,2.7-23,4.8-34.5c0.5-2.8,1.1-5.7,1.6-8.5c0.3-1.4,0.4-3,1-4.4
		c0.4-0.9,1-1.6,1.9-2.1c0.4-0.2,0.8-0.3,1.2-0.5c0.6-0.2,1.2-0.4,1.9-0.5c2.1-0.4,4.3-0.2,6.4,0.3c1.8,0.5,3.5,1.2,5,2
		c4.3,2.5,7.7,6.4,10.6,10.3c3,4.1,5.5,8.6,7.7,13.2c2.3,4.6,4.3,9.3,6.5,13.9c2.4,5.1,5.1,10.1,7.8,15.1c2.8,5,5.6,10,8.5,15
		c2.7,4.7,5.6,9.5,7.6,14.6c2,5.2,2.6,10.8,2.8,16.3C219.3,525.2,219.2,531,218.9,536.8z"/>
	<path d="M246.6,611.2c-0.1,0.1-0.3,0.3-0.5,0.4c-1,0.7-2.2,1.1-3.5,1.4h0c-1.3,0.3-2.6,0.4-3.8,0.6c-6.1,1-12.2,2.1-18.3,3.1h0
		c-0.1,0-0.1,0-0.2,0c-1.2,0.2-2.3,0.4-3.5,0.6c-0.5,0.1-0.9,0.2-1.4,0.2c-1.1,0.2-2.2,0.4-3.2-0.2c-1.1-0.7-1.3-2-1-3.2
		c0.4-1.4,0.8-2.8,1.2-4.2c1.5-5.8,2.5-11.7,3-17.7c0.5-6.2,0.1-12.3-0.3-18.4c-0.2-3-0.3-6.1,0.1-9.1c0.4-3,1.1-6,1.5-9
		c0.7-6,0.2-12.1-1.3-18c-0.1-0.6,0-1.1,0.3-1.4c0.7-0.8,2.3-0.8,2.6,0.6c0.1,0.2,0.1,0.5,0.2,0.7c0.6,2.5,1.1,5.1,1.3,7.7
		c0.6,5.9-0.2,11.6-1.2,17.4c-1.1,6-0.2,12,0.1,18c0.2,5.9,0,11.7-0.8,17.6c-0.4,2.9-0.9,5.7-1.5,8.6c-0.3,1.5-0.7,2.9-1.1,4.3
		c-0.1,0.3-0.6,2.4-0.9,3.4c0.3-0.1,0.7-0.1,0.9-0.1c0.7-0.1,1.5-0.2,2.2-0.4c1.5-0.2,2.9-0.5,4.4-0.7c3.1-0.5,6.2-1,9.2-1.6
		c3-0.5,6-1,9-1.5c1.8-0.3,5.1-0.4,4.9-2.9c-0.1-1.4-0.8-2.8-1.2-4.2c-0.5-1.3-0.9-2.7-1.2-4c-0.7-2.9-1-5.8-0.8-8.8
		c0.2-6,1-11.9,1.3-17.9c0.7-12.2,1.1-24.4,0.9-36.7c-0.2-12.3-1.4-24.5-1.9-36.7c-0.1-3,0.1-6.2-0.3-9.2c-0.4-2.7-2-4.8-3.5-7
		c-3.1-4.6-5.3-9.7-7-14.8c-1.8-5.4-3.1-11-4.7-16.5c-1.7-5.7-4.1-11.2-6.2-16.8c-2.2-5.7-4.5-11.4-6.7-17
		c-2.1-5.2-4.4-10.3-6.5-15.5c-2-4.9-3.6-10-3.7-15.3c-0.1-5.6,0.4-11.1,1-16.7c0.1-0.6,0.1-1.1,0.2-1.7c0.2-1.9,3.2-2,3.1,0
		c0,0.3-0.1,0.7-0.1,1c-0.3,2.7-0.5,5.4-0.7,8.1c-0.4,5.9-0.7,11.7,1,17.4c1.6,5.4,4.1,10.4,6.3,15.6c2.4,5.7,4.6,11.4,6.8,17.2
		c2.3,5.8,4.7,11.6,6.8,17.4c4.1,11,5.5,22.8,11.3,33.1c1.3,2.4,3.1,4.5,4.3,6.9c1.4,2.7,1.6,5.4,1.7,8.4c0.1,6.3,0.5,12.6,0.9,18.8
		c0.8,12.6,1.3,25.1,1.2,37.7c-0.2,12.5-1,25-2,37.5c-0.2,3-0.4,6.1,0.2,9c0.5,2.9,1.7,5.6,2.5,8.4
		C248.4,607.2,248.4,609.6,246.6,611.2z"/>
	<path d="M190,644.9c-0.3,2.7-1,5.7-2.7,8c-1.6,2.2-4.1,3.3-6.7,3.9c-3,0.6-6.1,0.9-9.2,1.2c-6.6,0.6-13.3,0.9-19.9,1
		c-6.7,0.1-13.3-0.1-20-0.3c-2.9-0.1-5.8-0.1-8.6-1c-2.7-0.9-4.9-2.5-6.4-4.8c-3.6-5.1-3.3-11.9-3.5-17.9c-0.1-3.3-0.3-6.6-0.4-9.9
		c-0.1-2-0.2-4,0.5-5.8c0.3-0.7,0.6-1.4,1.2-2c1.2-1.3,3,0.3,2.4,1.7h0c-0.1,0.2-0.1,0.3-0.3,0.4c-0.8,1-0.9,2.4-0.9,3.6
		c0,1.7,0.1,3.4,0.2,5.1c0.1,3.4,0.3,6.9,0.4,10.3c0,0.3,0,0.7,0,1c0.1,1.2,0.1,2.4,0.3,3.7c0.5,4.6,1.9,9.3,6.4,11.3
		c2.4,1.1,5.2,1.2,7.8,1.2c3,0.1,6.1,0.2,9.2,0.2c6.4,0.1,12.8,0.1,19.1-0.1c6.2-0.2,12.5-0.6,18.6-1.5c2.3-0.3,4.9-0.7,6.6-2.4
		c1.4-1.4,2.1-3.6,2.5-5.7c0.1-0.4,0.1-0.8,0.2-1.2c0.1-0.6,0.1-1.2,0.1-1.8c0.2-4.7-1.3-9.4-4.2-13c-3.2-3.8-7.7-6.4-12.7-6.8
		c-3-0.3-6.1,0.1-9,0.7c-1.4,0.3-2.9,0.7-4.3,1.1c-0.3,0.1-0.6,0.2-0.9,0.2c-1.1,0.2-2.2,0.2-3.3-0.4c-0.5-0.3-1-0.6-1.5-1
		c-0.7-0.5-1.4-1.1-2-1.6c-1-0.8-2-1.7-2.8-2.8c-1.5-1.9-2.3-4.3-2-6.7c0-0.3,0.1-0.6,0.2-0.8c0.4-1.8,3-1.2,3,0.4
		c0,0.1,0,0.3-0.1,0.4c-0.8,3.2,1.8,5.8,4.1,7.5c0.6,0.5,1.3,1,2,1.5c0.8,0.6,1.5,0.5,2.4,0.2c1.7-0.5,3.3-0.9,5.1-1.2
		c6.5-1.2,13.3-1,19,2.8c4.5,3,7.9,7.5,9.2,12.8C190.1,639.1,190.4,642,190,644.9z"/>
	<path d="M291.6,645.4c-5,3.1-11.4,4-17.1,4.6c-6.5,0.7-13,1.1-19.5,1.3c-6.6,0.2-13.2,0.3-19.8,0.1c-3.2-0.1-6.4-0.2-9.7-0.4
		c-1.7-0.1-3.4-0.2-5-0.3c-1.4-0.1-3.1,0-4.2-1c-1-0.9-1.2-2.1-1.2-3.4c0-1.5,0-3.1,0-4.6c0-3.4,0.1-6.7,0.3-10.1
		c0.2-3.2,0.3-6.4,0.6-9.5c0.1-1.6,0.4-3.2,0.9-4.7c0.4-1,0.9-2,1.6-2.9c0.5-0.6,1.6-0.5,2.2,0c0.6,0.6,0.5,1.5,0,2.2
		c0,0-0.1,0.1-0.1,0.1h0c-1.6,2.2-1.5,5.6-1.7,8.2c-0.2,3.3-0.4,6.7-0.5,10c0,0.2,0,0.5,0,0.7c0,1-0.1,2.1-0.1,3.1
		c-0.1,2.1-0.1,4.2-0.1,6.3c0,0.6-0.1,1.4,0.1,2c0.1,0.6,0.5,0.4,1.1,0.5c1.8,0.1,3.5,0.3,5.2,0.4c12.1,0.7,24.3,0.8,36.4,0.1
		c5.8-0.3,11.6-0.6,17.3-1.5c2.8-0.4,5.5-1,8.1-2c2.1-0.8,5-1.8,5.6-4.2c0.1-0.4,0.1-0.8,0.2-1.1c0.1-1-0.1-2-0.4-3
		c-0.2-0.8-0.5-1.6-0.7-2.4c-0.7-2.2-1.7-4.3-2.9-6.3c-2.5-3.9-6-6.8-10.6-7.9c-1.6-0.4-3.2-0.6-4.8-0.9c-1.3-0.2-2.7-0.4-4-0.6
		c-0.7-0.1-1.3-0.2-2-0.3c-2.3-0.4-4.5-0.7-6.8-1.1c-3.1-0.5-6.1-1-9.2-1.5c-2.8-0.5-5.6-0.8-8.1-2.1h0c0,0-0.1,0-0.1-0.1
		c-1.8-0.9-0.2-3.5,1.5-2.6c0.8,0.4,1.7,0.7,2.6,1c2.5,0.7,5.3,0.9,7.9,1.4c3.6,0.6,7.2,1.2,10.8,1.8c3.6,0.6,7.2,1.2,10.8,1.8
		c3.1,0.5,6,1.4,8.6,3.2c4.1,2.9,6.9,7.3,8.7,12C295.2,636,296.6,642.2,291.6,645.4z"/>
	<path class="st0" d="M186.8,646.1c-0.4,2-1,4.3-2.5,5.7c-1.7,1.7-4.3,2.1-6.6,2.4c-6.2,0.8-12.4,1.2-18.6,1.5
		c-6.4,0.2-12.8,0.2-19.1,0.1c-3-0.1-6.1-0.1-9.2-0.2c-2.6-0.1-5.4-0.2-7.8-1.2c-4.5-2-5.8-6.7-6.4-11.3c7.5,4.2,15.9,6.7,24.5,7.3
		c4.7,0.4,9.4,0.1,14.1-0.7c5-0.8,9.9-2.4,15-3C175.6,645.9,181.2,645.7,186.8,646.1z"/>
	<path d="M188,646.2c-0.4,0-0.8-0.1-1.2-0.1c-5.6-0.4-11.2-0.2-16.7,0.5c-5.1,0.7-9.9,2.2-15,3c-4.6,0.8-9.4,1-14.1,0.7
		c-8.6-0.6-17-3.1-24.5-7.3c-0.6-0.3-1.2-0.7-1.8-1.1c-1.7-1-0.1-3.7,1.5-2.6h0c4.4,2.7,9.2,4.7,14.2,6.1c0.3,0.1,0.6,0.2,0.9,0.2
		c1,0.3,2,0.5,3,0.7c7.6,1.5,15.4,1.5,22.9-0.2c5.1-1.1,10-2.3,15.2-2.9c4.9-0.5,9.7-0.6,14.6-0.2c0.3,0,0.6,0,0.9,0.1
		C190,643.3,190,646.4,188,646.2z"/>
	<path class="st0" d="M151.2,623.9c-3.7,1.8-6.9,4.6-9.8,7.5c-2.1,2-4.3,4-6.2,6.2c-0.9,1.1-1.5,2.4-2,3.7c-0.6,1.5-1.2,2.9-1.9,4.4
		c-0.3-0.1-0.6-0.1-0.9-0.2c-5-1.4-9.7-3.4-14.2-6.1c0-0.3,0-0.7,0-1c-0.1-3.4-0.3-6.9-0.4-10.3c-0.1-1.7-0.2-3.4-0.2-5.1
		c0-1.2,0-2.6,0.9-3.6c0.1-0.1,0.2-0.3,0.3-0.4h0c1.4-0.2,2.7-0.4,4-0.6c8-1.3,15.6-4.2,23.6-5.4c-0.3,2.4,0.5,4.7,2,6.7
		c0.8,1.1,1.8,2,2.8,2.8C149.8,622.8,150.5,623.4,151.2,623.9z"/>
	<path class="st0" d="M187.1,643.1c-4.9-0.4-9.7-0.3-14.6,0.2c-5.2,0.5-10.2,1.7-15.2,2.9c-7.5,1.7-15.4,1.7-22.9,0.2
		c0.4-1,0.9-2.1,1.3-3.1c0.5-1.2,0.9-2.5,1.7-3.5c0.8-1.1,2-2,2.9-3c1-1,2-2,2.9-2.9c3.5-3.4,7.2-6.9,12-8.2
		c0.3-0.1,0.5-0.2,0.7-0.4c0.3-0.1,0.6-0.1,0.9-0.2c1.4-0.4,2.8-0.8,4.3-1.1c3-0.6,6-0.9,9-0.7c5,0.4,9.5,3,12.7,6.8
		C185.9,633.6,187.3,638.4,187.1,643.1z"/>
	<path d="M156,625.2c-0.2,0.2-0.4,0.3-0.7,0.4c-4.8,1.3-8.6,4.8-12,8.2c-1,1-2,2-2.9,2.9c-1,1-2.1,1.9-2.9,3c-0.8,1-1.2,2.3-1.7,3.5
		c-0.4,1.1-0.9,2.1-1.3,3.1c-0.1,0.3-0.3,0.7-0.4,1c-0.3,0.8-1.5,0.9-2.1,0.5c-0.8-0.5-0.9-1.3-0.6-2.1c0-0.1,0-0.1,0.1-0.1
		c0.6-1.5,1.2-2.9,1.9-4.4c0.6-1.3,1.1-2.6,2-3.7c1.8-2.2,4.1-4.2,6.2-6.2c2.9-2.9,6.1-5.7,9.8-7.5c1.1-0.5,2.2-0.9,3.3-1.2
		C156.1,622.2,156.9,624.2,156,625.2z"/>
	<path d="M272.8,618.6c-0.2,0.3-0.5,0.5-0.9,0.5c-4.8,1.1-8.9,3.8-12.1,7.3c-1.7,1.8-3.3,3.9-4.2,6.2c-1.1,2.5-1,5.2-1,7.9
		c0,0.1,0,0.2,0,0.3c0.1,2-3,2-3.1,0c0-0.1,0-0.2,0-0.3c-0.1-3.1,0-6.2,1.2-9.1c1.1-2.5,2.8-4.8,4.6-6.9c2.6-2.9,5.8-5.3,9.4-6.9
		c1.4-0.6,2.9-1.1,4.3-1.4C272.6,615.9,273.4,617.6,272.8,618.6z"/>
	<path class="st0" d="M266.7,617.7c-3.6,1.6-6.8,4-9.4,6.9c-1.8,2-3.6,4.3-4.6,6.9c-1.2,2.9-1.3,6-1.2,9.1
		c-5.9-0.1-11.7-0.7-17.5-1.8c-5.3-1-10.5-2.1-15.7-3.1c0-0.2,0-0.5,0-0.7c0.1-3.4,0.3-6.7,0.5-10c0.2-2.6,0.1-6,1.7-8.2h0
		c6.1-1,12.2-2,18.3-3.1c1.2-0.2,2.5-0.3,3.8-0.6h0c2.6,1.2,5.3,1.6,8.1,2.1c3.1,0.5,6.1,1,9.2,1.5
		C262.2,616.9,264.5,617.3,266.7,617.7z"/>
	<path class="st0" d="M291.7,636c-9.5,1.7-19.1,3.4-28.7,4.2c-2.8,0.2-5.7,0.3-8.5,0.3c-0.1-2.7-0.1-5.4,1-7.9
		c1-2.3,2.6-4.4,4.2-6.2c3.3-3.6,7.4-6.3,12.1-7.3c0.4-0.1,0.7-0.3,0.9-0.5c1.6,0.3,3.2,0.5,4.8,0.9c4.6,1,8.1,3.9,10.6,7.9
		c1.2,2,2.2,4.1,2.9,6.3C291.3,634.4,291.5,635.2,291.7,636z"/>
	<path class="st0" d="M292.1,639.1c0,0.4-0.1,0.8-0.2,1.1c-0.6,2.5-3.5,3.4-5.6,4.2c-2.6,1-5.4,1.6-8.1,2
		c-5.7,0.9-11.6,1.2-17.3,1.5c-12.1,0.7-24.3,0.6-36.4-0.1c-1.7-0.1-3.5-0.2-5.2-0.4c-0.6,0-1,0.1-1.1-0.5c-0.1-0.6-0.1-1.4-0.1-2
		c0-2.1,0-4.2,0.1-6.3c9.3,1.9,18.6,4.1,28.1,4.8c9.9,0.7,19.9-0.2,29.7-1.6C281.4,641,286.8,640,292.1,639.1z"/>
	<path d="M292.8,638.9c-0.2,0-0.5,0.1-0.7,0.1c-5.4,1-10.7,1.9-16.1,2.7c-9.8,1.4-19.8,2.3-29.7,1.6c-9.5-0.7-18.8-2.9-28.1-4.8
		c-0.5-0.1-1-0.2-1.5-0.3c-1.9-0.4-1.1-3.3,0.8-2.9c0.3,0.1,0.5,0.1,0.8,0.2c5.2,1.1,10.5,2.1,15.7,3.1c5.8,1.1,11.6,1.7,17.5,1.8
		c1,0,2,0,3.1,0c2.8,0,5.6-0.1,8.5-0.3c9.7-0.7,19.2-2.5,28.7-4.2c0.1,0,0.2,0,0.2,0C293.9,635.6,294.7,638.6,292.8,638.9z"/>
	<path d="M310.6,201.2c-0.6,0.5-1.5,0.6-2.2,0c-0.5-0.5-0.6-1.6,0-2.2c0.3-0.3,0.7-0.6,1-0.9c0.1-0.1,0.2-0.2,0.2-0.3l0,0
		c0,0,0,0,0-0.1v0c0,0,0,0,0,0c0.1-0.2,0.2-0.3,0.3-0.5c0.2-0.3,0.4-0.7,0.6-1c0,0,0,0,0,0c0,0,0,0,0,0l0,0c0-0.1,0.1-0.3,0.1-0.4
		c0.1-0.2,0.1-0.4,0.2-0.6c0.1-0.2,0.1-0.5,0.1-0.7c0-0.1,0-0.1,0-0.2c0,0,0,0,0,0c0,0,0-0.1,0-0.2c0-0.4,0-0.8,0-1.3
		c0-0.1,0-0.4,0-0.4c0,0,0,0,0,0c0-0.2-0.1-0.4-0.1-0.6c0,0,0,0,0,0c-0.1-0.4-0.2-0.8-0.4-1.2c-0.3-0.8,0.4-1.6,1.1-1.9
		c0.9-0.3,1.6,0.3,1.9,1.1c0.2,0.5,0.4,1.1,0.5,1.7C314.7,195,313.3,198.9,310.6,201.2z"/>
	<path d="M36.4,278.6c-0.1,0-0.1,0-0.2-0.1c-3.4-1.2-6.9-1.1-10.4-1c-3.3,0.1-6.7,0.4-9.5,2.2c-1.7,1-3.2-1.6-1.5-2.6
		c3.2-2,7-2.5,10.7-2.6c3.4-0.1,6.9-0.2,10.2,0.6c0.5,0.1,1.1,0.3,1.6,0.5C39.1,276.3,38.3,279.3,36.4,278.6z"/>
	<path d="M96.7,201.7c0,0.9-0.7,1.4-1.5,1.5c-5.7,0.7-11,3.6-14.9,7.8c-0.4,0.5-0.8,0.9-1.2,1.4c-0.1,0.1-0.2,0.2-0.2,0.3
		c-0.2,0.3-0.5,0.4-0.9,0.4c-0.5,0-1-0.1-1.3-0.4c-0.3-0.3-0.4-0.7-0.4-1c0-0.4,0.2-0.8,0.4-1.1c4.5-5.8,11.3-9.4,18.5-10.4
		C96,200,96.7,200.9,96.7,201.7z"/>
	<path d="M217.8,193.7c-0.1,0.2-0.3,0.3-0.5,0.4c-0.2,0.1-0.5,0.2-0.8,0.2c-0.5,0-1.1-0.3-1.3-0.8c-0.2-0.3-0.3-0.6-0.4-0.9
		c0,0,0,0,0,0c-1.4-2.9-2.2-6-2.4-9.2c-0.1-0.9,0.8-1.5,1.5-1.5c0.9,0,1.5,0.7,1.5,1.5c0.1,0.9,0.1,1.3,0.3,2.1
		c0.1,0.8,0.3,1.5,0.5,2.3c0.4,1.4,0.8,2.4,1.4,3.6c0.1,0.2,0.2,0.4,0.3,0.6C218.2,192.6,218.2,193.2,217.8,193.7z"/>
	<path class="st0" d="M154.8,407.3c-0.4,2-0.9,4.9-2.5,6.4c-0.6,0.5-1.2,0.8-1.7,0.1c-0.6-0.9-0.8-2.2-1.2-3.2
		c-1.5-4.7-2.4-9.6-3-14.5c-0.5-5.1-0.7-10.1-0.6-15.2c0.1,0,0.2,0,0.4,0c2.8-0.2,5.5-0.6,8.3-0.9c0,1.6,0.4,3.3,0.5,4.9
		c0.3,2.5,0.4,5.1,0.5,7.6C155.7,397.3,155.8,402.5,154.8,407.3z"/>
	<path d="M177.1,403c-2.9,6.8-7.9,12.5-14.4,16c-1.6,0.9-3.3,1.6-5,2.2c-1.6,0.6-2.4-1.6-1.4-2.6c0.2-0.2,0.4-0.3,0.6-0.4
		c7.6-2.6,14.1-8.6,17.2-16c0.3-0.8,1-1.3,1.9-1.1C176.8,401.3,177.4,402.2,177.1,403z"/>
	<path class="st0" d="M245.2,607.3c0.2,2.5-3.1,2.6-4.9,2.9c-3,0.5-6,1-9,1.5c-3.1,0.5-6.2,1-9.2,1.6c-1.5,0.2-2.9,0.5-4.4,0.7
		c-0.7,0.1-1.5,0.2-2.2,0.4c-0.2,0-0.6,0-0.9,0.1c0.3-1,0.8-3.1,0.9-3.4c0.4-1.4,0.7-2.9,1.1-4.3c0.6-2.8,1.1-5.7,1.5-8.6
		c0.8-5.8,1.1-11.7,0.8-17.6c-0.3-6-1.1-12-0.1-18c1-5.8,1.8-11.5,1.2-17.4c-0.2-2.6-0.7-5.2-1.3-7.7c0.1-0.2,0.2-0.5,0.2-0.8
		c0.3-5.8,0.4-11.6,0.2-17.3c-0.2-5.5-0.7-11.1-2.8-16.3c-2-5.1-4.9-9.8-7.6-14.6c-2.8-5-5.7-10-8.5-15c-2.7-5-5.4-10-7.8-15.1
		c-2.2-4.6-4.2-9.3-6.5-13.9c-2.2-4.6-4.7-9.1-7.7-13.2c-2.9-4-6.3-7.8-10.6-10.3c-1.5-0.9-3.2-1.6-5-2c6.4-3.5,11.5-9.1,14.4-16
		c0.3-0.8-0.3-1.7-1.1-1.9c-0.9-0.2-1.6,0.3-1.9,1.1c-3.1,7.5-9.6,13.4-17.2,16c-0.2,0.1-0.5,0.2-0.6,0.4c-0.6,0.1-1.3,0.2-1.9,0.5
		c-0.2-0.1-0.4-0.2-0.7-0.1c-1.4,0-2.8-0.7-4.1-1.3c-1.4-0.7-2.7-1.4-3.9-2.3c-2.5-1.6-4.7-3.6-6.6-5.9c-1.3-1.5-3.5,0.7-2.2,2.2
		c2.2,2.5,4.7,4.7,7.5,6.5c1.3,0.9,2.7,1.7,4.2,2.4c0.9,0.4,1.8,0.8,2.7,1.1c-0.6,1.3-0.7,3-1,4.4c-0.6,2.8-1.1,5.7-1.6,8.5
		c-2,11.4-3.5,22.9-4.8,34.5c-1.3,11.6-2.5,23.3-3.8,34.9c-1.2,11.1-3.1,22.3-2.9,33.5c0.1,5.7,0.9,11.4,1.5,17.1
		c0.6,5.8,1.2,11.7,1.7,17.5c0.5,5.8,0.9,11.7,1.2,17.6c0.1,2.8,0,5.6,0.4,8.3c0.4,2.6,2,4.6,3.6,6.6c1.2,1.6,2.3,3.1,3.5,4.7
		c-7.4,0.5-14.6,2.8-21.8,4.6c-4,1-8.1,1.9-12.3,2.1c-1,0.1-2,0.1-3,0c-0.5,0-0.9,0-1.4-0.1c-0.3,0-0.5,0-0.8-0.1
		c-0.1,0-0.2-0.1-0.3-0.1c0,0,0,0,0-0.1c0-0.2,0.1-0.4,0.1-0.6c0.1-0.5,0.2-1,0.4-1.5c0.3-1,0.7-2,1.1-2.9c0.8-1.9,1.7-3.7,2.3-5.7
		c0.6-2.1,0.8-4.3,1-6.5c0.2-4.6,0-9.3,0-14c0-9.5,0.1-19.1-0.2-28.6c-0.1-4.6-0.3-9.3-1.5-13.7c-1.1-4.1-2.8-8-3.2-12.3
		c-0.8-9.6-1.6-19.2-2.5-28.8c-1.7-19.1-3.7-38.3-5.6-57.4c-1-9.5-2-19-2.9-28.4c-0.5-4.8-1-9.6-1.5-14.4c-0.5-4.3-0.7-8.7-1.8-12.8
		c-0.4-1.5-1-3-1.8-4.3c0.2,0,0.5,0,0.7,0c5.8-0.3,11.6-0.6,17.4-0.8c10.5-0.5,21-0.8,31.4-1.7c-0.1,10.4,0.7,21,4,31
		c0.7,2.2,1.5,4.9,4.2,5.2c2.6,0.2,4.3-1.9,5.2-4.1c0.9-2,1.4-4,1.8-6.1c5,0.5,7.8-5.2,8.9-9.5c1.3-5.3,1-10.8,0.5-16.2
		c-0.2-1.9-3.2-2-3.1,0c0.4,4.5,0.8,9.1,0,13.6c-0.5,2.8-2,9.4-5.9,9.1c0.2-2.3,0.3-4.6,0.3-6.9c0-3.2-0.1-6.3-0.3-9.5
		c-0.1-1.6-0.3-3.3-0.5-4.9c-0.1-1.1-0.4-2.2-0.3-3.3c7.4-1.1,14.7-2.6,22-4.1c8.3-1.8,16.5-3.5,24.8-5.3c-0.5,5.5-1,11.1-1,16.7
		c0.1,5.3,1.7,10.4,3.7,15.3c2.1,5.2,4.5,10.3,6.5,15.5c2.2,5.7,4.5,11.4,6.7,17c2.2,5.5,4.6,11.1,6.2,16.8
		c1.6,5.5,2.9,11.1,4.7,16.5c1.8,5.2,4,10.3,7,14.8c1.5,2.2,3.1,4.3,3.5,7c0.4,3,0.2,6.2,0.3,9.2c0.5,12.3,1.7,24.5,1.9,36.7
		c0.2,12.2-0.1,24.5-0.9,36.7c-0.4,6-1.1,11.9-1.3,17.9c-0.1,3,0.1,5.9,0.8,8.8c0.4,1.4,0.8,2.7,1.2,4
		C244.4,604.5,245.1,605.9,245.2,607.3z"/>
	<path d="M153.8,422c-0.8,0-1.6-0.1-2.4-0.4c-0.9-0.3-1.8-0.7-2.7-1.1c-1.5-0.7-2.9-1.5-4.2-2.4c-2.8-1.8-5.3-4-7.5-6.5
		c-1.3-1.5,0.9-3.6,2.2-2.2c2,2.2,4.2,4.2,6.6,5.9c1.3,0.8,2.6,1.6,3.9,2.3c1.2,0.6,2.6,1.4,4.1,1.3c0.3,0,0.5,0,0.7,0.1
		C155.7,419.7,155.5,421.9,153.8,422z"/>
	<g>
		<path class="st0" d="M377.4,204.6c-9.9,2.8-19.8,5.6-29.7,8.4c-10.5,3-20.9,5.6-31.9,5.3c-21.7-0.7-42.3-9.7-62.6-16.2
			c-11.8-3.8-23.6-7.3-35.5-10.6c-0.6-1.2-1-2.2-1.4-3.6c-0.2-0.8-0.4-1.5-0.5-2.3c-0.1-0.8-0.2-1.2-0.3-2.1
			c-0.1-0.8-0.7-1.6-1.5-1.5c-0.8,0-1.6,0.7-1.5,1.5c0.2,3.2,1.1,6.3,2.4,9.2c0,0,0,0,0,0c-1.7,23.1-3.7,46.3-5.1,69.4
			c-0.7,11.5-0.9,23,0.7,34.4c0.8,5.6,1.9,11.2,2.7,16.8c0.8,5.5,1.1,11.1,1,16.7c-0.2,11.5-1.5,23.3,1.5,34.5
			c-10,2.1-20,4.2-30,6.4c-9.4,2-18.8,4.2-28.4,5.6c-0.6-0.4-1.5-0.4-2,0.3c-0.2,0-0.4,0.1-0.6,0.1c-10.6,1.4-21.3,1.8-31.9,2.3
			c-10.6,0.5-21.2,1.2-31.8,1.5c-3.9,0.1-9.3,0.1-11.1-4.1c-0.6-1.6-0.9-3.3-0.9-5c0-1.2,0.1-3,1.1-3.8c1.5-0.5,2.9-1.5,4.1-2.7
			c1.7-1.6,3.4-3.4,6-3c2.7,0.4,4.9,2.3,7.1,3.8c2.2,1.6,5.6,3.2,8,1.1c1.6-1.3,1.5-3.5,0.7-5.4c1.8,0.5,3.7,0.5,5.2-0.7
			c1.5-1.2,1.7-3.1,1.5-4.9c0.6,0,1.1-0.1,1.6-0.4c3.3-1.7,0.6-6.1-1.1-8c-2-2.3-4.8-4.1-7.5-5.6c0.6,0.1,1.2,0.1,1.8,0.1
			c1.9,0.1,4.5-0.1,5.3-2.2c0.7-2-1-3.9-2.5-4.9c-1.9-1.3-4.2-2-6.3-2.7c-2.3-0.7-4.6-1.3-6.8-1.9c-2.4-0.6-4.8-1.1-7.2-1
			c-2.4,0.1-4.6,0.8-6.7,1.9c-1.4,0.7-2.7,1.5-4,2.3c4.5-13.8,5.9-28.5,6.5-43c0.3-7.8,0.4-15.7,0.4-23.6c0-9.3-0.1-18.7-0.5-28
			c-0.4-9.4-0.6-19.6-4.9-28.2c3.9-4.2,9.2-7,14.9-7.8c0.8-0.1,1.5-0.6,1.5-1.5c0-0.7-0.7-1.6-1.5-1.5c-7.2,1-14,4.6-18.5,10.4
			c-0.3,0.3-0.4,0.7-0.4,1.1c-15.8,14.2-26.3,33.2-36.2,51.8c-1.3,2.5-2.8,5-3.7,7.7c-0.5,1.3-0.7,2.7-0.6,4
			c-3.3-0.8-6.8-0.8-10.2-0.6c-3.7,0.1-7.5,0.6-10.7,2.6c-1.7,1-0.1,3.7,1.5,2.6c2.9-1.8,6.2-2.1,9.5-2.2c3.5-0.1,7.1-0.2,10.4,1
			c0.1,0.3,0.2,0.6,0.3,1c0.9,2.3,2.1,4.5,3,6.9c0.8,2.2,1.5,4.4,2.1,6.6c2.5,8.6,4.4,17.8,10.1,25c1.6,2,3.4,3.7,5.5,5.2
			c1.8,1.3,4.2,3,2.3,5.3c-1,1.2-2.3,2-3.5,2.9c-1.5,1.1-2.9,2.1-4.3,3.2c-2.2,1.6-4.4,3.3-6.6,4.9c-1.2-6.2-6.8-10.7-12-13.9
			c-3.4-2-6.9-3.9-9.9-6.6c-2.9-2.6-5.2-5.6-7.4-8.8c-2.2-3.3-4.3-6.6-6.3-10c-2-3.4-3.9-7-5.1-10.8c-1.2-3.9-1.6-7.9-1.1-11.9
			c0.5-4.1,1.8-8.2,3.4-12c3-7.5,7-14.7,11.8-21.3c4.8-6.7,10.4-12.7,14.2-20.1c3.7-7.2,6.6-14.9,10-22.2
			c3.4-7.2,7.2-14.3,11.8-20.8c8-11.1,19.4-20.7,33.1-23.5c5,6.7,10.6,13.1,16.3,19.2c3.6,3.9,7.3,7.8,11.9,10.6
			c6.5,3.9,14.2,5.1,21.7,5.9c11.4,1.1,23.2,1.1,33.8-3.1c14.8-5.8,25.4-19.1,32.6-33.3c1.6-3.1,3-6.2,4.3-9.4
			c3.8,1.9,7.4,4.3,10.8,6.7c3.2,2.2,6.4,4.4,9.7,6.4c3.4,2,6.9,3.7,10.5,5.3c14.5,6.3,30,9.7,44.9,15c7.3,2.6,14.5,5.7,21.2,9.7
			c-2.1,0.9-3.9,2.3-5.2,4.3c-1.1,1.6,1.6,3.2,2.6,1.5c1.8-2.8,5.1-3.9,8.3-4.3c0,0,0,0,0,0c0.1,0.2,0.1,0.4,0.1,0.6c0,0,0,0,0,0
			c0,0.1,0,0.4,0,0.4c0,0.4,0,0.8,0,1.3c0,0.1,0,0.1,0,0.2c0,0,0,0,0,0c0,0.1,0,0.1,0,0.2c0,0.2-0.1,0.5-0.1,0.7
			c-0.1,0.2-0.1,0.4-0.2,0.6c0,0.1-0.1,0.3-0.1,0.4l0,0c0,0,0,0,0,0c0,0,0,0,0,0c-0.2,0.4-0.3,0.7-0.6,1c-0.1,0.2-0.2,0.3-0.3,0.5
			c0,0,0,0,0,0v0c0,0,0,0,0,0.1l0,0c-0.1,0.1-0.1,0.2-0.2,0.3c-0.3,0.3-0.6,0.6-1,0.9c-0.6,0.5-0.5,1.6,0,2.2c0.6,0.6,1.5,0.5,2.2,0
			c2.8-2.2,4.1-6.2,3.4-9.7c3.4-0.2,6.9-0.1,10.4-0.2c10.1-0.2,20.2-0.3,30.2-0.5c5.2-0.1,10.5-0.2,15.8-0.2
			C371.2,195.9,373.6,200.8,377.4,204.6z"/>
	</g>
	<polygon class="st0" points="137.7,368.3 136.6,392.1 145.9,414.2 149.7,417.6 153.8,417.6 162.1,411.2 172.5,397.1 169.2,365.2 	
		"/>
	<path d="M381.9,205.5c-0.1,0.6-0.5,1.2-1.1,1.3c-12.3,3.5-24.5,7-36.8,10.4c-10.6,2.9-21.2,4.8-32.2,3.9
		c-10.8-0.8-21.4-3.6-31.7-6.9c-10.5-3.3-20.9-7.1-31.5-10.4c-10.2-3.3-20.5-6.3-30.9-9.2c-0.9,12.3-1.8,24.7-2.8,37
		c-1.7,22.9-4.7,46-1,68.7c0.9,5.5,1.9,11,2.5,16.6c0.6,5.4,0.7,10.7,0.5,16.1c-0.3,10.8-1.3,21.7,1.9,32.2c0.2,0.8-0.3,1.7-1.1,1.9
		c-3.5,0.7-6.9,1.5-10.4,2.2c-1,0.2-2.1,0.4-3.1,0.7c-8.3,1.7-16.5,3.5-24.8,5.3c-7.3,1.6-14.6,3-22,4.1c-0.1,0-0.1,0-0.1,0
		c-0.7,0.1-1.4,0.2-2,0.3c-0.3,0-0.6,0.1-0.9,0.1c-2.8,0.4-5.5,0.7-8.3,0.9c-0.1,0-0.2,0-0.4,0c-1,0.1-2,0.2-3.1,0.2
		c-10.4,0.8-20.9,1.2-31.4,1.7c-5.8,0.3-11.6,0.6-17.4,0.8c-0.2,0-0.5,0-0.7,0h0c-1.1,0.1-2.3,0.1-3.5,0.1c-3.4,0.1-6.8-0.2-9.7-2
		c-2.8-1.7-3.9-5.1-4.3-8.2c-0.2-1.8-0.1-3.8,0.5-5.4c0.4-1.1,1.1-2.1,2.1-2.9c0.1-0.1,0.1-0.1,0.2-0.1c0.2-0.1,0.4-0.2,0.6-0.2
		c1.2-0.1,2.1,1.9,0.8,2.9c0,0,0,0,0,0c-1,0.8-1.1,2.6-1.1,3.8c0,1.7,0.3,3.4,0.9,5c1.8,4.2,7.2,4.2,11.1,4.1
		c10.6-0.4,21.2-1,31.8-1.5c10.7-0.5,21.3-0.9,31.9-2.3c0.2,0,0.4-0.1,0.6-0.1c0.7-0.1,1.4-0.2,2-0.3c9.5-1.4,19-3.6,28.4-5.6
		c10-2.1,20-4.2,30-6.4c-3-11.3-1.7-23-1.5-34.5c0.1-5.6-0.2-11.2-1-16.7c-0.8-5.6-1.9-11.2-2.7-16.8c-1.6-11.4-1.4-22.9-0.7-34.4
		c1.5-23.2,3.4-46.3,5.1-69.4c0,0,0,0,0,0c0.1-1,0.9-1.8,1.9-1.5c0.3,0.1,0.6,0.2,0.8,0.2c11.9,3.3,23.7,6.8,35.5,10.6
		c20.4,6.6,41,15.6,62.6,16.2c11,0.3,21.4-2.3,31.9-5.3c9.9-2.8,19.8-5.6,29.7-8.4c-3.7-3.8-6.2-8.7-7-14
		c-5.3,0.1-10.5,0.2-15.8,0.2c-10.1,0.2-20.2,0.3-30.2,0.5c-3.4,0.1-6.9-0.1-10.4,0.2c-0.8,0.1-1.7,0.1-2.5,0.2
		c-0.2,0-0.4,0.1-0.6,0.1c-3.2,0.5-6.4,1.6-8.3,4.3c-1.1,1.6-3.7,0.1-2.6-1.5c1.3-2,3.1-3.4,5.2-4.3c1.2-0.6,2.5-0.9,3.8-1.2
		c0.5-0.1,1-0.2,1.4-0.3c4.4-0.6,8.9-0.5,13.3-0.6c5.3-0.1,10.6-0.2,15.9-0.2c10.7-0.2,21.4-0.3,32-0.5c0.8,0,1.4,0.6,1.5,1.3
		c0,0.1,0,0.1,0,0.2c0.1,1,0.3,1.9,0.5,2.8c1,4.2,3.2,8,6.3,11c0.5,0.5,1,0.9,1.5,1.4C381.9,204.6,382,205,381.9,205.5z"/>
	<g>
		<path class="st0" d="M209.2,144.5c-0.3,0.9-0.7,1.9-1.1,2.8c-1.3,3.2-2.7,6.4-4.3,9.4c-7.2,14.2-17.8,27.5-32.6,33.3
			c-10.6,4.2-22.4,4.2-33.8,3.1c-7.5-0.7-15.2-2-21.7-5.9c-4.6-2.8-8.3-6.7-11.9-10.6c-5.7-6.1-11.3-12.4-16.3-19.2
			c-0.6-0.9-1.3-1.8-1.9-2.7c-5.5-7.9-9.9-16.3-12.3-25.6c-2.7-10.6-2.5-21.7-2.2-32.6c0.3-11.8,0.5-23.8,4-35.1
			c5.9-19.1,19.7-44.7,39-53c23.7-10.1,51.6-9.7,73.4,4.9c5.2,3.5,10,7.7,13.7,12.8c3.9,5.5,6.3,11.9,8.4,18.3
			C219.9,76.9,221,112.9,209.2,144.5z"/>
		<path d="M207.6,144c-5.7,15.3-14.6,30.9-28.6,40.1c-7.3,4.8-15.7,7.2-24.5,7.8c-4.7,0.3-9.4,0.2-14.1-0.2c-4.5-0.3-9-0.8-13.3-1.8
			c-4.4-1-8.6-2.6-12.3-5.2c-3.7-2.6-6.8-5.9-9.9-9.2c-6.6-7.1-13-14.3-18.5-22.3c-5.1-7.4-9.2-15.4-11.5-24.1
			c-2.5-9.6-2.5-19.5-2.3-29.3c0.2-9.7,0.2-19.4,1.9-29c1.3-7.6,3.9-14.9,7-21.9c3.1-6.8,6.7-13.4,11.1-19.5
			c4.2-5.8,9.2-11.3,15.1-15.4c6.3-4.4,13.9-6.8,21.3-8.6c8-1.9,16.3-2.5,24.6-1.9c8.2,0.7,16.4,2.7,23.9,6.2
			c7.8,3.6,15.2,8.7,20.7,15.4c5.7,7,8.6,15.9,11.1,24.4c2.6,8.8,4.5,17.9,5.5,27c2.2,18.2,1.4,36.9-3.3,54.7
			C210.5,135.6,209.2,139.9,207.6,144c-0.7,2,2.4,2.8,3.2,0.9c6.6-17.8,9.2-36.9,8.4-55.8c-0.4-9.6-1.7-19.2-3.7-28.6
			c-2-9.2-4.5-18.5-8.4-27.1c-3.9-8.5-10-15.3-17.7-20.6c-7.1-5-15.2-8.5-23.6-10.6c-16.8-4.1-34.8-2.2-50.8,4.3
			C100.7,12.3,90.6,24.9,83.4,38c-3.6,6.5-6.6,13.4-9,20.5c-3.1,9.1-4.2,18.5-4.6,28.1c-0.2,5-0.3,10-0.4,15
			c-0.1,5.1-0.1,10.1,0.4,15.2c0.8,9.7,3.3,19,7.7,27.7c4.4,8.6,10.4,16.4,16.7,23.8c3.3,3.8,6.6,7.5,10.1,11.1
			c3.1,3.3,6.5,6.6,10.4,9c8,5,17.9,6,27.1,6.7c9.6,0.7,19.5,0.3,28.6-2.9c16-5.7,27.3-19.5,34.8-34.2c2.2-4.2,4.1-8.6,5.7-13.1
			C211.5,142.9,208.3,142.1,207.6,144z"/>
	</g>
	<path d="M158.4,81.9c-2.8,1.8-5.4,4.6-4.9,8.2c0.4,3,3,4.8,5.7,5.6c3.3,1,7,1,10.4,1.2c3.9,0.1,8-0.1,11.7-1.3
		c4.5-1.4,10.1-4.9,10.7-10.1c0.7-6.1-6.7-8.8-11.5-9.4C173,75.2,164.8,77.8,158.4,81.9c-1.6,1-0.1,3.6,1.5,2.6
		c4.8-3.1,10.6-5.2,16.3-5.5c2.9-0.2,5.8,0.1,8.5,1.2c1.7,0.7,3.8,1.8,4.4,3.7c1,3.4-3.3,6.5-6,7.8c-5.8,2.9-12.7,2.3-19,1.8
		c-2.3-0.2-5.3-0.5-6.9-2.4c-2.1-2.5,0.7-5.3,2.8-6.6C161.5,83.4,160,80.8,158.4,81.9z"/>
	<path d="M111.4,77.5c-2.6,0.6-5.3,2-6.9,4.4c-1.7,2.6-1.2,5.8,0.7,8.1c2,2.3,5.1,3.3,7.8,4.4c3.7,1.4,7.4,2.6,11.3,3
		c4.8,0.4,12.6-0.7,14.3-6.2c0.9-2.8-0.7-5.7-2.5-7.8c-1.8-2.1-4.2-3.5-6.7-4.5C123.9,76.5,117.2,76.2,111.4,77.5
		c-1.9,0.4-1.1,3.3,0.8,2.9c4.3-1,8.9-0.8,13.2,0.2c4,1,9.1,3.3,10.4,7.7c1.2,4.2-5,5.7-8,6c-3.2,0.3-6.3-0.3-9.4-1.3
		c-2.7-0.8-5.6-1.8-8.1-3.1c-2.1-1.1-4.5-2.9-3.7-5.6c0.7-2.3,3.4-3.5,5.6-4C114.1,79.9,113.3,77.1,111.4,77.5z"/>
	<path d="M181.2,87.7c-0.2-0.1-0.4-0.1-0.6-0.1c-0.2,0-0.4,0-0.6,0.1c-0.3,0.1-0.7,0.3-0.9,0.6c-0.3,0.3-0.4,0.6-0.6,1
		c0,0.1,0,0.1-0.1,0.2c0,0.2-0.1,0.4-0.1,0.6c0,0.9,0.6,1.7,1.5,2c0.4,0.1,0.8,0.1,1.1,0c0.4-0.1,0.7-0.3,1-0.6
		c0.3-0.3,0.5-0.6,0.6-1c0.1-0.4,0.1-0.8,0-1.2c-0.1-0.3-0.3-0.6-0.5-0.8c-0.3-0.2-0.6-0.3-0.9-0.3c-0.3,0-0.5,0.1-0.8,0.2
		c-0.3,0.2-0.6,0.6-0.7,0.9c0,0.1,0,0.2-0.1,0.3c0.1-0.1,0.1-0.2,0.2-0.4c0,0.1-0.1,0.2-0.2,0.3c0.1-0.1,0.2-0.2,0.2-0.3
		c-0.1,0.1-0.1,0.2-0.2,0.2c0.1-0.1,0.2-0.2,0.3-0.2c-0.1,0.1-0.2,0.1-0.3,0.2c0.1-0.1,0.2-0.1,0.4-0.2c-0.1,0-0.2,0.1-0.4,0.1
		c0.1,0,0.3,0,0.4-0.1c-0.1,0-0.2,0-0.3,0c0.1,0,0.3,0,0.4,0.1c-0.1,0-0.2,0-0.3-0.1c0.1,0.1,0.2,0.1,0.4,0.2
		c-0.1,0-0.1-0.1-0.2-0.1c0.1,0.1,0.2,0.2,0.3,0.2c0,0,0-0.1-0.1-0.1c0.1,0.1,0.2,0.2,0.2,0.3c-0.1-0.1-0.1-0.2-0.2-0.3
		c0.1,0.1,0.1,0.2,0.2,0.4c-0.1-0.1-0.1-0.3-0.1-0.4c0,0.1,0,0.3,0.1,0.4c0-0.2,0-0.4,0-0.5c0,0.1,0,0.3-0.1,0.4
		c0-0.2,0.1-0.4,0.2-0.6c-0.1,0.1-0.1,0.2-0.2,0.4c0.1-0.2,0.2-0.4,0.3-0.6c-0.1,0.1-0.2,0.2-0.2,0.3c0.1-0.1,0.2-0.3,0.4-0.4
		c-0.1,0.1-0.2,0.2-0.3,0.2c0.1-0.1,0.2-0.2,0.4-0.2c-0.1,0.1-0.2,0.1-0.4,0.2c0.1,0,0.2-0.1,0.3-0.1c-0.1,0-0.3,0-0.4,0.1
		c0.1,0,0.2,0,0.3,0c-0.1,0-0.3,0-0.4-0.1c0.1,0,0.2,0,0.3,0.1c-0.1-0.1-0.2-0.1-0.4-0.2c0,0,0,0,0.1,0c-0.2-0.3-0.5-0.6-0.7-0.9
		c0.1,0.2,0.1,0.4,0.1,0.5c0-0.1,0-0.3-0.1-0.4c0,0.2,0,0.4,0,0.6c0-0.1,0-0.3,0.1-0.4c0,0.2-0.1,0.4-0.2,0.6
		c0.1-0.1,0.1-0.2,0.2-0.4c-0.1,0.2-0.2,0.3-0.3,0.5c0.1-0.1,0.2-0.2,0.2-0.3c-0.1,0.1-0.2,0.3-0.4,0.4c0.5-0.1,1-0.3,1.5-0.4
		c0,0-0.1,0-0.1,0c0.1,0.1,0.2,0.1,0.4,0.2c-0.2-0.1-0.3-0.2-0.5-0.3c0.1,0.1,0.2,0.2,0.3,0.2c-0.2-0.1-0.3-0.3-0.4-0.4
		c0.1,0.1,0.2,0.2,0.2,0.3c-0.1-0.2-0.2-0.4-0.3-0.6c0.1,0.1,0.1,0.2,0.2,0.4c-0.1-0.2-0.2-0.5-0.2-0.7c0,0.1,0,0.3,0.1,0.4
		c0-0.2,0-0.4,0-0.6c-0.5,0.5-1,1-1.5,1.5c0.7,0,1.4,0,2.2,0c-0.5-0.4-1-0.7-1.4-1.1c0,0.1,0.1,0.2,0.1,0.3c0-0.1,0-0.3-0.1-0.4
		c0,0.1,0,0.3,0,0.4c0-0.1,0-0.3,0.1-0.4c0,0.2-0.1,0.3-0.1,0.5c0.1-0.1,0.1-0.2,0.2-0.4c-0.1,0.1-0.1,0.3-0.2,0.4
		c0.1-0.1,0.2-0.2,0.2-0.3c-0.1,0.1-0.2,0.2-0.3,0.3c0.1-0.1,0.2-0.2,0.3-0.2c-0.1,0.1-0.2,0.1-0.3,0.2c0.1-0.1,0.2-0.1,0.4-0.2
		c-0.1,0-0.2,0.1-0.3,0.1c0.6,0.5,1.3,1,1.9,1.4c0-0.2,0-0.3,0-0.4c0,0.1,0,0.3-0.1,0.4c0-0.2,0.1-0.3,0.1-0.5
		c-0.1,0.1-0.1,0.2-0.2,0.4c0.1-0.2,0.2-0.3,0.3-0.5c-0.1,0.1-0.2,0.2-0.2,0.3c0.1-0.1,0.2-0.2,0.3-0.3c-0.1,0.1-0.2,0.2-0.3,0.2
		c0.1-0.1,0.2-0.2,0.4-0.2c-0.1,0.1-0.2,0.1-0.4,0.2c0.1,0,0.2-0.1,0.3-0.1c-0.4-0.1-0.8-0.1-1.2-0.2c0.1,0,0.1,0.1,0.2,0.1
		c-0.1-0.1-0.2-0.2-0.3-0.2c0.1,0,0.1,0.1,0.1,0.1c-0.1-0.1-0.2-0.2-0.2-0.3c0.1,0.1,0.1,0.2,0.1,0.2c-0.1-0.1-0.1-0.2-0.2-0.4
		c0,0.1,0.1,0.2,0.1,0.3c0-0.1,0-0.3-0.1-0.4c0,0.1,0,0.3,0,0.4c0-0.1,0-0.3,0.1-0.4c0,0.1-0.1,0.3-0.1,0.4c0.1-0.1,0.1-0.2,0.2-0.4
		c0,0.1-0.1,0.2-0.1,0.2c0.1-0.1,0.2-0.2,0.2-0.3c0,0.1-0.1,0.1-0.2,0.2c0.1-0.1,0.2-0.2,0.3-0.2c0,0-0.1,0.1-0.2,0.1
		c0.1-0.1,0.2-0.1,0.4-0.2c0,0-0.1,0-0.1,0c-0.4,0.1-0.7,0.3-0.9,0.7c-0.2,0.3-0.3,0.8-0.2,1.2c0.1,0.4,0.3,0.7,0.7,0.9
		c0.3,0.2,0.8,0.3,1.2,0.2c0.4-0.1,0.7-0.3,1-0.6c0.3-0.3,0.5-0.6,0.6-1c0.1-0.3,0.1-0.6,0.2-0.9c0-0.1,0-0.2,0-0.2
		c0-0.2,0-0.4-0.1-0.6c-0.2-0.8-0.9-1.6-1.7-1.7c-0.9-0.1-1.8,0.5-2.3,1.2c-0.3,0.3-0.5,0.7-0.6,1.1c-0.1,0.2-0.1,0.5-0.1,0.7
		c0,0.1,0,0.3,0,0.4c0,0.3,0.1,0.5,0.2,0.8c0.1,0.2,0.2,0.3,0.4,0.4c0.1,0.1,0.3,0.2,0.5,0.3c0.3,0.1,0.5,0.1,0.8,0
		c0.2,0,0.4-0.1,0.7-0.2c0.1-0.1,0.2-0.1,0.3-0.2c0.4-0.3,0.7-0.6,1-1.1c0.4-0.8,0.6-1.7,0.3-2.5c-0.1-0.3-0.3-0.6-0.5-0.8
		c-0.3-0.2-0.6-0.3-0.9-0.3c-0.7,0-1.4,0-2.2,0c-0.4,0-0.8,0.2-1.1,0.4c-0.1,0.1-0.2,0.2-0.2,0.3c-0.1,0.2-0.2,0.5-0.2,0.8
		c-0.1,0.8,0.1,1.6,0.5,2.3c0.2,0.3,0.4,0.7,0.7,0.9c0.3,0.3,0.6,0.5,0.9,0.7c0.4,0.2,0.8,0.3,1.2,0.2c0.3-0.1,0.5-0.3,0.7-0.4
		c0.1-0.1,0.2-0.2,0.3-0.3c0.3-0.4,0.6-0.8,0.7-1.3c0.2-0.7,0.3-1.6,0-2.3c-0.1-0.4-0.3-0.8-0.7-1c-0.1-0.1-0.3-0.1-0.5-0.2
		c-0.1,0-0.2-0.1-0.3-0.1c-0.4-0.1-0.9-0.1-1.3,0c-0.6,0.2-1.2,0.6-1.6,1.1c-0.4,0.5-0.8,1.1-0.9,1.8c-0.1,0.3-0.1,0.7-0.1,1
		c0.1,0.5,0.1,0.9,0.4,1.3c0.3,0.5,0.8,0.9,1.4,1.1c0.5,0.1,1,0.1,1.5,0c0.5-0.2,0.9-0.4,1.2-0.8c0.3-0.4,0.6-0.8,0.7-1.3
		c-1,0-1.9,0-2.9,0c0,0,0,0.1,0,0.1c0-0.1,0-0.3-0.1-0.4c0,0.1,0,0.1,0,0.2c0-0.1,0-0.3,0.1-0.4c0,0.1,0,0.1,0,0.2
		c0.1-0.1,0.1-0.2,0.2-0.4c0,0.1-0.1,0.1-0.1,0.2c0.1-0.1,0.2-0.2,0.2-0.3c0,0.1-0.1,0.1-0.1,0.2c0.1-0.1,0.2-0.2,0.3-0.2
		c-0.1,0.1-0.1,0.1-0.2,0.1c0.1-0.1,0.2-0.1,0.4-0.2c-0.1,0-0.1,0-0.2,0.1c0.1,0,0.3,0,0.4-0.1c0,0-0.1,0-0.1,0c0.1,0,0.3,0,0.4,0.1
		c-0.1,0-0.1,0-0.2,0c0.1,0.1,0.2,0.1,0.4,0.2c0,0-0.1,0-0.1-0.1c0.1,0.1,0.2,0.2,0.3,0.2c0,0-0.1-0.1-0.1-0.1
		c0.1,0.1,0.2,0.2,0.2,0.3c0,0-0.1-0.1-0.1-0.1c0.1,0.1,0.1,0.2,0.2,0.4c0-0.1,0-0.1,0-0.2c0,0.1,0,0.3,0.1,0.4c0-0.1,0-0.1,0-0.2
		c0,0.1,0,0.3-0.1,0.4c0-0.1,0-0.2,0.1-0.3c-0.1,0.1-0.1,0.2-0.2,0.4c0-0.1,0.1-0.1,0.1-0.2c-0.1,0.1-0.2,0.2-0.2,0.3
		c0-0.1,0.1-0.1,0.1-0.1c-0.1,0.1-0.2,0.2-0.3,0.2c0.1,0,0.1-0.1,0.2-0.1c-0.1,0.1-0.2,0.1-0.4,0.2c0,0,0.1,0,0.1,0
		c-0.1,0-0.3,0-0.4,0.1c0,0,0.1,0,0.1,0c-0.1,0-0.3,0-0.4-0.1c0,0,0.1,0,0.1,0c0.3,0.1,0.8,0,1.2-0.2c0.3-0.2,0.6-0.5,0.7-0.9
		c0.1-0.4,0.1-0.8-0.2-1.2C181.9,88.1,181.6,87.8,181.2,87.7L181.2,87.7z"/>
	<path d="M129.3,89.4c0,0-0.1,0-0.1,0c0.1,0,0.3,0,0.4-0.1C129.5,89.4,129.5,89.4,129.3,89.4c0.2,0,0.3,0,0.5,0
		c-0.1,0-0.1,0-0.2-0.1c0.1,0.1,0.2,0.1,0.4,0.2c-0.1,0-0.1-0.1-0.2-0.1c0.1,0.1,0.2,0.2,0.3,0.2c-0.1-0.1-0.1-0.1-0.2-0.2
		c0.1,0.1,0.2,0.2,0.2,0.3c-0.1-0.1-0.1-0.2-0.2-0.3c0.1,0.1,0.1,0.2,0.2,0.4c0-0.1-0.1-0.2-0.1-0.3c0,0.1,0,0.3,0.1,0.4
		c0-0.1,0-0.2,0-0.3c0,0.1,0,0.3-0.1,0.4c0-0.1,0-0.1,0.1-0.2c-0.1,0.1-0.1,0.2-0.2,0.4c0-0.1,0.1-0.1,0.1-0.2
		c-0.1,0.1-0.2,0.2-0.2,0.3c0-0.1,0.1-0.1,0.2-0.2c-0.1,0.1-0.2,0.2-0.3,0.2c0.1-0.1,0.1-0.1,0.2-0.1c-0.1,0.1-0.2,0.1-0.4,0.2
		c0.1,0,0.2-0.1,0.3-0.1c-0.1,0-0.3,0-0.4,0.1c0.1,0,0.2,0,0.2,0c-0.1,0-0.3,0-0.4-0.1c0.1,0,0.2,0,0.2,0.1
		c-0.1-0.1-0.2-0.1-0.4-0.2c0.1,0,0.1,0.1,0.2,0.1c-0.1-0.1-0.2-0.2-0.3-0.2c0,0,0.1,0.1,0.1,0.1c-0.1-0.1-0.2-0.2-0.2-0.3
		c0.1,0.1,0.2,0.3,0.3,0.4c-0.1-0.1-0.2-0.2-0.2-0.3c0.1,0.1,0.1,0.1,0.1,0.2c-0.1-0.1-0.1-0.2-0.2-0.4c0,0.1,0.1,0.2,0.1,0.3
		c0-0.1,0-0.3-0.1-0.4c0,0.1,0,0.2,0,0.4c0-0.1,0-0.3,0.1-0.4c0,0.1-0.1,0.3-0.1,0.4c0.1-0.1,0.1-0.2,0.2-0.4c0,0.1-0.1,0.2-0.2,0.3
		c0.1-0.1,0.2-0.2,0.2-0.3c-0.1,0.1-0.1,0.1-0.2,0.2c0.1-0.1,0.2-0.2,0.3-0.2c-0.1,0-0.1,0.1-0.2,0.1c0.1-0.1,0.2-0.1,0.4-0.2
		c-0.1,0-0.1,0-0.2,0.1c0.1,0,0.3,0,0.4-0.1c-0.1,0-0.2,0-0.2,0c0.1,0,0.3,0,0.4,0.1c-0.1,0-0.2,0-0.2-0.1c0.1,0.1,0.2,0.1,0.4,0.2
		c-0.1,0-0.2-0.1-0.3-0.1c0.1,0.1,0.2,0.2,0.3,0.2c-0.1-0.1-0.2-0.1-0.2-0.2c0.1,0.1,0.2,0.2,0.2,0.3c-0.1-0.1-0.1-0.2-0.2-0.3
		c0.1,0.1,0.1,0.2,0.2,0.4c0-0.1-0.1-0.2-0.1-0.3c0,0.1,0,0.3,0.1,0.4c0-0.1,0-0.2,0-0.3c0,0.1,0,0.3-0.1,0.4c0,0,0-0.1,0-0.1
		c-0.1,0.1-0.1,0.2-0.2,0.4c0-0.1,0.1-0.2,0.2-0.3c-0.1,0.1-0.2,0.2-0.2,0.3c0.1-0.1,0.1-0.1,0.2-0.2c-0.1,0.1-0.2,0.2-0.3,0.2
		c0.1-0.1,0.2-0.1,0.3-0.1c-0.1,0.1-0.2,0.1-0.4,0.2c0.1,0,0.2-0.1,0.3-0.1c-0.1,0-0.3,0-0.4,0.1c0.1,0,0.3,0,0.4,0
		c-0.1,0-0.3,0-0.4-0.1c0.2,0,0.3,0.1,0.5,0.1c-0.1-0.1-0.2-0.1-0.4-0.2c0.1,0.1,0.3,0.1,0.4,0.2c-0.1-0.1-0.2-0.2-0.3-0.2
		c0.1,0.1,0.2,0.2,0.3,0.3c-0.1-0.1-0.2-0.2-0.2-0.3c0.1,0.1,0.1,0.2,0.2,0.3c-0.1-0.1-0.1-0.2-0.2-0.4c0,0.1,0.1,0.2,0.1,0.3
		c0-0.1,0-0.3-0.1-0.4c0,0.1,0,0.2,0,0.3c0-0.1,0-0.3,0.1-0.4c0,0.1,0,0.2-0.1,0.3c0.1-0.1,0.1-0.2,0.2-0.4c0,0.1-0.1,0.2-0.2,0.3
		c0.1-0.1,0.2-0.2,0.2-0.3c-0.1,0.1-0.1,0.1-0.2,0.2c0.1-0.1,0.2-0.2,0.3-0.2c-0.1,0.1-0.2,0.1-0.3,0.2c0.1-0.1,0.2-0.1,0.4-0.2
		c-0.1,0.1-0.3,0.1-0.4,0.1c0.1,0,0.3,0,0.4-0.1c-0.2,0-0.3,0-0.5,0c0.1,0,0.3,0,0.4,0.1c-0.1,0-0.3-0.1-0.4-0.1
		c0.1,0.1,0.2,0.1,0.4,0.2c-0.1,0-0.2-0.1-0.3-0.2c0.1,0.1,0.2,0.2,0.3,0.2c-0.1-0.1-0.1-0.1-0.2-0.2c0.1,0.1,0.2,0.2,0.2,0.3
		c-0.1-0.1-0.1-0.2-0.1-0.2c0.1,0.1,0.1,0.2,0.2,0.4c0-0.1-0.1-0.2-0.1-0.3c0,0.1,0,0.3,0.1,0.4c0,0,0,0,0-0.1
		c-0.1,0.4-0.3,0.7-0.4,1.1c0.1-0.1,0.2-0.2,0.3-0.3c-0.1,0.1-0.2,0.2-0.3,0.2c0.2-0.1,0.4-0.3,0.6-0.3c-0.1,0.1-0.2,0.1-0.4,0.2
		c0.2-0.1,0.4-0.2,0.7-0.2c-0.1,0-0.3,0-0.4,0.1c0.2,0,0.4,0,0.7,0c-0.1,0-0.3,0-0.4-0.1c0.2,0,0.4,0.1,0.6,0.2
		c-0.1-0.1-0.2-0.1-0.4-0.2c0,0,0,0,0,0c0.2,0.1,0.4,0.2,0.6,0.2c0.2,0,0.4,0,0.6,0c0.3-0.1,0.7-0.4,0.9-0.7
		c0.2-0.3,0.3-0.8,0.2-1.2c-0.1-0.3-0.3-0.7-0.7-0.9c-0.3-0.1-0.6-0.2-0.8-0.3c-0.3-0.1-0.6-0.1-0.9-0.1c-0.6,0-1.2,0.2-1.8,0.4
		c-0.2,0.1-0.3,0.2-0.5,0.3c-0.3,0.2-0.7,0.5-0.9,0.9c-0.2,0.4-0.2,0.8-0.1,1.3c0,0.1,0,0.1,0,0.2c0.1,0.2,0.2,0.5,0.3,0.7
		c0.3,0.4,0.6,0.7,1,0.9c0.5,0.2,0.9,0.3,1.4,0.4c0.2,0,0.4,0,0.5,0c0.2,0,0.4,0,0.5-0.1c0.4-0.2,0.9-0.4,1.2-0.7
		c0.2-0.2,0.3-0.4,0.4-0.6c0.1-0.2,0.2-0.4,0.3-0.7c0-0.2,0.1-0.5,0.1-0.8c0-0.2,0-0.5-0.1-0.7c-0.2-0.4-0.4-0.9-0.8-1.2
		c-0.4-0.3-0.8-0.6-1.3-0.7c-0.2-0.1-0.5-0.1-0.7-0.1c-0.1,0-0.2,0-0.4,0c-0.2,0-0.5,0-0.7,0.1c-0.2,0.1-0.4,0.2-0.6,0.3
		c-0.2,0.1-0.4,0.3-0.5,0.4c-0.3,0.3-0.4,0.5-0.6,0.9c-0.2,0.4-0.1,0.8,0,1.2c0,0.1,0,0.2,0.1,0.2c0.1,0.2,0.1,0.4,0.3,0.6
		c0.4,0.6,0.9,1.1,1.6,1.2c0.4,0.1,0.8,0.1,1.2,0c0.4-0.1,0.7-0.3,1-0.5c0.2-0.2,0.4-0.4,0.5-0.6c0.1-0.2,0.2-0.5,0.3-0.7
		c0.1-0.3,0.1-0.6,0.1-0.8c0-0.3,0-0.6-0.1-0.8c-0.1-0.4-0.3-0.7-0.6-1c0.1,0.1,0.2,0.2,0.2,0.3c-0.2-0.3-0.5-0.6-0.8-0.8
		c-0.4-0.2-0.7-0.3-1.1-0.3c-0.3,0-0.5,0-0.8,0.1c-0.2,0-0.4,0.1-0.5,0.2c-0.1,0-0.1,0.1-0.2,0.1c-0.3,0.2-0.6,0.5-0.8,0.8
		c-0.2,0.4-0.3,0.7-0.3,1.2c0,0.4,0.1,0.7,0.2,1c0.1,0.3,0.3,0.6,0.6,0.8c0.3,0.3,0.7,0.5,1.1,0.6c0,0,0.1,0,0.1,0
		c0.2,0,0.3,0.1,0.5,0.1c0.1,0,0.2,0,0.3,0c0.1,0,0.2,0,0.3-0.1c0.4-0.1,0.7-0.3,0.9-0.7c0.2-0.3,0.3-0.8,0.2-1.2
		c-0.1-0.4-0.3-0.7-0.7-0.9C130.1,89.4,129.7,89.3,129.3,89.4L129.3,89.4z"/>
	<path d="M185.5,60.5c-10.3,2.2-20,6.8-28.3,13.1c-0.6,0.5-1,1.3-0.5,2c0.4,0.6,1.4,1,2,0.5c8.2-6.2,17.6-10.7,27.6-12.8
		C188.1,63,187.4,60.1,185.5,60.5L185.5,60.5z"/>
	<path d="M140.7,72.8c-9.7-9.3-22.6-14.9-36.1-15.2c-1.9,0-1.9,3,0,3c12.7,0.2,24.8,5.6,34,14.3C140,76.3,142.1,74.2,140.7,72.8
		L140.7,72.8z"/>
	<path d="M161.5,115.1c-8.6-7.4-20.8-10-31.6-6c-1.8,0.7-1,3.6,0.8,2.9c9.7-3.7,20.8-1.6,28.6,5.2
		C160.9,118.4,163,116.3,161.5,115.1L161.5,115.1z"/>
	<path d="M188.9,101.5c-9.9-6.1-22.5-6.5-32.7-1c-0.8,0.5-0.1,1.7,0.8,1.3c9.8-5.2,21.8-4.8,31.2,1C189,103.3,189.7,102,188.9,101.5
		L188.9,101.5z"/>
	<path d="M135.3,100.8c-8.6-6.1-19.7-7.8-29.7-4.4c-0.9,0.3-0.5,1.8,0.4,1.4c9.6-3.3,20.3-1.6,28.5,4.2
		C135.4,102.7,136.1,101.4,135.3,100.8L135.3,100.8z"/>
	<path d="M121.7,104.1c-2.5,4.7-1.6,11.2,2.5,14.7c0.7,0.6,1.8-0.4,1.1-1.1c-3.6-3.1-4.5-8.8-2.3-12.9
		C123.5,104,122.2,103.2,121.7,104.1L121.7,104.1z"/>
	<g>
		<path d="M463.4,199.3c-1.4-1-2.8-1.9-4.5-2.1c-1.3-0.1-2.7,0.2-3.9,0.8c-2.5,1.4-3.7,4.3-2.9,7c1,3.3,4.2,4.1,7.3,4.5
			c1.6,0.2,3.7,0.5,4.8,1.9c0.9,1.2,0.7,2.7-0.8,3.3c-1.4,0.6-3.2,0.8-4.6,0.7c-1.4,0-2.9-0.4-3.5-1.8c-0.5-1-2-0.1-1.5,0.9
			c1.1,2.6,4.4,2.9,6.9,2.6c2.6-0.3,6.3-1.2,5.9-4.6c-0.4-3.6-4.3-4.4-7.2-4.8c-1.7-0.2-3.6-0.5-4.7-1.9c-0.9-1.1-1.1-2.6-0.7-4
			c0.5-1.6,1.9-2.6,3.5-2.9c2-0.4,3.6,0.6,5.2,1.8C463.4,201.5,464.3,199.9,463.4,199.3L463.4,199.3z"/>
		<path d="M457.7,192.2c0.6,9.6,1.6,19.1,3.1,28.6c0.2,1.1,1.9,0.6,1.7-0.5c-1.5-9.3-2.5-18.7-3.1-28.1
			C459.4,191.1,457.6,191,457.7,192.2L457.7,192.2z"/>
		<path d="M477.6,200.3c-0.2-2.7-3.5-2.6-5.3-1.8c-2.2,1-4,3-4.9,5.3c-0.9,2.3-1,4.9,0,7.1c1,2.1,2.9,3.6,5,4.4
			c2.4,0.9,5.2,0.7,7.4-0.7c0.9-0.6,0-2.2-0.9-1.5c-2.9,2-7.1,1-9.1-1.7c-2.4-3.1-1.1-7.6,1.6-10c0.7-0.7,1.6-1.3,2.6-1.5
			c0.4-0.1,1.9-0.3,2,0.5C475.9,201.4,477.7,201.4,477.6,200.3L477.6,200.3z"/>
		<path d="M484.1,200.5c0.6,4.6,1.3,9.2,1.9,13.7c0.1,0.5,0.7,0.7,1.1,0.6c0.5-0.1,0.7-0.6,0.6-1.1c-0.6-4.6-1.3-9.2-1.9-13.7
			c-0.1-0.5-0.7-0.7-1.1-0.6C484.2,199.5,484,200,484.1,200.5L484.1,200.5z"/>
		<path d="M480.4,201.1c3.6,0,7.3,0,10.9,0c1.1,0,1.1-1.8,0-1.8c-3.6,0-7.3,0-10.9,0C479.2,199.4,479.2,201.1,480.4,201.1
			L480.4,201.1z"/>
		<path d="M494,208.6c0.1,1,0.3,2.1,1,2.9c0.6,0.8,1.4,1.4,2.2,1.9c1.4,0.8,3.1,1.2,4.8,1.1c3-0.2,6-2,7.2-4.9
			c1.4-3.2,0.2-7-2.4-9.3c-2.3-2.1-5.6-2.3-8.3-0.8C495.4,201.4,493.6,205,494,208.6c0.1,1.1,1.9,1.1,1.8,0
			c-0.2-2.6,0.7-5.1,2.7-6.8c1.7-1.5,4.1-2,6.1-0.9c2.2,1.3,3.9,4.3,3.4,6.8c-0.5,2.4-2.4,4.1-4.7,4.7c-1.4,0.4-2.8,0.3-4.2-0.2
			c-0.8-0.3-1.5-0.7-2.1-1.2c-0.8-0.7-1.1-1.5-1.2-2.5C495.6,207.5,493.8,207.5,494,208.6z"/>
	</g>
</g>
</svg>
