<?xml version="1.0" encoding="utf-8"?>
<!-- Generator: Adobe Illustrator 27.9.4, SVG Export Plug-In . SVG Version: 9.03 Build 54784)  -->
<svg version="1.1" id="Calque_1" xmlns="http://www.w3.org/2000/svg" xmlns:xlink="http://www.w3.org/1999/xlink" x="0px" y="0px"
	 viewBox="0 0 66.1 62.1" style="enable-background:new 0 0 66.1 62.1;" xml:space="preserve">
<path d="M52.8,6.1c1.4-0.1,3.4-0.4,4.6,0.5c1.4,1.1,1.3,3.9,1.4,5.4c0.5,5,1,10,1.5,15c0.4,5,0.8,10,1.2,15c0.2,2.6,0.3,5.2,0.5,7.7
	c0.1,1.9,0.7,4.5-0.3,6.2c-0.7,1.3-2.4,1.7-3.8,1.9c-1.9,0.2-3.9,0.1-5.8,0.1c-5,0-10,0.1-15,0.1c-5.1,0-10.2,0.1-15.2,0.1
	c-2.5,0-5,0-7.5,0c-1.6,0-3.4,0.1-4.9-0.6c-2.8-1.1-2.3-4.6-2.6-7.1c-0.2-2.4-0.5-4.7-0.8-7c-0.8-5.9-1.5-11.8-1.9-17.8
	C3.9,22.8,3.9,19.9,4,17c0.1-2.5,0.3-4.5,1-6.9c0.1-0.5,0.3-1,0.5-1.4C5.4,9,5.6,8.5,5.7,8.3c0.1-0.2,0.2-0.5,0.4-0.7
	c0.1-0.2,0.2-0.3,0.3-0.5c0.3-0.5-0.1,0.1,0.2-0.2C6.7,6.7,6.9,6.6,7,6.4c0.1-0.1,0.1-0.1,0.2-0.2c0.3-0.2-0.2,0.1,0,0
	C7.6,6,8,5.7,8.4,5.5c0.1,0,0.7-0.3,0.3-0.2C9,5.3,9.3,5.2,9.6,5.1c1.1-0.4,2.3-0.6,3.5-0.8c5.7-0.8,12.3-0.2,18.3,0.4
	c6.1,0.6,12.1,1.4,18.2,1.5C50.7,6.2,51.8,6.2,52.8,6.1c1.1-0.1,2-0.8,2-2c0-1-0.9-2-2-2c-5.9,0.5-12-0.5-17.9-1.1
	c-6.8-0.7-13.7-1.5-20.5-0.9C9.7,0.6,4.5,1.8,2.2,6.6c-2.3,5-2.3,11-2.1,16.4c0.2,6.4,1,12.8,1.9,19.2c0.3,2.6,0.7,5.1,0.9,7.7
	c0.3,3.3,0,7.1,2.5,9.6c3,3.1,8,2.5,12,2.5c5.3,0,10.6-0.1,15.9-0.1c5.4,0,10.9-0.1,16.3-0.1c2.4,0,4.9,0.1,7.3-0.1
	c1.9-0.1,3.9-0.4,5.6-1.3c4.7-2.6,3.6-8.3,3.4-12.7c-0.3-5.4-0.7-10.7-1.2-16.1c-0.4-5.3-0.9-10.6-1.5-15.8
	c-0.3-2.6-0.4-5.3-0.9-7.9c-0.4-2.2-1.5-4.1-3.6-5.1C56.9,2,54.8,2,52.8,2.2c-1.1,0.1-2,0.8-2,2C50.9,5.1,51.8,6.2,52.8,6.1z"/>
<path d="M49.1,49.5c-1.3,0-2.5-0.6-3.4-1.3l-12-10.4c-3.3,3.7-6.6,7.3-10,10.6c-1.6,1.6-3.8,1.1-5-0.1c-1.2-1.3-1.6-3.4,0-5
	c3.3-3.2,6.5-6.7,9.6-10.2L15.4,21.9c-0.9-0.7-1.4-1.8-1.4-3c-0.1-1.3,0.4-2.7,1.3-3.7c1.9-2,4.8-1.7,6.6-0.1l12.3,10.7
	c2.7-3.4,5.3-6.9,7.7-10.4c1.1-1.7,3.2-2.2,4.8-1.2c0.8,0.5,1.5,1.4,1.7,2.4c0.2,0.9,0,1.9-0.5,2.6c-2.6,3.8-5.5,7.6-8.4,11.3
	l9.4,8.2c1.8,0.3,3.4,1.6,3.9,3.4l0.4,1.4c0.6,2-0.3,4.1-2.1,5.3C50.6,49.3,49.8,49.5,49.1,49.5z M33.4,34.1l14,12.1
	c0.7,0.6,1.8,1,2.6,0.4c0.7-0.5,1.3-1.4,1-2.4l0,0l-0.4-1.4c-0.3-0.9-1.1-1.6-2-1.6l-0.5,0l-12-10.4l0.8-1c3.2-4,6.3-8.1,9.1-12.2
	c0.1-0.2,0.1-0.4,0.1-0.6c-0.1-0.3-0.3-0.6-0.5-0.7c-0.6-0.4-1.2,0.1-1.4,0.4c-2.7,3.9-5.6,7.8-8.7,11.7l-0.8,1L20.3,17.1
	c-0.8-0.7-2.2-1-3-0.1c-0.4,0.5-0.7,1.2-0.6,1.8c0,0.3,0.1,0.8,0.5,1.2l14.8,12.8l-0.9,1c-3.4,4-7,7.8-10.6,11.4
	c-0.6,0.6-0.2,1.1,0,1.3c0.2,0.2,0.7,0.7,1.4,0.1c3.6-3.6,7.2-7.4,10.7-11.4L33.4,34.1z"/>
</svg>
